<?xml version="1.0" encoding="UTF-8"?>
<svg xmlns="http://www.w3.org/2000/svg" xmlns:xlink="http://www.w3.org/1999/xlink" width="369" height="14" viewBox="0 0 369 14">
<path fill="none" stroke-width="14" stroke-linecap="round" stroke-linejoin="round" stroke="rgb(0%, 0%, 0%)" stroke-opacity="1" stroke-miterlimit="10" d="M 178.320312 136.679688 L 3511.640625 136.679688 " transform="matrix(0.1, 0, 0, -0.1, 0, 14)"/>
<path fill="none" stroke-width="14" stroke-linecap="round" stroke-linejoin="round" stroke="rgb(0%, 0%, 0%)" stroke-opacity="1" stroke-miterlimit="10" d="M 178.320312 103.320312 L 1289.453125 103.320312 " transform="matrix(0.1, 0, 0, -0.1, 0, 14)"/>
<path fill="none" stroke-width="14" stroke-linecap="round" stroke-linejoin="round" stroke="rgb(0%, 0%, 0%)" stroke-opacity="1" stroke-miterlimit="10" d="M 2400.546875 103.320312 L 3511.640625 103.320312 " transform="matrix(0.1, 0, 0, -0.1, 0, 14)"/>
<path fill="none" stroke-width="14" stroke-linecap="round" stroke-linejoin="round" stroke="rgb(0%, 0%, 0%)" stroke-opacity="1" stroke-miterlimit="10" d="M 178.320312 70 L 548.710938 70 " transform="matrix(0.1, 0, 0, -0.1, 0, 14)"/>
<path fill="none" stroke-width="14" stroke-linecap="round" stroke-linejoin="round" stroke="rgb(0%, 0%, 0%)" stroke-opacity="1" stroke-miterlimit="10" d="M 919.0625 70 L 1289.453125 70 " transform="matrix(0.1, 0, 0, -0.1, 0, 14)"/>
<path fill="none" stroke-width="14" stroke-linecap="round" stroke-linejoin="round" stroke="rgb(0%, 0%, 0%)" stroke-opacity="1" stroke-miterlimit="10" d="M 2400.546875 70 L 2770.9375 70 " transform="matrix(0.1, 0, 0, -0.1, 0, 14)"/>
<path fill="none" stroke-width="14" stroke-linecap="round" stroke-linejoin="round" stroke="rgb(0%, 0%, 0%)" stroke-opacity="1" stroke-miterlimit="10" d="M 3141.289062 70 L 3511.640625 70 " transform="matrix(0.1, 0, 0, -0.1, 0, 14)"/>
<path fill="none" stroke-width="14" stroke-linecap="round" stroke-linejoin="round" stroke="rgb(0%, 0%, 0%)" stroke-opacity="1" stroke-miterlimit="10" d="M 178.320312 36.679688 L 301.796875 36.679688 " transform="matrix(0.1, 0, 0, -0.1, 0, 14)"/>
<path fill="none" stroke-width="14" stroke-linecap="round" stroke-linejoin="round" stroke="rgb(0%, 0%, 0%)" stroke-opacity="1" stroke-miterlimit="10" d="M 425.273438 36.679688 L 548.710938 36.679688 " transform="matrix(0.1, 0, 0, -0.1, 0, 14)"/>
<path fill="none" stroke-width="14" stroke-linecap="round" stroke-linejoin="round" stroke="rgb(0%, 0%, 0%)" stroke-opacity="1" stroke-miterlimit="10" d="M 919.0625 36.679688 L 1042.539062 36.679688 " transform="matrix(0.1, 0, 0, -0.1, 0, 14)"/>
<path fill="none" stroke-width="14" stroke-linecap="round" stroke-linejoin="round" stroke="rgb(0%, 0%, 0%)" stroke-opacity="1" stroke-miterlimit="10" d="M 1166.015625 36.679688 L 1289.453125 36.679688 " transform="matrix(0.1, 0, 0, -0.1, 0, 14)"/>
<path fill="none" stroke-width="14" stroke-linecap="round" stroke-linejoin="round" stroke="rgb(0%, 0%, 0%)" stroke-opacity="1" stroke-miterlimit="10" d="M 2400.546875 36.679688 L 2523.984375 36.679688 " transform="matrix(0.1, 0, 0, -0.1, 0, 14)"/>
<path fill="none" stroke-width="14" stroke-linecap="round" stroke-linejoin="round" stroke="rgb(0%, 0%, 0%)" stroke-opacity="1" stroke-miterlimit="10" d="M 2647.460938 36.679688 L 2770.9375 36.679688 " transform="matrix(0.1, 0, 0, -0.1, 0, 14)"/>
<path fill="none" stroke-width="14" stroke-linecap="round" stroke-linejoin="round" stroke="rgb(0%, 0%, 0%)" stroke-opacity="1" stroke-miterlimit="10" d="M 3141.289062 36.679688 L 3264.726562 36.679688 " transform="matrix(0.1, 0, 0, -0.1, 0, 14)"/>
<path fill="none" stroke-width="14" stroke-linecap="round" stroke-linejoin="round" stroke="rgb(0%, 0%, 0%)" stroke-opacity="1" stroke-miterlimit="10" d="M 3388.203125 36.679688 L 3511.640625 36.679688 " transform="matrix(0.1, 0, 0, -0.1, 0, 14)"/>
<path fill="none" stroke-width="14" stroke-linecap="round" stroke-linejoin="round" stroke="rgb(0%, 0%, 0%)" stroke-opacity="1" stroke-miterlimit="10" d="M 178.320312 3.320312 L 219.492188 3.320312 " transform="matrix(0.1, 0, 0, -0.1, 0, 14)"/>
<path fill="none" stroke-width="14" stroke-linecap="round" stroke-linejoin="round" stroke="rgb(0%, 0%, 0%)" stroke-opacity="1" stroke-miterlimit="10" d="M 260.664062 3.320312 L 301.796875 3.320312 " transform="matrix(0.1, 0, 0, -0.1, 0, 14)"/>
<path fill="none" stroke-width="14" stroke-linecap="round" stroke-linejoin="round" stroke="rgb(0%, 0%, 0%)" stroke-opacity="1" stroke-miterlimit="10" d="M 425.273438 3.320312 L 466.40625 3.320312 " transform="matrix(0.1, 0, 0, -0.1, 0, 14)"/>
<path fill="none" stroke-width="14" stroke-linecap="round" stroke-linejoin="round" stroke="rgb(0%, 0%, 0%)" stroke-opacity="1" stroke-miterlimit="10" d="M 507.539062 3.320312 L 548.710938 3.320312 " transform="matrix(0.1, 0, 0, -0.1, 0, 14)"/>
<path fill="none" stroke-width="14" stroke-linecap="round" stroke-linejoin="round" stroke="rgb(0%, 0%, 0%)" stroke-opacity="1" stroke-miterlimit="10" d="M 919.0625 3.320312 L 960.234375 3.320312 " transform="matrix(0.1, 0, 0, -0.1, 0, 14)"/>
<path fill="none" stroke-width="14" stroke-linecap="round" stroke-linejoin="round" stroke="rgb(0%, 0%, 0%)" stroke-opacity="1" stroke-miterlimit="10" d="M 1001.40625 3.320312 L 1042.539062 3.320312 " transform="matrix(0.1, 0, 0, -0.1, 0, 14)"/>
<path fill="none" stroke-width="14" stroke-linecap="round" stroke-linejoin="round" stroke="rgb(0%, 0%, 0%)" stroke-opacity="1" stroke-miterlimit="10" d="M 1166.015625 3.320312 L 1207.148438 3.320312 " transform="matrix(0.1, 0, 0, -0.1, 0, 14)"/>
<path fill="none" stroke-width="14" stroke-linecap="round" stroke-linejoin="round" stroke="rgb(0%, 0%, 0%)" stroke-opacity="1" stroke-miterlimit="10" d="M 1248.28125 3.320312 L 1289.453125 3.320312 " transform="matrix(0.1, 0, 0, -0.1, 0, 14)"/>
<path fill="none" stroke-width="14" stroke-linecap="round" stroke-linejoin="round" stroke="rgb(0%, 0%, 0%)" stroke-opacity="1" stroke-miterlimit="10" d="M 2400.546875 3.320312 L 2441.71875 3.320312 " transform="matrix(0.1, 0, 0, -0.1, 0, 14)"/>
<path fill="none" stroke-width="14" stroke-linecap="round" stroke-linejoin="round" stroke="rgb(0%, 0%, 0%)" stroke-opacity="1" stroke-miterlimit="10" d="M 2482.890625 3.320312 L 2523.984375 3.320312 " transform="matrix(0.1, 0, 0, -0.1, 0, 14)"/>
<path fill="none" stroke-width="14" stroke-linecap="round" stroke-linejoin="round" stroke="rgb(0%, 0%, 0%)" stroke-opacity="1" stroke-miterlimit="10" d="M 2647.460938 3.320312 L 2688.59375 3.320312 " transform="matrix(0.1, 0, 0, -0.1, 0, 14)"/>
<path fill="none" stroke-width="14" stroke-linecap="round" stroke-linejoin="round" stroke="rgb(0%, 0%, 0%)" stroke-opacity="1" stroke-miterlimit="10" d="M 2729.765625 3.320312 L 2770.9375 3.320312 " transform="matrix(0.1, 0, 0, -0.1, 0, 14)"/>
<path fill="none" stroke-width="14" stroke-linecap="round" stroke-linejoin="round" stroke="rgb(0%, 0%, 0%)" stroke-opacity="1" stroke-miterlimit="10" d="M 3141.289062 3.320312 L 3182.460938 3.320312 " transform="matrix(0.1, 0, 0, -0.1, 0, 14)"/>
<path fill="none" stroke-width="14" stroke-linecap="round" stroke-linejoin="round" stroke="rgb(0%, 0%, 0%)" stroke-opacity="1" stroke-miterlimit="10" d="M 3223.59375 3.320312 L 3264.726562 3.320312 " transform="matrix(0.1, 0, 0, -0.1, 0, 14)"/>
<path fill="none" stroke-width="14" stroke-linecap="round" stroke-linejoin="round" stroke="rgb(0%, 0%, 0%)" stroke-opacity="1" stroke-miterlimit="10" d="M 3388.203125 3.320312 L 3429.335938 3.320312 " transform="matrix(0.1, 0, 0, -0.1, 0, 14)"/>
<path fill="none" stroke-width="14" stroke-linecap="round" stroke-linejoin="round" stroke="rgb(0%, 0%, 0%)" stroke-opacity="1" stroke-miterlimit="10" d="M 3470.507812 3.320312 L 3511.640625 3.320312 " transform="matrix(0.1, 0, 0, -0.1, 0, 14)"/>
</svg>
