<?xml version="1.0" encoding="UTF-8"?>
<svg xmlns="http://www.w3.org/2000/svg" xmlns:xlink="http://www.w3.org/1999/xlink" width="230.38" height="137.69" viewBox="0 0 230.38 137.69">
<defs>
<clipPath id="clip-0">
<path clip-rule="nonzero" d="M 40 0.03125 L 45 0.03125 L 45 81 L 40 81 Z M 40 0.03125 "/>
</clipPath>
<clipPath id="clip-1">
<path clip-rule="nonzero" d="M 40 0.03125 L 190 0.03125 L 190 1 L 40 1 Z M 40 0.03125 "/>
</clipPath>
<clipPath id="clip-2">
<path clip-rule="nonzero" d="M 184 0.03125 L 190 0.03125 L 190 81 L 184 81 Z M 184 0.03125 "/>
</clipPath>
<clipPath id="clip-3">
<path clip-rule="nonzero" d="M 9 137 L 221 137 L 221 137.351562 L 9 137.351562 Z M 9 137 "/>
</clipPath>
<clipPath id="clip-4">
<path clip-rule="nonzero" d="M 220 18 L 229.761719 18 L 229.761719 137.351562 L 220 137.351562 Z M 220 18 "/>
</clipPath>
<clipPath id="clip-5">
<path clip-rule="nonzero" d="M 0 18 L 229.761719 18 L 229.761719 19 L 0 19 Z M 0 18 "/>
</clipPath>
<clipPath id="clip-6">
<path clip-rule="nonzero" d="M 0 18 L 10 18 L 10 137.351562 L 0 137.351562 Z M 0 18 "/>
</clipPath>
<clipPath id="clip-7">
<path clip-rule="nonzero" d="M 40 0.03125 L 45 0.03125 L 45 81 L 40 81 Z M 40 0.03125 "/>
</clipPath>
<clipPath id="clip-8">
<path clip-rule="nonzero" d="M 0 0.03125 L 41 0.03125 L 41 19 L 0 19 Z M 0 0.03125 "/>
</clipPath>
<clipPath id="clip-9">
<path clip-rule="nonzero" d="M 0 18 L 10 18 L 10 137.351562 L 0 137.351562 Z M 0 18 "/>
</clipPath>
<clipPath id="clip-10">
<path clip-rule="nonzero" d="M 9 79 L 45 79 L 45 137.351562 L 9 137.351562 Z M 9 79 "/>
</clipPath>
<clipPath id="clip-11">
<path clip-rule="nonzero" d="M 184 79 L 221 79 L 221 137.351562 L 184 137.351562 Z M 184 79 "/>
</clipPath>
<clipPath id="clip-12">
<path clip-rule="nonzero" d="M 220 18 L 229.761719 18 L 229.761719 137.351562 L 220 137.351562 Z M 220 18 "/>
</clipPath>
<clipPath id="clip-13">
<path clip-rule="nonzero" d="M 188 0.03125 L 229.761719 0.03125 L 229.761719 19 L 188 19 Z M 188 0.03125 "/>
</clipPath>
<clipPath id="clip-14">
<path clip-rule="nonzero" d="M 184 0.03125 L 190 0.03125 L 190 81 L 184 81 Z M 184 0.03125 "/>
</clipPath>
<clipPath id="clip-15">
<path clip-rule="nonzero" d="M 9 137 L 221 137 L 221 137.351562 L 9 137.351562 Z M 9 137 "/>
</clipPath>
<clipPath id="clip-16">
<path clip-rule="nonzero" d="M 220 18 L 229.761719 18 L 229.761719 137.351562 L 220 137.351562 Z M 220 18 "/>
</clipPath>
<clipPath id="clip-17">
<path clip-rule="nonzero" d="M 0 18 L 229.761719 18 L 229.761719 19 L 0 19 Z M 0 18 "/>
</clipPath>
<clipPath id="clip-18">
<path clip-rule="nonzero" d="M 0 18 L 10 18 L 10 137.351562 L 0 137.351562 Z M 0 18 "/>
</clipPath>
</defs>
<g clip-path="url(#clip-0)">
<path fill="none" stroke-width="2.5" stroke-linecap="round" stroke-linejoin="round" stroke="rgb(0%, 0%, 0%)" stroke-opacity="1" stroke-miterlimit="10" d="M 449.056823 574.344779 L 409.223348 1376.88942 " transform="matrix(0.0997316, 0, 0, -0.0997316, 0.000000000000004774, 137.350637)"/>
</g>
<g clip-path="url(#clip-1)">
<path fill="none" stroke-width="2.5" stroke-linecap="round" stroke-linejoin="round" stroke="rgb(0%, 0%, 0%)" stroke-opacity="1" stroke-miterlimit="10" d="M 409.223348 1376.88942 L 1894.498865 1376.88942 " transform="matrix(0.0997316, 0, 0, -0.0997316, 0.000000000000004774, 137.350637)"/>
</g>
<g clip-path="url(#clip-2)">
<path fill="none" stroke-width="2.5" stroke-linecap="round" stroke-linejoin="round" stroke="rgb(0%, 0%, 0%)" stroke-opacity="1" stroke-miterlimit="10" d="M 1894.498865 1376.88942 L 1854.66539 574.344779 " transform="matrix(0.0997316, 0, 0, -0.0997316, 0.000000000000004774, 137.350637)"/>
</g>
<path fill="none" stroke-width="2.5" stroke-linecap="round" stroke-linejoin="round" stroke="rgb(0%, 0%, 0%)" stroke-opacity="1" stroke-miterlimit="10" d="M 1854.66539 574.344779 L 449.056823 574.344779 " transform="matrix(0.0997316, 0, 0, -0.0997316, 0.000000000000004774, 137.350637)"/>
<g clip-path="url(#clip-3)">
<path fill="none" stroke-width="2.5" stroke-linecap="round" stroke-linejoin="round" stroke="rgb(0%, 0%, 0%)" stroke-opacity="1" stroke-miterlimit="10" d="M 93.297283 -0.00927761 L 2210.464097 -0.00927761 " transform="matrix(0.0997316, 0, 0, -0.0997316, 0.000000000000004774, 137.350637)"/>
</g>
<g clip-path="url(#clip-4)">
<path fill="none" stroke-width="2.5" stroke-linecap="round" stroke-linejoin="round" stroke="rgb(0%, 0%, 0%)" stroke-opacity="1" stroke-miterlimit="10" d="M 2210.464097 -0.00927761 L 2303.487207 1193.97661 " transform="matrix(0.0997316, 0, 0, -0.0997316, 0.000000000000004774, 137.350637)"/>
</g>
<g clip-path="url(#clip-5)">
<path fill="none" stroke-width="2.5" stroke-linecap="round" stroke-linejoin="round" stroke="rgb(0%, 0%, 0%)" stroke-opacity="1" stroke-miterlimit="10" d="M 2303.487207 1193.97661 L 0.274173 1193.97661 " transform="matrix(0.0997316, 0, 0, -0.0997316, 0.000000000000004774, 137.350637)"/>
</g>
<g clip-path="url(#clip-6)">
<path fill="none" stroke-width="2.5" stroke-linecap="round" stroke-linejoin="round" stroke="rgb(0%, 0%, 0%)" stroke-opacity="1" stroke-miterlimit="10" d="M 0.274173 1193.97661 L 93.297283 -0.00927761 " transform="matrix(0.0997316, 0, 0, -0.0997316, 0.000000000000004774, 137.350637)"/>
</g>
<g clip-path="url(#clip-7)">
<path fill="none" stroke-width="2.5" stroke-linecap="round" stroke-linejoin="round" stroke="rgb(0%, 0%, 0%)" stroke-opacity="1" stroke-miterlimit="10" d="M 449.056823 574.344779 L 409.223348 1376.88942 " transform="matrix(0.0997316, 0, 0, -0.0997316, 0.000000000000004774, 137.350637)"/>
</g>
<g clip-path="url(#clip-8)">
<path fill="none" stroke-width="2.5" stroke-linecap="round" stroke-linejoin="round" stroke="rgb(0%, 0%, 0%)" stroke-opacity="1" stroke-miterlimit="10" d="M 409.223348 1376.88942 L 0.274173 1193.97661 " transform="matrix(0.0997316, 0, 0, -0.0997316, 0.000000000000004774, 137.350637)"/>
</g>
<g clip-path="url(#clip-9)">
<path fill="none" stroke-width="2.5" stroke-linecap="round" stroke-linejoin="round" stroke="rgb(0%, 0%, 0%)" stroke-opacity="1" stroke-miterlimit="10" d="M 0.274173 1193.97661 L 93.297283 -0.00927761 " transform="matrix(0.0997316, 0, 0, -0.0997316, 0.000000000000004774, 137.350637)"/>
</g>
<g clip-path="url(#clip-10)">
<path fill="none" stroke-width="2.5" stroke-linecap="round" stroke-linejoin="round" stroke="rgb(0%, 0%, 0%)" stroke-opacity="1" stroke-miterlimit="10" d="M 93.297283 -0.00927761 L 449.056823 574.344779 " transform="matrix(0.0997316, 0, 0, -0.0997316, 0.000000000000004774, 137.350637)"/>
</g>
<g clip-path="url(#clip-11)">
<path fill="none" stroke-width="2.5" stroke-linecap="round" stroke-linejoin="round" stroke="rgb(0%, 0%, 0%)" stroke-opacity="1" stroke-miterlimit="10" d="M 1854.66539 574.344779 L 2210.464097 -0.00927761 " transform="matrix(0.0997316, 0, 0, -0.0997316, 0.000000000000004774, 137.350637)"/>
</g>
<g clip-path="url(#clip-12)">
<path fill="none" stroke-width="2.5" stroke-linecap="round" stroke-linejoin="round" stroke="rgb(0%, 0%, 0%)" stroke-opacity="1" stroke-miterlimit="10" d="M 2210.464097 -0.00927761 L 2303.487207 1193.97661 " transform="matrix(0.0997316, 0, 0, -0.0997316, 0.000000000000004774, 137.350637)"/>
</g>
<g clip-path="url(#clip-13)">
<path fill="none" stroke-width="2.5" stroke-linecap="round" stroke-linejoin="round" stroke="rgb(0%, 0%, 0%)" stroke-opacity="1" stroke-miterlimit="10" d="M 2303.487207 1193.97661 L 1894.498865 1376.88942 " transform="matrix(0.0997316, 0, 0, -0.0997316, 0.000000000000004774, 137.350637)"/>
</g>
<g clip-path="url(#clip-14)">
<path fill="none" stroke-width="2.5" stroke-linecap="round" stroke-linejoin="round" stroke="rgb(0%, 0%, 0%)" stroke-opacity="1" stroke-miterlimit="10" d="M 1894.498865 1376.88942 L 1854.66539 574.344779 " transform="matrix(0.0997316, 0, 0, -0.0997316, 0.000000000000004774, 137.350637)"/>
</g>
<path fill="none" stroke-width="5" stroke-linecap="round" stroke-linejoin="round" stroke="rgb(0%, 0%, 0%)" stroke-opacity="1" stroke-miterlimit="10" d="M 1152.820713 1259.739053 L 1009.741378 1268.395098 " transform="matrix(0.0997316, 0, 0, -0.0997316, 0.000000000000004774, 137.350637)"/>
<path fill="none" stroke-width="5" stroke-linecap="round" stroke-linejoin="round" stroke="rgb(0%, 0%, 0%)" stroke-opacity="1" stroke-miterlimit="10" d="M 1294.255008 1247.832095 L 1152.820713 1259.739053 " transform="matrix(0.0997316, 0, 0, -0.0997316, 0.000000000000004774, 137.350637)"/>
<path fill="none" stroke-width="5" stroke-linecap="round" stroke-linejoin="round" stroke="rgb(0%, 0%, 0%)" stroke-opacity="1" stroke-miterlimit="10" d="M 1431.576702 1232.517553 L 1294.255008 1247.832095 " transform="matrix(0.0997316, 0, 0, -0.0997316, 0.000000000000004774, 137.350637)"/>
<path fill="none" stroke-width="5" stroke-linecap="round" stroke-linejoin="round" stroke="rgb(0%, 0%, 0%)" stroke-opacity="1" stroke-miterlimit="10" d="M 1009.741378 1268.395098 L 867.484564 1273.917733 " transform="matrix(0.0997316, 0, 0, -0.0997316, 0.000000000000004774, 137.350637)"/>
<path fill="none" stroke-width="5" stroke-linecap="round" stroke-linejoin="round" stroke="rgb(0%, 0%, 0%)" stroke-opacity="1" stroke-miterlimit="10" d="M 1562.161565 1213.677925 L 1431.576702 1232.517553 " transform="matrix(0.0997316, 0, 0, -0.0997316, 0.000000000000004774, 137.350637)"/>
<path fill="none" stroke-width="5" stroke-linecap="round" stroke-linejoin="round" stroke="rgb(0%, 0%, 0%)" stroke-opacity="1" stroke-miterlimit="10" d="M 867.484564 1273.917733 L 728.83117 1276.463629 " transform="matrix(0.0997316, 0, 0, -0.0997316, 0.000000000000004774, 137.350637)"/>
<path fill="none" stroke-width="5" stroke-linecap="round" stroke-linejoin="round" stroke="rgb(0%, 0%, 0%)" stroke-opacity="1" stroke-miterlimit="10" d="M 1683.346197 1191.156541 L 1562.161565 1213.677925 " transform="matrix(0.0997316, 0, 0, -0.0997316, 0.000000000000004774, 137.350637)"/>
<path fill="none" stroke-width="5" stroke-linecap="round" stroke-linejoin="round" stroke="rgb(0%, 0%, 0%)" stroke-opacity="1" stroke-miterlimit="10" d="M 728.83117 1276.463629 L 596.992944 1276.11112 " transform="matrix(0.0997316, 0, 0, -0.0997316, 0.000000000000004774, 137.350637)"/>
<path fill="none" stroke-width="5" stroke-linecap="round" stroke-linejoin="round" stroke="rgb(0%, 0%, 0%)" stroke-opacity="1" stroke-miterlimit="10" d="M 1791.958022 1164.914232 L 1683.346197 1191.156541 " transform="matrix(0.0997316, 0, 0, -0.0997316, 0.000000000000004774, 137.350637)"/>
<path fill="none" stroke-width="5" stroke-linecap="round" stroke-linejoin="round" stroke="rgb(0%, 0%, 0%)" stroke-opacity="1" stroke-miterlimit="10" d="M 1255.12655 932.258538 L 1162.534284 939.387046 " transform="matrix(0.0997316, 0, 0, -0.0997316, 0.000000000000004774, 137.350637)"/>
<path fill="none" stroke-width="5" stroke-linecap="round" stroke-linejoin="round" stroke="rgb(0%, 0%, 0%)" stroke-opacity="1" stroke-miterlimit="10" d="M 1345.251256 921.448274 L 1255.12655 932.258538 " transform="matrix(0.0997316, 0, 0, -0.0997316, 0.000000000000004774, 137.350637)"/>
<path fill="none" stroke-width="5" stroke-linecap="round" stroke-linejoin="round" stroke="rgb(0%, 0%, 0%)" stroke-opacity="1" stroke-miterlimit="10" d="M 1162.534284 939.387046 L 1069.74618 942.716294 " transform="matrix(0.0997316, 0, 0, -0.0997316, 0.000000000000004774, 137.350637)"/>
<path fill="none" stroke-width="5" stroke-linecap="round" stroke-linejoin="round" stroke="rgb(0%, 0%, 0%)" stroke-opacity="1" stroke-miterlimit="10" d="M 1430.597511 906.877917 L 1345.251256 921.448274 " transform="matrix(0.0997316, 0, 0, -0.0997316, 0.000000000000004774, 137.350637)"/>
<path fill="none" stroke-width="5" stroke-linecap="round" stroke-linejoin="round" stroke="rgb(0%, 0%, 0%)" stroke-opacity="1" stroke-miterlimit="10" d="M 1069.74618 942.716294 L 979.229798 942.324618 " transform="matrix(0.0997316, 0, 0, -0.0997316, 0.000000000000004774, 137.350637)"/>
<path fill="none" stroke-width="5" stroke-linecap="round" stroke-linejoin="round" stroke="rgb(0%, 0%, 0%)" stroke-opacity="1" stroke-miterlimit="10" d="M 1508.815259 888.782474 L 1430.597511 906.877917 " transform="matrix(0.0997316, 0, 0, -0.0997316, 0.000000000000004774, 137.350637)"/>
<path fill="none" stroke-width="5" stroke-linecap="round" stroke-linejoin="round" stroke="rgb(0%, 0%, 0%)" stroke-opacity="1" stroke-miterlimit="10" d="M 979.229798 942.324618 L 893.648537 938.251185 " transform="matrix(0.0997316, 0, 0, -0.0997316, 0.000000000000004774, 137.350637)"/>
<path fill="none" stroke-width="5" stroke-linecap="round" stroke-linejoin="round" stroke="rgb(0%, 0%, 0%)" stroke-opacity="1" stroke-miterlimit="10" d="M 596.992944 1276.11112 L 476.004149 1273.095213 " transform="matrix(0.0997316, 0, 0, -0.0997316, 0.000000000000004774, 137.350637)"/>
<path fill="none" stroke-width="5" stroke-linecap="round" stroke-linejoin="round" stroke="rgb(0%, 0%, 0%)" stroke-opacity="1" stroke-miterlimit="10" d="M 1884.432785 1134.990166 L 1791.958022 1164.914232 " transform="matrix(0.0997316, 0, 0, -0.0997316, 0.000000000000004774, 137.350637)"/>
<path fill="none" stroke-width="5" stroke-linecap="round" stroke-linejoin="round" stroke="rgb(0%, 0%, 0%)" stroke-opacity="1" stroke-miterlimit="10" d="M 1577.711112 867.357783 L 1508.815259 888.782474 " transform="matrix(0.0997316, 0, 0, -0.0997316, 0.000000000000004774, 137.350637)"/>
<path fill="none" stroke-width="5" stroke-linecap="round" stroke-linejoin="round" stroke="rgb(0%, 0%, 0%)" stroke-opacity="1" stroke-miterlimit="10" d="M 893.648537 938.251185 L 815.783298 930.652665 " transform="matrix(0.0997316, 0, 0, -0.0997316, 0.000000000000004774, 137.350637)"/>
<path fill="none" stroke-width="5" stroke-linecap="round" stroke-linejoin="round" stroke="rgb(0%, 0%, 0%)" stroke-opacity="1" stroke-miterlimit="10" d="M 1237.971131 718.168299 L 1178.671346 721.850055 " transform="matrix(0.0997316, 0, 0, -0.0997316, 0.000000000000004774, 137.350637)"/>
<path fill="none" stroke-width="5" stroke-linecap="round" stroke-linejoin="round" stroke="rgb(0%, 0%, 0%)" stroke-opacity="1" stroke-miterlimit="10" d="M 1296.095886 711.353132 L 1237.971131 718.168299 " transform="matrix(0.0997316, 0, 0, -0.0997316, 0.000000000000004774, 137.350637)"/>
<path fill="none" stroke-width="5" stroke-linecap="round" stroke-linejoin="round" stroke="rgb(0%, 0%, 0%)" stroke-opacity="1" stroke-miterlimit="10" d="M 1178.671346 721.850055 L 1119.919908 722.43757 " transform="matrix(0.0997316, 0, 0, -0.0997316, 0.000000000000004774, 137.350637)"/>
<path fill="none" stroke-width="5" stroke-linecap="round" stroke-linejoin="round" stroke="rgb(0%, 0%, 0%)" stroke-opacity="1" stroke-miterlimit="10" d="M 1351.204735 701.639561 L 1296.095886 711.353132 " transform="matrix(0.0997316, 0, 0, -0.0997316, 0.000000000000004774, 137.350637)"/>
<path fill="none" stroke-width="5" stroke-linecap="round" stroke-linejoin="round" stroke="rgb(0%, 0%, 0%)" stroke-opacity="1" stroke-miterlimit="10" d="M 1119.919908 722.43757 L 1063.675198 719.891674 " transform="matrix(0.0997316, 0, 0, -0.0997316, 0.000000000000004774, 137.350637)"/>
<path fill="none" stroke-width="5" stroke-linecap="round" stroke-linejoin="round" stroke="rgb(0%, 0%, 0%)" stroke-opacity="1" stroke-miterlimit="10" d="M 1401.652636 689.066753 L 1351.204735 701.639561 " transform="matrix(0.0997316, 0, 0, -0.0997316, 0.000000000000004774, 137.350637)"/>
<path fill="none" stroke-width="5" stroke-linecap="round" stroke-linejoin="round" stroke="rgb(0%, 0%, 0%)" stroke-opacity="1" stroke-miterlimit="10" d="M 1634.856677 842.917185 L 1577.711112 867.357783 " transform="matrix(0.0997316, 0, 0, -0.0997316, 0.000000000000004774, 137.350637)"/>
<path fill="none" stroke-width="5" stroke-linecap="round" stroke-linejoin="round" stroke="rgb(0%, 0%, 0%)" stroke-opacity="1" stroke-miterlimit="10" d="M 1063.675198 719.891674 L 1011.934765 714.369039 " transform="matrix(0.0997316, 0, 0, -0.0997316, 0.000000000000004774, 137.350637)"/>
<path fill="none" stroke-width="5" stroke-linecap="round" stroke-linejoin="round" stroke="rgb(0%, 0%, 0%)" stroke-opacity="1" stroke-miterlimit="10" d="M 1445.79455 673.987217 L 1401.652636 689.066753 " transform="matrix(0.0997316, 0, 0, -0.0997316, 0.000000000000004774, 137.350637)"/>
<path fill="none" stroke-width="5" stroke-linecap="round" stroke-linejoin="round" stroke="rgb(0%, 0%, 0%)" stroke-opacity="1" stroke-miterlimit="10" d="M 815.783298 930.652665 L 748.728324 919.724898 " transform="matrix(0.0997316, 0, 0, -0.0997316, 0.000000000000004774, 137.350637)"/>
<path fill="none" stroke-width="5" stroke-linecap="round" stroke-linejoin="round" stroke="rgb(0%, 0%, 0%)" stroke-opacity="1" stroke-miterlimit="10" d="M 476.004149 1273.095213 L 370.76074 1267.650913 " transform="matrix(0.0997316, 0, 0, -0.0997316, 0.000000000000004774, 137.350637)"/>
<path fill="none" stroke-width="5" stroke-linecap="round" stroke-linejoin="round" stroke="rgb(0%, 0%, 0%)" stroke-opacity="1" stroke-miterlimit="10" d="M 1956.892892 1101.541014 L 1884.432785 1134.990166 " transform="matrix(0.0997316, 0, 0, -0.0997316, 0.000000000000004774, 137.350637)"/>
<path fill="none" stroke-width="5" stroke-linecap="round" stroke-linejoin="round" stroke="rgb(0%, 0%, 0%)" stroke-opacity="1" stroke-miterlimit="10" d="M 1232.722669 577.478189 L 1195.278419 579.123229 " transform="matrix(0.0997316, 0, 0, -0.0997316, 0.000000000000004774, 137.350637)"/>
<path fill="none" stroke-width="5" stroke-linecap="round" stroke-linejoin="round" stroke="rgb(0%, 0%, 0%)" stroke-opacity="1" stroke-miterlimit="10" d="M 1269.696907 573.561426 L 1232.722669 577.478189 " transform="matrix(0.0997316, 0, 0, -0.0997316, 0.000000000000004774, 137.350637)"/>
<path fill="none" stroke-width="5" stroke-linecap="round" stroke-linejoin="round" stroke="rgb(0%, 0%, 0%)" stroke-opacity="1" stroke-miterlimit="10" d="M 1011.934765 714.369039 L 966.656991 706.026335 " transform="matrix(0.0997316, 0, 0, -0.0997316, 0.000000000000004774, 137.350637)"/>
<path fill="none" stroke-width="5" stroke-linecap="round" stroke-linejoin="round" stroke="rgb(0%, 0%, 0%)" stroke-opacity="1" stroke-miterlimit="10" d="M 1304.94777 567.490444 L 1269.696907 573.561426 " transform="matrix(0.0997316, 0, 0, -0.0997316, 0.000000000000004774, 137.350637)"/>
<path fill="none" stroke-width="5" stroke-linecap="round" stroke-linejoin="round" stroke="rgb(0%, 0%, 0%)" stroke-opacity="1" stroke-miterlimit="10" d="M 1195.278419 579.123229 L 1158.735025 578.496547 " transform="matrix(0.0997316, 0, 0, -0.0997316, 0.000000000000004774, 137.350637)"/>
<path fill="none" stroke-width="5" stroke-linecap="round" stroke-linejoin="round" stroke="rgb(0%, 0%, 0%)" stroke-opacity="1" stroke-miterlimit="10" d="M 1482.142106 656.714295 L 1445.79455 673.987217 " transform="matrix(0.0997316, 0, 0, -0.0997316, 0.000000000000004774, 137.350637)"/>
<path fill="none" stroke-width="5" stroke-linecap="round" stroke-linejoin="round" stroke="rgb(0%, 0%, 0%)" stroke-opacity="1" stroke-miterlimit="10" d="M 1337.300228 559.421914 L 1304.94777 567.490444 " transform="matrix(0.0997316, 0, 0, -0.0997316, 0.000000000000004774, 137.350637)"/>
<path fill="none" stroke-width="5" stroke-linecap="round" stroke-linejoin="round" stroke="rgb(0%, 0%, 0%)" stroke-opacity="1" stroke-miterlimit="10" d="M 1158.735025 578.496547 L 1124.34585 575.676478 " transform="matrix(0.0997316, 0, 0, -0.0997316, 0.000000000000004774, 137.350637)"/>
<path fill="none" stroke-width="5" stroke-linecap="round" stroke-linejoin="round" stroke="rgb(0%, 0%, 0%)" stroke-opacity="1" stroke-miterlimit="10" d="M 1678.058568 815.891524 L 1634.856677 842.917185 " transform="matrix(0.0997316, 0, 0, -0.0997316, 0.000000000000004774, 137.350637)"/>
<path fill="none" stroke-width="5" stroke-linecap="round" stroke-linejoin="round" stroke="rgb(0%, 0%, 0%)" stroke-opacity="1" stroke-miterlimit="10" d="M 1365.735924 549.551672 L 1337.300228 559.421914 " transform="matrix(0.0997316, 0, 0, -0.0997316, 0.000000000000004774, 137.350637)"/>
<path fill="none" stroke-width="5" stroke-linecap="round" stroke-linejoin="round" stroke="rgb(0%, 0%, 0%)" stroke-opacity="1" stroke-miterlimit="10" d="M 1124.34585 575.676478 L 1093.442593 570.70219 " transform="matrix(0.0997316, 0, 0, -0.0997316, 0.000000000000004774, 137.350637)"/>
<path fill="none" stroke-width="5" stroke-linecap="round" stroke-linejoin="round" stroke="rgb(0%, 0%, 0%)" stroke-opacity="1" stroke-miterlimit="10" d="M 966.656991 706.026335 L 929.956926 695.176903 " transform="matrix(0.0997316, 0, 0, -0.0997316, 0.000000000000004774, 137.350637)"/>
<path fill="none" stroke-width="5" stroke-linecap="round" stroke-linejoin="round" stroke="rgb(0%, 0%, 0%)" stroke-opacity="1" stroke-miterlimit="10" d="M 1389.197332 538.193061 L 1365.735924 549.551672 " transform="matrix(0.0997316, 0, 0, -0.0997316, 0.000000000000004774, 137.350637)"/>
<path fill="none" stroke-width="5" stroke-linecap="round" stroke-linejoin="round" stroke="rgb(0%, 0%, 0%)" stroke-opacity="1" stroke-miterlimit="10" d="M 1233.075177 487.000974 L 1209.731273 487.549321 " transform="matrix(0.0997316, 0, 0, -0.0997316, 0.000000000000004774, 137.350637)"/>
<path fill="none" stroke-width="5" stroke-linecap="round" stroke-linejoin="round" stroke="rgb(0%, 0%, 0%)" stroke-opacity="1" stroke-miterlimit="10" d="M 1256.340747 484.885923 L 1233.075177 487.000974 " transform="matrix(0.0997316, 0, 0, -0.0997316, 0.000000000000004774, 137.350637)"/>
<path fill="none" stroke-width="5" stroke-linecap="round" stroke-linejoin="round" stroke="rgb(0%, 0%, 0%)" stroke-opacity="1" stroke-miterlimit="10" d="M 1278.705461 481.282501 L 1256.340747 484.885923 " transform="matrix(0.0997316, 0, 0, -0.0997316, 0.000000000000004774, 137.350637)"/>
<path fill="none" stroke-width="5" stroke-linecap="round" stroke-linejoin="round" stroke="rgb(0%, 0%, 0%)" stroke-opacity="1" stroke-miterlimit="10" d="M 1509.441941 637.678829 L 1482.142106 656.714295 " transform="matrix(0.0997316, 0, 0, -0.0997316, 0.000000000000004774, 137.350637)"/>
<path fill="none" stroke-width="5" stroke-linecap="round" stroke-linejoin="round" stroke="rgb(0%, 0%, 0%)" stroke-opacity="1" stroke-miterlimit="10" d="M 1209.731273 487.549321 L 1187.249056 486.609298 " transform="matrix(0.0997316, 0, 0, -0.0997316, 0.000000000000004774, 137.350637)"/>
<path fill="none" stroke-width="5" stroke-linecap="round" stroke-linejoin="round" stroke="rgb(0%, 0%, 0%)" stroke-opacity="1" stroke-miterlimit="10" d="M 1299.425135 476.386548 L 1278.705461 481.282501 " transform="matrix(0.0997316, 0, 0, -0.0997316, 0.000000000000004774, 137.350637)"/>
<path fill="none" stroke-width="5" stroke-linecap="round" stroke-linejoin="round" stroke="rgb(0%, 0%, 0%)" stroke-opacity="1" stroke-miterlimit="10" d="M 1093.442593 570.70219 L 1067.43529 563.847855 " transform="matrix(0.0997316, 0, 0, -0.0997316, 0.000000000000004774, 137.350637)"/>
<path fill="none" stroke-width="5" stroke-linecap="round" stroke-linejoin="round" stroke="rgb(0%, 0%, 0%)" stroke-opacity="1" stroke-miterlimit="10" d="M 1187.249056 486.609298 L 1166.451047 484.141738 " transform="matrix(0.0997316, 0, 0, -0.0997316, 0.000000000000004774, 137.350637)"/>
<path fill="none" stroke-width="5" stroke-linecap="round" stroke-linejoin="round" stroke="rgb(0%, 0%, 0%)" stroke-opacity="1" stroke-miterlimit="10" d="M 748.728324 919.724898 L 696.0087 905.820391 " transform="matrix(0.0997316, 0, 0, -0.0997316, 0.000000000000004774, 137.350637)"/>
<path fill="none" stroke-width="5" stroke-linecap="round" stroke-linejoin="round" stroke="rgb(0%, 0%, 0%)" stroke-opacity="1" stroke-miterlimit="10" d="M 1317.677248 470.198063 L 1299.425135 476.386548 " transform="matrix(0.0997316, 0, 0, -0.0997316, 0.000000000000004774, 137.350637)"/>
<path fill="none" stroke-width="5" stroke-linecap="round" stroke-linejoin="round" stroke="rgb(0%, 0%, 0%)" stroke-opacity="1" stroke-miterlimit="10" d="M 1166.451047 484.141738 L 1148.198934 480.342478 " transform="matrix(0.0997316, 0, 0, -0.0997316, 0.000000000000004774, 137.350637)"/>
<path fill="none" stroke-width="5" stroke-linecap="round" stroke-linejoin="round" stroke="rgb(0%, 0%, 0%)" stroke-opacity="1" stroke-miterlimit="10" d="M 1406.940266 525.620253 L 1389.197332 538.193061 " transform="matrix(0.0997316, 0, 0, -0.0997316, 0.000000000000004774, 137.350637)"/>
<path fill="none" stroke-width="5" stroke-linecap="round" stroke-linejoin="round" stroke="rgb(0%, 0%, 0%)" stroke-opacity="1" stroke-miterlimit="10" d="M 1332.913454 463.030388 L 1317.677248 470.198063 " transform="matrix(0.0997316, 0, 0, -0.0997316, 0.000000000000004774, 137.350637)"/>
<path fill="none" stroke-width="5" stroke-linecap="round" stroke-linejoin="round" stroke="rgb(0%, 0%, 0%)" stroke-opacity="1" stroke-miterlimit="10" d="M 1250.19143 428.602045 L 1235.621073 429.659571 " transform="matrix(0.0997316, 0, 0, -0.0997316, 0.000000000000004774, 137.350637)"/>
<path fill="none" stroke-width="5" stroke-linecap="round" stroke-linejoin="round" stroke="rgb(0%, 0%, 0%)" stroke-opacity="1" stroke-miterlimit="10" d="M 1264.291775 426.565329 L 1250.19143 428.602045 " transform="matrix(0.0997316, 0, 0, -0.0997316, 0.000000000000004774, 137.350637)"/>
<path fill="none" stroke-width="5" stroke-linecap="round" stroke-linejoin="round" stroke="rgb(0%, 0%, 0%)" stroke-opacity="1" stroke-miterlimit="10" d="M 1235.621073 429.659571 L 1221.246555 429.698739 " transform="matrix(0.0997316, 0, 0, -0.0997316, 0.000000000000004774, 137.350637)"/>
<path fill="none" stroke-width="5" stroke-linecap="round" stroke-linejoin="round" stroke="rgb(0%, 0%, 0%)" stroke-opacity="1" stroke-miterlimit="10" d="M 1277.452097 423.627757 L 1264.291775 426.565329 " transform="matrix(0.0997316, 0, 0, -0.0997316, 0.000000000000004774, 137.350637)"/>
<path fill="none" stroke-width="5" stroke-linecap="round" stroke-linejoin="round" stroke="rgb(0%, 0%, 0%)" stroke-opacity="1" stroke-miterlimit="10" d="M 1221.246555 429.698739 L 1207.498718 428.758716 " transform="matrix(0.0997316, 0, 0, -0.0997316, 0.000000000000004774, 137.350637)"/>
<path fill="none" stroke-width="5" stroke-linecap="round" stroke-linejoin="round" stroke="rgb(0%, 0%, 0%)" stroke-opacity="1" stroke-miterlimit="10" d="M 1289.202384 419.867665 L 1277.452097 423.627757 " transform="matrix(0.0997316, 0, 0, -0.0997316, 0.000000000000004774, 137.350637)"/>
<path fill="none" stroke-width="5" stroke-linecap="round" stroke-linejoin="round" stroke="rgb(0%, 0%, 0%)" stroke-opacity="1" stroke-miterlimit="10" d="M 1067.43529 563.847855 L 1047.498969 555.309313 " transform="matrix(0.0997316, 0, 0, -0.0997316, 0.000000000000004774, 137.350637)"/>
<path fill="none" stroke-width="5" stroke-linecap="round" stroke-linejoin="round" stroke="rgb(0%, 0%, 0%)" stroke-opacity="1" stroke-miterlimit="10" d="M 1207.498718 428.758716 L 1195.043413 426.87867 " transform="matrix(0.0997316, 0, 0, -0.0997316, 0.000000000000004774, 137.350637)"/>
<path fill="none" stroke-width="5" stroke-linecap="round" stroke-linejoin="round" stroke="rgb(0%, 0%, 0%)" stroke-opacity="1" stroke-miterlimit="10" d="M 1148.198934 480.342478 L 1133.354404 475.289855 " transform="matrix(0.0997316, 0, 0, -0.0997316, 0.000000000000004774, 137.350637)"/>
<path fill="none" stroke-width="5" stroke-linecap="round" stroke-linejoin="round" stroke="rgb(0%, 0%, 0%)" stroke-opacity="1" stroke-miterlimit="10" d="M 1344.624574 455.001025 L 1332.913454 463.030388 " transform="matrix(0.0997316, 0, 0, -0.0997316, 0.000000000000004774, 137.350637)"/>
<path fill="none" stroke-width="5" stroke-linecap="round" stroke-linejoin="round" stroke="rgb(0%, 0%, 0%)" stroke-opacity="1" stroke-miterlimit="10" d="M 1299.111794 415.441723 L 1289.202384 419.867665 " transform="matrix(0.0997316, 0, 0, -0.0997316, 0.000000000000004774, 137.350637)"/>
<path fill="none" stroke-width="5" stroke-linecap="round" stroke-linejoin="round" stroke="rgb(0%, 0%, 0%)" stroke-opacity="1" stroke-miterlimit="10" d="M 1526.479858 617.389999 L 1509.441941 637.678829 " transform="matrix(0.0997316, 0, 0, -0.0997316, 0.000000000000004774, 137.350637)"/>
<path fill="none" stroke-width="5" stroke-linecap="round" stroke-linejoin="round" stroke="rgb(0%, 0%, 0%)" stroke-opacity="1" stroke-miterlimit="10" d="M 1195.043413 426.87867 L 1184.311484 424.136936 " transform="matrix(0.0997316, 0, 0, -0.0997316, 0.000000000000004774, 137.350637)"/>
<path fill="none" stroke-width="5" stroke-linecap="round" stroke-linejoin="round" stroke="rgb(0%, 0%, 0%)" stroke-opacity="1" stroke-miterlimit="10" d="M 1705.319235 786.868313 L 1678.058568 815.891524 " transform="matrix(0.0997316, 0, 0, -0.0997316, 0.000000000000004774, 137.350637)"/>
<path fill="none" stroke-width="5" stroke-linecap="round" stroke-linejoin="round" stroke="rgb(0%, 0%, 0%)" stroke-opacity="1" stroke-miterlimit="10" d="M 1247.723869 393.194512 L 1238.715315 393.664524 " transform="matrix(0.0997316, 0, 0, -0.0997316, 0.000000000000004774, 137.350637)"/>
<path fill="none" stroke-width="5" stroke-linecap="round" stroke-linejoin="round" stroke="rgb(0%, 0%, 0%)" stroke-opacity="1" stroke-miterlimit="10" d="M 1256.575753 392.058651 L 1247.723869 393.194512 " transform="matrix(0.0997316, 0, 0, -0.0997316, 0.000000000000004774, 137.350637)"/>
<path fill="none" stroke-width="5" stroke-linecap="round" stroke-linejoin="round" stroke="rgb(0%, 0%, 0%)" stroke-opacity="1" stroke-miterlimit="10" d="M 1238.715315 393.664524 L 1229.863432 393.507853 " transform="matrix(0.0997316, 0, 0, -0.0997316, 0.000000000000004774, 137.350637)"/>
<path fill="none" stroke-width="5" stroke-linecap="round" stroke-linejoin="round" stroke="rgb(0%, 0%, 0%)" stroke-opacity="1" stroke-miterlimit="10" d="M 1264.918457 390.335275 L 1256.575753 392.058651 " transform="matrix(0.0997316, 0, 0, -0.0997316, 0.000000000000004774, 137.350637)"/>
<path fill="none" stroke-width="5" stroke-linecap="round" stroke-linejoin="round" stroke="rgb(0%, 0%, 0%)" stroke-opacity="1" stroke-miterlimit="10" d="M 1229.863432 393.507853 L 1221.559896 392.724501 " transform="matrix(0.0997316, 0, 0, -0.0997316, 0.000000000000004774, 137.350637)"/>
<path fill="none" stroke-width="5" stroke-linecap="round" stroke-linejoin="round" stroke="rgb(0%, 0%, 0%)" stroke-opacity="1" stroke-miterlimit="10" d="M 1418.25971 512.224925 L 1406.940266 525.620253 " transform="matrix(0.0997316, 0, 0, -0.0997316, 0.000000000000004774, 137.350637)"/>
<path fill="none" stroke-width="5" stroke-linecap="round" stroke-linejoin="round" stroke="rgb(0%, 0%, 0%)" stroke-opacity="1" stroke-miterlimit="10" d="M 929.956926 695.176903 L 903.871287 682.173251 " transform="matrix(0.0997316, 0, 0, -0.0997316, 0.000000000000004774, 137.350637)"/>
<path fill="none" stroke-width="5" stroke-linecap="round" stroke-linejoin="round" stroke="rgb(0%, 0%, 0%)" stroke-opacity="1" stroke-miterlimit="10" d="M 1272.438641 388.102721 L 1264.918457 390.335275 " transform="matrix(0.0997316, 0, 0, -0.0997316, 0.000000000000004774, 137.350637)"/>
<path fill="none" stroke-width="5" stroke-linecap="round" stroke-linejoin="round" stroke="rgb(0%, 0%, 0%)" stroke-opacity="1" stroke-miterlimit="10" d="M 1306.827816 410.467435 L 1299.111794 415.441723 " transform="matrix(0.0997316, 0, 0, -0.0997316, 0.000000000000004774, 137.350637)"/>
<path fill="none" stroke-width="5" stroke-linecap="round" stroke-linejoin="round" stroke="rgb(0%, 0%, 0%)" stroke-opacity="1" stroke-miterlimit="10" d="M 1221.559896 392.724501 L 1214.118047 391.392801 " transform="matrix(0.0997316, 0, 0, -0.0997316, 0.000000000000004774, 137.350637)"/>
<path fill="none" stroke-width="5" stroke-linecap="round" stroke-linejoin="round" stroke="rgb(0%, 0%, 0%)" stroke-opacity="1" stroke-miterlimit="10" d="M 1184.311484 424.136936 L 1175.929612 420.651017 " transform="matrix(0.0997316, 0, 0, -0.0997316, 0.000000000000004774, 137.350637)"/>
<path fill="none" stroke-width="5" stroke-linecap="round" stroke-linejoin="round" stroke="rgb(0%, 0%, 0%)" stroke-opacity="1" stroke-miterlimit="10" d="M 1352.340596 446.423315 L 1344.624574 455.001025 " transform="matrix(0.0997316, 0, 0, -0.0997316, 0.000000000000004774, 137.350637)"/>
<path fill="none" stroke-width="5" stroke-linecap="round" stroke-linejoin="round" stroke="rgb(0%, 0%, 0%)" stroke-opacity="1" stroke-miterlimit="10" d="M 1133.354404 475.289855 L 1122.661642 469.218873 " transform="matrix(0.0997316, 0, 0, -0.0997316, 0.000000000000004774, 137.350637)"/>
<path fill="none" stroke-width="5" stroke-linecap="round" stroke-linejoin="round" stroke="rgb(0%, 0%, 0%)" stroke-opacity="1" stroke-miterlimit="10" d="M 2005.225741 1064.99762 L 1956.892892 1101.541014 " transform="matrix(0.0997316, 0, 0, -0.0997316, 0.000000000000004774, 137.350637)"/>
<path fill="none" stroke-width="5" stroke-linecap="round" stroke-linejoin="round" stroke="rgb(0%, 0%, 0%)" stroke-opacity="1" stroke-miterlimit="10" d="M 1214.118047 391.392801 L 1207.890394 389.473588 " transform="matrix(0.0997316, 0, 0, -0.0997316, 0.000000000000004774, 137.350637)"/>
<path fill="none" stroke-width="5" stroke-linecap="round" stroke-linejoin="round" stroke="rgb(0%, 0%, 0%)" stroke-opacity="1" stroke-miterlimit="10" d="M 1312.115445 405.10147 L 1306.827816 410.467435 " transform="matrix(0.0997316, 0, 0, -0.0997316, 0.000000000000004774, 137.350637)"/>
<path fill="none" stroke-width="5" stroke-linecap="round" stroke-linejoin="round" stroke="rgb(0%, 0%, 0%)" stroke-opacity="1" stroke-miterlimit="10" d="M 1207.890394 389.473588 L 1203.151112 387.162698 " transform="matrix(0.0997316, 0, 0, -0.0997316, 0.000000000000004774, 137.350637)"/>
<path fill="none" stroke-width="5" stroke-linecap="round" stroke-linejoin="round" stroke="rgb(0%, 0%, 0%)" stroke-opacity="1" stroke-miterlimit="10" d="M 1175.929612 420.651017 L 1170.250307 416.577584 " transform="matrix(0.0997316, 0, 0, -0.0997316, 0.000000000000004774, 137.350637)"/>
<path fill="none" stroke-width="5" stroke-linecap="round" stroke-linejoin="round" stroke="rgb(0%, 0%, 0%)" stroke-opacity="1" stroke-miterlimit="10" d="M 1047.498969 555.309313 L 1034.808659 545.517407 " transform="matrix(0.0997316, 0, 0, -0.0997316, 0.000000000000004774, 137.350637)"/>
<path fill="none" stroke-width="5" stroke-linecap="round" stroke-linejoin="round" stroke="rgb(0%, 0%, 0%)" stroke-opacity="1" stroke-miterlimit="10" d="M 1314.818011 399.5005 L 1312.115445 405.10147 " transform="matrix(0.0997316, 0, 0, -0.0997316, 0.000000000000004774, 137.350637)"/>
<path fill="none" stroke-width="5" stroke-linecap="round" stroke-linejoin="round" stroke="rgb(0%, 0%, 0%)" stroke-opacity="1" stroke-miterlimit="10" d="M 1203.151112 387.162698 L 1200.21354 384.460132 " transform="matrix(0.0997316, 0, 0, -0.0997316, 0.000000000000004774, 137.350637)"/>
<path fill="none" stroke-width="5" stroke-linecap="round" stroke-linejoin="round" stroke="rgb(0%, 0%, 0%)" stroke-opacity="1" stroke-miterlimit="10" d="M 1355.865683 437.610599 L 1352.340596 446.423315 " transform="matrix(0.0997316, 0, 0, -0.0997316, 0.000000000000004774, 137.350637)"/>
<path fill="none" stroke-width="5" stroke-linecap="round" stroke-linejoin="round" stroke="rgb(0%, 0%, 0%)" stroke-opacity="1" stroke-miterlimit="10" d="M 1122.661642 469.218873 L 1116.708163 462.442873 " transform="matrix(0.0997316, 0, 0, -0.0997316, 0.000000000000004774, 137.350637)"/>
<path fill="none" stroke-width="5" stroke-linecap="round" stroke-linejoin="round" stroke="rgb(0%, 0%, 0%)" stroke-opacity="1" stroke-miterlimit="10" d="M 1422.763986 498.477089 L 1418.25971 512.224925 " transform="matrix(0.0997316, 0, 0, -0.0997316, 0.000000000000004774, 137.350637)"/>
<path fill="none" stroke-width="5" stroke-linecap="round" stroke-linejoin="round" stroke="rgb(0%, 0%, 0%)" stroke-opacity="1" stroke-miterlimit="10" d="M 370.76074 1267.650913 L 287.451202 1260.130729 " transform="matrix(0.0997316, 0, 0, -0.0997316, 0.000000000000004774, 137.350637)"/>
<path fill="none" stroke-width="5" stroke-linecap="round" stroke-linejoin="round" stroke="rgb(0%, 0%, 0%)" stroke-opacity="1" stroke-miterlimit="10" d="M 1170.250307 416.577584 L 1167.626076 412.073307 " transform="matrix(0.0997316, 0, 0, -0.0997316, 0.000000000000004774, 137.350637)"/>
<path fill="none" stroke-width="5" stroke-linecap="round" stroke-linejoin="round" stroke="rgb(0%, 0%, 0%)" stroke-opacity="1" stroke-miterlimit="10" d="M 1200.21354 384.460132 L 1199.195182 381.561727 " transform="matrix(0.0997316, 0, 0, -0.0997316, 0.000000000000004774, 137.350637)"/>
<path fill="none" stroke-width="5" stroke-linecap="round" stroke-linejoin="round" stroke="rgb(0%, 0%, 0%)" stroke-opacity="1" stroke-miterlimit="10" d="M 1314.896347 393.938697 L 1314.818011 399.5005 " transform="matrix(0.0997316, 0, 0, -0.0997316, 0.000000000000004774, 137.350637)"/>
<path fill="none" stroke-width="5" stroke-linecap="round" stroke-linejoin="round" stroke="rgb(0%, 0%, 0%)" stroke-opacity="1" stroke-miterlimit="10" d="M 1199.195182 381.561727 L 1200.252707 378.624155 " transform="matrix(0.0997316, 0, 0, -0.0997316, 0.000000000000004774, 137.350637)"/>
<path fill="none" stroke-width="5" stroke-linecap="round" stroke-linejoin="round" stroke="rgb(0%, 0%, 0%)" stroke-opacity="1" stroke-miterlimit="10" d="M 1355.08233 428.797883 L 1355.865683 437.610599 " transform="matrix(0.0997316, 0, 0, -0.0997316, 0.000000000000004774, 137.350637)"/>
<path fill="none" stroke-width="5" stroke-linecap="round" stroke-linejoin="round" stroke="rgb(0%, 0%, 0%)" stroke-opacity="1" stroke-miterlimit="10" d="M 1532.511672 596.435319 L 1526.479858 617.389999 " transform="matrix(0.0997316, 0, 0, -0.0997316, 0.000000000000004774, 137.350637)"/>
<path fill="none" stroke-width="5" stroke-linecap="round" stroke-linejoin="round" stroke="rgb(0%, 0%, 0%)" stroke-opacity="1" stroke-miterlimit="10" d="M 1312.389619 388.533565 L 1314.896347 393.938697 " transform="matrix(0.0997316, 0, 0, -0.0997316, 0.000000000000004774, 137.350637)"/>
<path fill="none" stroke-width="5" stroke-linecap="round" stroke-linejoin="round" stroke="rgb(0%, 0%, 0%)" stroke-opacity="1" stroke-miterlimit="10" d="M 1167.626076 412.073307 L 1168.331093 407.41236 " transform="matrix(0.0997316, 0, 0, -0.0997316, 0.000000000000004774, 137.350637)"/>
<path fill="none" stroke-width="5" stroke-linecap="round" stroke-linejoin="round" stroke="rgb(0%, 0%, 0%)" stroke-opacity="1" stroke-miterlimit="10" d="M 1200.252707 378.624155 L 1203.425285 375.764919 " transform="matrix(0.0997316, 0, 0, -0.0997316, 0.000000000000004774, 137.350637)"/>
<path fill="none" stroke-width="5" stroke-linecap="round" stroke-linejoin="round" stroke="rgb(0%, 0%, 0%)" stroke-opacity="1" stroke-miterlimit="10" d="M 1116.708163 462.442873 L 1116.003146 455.23603 " transform="matrix(0.0997316, 0, 0, -0.0997316, 0.000000000000004774, 137.350637)"/>
<path fill="none" stroke-width="5" stroke-linecap="round" stroke-linejoin="round" stroke="rgb(0%, 0%, 0%)" stroke-opacity="1" stroke-miterlimit="10" d="M 696.0087 905.820391 L 661.227849 889.487491 " transform="matrix(0.0997316, 0, 0, -0.0997316, 0.000000000000004774, 137.350637)"/>
<path fill="none" stroke-width="5" stroke-linecap="round" stroke-linejoin="round" stroke="rgb(0%, 0%, 0%)" stroke-opacity="1" stroke-miterlimit="10" d="M 1307.454498 383.520109 L 1312.389619 388.533565 " transform="matrix(0.0997316, 0, 0, -0.0997316, 0.000000000000004774, 137.350637)"/>
<path fill="none" stroke-width="5" stroke-linecap="round" stroke-linejoin="round" stroke="rgb(0%, 0%, 0%)" stroke-opacity="1" stroke-miterlimit="10" d="M 1034.808659 545.517407 L 1030.421884 534.863813 " transform="matrix(0.0997316, 0, 0, -0.0997316, 0.000000000000004774, 137.350637)"/>
<path fill="none" stroke-width="5" stroke-linecap="round" stroke-linejoin="round" stroke="rgb(0%, 0%, 0%)" stroke-opacity="1" stroke-miterlimit="10" d="M 1420.335594 484.729252 L 1422.763986 498.477089 " transform="matrix(0.0997316, 0, 0, -0.0997316, 0.000000000000004774, 137.350637)"/>
<path fill="none" stroke-width="5" stroke-linecap="round" stroke-linejoin="round" stroke="rgb(0%, 0%, 0%)" stroke-opacity="1" stroke-miterlimit="10" d="M 1203.425285 375.764919 L 1208.634579 373.10152 " transform="matrix(0.0997316, 0, 0, -0.0997316, 0.000000000000004774, 137.350637)"/>
<path fill="none" stroke-width="5" stroke-linecap="round" stroke-linejoin="round" stroke="rgb(0%, 0%, 0%)" stroke-opacity="1" stroke-miterlimit="10" d="M 903.871287 682.173251 L 890.358457 667.642062 " transform="matrix(0.0997316, 0, 0, -0.0997316, 0.000000000000004774, 137.350637)"/>
<path fill="none" stroke-width="5" stroke-linecap="round" stroke-linejoin="round" stroke="rgb(0%, 0%, 0%)" stroke-opacity="1" stroke-miterlimit="10" d="M 1350.147209 420.298509 L 1355.08233 428.797883 " transform="matrix(0.0997316, 0, 0, -0.0997316, 0.000000000000004774, 137.350637)"/>
<path fill="none" stroke-width="5" stroke-linecap="round" stroke-linejoin="round" stroke="rgb(0%, 0%, 0%)" stroke-opacity="1" stroke-miterlimit="10" d="M 1168.331093 407.41236 L 1172.443694 402.79058 " transform="matrix(0.0997316, 0, 0, -0.0997316, 0.000000000000004774, 137.350637)"/>
<path fill="none" stroke-width="5" stroke-linecap="round" stroke-linejoin="round" stroke="rgb(0%, 0%, 0%)" stroke-opacity="1" stroke-miterlimit="10" d="M 1300.286822 378.976664 L 1307.454498 383.520109 " transform="matrix(0.0997316, 0, 0, -0.0997316, 0.000000000000004774, 137.350637)"/>
<path fill="none" stroke-width="5" stroke-linecap="round" stroke-linejoin="round" stroke="rgb(0%, 0%, 0%)" stroke-opacity="1" stroke-miterlimit="10" d="M 1208.634579 373.10152 L 1215.802255 370.829798 " transform="matrix(0.0997316, 0, 0, -0.0997316, 0.000000000000004774, 137.350637)"/>
<path fill="none" stroke-width="5" stroke-linecap="round" stroke-linejoin="round" stroke="rgb(0%, 0%, 0%)" stroke-opacity="1" stroke-miterlimit="10" d="M 1291.356604 375.099069 L 1300.286822 378.976664 " transform="matrix(0.0997316, 0, 0, -0.0997316, 0.000000000000004774, 137.350637)"/>
<path fill="none" stroke-width="5" stroke-linecap="round" stroke-linejoin="round" stroke="rgb(0%, 0%, 0%)" stroke-opacity="1" stroke-miterlimit="10" d="M 1714.836968 756.630907 L 1705.319235 786.868313 " transform="matrix(0.0997316, 0, 0, -0.0997316, 0.000000000000004774, 137.350637)"/>
<path fill="none" stroke-width="5" stroke-linecap="round" stroke-linejoin="round" stroke="rgb(0%, 0%, 0%)" stroke-opacity="1" stroke-miterlimit="10" d="M 1215.802255 370.829798 L 1224.61497 369.14559 " transform="matrix(0.0997316, 0, 0, -0.0997316, 0.000000000000004774, 137.350637)"/>
<path fill="none" stroke-width="5" stroke-linecap="round" stroke-linejoin="round" stroke="rgb(0%, 0%, 0%)" stroke-opacity="1" stroke-miterlimit="10" d="M 1172.443694 402.79058 L 1180.003045 398.442974 " transform="matrix(0.0997316, 0, 0, -0.0997316, 0.000000000000004774, 137.350637)"/>
<path fill="none" stroke-width="5" stroke-linecap="round" stroke-linejoin="round" stroke="rgb(0%, 0%, 0%)" stroke-opacity="1" stroke-miterlimit="10" d="M 1116.003146 455.23603 L 1120.938266 447.99002 " transform="matrix(0.0997316, 0, 0, -0.0997316, 0.000000000000004774, 137.350637)"/>
<path fill="none" stroke-width="5" stroke-linecap="round" stroke-linejoin="round" stroke="rgb(0%, 0%, 0%)" stroke-opacity="1" stroke-miterlimit="10" d="M 1341.256158 412.425816 L 1350.147209 420.298509 " transform="matrix(0.0997316, 0, 0, -0.0997316, 0.000000000000004774, 137.350637)"/>
<path fill="none" stroke-width="5" stroke-linecap="round" stroke-linejoin="round" stroke="rgb(0%, 0%, 0%)" stroke-opacity="1" stroke-miterlimit="10" d="M 1280.938015 371.965659 L 1291.356604 375.099069 " transform="matrix(0.0997316, 0, 0, -0.0997316, 0.000000000000004774, 137.350637)"/>
<path fill="none" stroke-width="5" stroke-linecap="round" stroke-linejoin="round" stroke="rgb(0%, 0%, 0%)" stroke-opacity="1" stroke-miterlimit="10" d="M 1224.61497 369.14559 L 1234.876888 368.048897 " transform="matrix(0.0997316, 0, 0, -0.0997316, 0.000000000000004774, 137.350637)"/>
<path fill="none" stroke-width="5" stroke-linecap="round" stroke-linejoin="round" stroke="rgb(0%, 0%, 0%)" stroke-opacity="1" stroke-miterlimit="10" d="M 1269.579404 369.693937 L 1280.938015 371.965659 " transform="matrix(0.0997316, 0, 0, -0.0997316, 0.000000000000004774, 137.350637)"/>
<path fill="none" stroke-width="5" stroke-linecap="round" stroke-linejoin="round" stroke="rgb(0%, 0%, 0%)" stroke-opacity="1" stroke-miterlimit="10" d="M 1234.876888 368.048897 L 1246.039661 367.735556 " transform="matrix(0.0997316, 0, 0, -0.0997316, 0.000000000000004774, 137.350637)"/>
<path fill="none" stroke-width="5" stroke-linecap="round" stroke-linejoin="round" stroke="rgb(0%, 0%, 0%)" stroke-opacity="1" stroke-miterlimit="10" d="M 1411.092034 471.529763 L 1420.335594 484.729252 " transform="matrix(0.0997316, 0, 0, -0.0997316, 0.000000000000004774, 137.350637)"/>
<path fill="none" stroke-width="5" stroke-linecap="round" stroke-linejoin="round" stroke="rgb(0%, 0%, 0%)" stroke-opacity="1" stroke-miterlimit="10" d="M 1257.789949 368.283902 L 1269.579404 369.693937 " transform="matrix(0.0997316, 0, 0, -0.0997316, 0.000000000000004774, 137.350637)"/>
<path fill="none" stroke-width="5" stroke-linecap="round" stroke-linejoin="round" stroke="rgb(0%, 0%, 0%)" stroke-opacity="1" stroke-miterlimit="10" d="M 1246.039661 367.735556 L 1257.789949 368.283902 " transform="matrix(0.0997316, 0, 0, -0.0997316, 0.000000000000004774, 137.350637)"/>
<path fill="none" stroke-width="5" stroke-linecap="round" stroke-linejoin="round" stroke="rgb(0%, 0%, 0%)" stroke-opacity="1" stroke-miterlimit="10" d="M 1180.003045 398.442974 L 1190.81331 394.682882 " transform="matrix(0.0997316, 0, 0, -0.0997316, 0.000000000000004774, 137.350637)"/>
<path fill="none" stroke-width="5" stroke-linecap="round" stroke-linejoin="round" stroke="rgb(0%, 0%, 0%)" stroke-opacity="1" stroke-miterlimit="10" d="M 1527.224043 575.519807 L 1532.511672 596.435319 " transform="matrix(0.0997316, 0, 0, -0.0997316, 0.000000000000004774, 137.350637)"/>
<path fill="none" stroke-width="5" stroke-linecap="round" stroke-linejoin="round" stroke="rgb(0%, 0%, 0%)" stroke-opacity="1" stroke-miterlimit="10" d="M 1328.918356 405.375644 L 1341.256158 412.425816 " transform="matrix(0.0997316, 0, 0, -0.0997316, 0.000000000000004774, 137.350637)"/>
<path fill="none" stroke-width="5" stroke-linecap="round" stroke-linejoin="round" stroke="rgb(0%, 0%, 0%)" stroke-opacity="1" stroke-miterlimit="10" d="M 1030.421884 534.863813 L 1035.004497 523.85771 " transform="matrix(0.0997316, 0, 0, -0.0997316, 0.000000000000004774, 137.350637)"/>
<path fill="none" stroke-width="5" stroke-linecap="round" stroke-linejoin="round" stroke="rgb(0%, 0%, 0%)" stroke-opacity="1" stroke-miterlimit="10" d="M 1120.938266 447.99002 L 1131.513525 441.018182 " transform="matrix(0.0997316, 0, 0, -0.0997316, 0.000000000000004774, 137.350637)"/>
<path fill="none" stroke-width="5" stroke-linecap="round" stroke-linejoin="round" stroke="rgb(0%, 0%, 0%)" stroke-opacity="1" stroke-miterlimit="10" d="M 1190.81331 394.682882 L 1204.561146 391.706142 " transform="matrix(0.0997316, 0, 0, -0.0997316, 0.000000000000004774, 137.350637)"/>
<path fill="none" stroke-width="5" stroke-linecap="round" stroke-linejoin="round" stroke="rgb(0%, 0%, 0%)" stroke-opacity="1" stroke-miterlimit="10" d="M 1313.642983 399.422164 L 1328.918356 405.375644 " transform="matrix(0.0997316, 0, 0, -0.0997316, 0.000000000000004774, 137.350637)"/>
<path fill="none" stroke-width="5" stroke-linecap="round" stroke-linejoin="round" stroke="rgb(0%, 0%, 0%)" stroke-opacity="1" stroke-miterlimit="10" d="M 1204.561146 391.706142 L 1220.737375 389.708593 " transform="matrix(0.0997316, 0, 0, -0.0997316, 0.000000000000004774, 137.350637)"/>
<path fill="none" stroke-width="5" stroke-linecap="round" stroke-linejoin="round" stroke="rgb(0%, 0%, 0%)" stroke-opacity="1" stroke-miterlimit="10" d="M 1395.385816 459.270296 L 1411.092034 471.529763 " transform="matrix(0.0997316, 0, 0, -0.0997316, 0.000000000000004774, 137.350637)"/>
<path fill="none" stroke-width="5" stroke-linecap="round" stroke-linejoin="round" stroke="rgb(0%, 0%, 0%)" stroke-opacity="1" stroke-miterlimit="10" d="M 1296.135054 394.682882 L 1313.642983 399.422164 " transform="matrix(0.0997316, 0, 0, -0.0997316, 0.000000000000004774, 137.350637)"/>
<path fill="none" stroke-width="5" stroke-linecap="round" stroke-linejoin="round" stroke="rgb(0%, 0%, 0%)" stroke-opacity="1" stroke-miterlimit="10" d="M 1220.737375 389.708593 L 1238.754483 388.925241 " transform="matrix(0.0997316, 0, 0, -0.0997316, 0.000000000000004774, 137.350637)"/>
<path fill="none" stroke-width="5" stroke-linecap="round" stroke-linejoin="round" stroke="rgb(0%, 0%, 0%)" stroke-opacity="1" stroke-miterlimit="10" d="M 890.358457 667.642062 L 891.102642 652.17085 " transform="matrix(0.0997316, 0, 0, -0.0997316, 0.000000000000004774, 137.350637)"/>
<path fill="none" stroke-width="5" stroke-linecap="round" stroke-linejoin="round" stroke="rgb(0%, 0%, 0%)" stroke-opacity="1" stroke-miterlimit="10" d="M 1131.513525 441.018182 L 1147.650587 434.829698 " transform="matrix(0.0997316, 0, 0, -0.0997316, 0.000000000000004774, 137.350637)"/>
<path fill="none" stroke-width="5" stroke-linecap="round" stroke-linejoin="round" stroke="rgb(0%, 0%, 0%)" stroke-opacity="1" stroke-miterlimit="10" d="M 1277.295426 391.353634 L 1296.135054 394.682882 " transform="matrix(0.0997316, 0, 0, -0.0997316, 0.000000000000004774, 137.350637)"/>
<path fill="none" stroke-width="5" stroke-linecap="round" stroke-linejoin="round" stroke="rgb(0%, 0%, 0%)" stroke-opacity="1" stroke-miterlimit="10" d="M 1238.754483 388.925241 L 1257.868284 389.43442 " transform="matrix(0.0997316, 0, 0, -0.0997316, 0.000000000000004774, 137.350637)"/>
<path fill="none" stroke-width="5" stroke-linecap="round" stroke-linejoin="round" stroke="rgb(0%, 0%, 0%)" stroke-opacity="1" stroke-miterlimit="10" d="M 1257.868284 389.43442 L 1277.295426 391.353634 " transform="matrix(0.0997316, 0, 0, -0.0997316, 0.000000000000004774, 137.350637)"/>
<path fill="none" stroke-width="5" stroke-linecap="round" stroke-linejoin="round" stroke="rgb(0%, 0%, 0%)" stroke-opacity="1" stroke-miterlimit="10" d="M 1035.004497 523.85771 L 1049.065674 513.086613 " transform="matrix(0.0997316, 0, 0, -0.0997316, 0.000000000000004774, 137.350637)"/>
<path fill="none" stroke-width="5" stroke-linecap="round" stroke-linejoin="round" stroke="rgb(0%, 0%, 0%)" stroke-opacity="1" stroke-miterlimit="10" d="M 2025.318733 1025.986665 L 2005.225741 1064.99762 " transform="matrix(0.0997316, 0, 0, -0.0997316, 0.000000000000004774, 137.350637)"/>
<path fill="none" stroke-width="5" stroke-linecap="round" stroke-linejoin="round" stroke="rgb(0%, 0%, 0%)" stroke-opacity="1" stroke-miterlimit="10" d="M 1510.577802 555.309313 L 1527.224043 575.519807 " transform="matrix(0.0997316, 0, 0, -0.0997316, 0.000000000000004774, 137.350637)"/>
<path fill="none" stroke-width="5" stroke-linecap="round" stroke-linejoin="round" stroke="rgb(0%, 0%, 0%)" stroke-opacity="1" stroke-miterlimit="10" d="M 1374.039461 448.420864 L 1395.385816 459.270296 " transform="matrix(0.0997316, 0, 0, -0.0997316, 0.000000000000004774, 137.350637)"/>
<path fill="none" stroke-width="5" stroke-linecap="round" stroke-linejoin="round" stroke="rgb(0%, 0%, 0%)" stroke-opacity="1" stroke-miterlimit="10" d="M 1147.650587 434.829698 L 1168.87944 429.777074 " transform="matrix(0.0997316, 0, 0, -0.0997316, 0.000000000000004774, 137.350637)"/>
<path fill="none" stroke-width="5" stroke-linecap="round" stroke-linejoin="round" stroke="rgb(0%, 0%, 0%)" stroke-opacity="1" stroke-miterlimit="10" d="M 1705.475905 726.080159 L 1714.836968 756.630907 " transform="matrix(0.0997316, 0, 0, -0.0997316, 0.000000000000004774, 137.350637)"/>
<path fill="none" stroke-width="5" stroke-linecap="round" stroke-linejoin="round" stroke="rgb(0%, 0%, 0%)" stroke-opacity="1" stroke-miterlimit="10" d="M 661.227849 889.487491 L 648.18503 871.352881 " transform="matrix(0.0997316, 0, 0, -0.0997316, 0.000000000000004774, 137.350637)"/>
<path fill="none" stroke-width="5" stroke-linecap="round" stroke-linejoin="round" stroke="rgb(0%, 0%, 0%)" stroke-opacity="1" stroke-miterlimit="10" d="M 1348.032157 439.294807 L 1374.039461 448.420864 " transform="matrix(0.0997316, 0, 0, -0.0997316, 0.000000000000004774, 137.350637)"/>
<path fill="none" stroke-width="5" stroke-linecap="round" stroke-linejoin="round" stroke="rgb(0%, 0%, 0%)" stroke-opacity="1" stroke-miterlimit="10" d="M 1168.87944 429.777074 L 1194.495067 426.173652 " transform="matrix(0.0997316, 0, 0, -0.0997316, 0.000000000000004774, 137.350637)"/>
<path fill="none" stroke-width="5" stroke-linecap="round" stroke-linejoin="round" stroke="rgb(0%, 0%, 0%)" stroke-opacity="1" stroke-miterlimit="10" d="M 1049.065674 513.086613 L 1072.566249 503.216371 " transform="matrix(0.0997316, 0, 0, -0.0997316, 0.000000000000004774, 137.350637)"/>
<path fill="none" stroke-width="5" stroke-linecap="round" stroke-linejoin="round" stroke="rgb(0%, 0%, 0%)" stroke-opacity="1" stroke-miterlimit="10" d="M 1318.538936 432.244634 L 1348.032157 439.294807 " transform="matrix(0.0997316, 0, 0, -0.0997316, 0.000000000000004774, 137.350637)"/>
<path fill="none" stroke-width="5" stroke-linecap="round" stroke-linejoin="round" stroke="rgb(0%, 0%, 0%)" stroke-opacity="1" stroke-miterlimit="10" d="M 1194.495067 426.173652 L 1223.518277 424.450277 " transform="matrix(0.0997316, 0, 0, -0.0997316, 0.000000000000004774, 137.350637)"/>
<path fill="none" stroke-width="5" stroke-linecap="round" stroke-linejoin="round" stroke="rgb(0%, 0%, 0%)" stroke-opacity="1" stroke-miterlimit="10" d="M 1483.2388 536.587188 L 1510.577802 555.309313 " transform="matrix(0.0997316, 0, 0, -0.0997316, 0.000000000000004774, 137.350637)"/>
<path fill="none" stroke-width="5" stroke-linecap="round" stroke-linejoin="round" stroke="rgb(0%, 0%, 0%)" stroke-opacity="1" stroke-miterlimit="10" d="M 891.102642 652.17085 L 907.474709 636.582135 " transform="matrix(0.0997316, 0, 0, -0.0997316, 0.000000000000004774, 137.350637)"/>
<path fill="none" stroke-width="5" stroke-linecap="round" stroke-linejoin="round" stroke="rgb(0%, 0%, 0%)" stroke-opacity="1" stroke-miterlimit="10" d="M 1286.96983 427.387849 L 1318.538936 432.244634 " transform="matrix(0.0997316, 0, 0, -0.0997316, 0.000000000000004774, 137.350637)"/>
<path fill="none" stroke-width="5" stroke-linecap="round" stroke-linejoin="round" stroke="rgb(0%, 0%, 0%)" stroke-opacity="1" stroke-miterlimit="10" d="M 1223.518277 424.450277 L 1254.813209 424.802786 " transform="matrix(0.0997316, 0, 0, -0.0997316, 0.000000000000004774, 137.350637)"/>
<path fill="none" stroke-width="5" stroke-linecap="round" stroke-linejoin="round" stroke="rgb(0%, 0%, 0%)" stroke-opacity="1" stroke-miterlimit="10" d="M 287.451202 1260.130729 L 233.517382 1250.965505 " transform="matrix(0.0997316, 0, 0, -0.0997316, 0.000000000000004774, 137.350637)"/>
<path fill="none" stroke-width="5" stroke-linecap="round" stroke-linejoin="round" stroke="rgb(0%, 0%, 0%)" stroke-opacity="1" stroke-miterlimit="10" d="M 1254.813209 424.802786 L 1286.96983 427.387849 " transform="matrix(0.0997316, 0, 0, -0.0997316, 0.000000000000004774, 137.350637)"/>
<path fill="none" stroke-width="5" stroke-linecap="round" stroke-linejoin="round" stroke="rgb(0%, 0%, 0%)" stroke-opacity="1" stroke-miterlimit="10" d="M 1072.566249 503.216371 L 1105.075378 494.873667 " transform="matrix(0.0997316, 0, 0, -0.0997316, 0.000000000000004774, 137.350637)"/>
<path fill="none" stroke-width="5" stroke-linecap="round" stroke-linejoin="round" stroke="rgb(0%, 0%, 0%)" stroke-opacity="1" stroke-miterlimit="10" d="M 1446.382064 520.05845 L 1483.2388 536.587188 " transform="matrix(0.0997316, 0, 0, -0.0997316, 0.000000000000004774, 137.350637)"/>
<path fill="none" stroke-width="5" stroke-linecap="round" stroke-linejoin="round" stroke="rgb(0%, 0%, 0%)" stroke-opacity="1" stroke-miterlimit="10" d="M 1676.883539 696.273596 L 1705.475905 726.080159 " transform="matrix(0.0997316, 0, 0, -0.0997316, 0.000000000000004774, 137.350637)"/>
<path fill="none" stroke-width="5" stroke-linecap="round" stroke-linejoin="round" stroke="rgb(0%, 0%, 0%)" stroke-opacity="1" stroke-miterlimit="10" d="M 1105.075378 494.873667 L 1145.61387 488.763518 " transform="matrix(0.0997316, 0, 0, -0.0997316, 0.000000000000004774, 137.350637)"/>
<path fill="none" stroke-width="5" stroke-linecap="round" stroke-linejoin="round" stroke="rgb(0%, 0%, 0%)" stroke-opacity="1" stroke-miterlimit="10" d="M 907.474709 636.582135 L 940.218844 621.894276 " transform="matrix(0.0997316, 0, 0, -0.0997316, 0.000000000000004774, 137.350637)"/>
<path fill="none" stroke-width="5" stroke-linecap="round" stroke-linejoin="round" stroke="rgb(0%, 0%, 0%)" stroke-opacity="1" stroke-miterlimit="10" d="M 1401.730972 506.232278 L 1446.382064 520.05845 " transform="matrix(0.0997316, 0, 0, -0.0997316, 0.000000000000004774, 137.350637)"/>
<path fill="none" stroke-width="5" stroke-linecap="round" stroke-linejoin="round" stroke="rgb(0%, 0%, 0%)" stroke-opacity="1" stroke-miterlimit="10" d="M 648.18503 871.352881 L 660.522832 852.434918 " transform="matrix(0.0997316, 0, 0, -0.0997316, 0.000000000000004774, 137.350637)"/>
<path fill="none" stroke-width="5" stroke-linecap="round" stroke-linejoin="round" stroke="rgb(0%, 0%, 0%)" stroke-opacity="1" stroke-miterlimit="10" d="M 2013.607613 985.526508 L 2025.318733 1025.986665 " transform="matrix(0.0997316, 0, 0, -0.0997316, 0.000000000000004774, 137.350637)"/>
<path fill="none" stroke-width="5" stroke-linecap="round" stroke-linejoin="round" stroke="rgb(0%, 0%, 0%)" stroke-opacity="1" stroke-miterlimit="10" d="M 1145.61387 488.763518 L 1192.732523 485.395102 " transform="matrix(0.0997316, 0, 0, -0.0997316, 0.000000000000004774, 137.350637)"/>
<path fill="none" stroke-width="5" stroke-linecap="round" stroke-linejoin="round" stroke="rgb(0%, 0%, 0%)" stroke-opacity="1" stroke-miterlimit="10" d="M 1351.518076 495.696187 L 1401.730972 506.232278 " transform="matrix(0.0997316, 0, 0, -0.0997316, 0.000000000000004774, 137.350637)"/>
<path fill="none" stroke-width="5" stroke-linecap="round" stroke-linejoin="round" stroke="rgb(0%, 0%, 0%)" stroke-opacity="1" stroke-miterlimit="10" d="M 1192.732523 485.395102 L 1244.355453 485.277599 " transform="matrix(0.0997316, 0, 0, -0.0997316, 0.000000000000004774, 137.350637)"/>
<path fill="none" stroke-width="5" stroke-linecap="round" stroke-linejoin="round" stroke="rgb(0%, 0%, 0%)" stroke-opacity="1" stroke-miterlimit="10" d="M 1298.132603 488.685182 L 1351.518076 495.696187 " transform="matrix(0.0997316, 0, 0, -0.0997316, 0.000000000000004774, 137.350637)"/>
<path fill="none" stroke-width="5" stroke-linecap="round" stroke-linejoin="round" stroke="rgb(0%, 0%, 0%)" stroke-opacity="1" stroke-miterlimit="10" d="M 1629.725718 668.386247 L 1676.883539 696.273596 " transform="matrix(0.0997316, 0, 0, -0.0997316, 0.000000000000004774, 137.350637)"/>
<path fill="none" stroke-width="5" stroke-linecap="round" stroke-linejoin="round" stroke="rgb(0%, 0%, 0%)" stroke-opacity="1" stroke-miterlimit="10" d="M 1244.355453 485.277599 L 1298.132603 488.685182 " transform="matrix(0.0997316, 0, 0, -0.0997316, 0.000000000000004774, 137.350637)"/>
<path fill="none" stroke-width="5" stroke-linecap="round" stroke-linejoin="round" stroke="rgb(0%, 0%, 0%)" stroke-opacity="1" stroke-miterlimit="10" d="M 940.218844 621.894276 L 989.178375 609.12563 " transform="matrix(0.0997316, 0, 0, -0.0997316, 0.000000000000004774, 137.350637)"/>
<path fill="none" stroke-width="5" stroke-linecap="round" stroke-linejoin="round" stroke="rgb(0%, 0%, 0%)" stroke-opacity="1" stroke-miterlimit="10" d="M 1565.843321 643.553973 L 1629.725718 668.386247 " transform="matrix(0.0997316, 0, 0, -0.0997316, 0.000000000000004774, 137.350637)"/>
<path fill="none" stroke-width="5" stroke-linecap="round" stroke-linejoin="round" stroke="rgb(0%, 0%, 0%)" stroke-opacity="1" stroke-miterlimit="10" d="M 989.178375 609.12563 L 1053.295778 599.294556 " transform="matrix(0.0997316, 0, 0, -0.0997316, 0.000000000000004774, 137.350637)"/>
<path fill="none" stroke-width="5" stroke-linecap="round" stroke-linejoin="round" stroke="rgb(0%, 0%, 0%)" stroke-opacity="1" stroke-miterlimit="10" d="M 660.522832 852.434918 L 701.100492 833.908631 " transform="matrix(0.0997316, 0, 0, -0.0997316, 0.000000000000004774, 137.350637)"/>
<path fill="none" stroke-width="5" stroke-linecap="round" stroke-linejoin="round" stroke="rgb(0%, 0%, 0%)" stroke-opacity="1" stroke-miterlimit="10" d="M 1967.820659 944.988016 L 2013.607613 985.526508 " transform="matrix(0.0997316, 0, 0, -0.0997316, 0.000000000000004774, 137.350637)"/>
<path fill="none" stroke-width="5" stroke-linecap="round" stroke-linejoin="round" stroke="rgb(0%, 0%, 0%)" stroke-opacity="1" stroke-miterlimit="10" d="M 1488.213088 622.912634 L 1565.843321 643.553973 " transform="matrix(0.0997316, 0, 0, -0.0997316, 0.000000000000004774, 137.350637)"/>
<path fill="none" stroke-width="5" stroke-linecap="round" stroke-linejoin="round" stroke="rgb(0%, 0%, 0%)" stroke-opacity="1" stroke-miterlimit="10" d="M 1053.295778 599.294556 L 1130.338496 593.497747 " transform="matrix(0.0997316, 0, 0, -0.0997316, 0.000000000000004774, 137.350637)"/>
<path fill="none" stroke-width="5" stroke-linecap="round" stroke-linejoin="round" stroke="rgb(0%, 0%, 0%)" stroke-opacity="1" stroke-miterlimit="10" d="M 1400.908452 607.206416 L 1488.213088 622.912634 " transform="matrix(0.0997316, 0, 0, -0.0997316, 0.000000000000004774, 137.350637)"/>
<path fill="none" stroke-width="5" stroke-linecap="round" stroke-linejoin="round" stroke="rgb(0%, 0%, 0%)" stroke-opacity="1" stroke-miterlimit="10" d="M 1130.338496 593.497747 L 1216.938116 592.557724 " transform="matrix(0.0997316, 0, 0, -0.0997316, 0.000000000000004774, 137.350637)"/>
<path fill="none" stroke-width="5" stroke-linecap="round" stroke-linejoin="round" stroke="rgb(0%, 0%, 0%)" stroke-opacity="1" stroke-miterlimit="10" d="M 1308.786197 597.022834 L 1400.908452 607.206416 " transform="matrix(0.0997316, 0, 0, -0.0997316, 0.000000000000004774, 137.350637)"/>
<path fill="none" stroke-width="5" stroke-linecap="round" stroke-linejoin="round" stroke="rgb(0%, 0%, 0%)" stroke-opacity="1" stroke-miterlimit="10" d="M 1216.938116 592.557724 L 1308.786197 597.022834 " transform="matrix(0.0997316, 0, 0, -0.0997316, 0.000000000000004774, 137.350637)"/>
<path fill="none" stroke-width="5" stroke-linecap="round" stroke-linejoin="round" stroke="rgb(0%, 0%, 0%)" stroke-opacity="1" stroke-miterlimit="10" d="M 701.100492 833.908631 L 771.71972 817.301558 " transform="matrix(0.0997316, 0, 0, -0.0997316, 0.000000000000004774, 137.350637)"/>
<path fill="none" stroke-width="5" stroke-linecap="round" stroke-linejoin="round" stroke="rgb(0%, 0%, 0%)" stroke-opacity="1" stroke-miterlimit="10" d="M 1887.566195 906.055397 L 1967.820659 944.988016 " transform="matrix(0.0997316, 0, 0, -0.0997316, 0.000000000000004774, 137.350637)"/>
<path fill="none" stroke-width="5" stroke-linecap="round" stroke-linejoin="round" stroke="rgb(0%, 0%, 0%)" stroke-opacity="1" stroke-miterlimit="10" d="M 771.71972 817.301558 L 872.302181 804.219571 " transform="matrix(0.0997316, 0, 0, -0.0997316, 0.000000000000004774, 137.350637)"/>
<path fill="none" stroke-width="5" stroke-linecap="round" stroke-linejoin="round" stroke="rgb(0%, 0%, 0%)" stroke-opacity="1" stroke-miterlimit="10" d="M 1775.155111 870.608696 L 1887.566195 906.055397 " transform="matrix(0.0997316, 0, 0, -0.0997316, 0.000000000000004774, 137.350637)"/>
<path fill="none" stroke-width="5" stroke-linecap="round" stroke-linejoin="round" stroke="rgb(0%, 0%, 0%)" stroke-opacity="1" stroke-miterlimit="10" d="M 872.302181 804.219571 L 1000.14531 796.464381 " transform="matrix(0.0997316, 0, 0, -0.0997316, 0.000000000000004774, 137.350637)"/>
<path fill="none" stroke-width="5" stroke-linecap="round" stroke-linejoin="round" stroke="rgb(0%, 0%, 0%)" stroke-opacity="1" stroke-miterlimit="10" d="M 1635.992538 840.52796 L 1775.155111 870.608696 " transform="matrix(0.0997316, 0, 0, -0.0997316, 0.000000000000004774, 137.350637)"/>
<path fill="none" stroke-width="5" stroke-linecap="round" stroke-linejoin="round" stroke="rgb(0%, 0%, 0%)" stroke-opacity="1" stroke-miterlimit="10" d="M 1000.14531 796.464381 L 1149.648136 795.406856 " transform="matrix(0.0997316, 0, 0, -0.0997316, 0.000000000000004774, 137.350637)"/>
<path fill="none" stroke-width="5" stroke-linecap="round" stroke-linejoin="round" stroke="rgb(0%, 0%, 0%)" stroke-opacity="1" stroke-miterlimit="10" d="M 1478.303679 817.419061 L 1635.992538 840.52796 " transform="matrix(0.0997316, 0, 0, -0.0997316, 0.000000000000004774, 137.350637)"/>
<path fill="none" stroke-width="5" stroke-linecap="round" stroke-linejoin="round" stroke="rgb(0%, 0%, 0%)" stroke-opacity="1" stroke-miterlimit="10" d="M 1149.648136 795.406856 L 1312.507121 802.26119 " transform="matrix(0.0997316, 0, 0, -0.0997316, 0.000000000000004774, 137.350637)"/>
<path fill="none" stroke-width="5" stroke-linecap="round" stroke-linejoin="round" stroke="rgb(0%, 0%, 0%)" stroke-opacity="1" stroke-miterlimit="10" d="M 1312.507121 802.26119 L 1478.303679 817.419061 " transform="matrix(0.0997316, 0, 0, -0.0997316, 0.000000000000004774, 137.350637)"/>
<g clip-path="url(#clip-15)">
<path fill="none" stroke-width="2.5" stroke-linecap="round" stroke-linejoin="round" stroke="rgb(0%, 0%, 0%)" stroke-opacity="1" stroke-miterlimit="10" d="M 93.297283 -0.00927761 L 2210.464097 -0.00927761 " transform="matrix(0.0997316, 0, 0, -0.0997316, 0.000000000000004774, 137.350637)"/>
</g>
<g clip-path="url(#clip-16)">
<path fill="none" stroke-width="2.5" stroke-linecap="round" stroke-linejoin="round" stroke="rgb(0%, 0%, 0%)" stroke-opacity="1" stroke-miterlimit="10" d="M 2210.464097 -0.00927761 L 2303.487207 1193.97661 " transform="matrix(0.0997316, 0, 0, -0.0997316, 0.000000000000004774, 137.350637)"/>
</g>
<g clip-path="url(#clip-17)">
<path fill="none" stroke-width="2.5" stroke-linecap="round" stroke-linejoin="round" stroke="rgb(0%, 0%, 0%)" stroke-opacity="1" stroke-miterlimit="10" d="M 2303.487207 1193.97661 L 0.274173 1193.97661 " transform="matrix(0.0997316, 0, 0, -0.0997316, 0.000000000000004774, 137.350637)"/>
</g>
<g clip-path="url(#clip-18)">
<path fill="none" stroke-width="2.5" stroke-linecap="round" stroke-linejoin="round" stroke="rgb(0%, 0%, 0%)" stroke-opacity="1" stroke-miterlimit="10" d="M 0.274173 1193.97661 L 93.297283 -0.00927761 " transform="matrix(0.0997316, 0, 0, -0.0997316, 0.000000000000004774, 137.350637)"/>
</g>
</svg>
