<?xml version="1.0" encoding="UTF-8"?>
<svg xmlns="http://www.w3.org/2000/svg" xmlns:xlink="http://www.w3.org/1999/xlink" width="151.08" height="191.36" viewBox="0 0 151.08 191.36">
<defs>
<clipPath id="clip-0">
<path clip-rule="nonzero" d="M 46 0.261719 L 101 0.261719 L 101 94 L 46 94 Z M 46 0.261719 "/>
</clipPath>
<clipPath id="clip-1">
<path clip-rule="nonzero" d="M 0 9 L 150.164062 9 L 150.164062 190.460938 L 0 190.460938 Z M 0 9 "/>
</clipPath>
<clipPath id="clip-2">
<path clip-rule="nonzero" d="M 36 47 L 128 47 L 128 190.460938 L 36 190.460938 Z M 36 47 "/>
</clipPath>
<clipPath id="clip-3">
<path clip-rule="nonzero" d="M 62 42 L 120 42 L 120 190.460938 L 62 190.460938 Z M 62 42 "/>
</clipPath>
<clipPath id="clip-4">
<path clip-rule="nonzero" d="M 114 20 L 150.164062 20 L 150.164062 68 L 114 68 Z M 114 20 "/>
</clipPath>
<clipPath id="clip-5">
<path clip-rule="nonzero" d="M 0 35 L 150.164062 35 L 150.164062 75 L 0 75 Z M 0 35 "/>
</clipPath>
</defs>
<path fill="none" stroke-width="5" stroke-linecap="round" stroke-linejoin="round" stroke="rgb(0%, 0%, 0%)" stroke-opacity="1" stroke-miterlimit="10" d="M 742.030299 857.553038 L 508.114492 823.125913 M 977.793222 830.985988 L 742.030299 857.553038 M 756.492835 981.506407 L 742.030299 857.553038 M 1185.102677 745.546982 L 977.793222 830.985988 M 756.492835 981.506407 L 977.793222 830.985988 M 508.114492 823.125913 L 306.46429 730.455639 M 756.492835 981.506407 L 508.114492 823.125913 M 1333.304375 609.096095 L 1185.102677 745.546982 M 756.492835 981.506407 L 1185.102677 745.546982 M 306.46429 730.455639 L 167.733982 588.384799 M 756.492835 981.506407 L 306.46429 730.455639 M 1393.001638 437.549977 L 1333.304375 609.096095 M 756.492835 981.506407 L 1333.304375 609.096095 M 167.733982 588.384799 L 120.88794 413.969754 M 756.492835 981.506407 L 167.733982 588.384799 M 1342.30416 256.768272 L 1393.001638 437.549977 M 1393.001638 437.549977 L 756.492835 981.506407 M 858.555898 1102.748051 L 954.213 1115.952975 M 954.213 1115.952975 L 953.15189 1182.802906 M 956.099418 1050.792961 L 954.213 1115.952975 M 954.213 1115.952975 L 1052.149523 1105.774179 M 841.617438 1167.672263 L 953.15189 1182.802906 M 953.15189 1182.802906 L 952.955388 1248.866829 M 953.15189 1182.802906 L 1067.358767 1171.091395 M 880.328303 1040.10326 L 956.099418 1050.792961 M 958.732542 989.523683 L 956.099418 1050.792961 M 956.099418 1050.792961 L 1033.75695 1042.539883 M 1052.149523 1105.774179 L 1067.358767 1171.091395 M 1033.75695 1042.539883 L 1052.149523 1105.774179 M 1052.149523 1105.774179 L 1137.313427 1073.547875 M 830.063129 1232.517875 L 952.955388 1248.866829 M 952.955388 1248.866829 L 953.662795 1311.826023 M 952.955388 1248.866829 L 1078.795175 1236.25141 M 1067.358767 1171.091395 L 1078.795175 1236.25141 M 1067.358767 1171.091395 L 1166.945906 1134.188347 M 780.151658 1067.927922 L 858.555898 1102.748051 M 858.555898 1102.748051 L 841.617438 1167.672263 M 880.328303 1040.10326 L 858.555898 1102.748051 M 120.88794 413.969754 L 186.165856 234.36706 M 756.492835 981.506407 L 120.88794 413.969754 M 749.811772 1127.743086 L 841.617438 1167.672263 M 841.617438 1167.672263 L 830.063129 1232.517875 M 1012.731252 983.707228 L 1033.75695 1042.539883 M 1033.75695 1042.539883 L 1100.960584 1016.562338 M 818.469519 1012.082096 L 880.328303 1040.10326 M 906.070046 981.978012 L 880.328303 1040.10326 M 1078.795175 1236.25141 L 1086.026443 1298.8176 M 1078.795175 1236.25141 L 1188.796912 1196.282933 M 728.628872 1189.326767 L 830.063129 1232.517875 M 830.063129 1232.517875 L 824.403875 1294.966164 M 906.070046 981.978012 L 958.732542 989.523683 M 962.073074 934.542464 L 958.732542 989.523683 M 958.732542 989.523683 L 1012.731252 983.707228 M 824.403875 1294.966164 L 953.662795 1311.826023 M 953.662795 1311.826023 L 955.195509 1369.361765 M 953.662795 1311.826023 L 1086.026443 1298.8176 M 989.897736 931.477035 L 1012.731252 983.707228 M 1012.731252 983.707228 L 1059.262891 965.393255 M 863.350543 962.209925 L 906.070046 981.978012 M 934.995118 930.612427 L 906.070046 981.978012 M 1137.313427 1073.547875 L 1166.945906 1134.188347 M 1100.960584 1016.562338 L 1137.313427 1073.547875 M 1137.313427 1073.547875 L 1195.713777 1023.793606 M 1059.262891 965.393255 L 1100.960584 1016.562338 M 1100.960584 1016.562338 L 1146.666915 976.711762 M 1086.026443 1298.8176 L 1088.698868 1356.471244 M 1086.026443 1298.8176 L 1201.883936 1257.552211 M 780.937665 970.816706 L 818.469519 1012.082096 M 818.469519 1012.082096 L 780.151658 1067.927922 M 863.350543 962.209925 L 818.469519 1012.082096 M 717.546168 1250.399543 L 824.403875 1294.966164 M 824.403875 1294.966164 L 824.91478 1352.698408 M 732.008704 1016.444437 L 780.151658 1067.927922 M 780.151658 1067.927922 L 749.811772 1127.743086 M 1166.945906 1134.188347 L 1188.796912 1196.282933 M 1166.945906 1134.188347 L 1235.839456 1077.006308 M 1013.753061 921.927045 L 1059.262891 965.393255 M 1059.262891 965.393255 L 1090.545986 937.450692 M 837.766001 933.324153 L 863.350543 962.209925 M 913.104812 920.31573 L 863.350543 962.209925 M 692.944136 1068.478127 L 749.811772 1127.743086 M 749.811772 1127.743086 L 728.628872 1189.326767 M 962.073074 934.542464 L 934.995118 930.612427 M 989.897736 931.477035 L 962.073074 934.542464 M 824.91478 1352.698408 L 955.195509 1369.361765 M 955.195509 1369.361765 L 957.632132 1419.194635 M 955.195509 1369.361765 L 1088.698868 1356.471244 M 1013.753061 921.927045 L 989.897736 931.477035 M 934.995118 930.612427 L 913.104812 920.31573 M 1188.796912 1196.282933 L 1201.883936 1257.552211 M 1188.796912 1196.282933 L 1265.314734 1134.266948 M 1029.55181 907.464509 L 1013.753061 921.927045 M 913.104812 920.31573 L 900.253591 905.342289 M 665.355275 1124.99206 L 728.628872 1189.326767 M 728.628872 1189.326767 L 717.546168 1250.399543 M 1088.698868 1356.471244 L 1086.615949 1406.93292 M 1088.698868 1356.471244 L 1205.578171 1315.638159 M 717.192464 1308.485491 L 824.91478 1352.698408 M 824.91478 1352.698408 L 831.713744 1403.317286 M 1090.545986 937.450692 L 1146.666915 976.711762 M 1029.55181 907.464509 L 1090.545986 937.450692 M 1090.545986 937.450692 L 1100.881983 904.35978 " transform="matrix(0.0993947, 0, 0, -0.0993947, 0.000000000000001776, 190.462821)"/>
<path fill="none" stroke-width="42.513" stroke-linecap="round" stroke-linejoin="round" stroke="rgb(100%, 0%, 0%)" stroke-opacity="1" stroke-miterlimit="10" d="M 860.285114 923.53836 L 854.861663 925.935683 M 865.944367 920.905236 L 860.285114 923.53836 M 871.878723 917.997008 L 865.944367 920.905236 M 854.861663 925.935683 L 849.634713 928.136504 M 849.634713 928.136504 L 844.604266 930.219423 M 878.166782 914.735077 L 871.878723 917.997008 " transform="matrix(0.0993947, 0, 0, -0.0993947, 0.000000000000001776, 190.462821)"/>
<path fill="none" stroke-width="5" stroke-linecap="round" stroke-linejoin="round" stroke="rgb(0%, 0%, 0%)" stroke-opacity="1" stroke-miterlimit="10" d="M 1146.666915 976.711762 L 1195.713777 1023.793606 M 1146.666915 976.711762 L 1162.387063 929.197614 " transform="matrix(0.0993947, 0, 0, -0.0993947, 0.000000000000001776, 190.462821)"/>
<path fill="none" stroke-width="42.513" stroke-linecap="round" stroke-linejoin="round" stroke="rgb(100%, 0%, 0%)" stroke-opacity="1" stroke-miterlimit="10" d="M 844.604266 930.219423 L 839.77032 932.105841 M 884.887146 911.119443 L 878.166782 914.735077 " transform="matrix(0.0993947, 0, 0, -0.0993947, 0.000000000000001776, 190.462821)"/>
<path fill="none" stroke-width="5" stroke-linecap="round" stroke-linejoin="round" stroke="rgb(0%, 0%, 0%)" stroke-opacity="1" stroke-miterlimit="10" d="M 1034.542957 890.447448 L 1029.55181 907.464509 M 834.111067 899.958138 L 837.766001 933.324153 M 837.766001 933.324153 L 780.937665 970.816706 M 900.253591 905.342289 L 837.766001 933.324153 " transform="matrix(0.0993947, 0, 0, -0.0993947, 0.000000000000001776, 190.462821)"/>
<path fill="none" stroke-width="42.513" stroke-linecap="round" stroke-linejoin="round" stroke="rgb(100%, 0%, 0%)" stroke-opacity="1" stroke-miterlimit="10" d="M 839.77032 932.105841 L 835.054276 933.913658 M 892.197015 906.835703 L 884.887146 911.119443 M 835.054276 933.913658 L 830.495433 935.603574 M 830.495433 935.603574 L 826.054491 937.175589 " transform="matrix(0.0993947, 0, 0, -0.0993947, 0.000000000000001776, 190.462821)"/>
<path fill="none" stroke-width="5" stroke-linecap="round" stroke-linejoin="round" stroke="rgb(0%, 0%, 0%)" stroke-opacity="1" stroke-miterlimit="10" d="M 900.253591 905.342289 L 898.681576 888.207327 " transform="matrix(0.0993947, 0, 0, -0.0993947, 0.000000000000001776, 190.462821)"/>
<path fill="none" stroke-width="42.513" stroke-linecap="round" stroke-linejoin="round" stroke="rgb(100%, 0%, 0%)" stroke-opacity="1" stroke-miterlimit="10" d="M 900.371492 901.687354 L 892.197015 906.835703 M 826.054491 937.175589 L 821.770751 938.629703 M 821.770751 938.629703 L 817.565611 940.005216 " transform="matrix(0.0993947, 0, 0, -0.0993947, 0.000000000000001776, 190.462821)"/>
<path fill="none" stroke-width="5" stroke-linecap="round" stroke-linejoin="round" stroke="rgb(0%, 0%, 0%)" stroke-opacity="1" stroke-miterlimit="10" d="M 1201.883936 1257.552211 L 1205.578171 1315.638159 M 1201.883936 1257.552211 L 1282.764098 1193.374705 " transform="matrix(0.0993947, 0, 0, -0.0993947, 0.000000000000001776, 190.462821)"/>
<path fill="none" stroke-width="42.513" stroke-linecap="round" stroke-linejoin="round" stroke="rgb(100%, 0%, 0%)" stroke-opacity="1" stroke-miterlimit="10" d="M 817.565611 940.005216 L 813.517673 941.302128 " transform="matrix(0.0993947, 0, 0, -0.0993947, 0.000000000000001776, 190.462821)"/>
<path fill="none" stroke-width="5" stroke-linecap="round" stroke-linejoin="round" stroke="rgb(0%, 0%, 0%)" stroke-opacity="1" stroke-miterlimit="10" d="M 774.885408 922.870254 L 780.937665 970.816706 M 780.937665 970.816706 L 732.008704 1016.444437 " transform="matrix(0.0993947, 0, 0, -0.0993947, 0.000000000000001776, 190.462821)"/>
<path fill="none" stroke-width="42.513" stroke-linecap="round" stroke-linejoin="round" stroke="rgb(100%, 0%, 0%)" stroke-opacity="1" stroke-miterlimit="10" d="M 910.117984 894.84909 L 900.371492 901.687354 M 813.517673 941.302128 L 809.548335 942.55974 M 809.548335 942.55974 L 805.696899 943.699451 M 805.696899 943.699451 L 801.924063 944.799861 " transform="matrix(0.0993947, 0, 0, -0.0993947, 0.000000000000001776, 190.462821)"/>
<path fill="none" stroke-width="5" stroke-linecap="round" stroke-linejoin="round" stroke="rgb(0%, 0%, 0%)" stroke-opacity="1" stroke-miterlimit="10" d="M 1195.713777 1023.793606 L 1235.839456 1077.006308 M 1195.713777 1023.793606 L 1216.621575 964.174944 " transform="matrix(0.0993947, 0, 0, -0.0993947, 0.000000000000001776, 190.462821)"/>
<path fill="none" stroke-width="42.513" stroke-linecap="round" stroke-linejoin="round" stroke="rgb(100%, 0%, 0%)" stroke-opacity="1" stroke-miterlimit="10" d="M 928.156854 879.011041 L 910.117984 894.84909 M 801.924063 944.799861 L 798.229829 945.821671 M 798.229829 945.821671 L 794.653495 946.80418 " transform="matrix(0.0993947, 0, 0, -0.0993947, 0.000000000000001776, 190.462821)"/>
<path fill="none" stroke-width="5" stroke-linecap="round" stroke-linejoin="round" stroke="rgb(0%, 0%, 0%)" stroke-opacity="1" stroke-miterlimit="10" d="M 831.713744 1403.317286 L 957.632132 1419.194635 M 957.632132 1419.194635 L 960.815462 1459.123812 M 957.632132 1419.194635 L 1086.615949 1406.93292 M 650.656937 1183.824715 L 717.546168 1250.399543 M 717.546168 1250.399543 L 717.192464 1308.485491 " transform="matrix(0.0993947, 0, 0, -0.0993947, 0.000000000000001776, 190.462821)"/>
<path fill="none" stroke-width="42.513" stroke-linecap="round" stroke-linejoin="round" stroke="rgb(100%, 0%, 0%)" stroke-opacity="1" stroke-miterlimit="10" d="M 794.653495 946.80418 L 791.155762 947.747389 M 791.155762 947.747389 L 787.73663 948.611997 " transform="matrix(0.0993947, 0, 0, -0.0993947, 0.000000000000001776, 190.462821)"/>
<path fill="none" stroke-width="5" stroke-linecap="round" stroke-linejoin="round" stroke="rgb(0%, 0%, 0%)" stroke-opacity="1" stroke-miterlimit="10" d="M 723.480524 956.157668 L 732.008704 1016.444437 M 732.008704 1016.444437 L 692.944136 1068.478127 M 1027.704693 873.862692 L 1034.542957 890.447448 M 1034.542957 890.447448 L 1100.881983 904.35978 " transform="matrix(0.0993947, 0, 0, -0.0993947, 0.000000000000001776, 190.462821)"/>
<path fill="none" stroke-width="42.513" stroke-linecap="round" stroke-linejoin="round" stroke="rgb(100%, 0%, 0%)" stroke-opacity="1" stroke-miterlimit="10" d="M 787.73663 948.611997 L 784.435398 949.398004 M 784.435398 949.398004 L 781.173468 950.184012 " transform="matrix(0.0993947, 0, 0, -0.0993947, 0.000000000000001776, 190.462821)"/>
<path fill="none" stroke-width="5" stroke-linecap="round" stroke-linejoin="round" stroke="rgb(0%, 0%, 0%)" stroke-opacity="1" stroke-miterlimit="10" d="M 898.681576 888.207327 L 908.860372 871.897673 M 898.681576 888.207327 L 834.111067 899.958138 " transform="matrix(0.0993947, 0, 0, -0.0993947, 0.000000000000001776, 190.462821)"/>
<path fill="none" stroke-width="42.513" stroke-linecap="round" stroke-linejoin="round" stroke="rgb(100%, 0%, 0%)" stroke-opacity="1" stroke-miterlimit="10" d="M 781.173468 950.184012 L 777.990138 950.930719 M 777.990138 950.930719 L 774.885408 951.598825 M 774.885408 951.598825 L 771.85928 952.227631 M 929.88607 877.124623 L 940.261368 861.876079 " transform="matrix(0.0993947, 0, 0, -0.0993947, 0.000000000000001776, 190.462821)"/>
<path fill="none" stroke-width="5" stroke-linecap="round" stroke-linejoin="round" stroke="rgb(0%, 0%, 0%)" stroke-opacity="1" stroke-miterlimit="10" d="M 1235.839456 1077.006308 L 1265.314734 1134.266948 M 1235.839456 1077.006308 L 1261.148895 1008.034157 " transform="matrix(0.0993947, 0, 0, -0.0993947, 0.000000000000001776, 190.462821)"/>
<path fill="none" stroke-width="42.513" stroke-linecap="round" stroke-linejoin="round" stroke="rgb(100%, 0%, 0%)" stroke-opacity="1" stroke-miterlimit="10" d="M 771.85928 952.227631 L 768.911752 952.856437 " transform="matrix(0.0993947, 0, 0, -0.0993947, 0.000000000000001776, 190.462821)"/>
<path fill="none" stroke-width="5" stroke-linecap="round" stroke-linejoin="round" stroke="rgb(0%, 0%, 0%)" stroke-opacity="1" stroke-miterlimit="10" d="M 1086.615949 1406.93292 L 1079.699083 1448.001807 M 1086.615949 1406.93292 L 1199.447313 1368.104153 " transform="matrix(0.0993947, 0, 0, -0.0993947, 0.000000000000001776, 190.462821)"/>
<path fill="none" stroke-width="42.513" stroke-linecap="round" stroke-linejoin="round" stroke="rgb(100%, 0%, 0%)" stroke-opacity="1" stroke-miterlimit="10" d="M 768.911752 952.856437 L 766.042825 953.406642 " transform="matrix(0.0993947, 0, 0, -0.0993947, 0.000000000000001776, 190.462821)"/>
<path fill="none" stroke-width="5" stroke-linecap="round" stroke-linejoin="round" stroke="rgb(0%, 0%, 0%)" stroke-opacity="1" stroke-miterlimit="10" d="M 1100.881983 904.35978 L 1162.387063 929.197614 M 1100.881983 904.35978 L 1087.952161 871.779772 " transform="matrix(0.0993947, 0, 0, -0.0993947, 0.000000000000001776, 190.462821)"/>
<path fill="none" stroke-width="42.513" stroke-linecap="round" stroke-linejoin="round" stroke="rgb(100%, 0%, 0%)" stroke-opacity="1" stroke-miterlimit="10" d="M 766.042825 953.406642 L 763.252499 953.956847 " transform="matrix(0.0993947, 0, 0, -0.0993947, 0.000000000000001776, 190.462821)"/>
<path fill="none" stroke-width="5" stroke-linecap="round" stroke-linejoin="round" stroke="rgb(0%, 0%, 0%)" stroke-opacity="1" stroke-miterlimit="10" d="M 727.803564 1361.305189 L 831.713744 1403.317286 M 831.713744 1403.317286 L 844.800768 1444.700576 " transform="matrix(0.0993947, 0, 0, -0.0993947, 0.000000000000001776, 190.462821)"/>
<path fill="none" stroke-width="42.513" stroke-linecap="round" stroke-linejoin="round" stroke="rgb(100%, 0%, 0%)" stroke-opacity="1" stroke-miterlimit="10" d="M 763.252499 953.956847 L 760.501473 954.428452 " transform="matrix(0.0993947, 0, 0, -0.0993947, 0.000000000000001776, 190.462821)"/>
<path fill="none" stroke-width="5" stroke-linecap="round" stroke-linejoin="round" stroke="rgb(0%, 0%, 0%)" stroke-opacity="1" stroke-miterlimit="10" d="M 1010.058826 860.618467 L 1027.704693 873.862692 M 1087.952161 871.779772 L 1027.704693 873.862692 M 853.604051 867.889036 L 834.111067 899.958138 M 834.111067 899.958138 L 774.885408 922.870254 " transform="matrix(0.0993947, 0, 0, -0.0993947, 0.000000000000001776, 190.462821)"/>
<path fill="none" stroke-width="42.513" stroke-linecap="round" stroke-linejoin="round" stroke="rgb(100%, 0%, 0%)" stroke-opacity="1" stroke-miterlimit="10" d="M 760.501473 954.428452 L 757.829048 954.900056 " transform="matrix(0.0993947, 0, 0, -0.0993947, 0.000000000000001776, 190.462821)"/>
<path fill="none" stroke-width="5" stroke-linecap="round" stroke-linejoin="round" stroke="rgb(0%, 0%, 0%)" stroke-opacity="1" stroke-miterlimit="10" d="M 682.097233 998.75927 L 692.944136 1068.478127 M 692.944136 1068.478127 L 665.355275 1124.99206 M 1205.578171 1315.638159 L 1199.447313 1368.104153 M 1205.578171 1315.638159 L 1287.20504 1252.050159 M 908.860372 871.897673 L 929.139363 859.242954 M 908.860372 871.897673 L 853.604051 867.889036 " transform="matrix(0.0993947, 0, 0, -0.0993947, 0.000000000000001776, 190.462821)"/>
<path fill="none" stroke-width="42.513" stroke-linecap="round" stroke-linejoin="round" stroke="rgb(100%, 0%, 0%)" stroke-opacity="1" stroke-miterlimit="10" d="M 757.829048 954.900056 L 755.235223 955.33236 M 755.235223 955.33236 L 752.680699 955.725364 M 752.680699 955.725364 L 750.204776 956.118368 M 940.261368 861.876079 L 942.422889 855.62732 " transform="matrix(0.0993947, 0, 0, -0.0993947, 0.000000000000001776, 190.462821)"/>
<path fill="none" stroke-width="5" stroke-linecap="round" stroke-linejoin="round" stroke="rgb(0%, 0%, 0%)" stroke-opacity="1" stroke-miterlimit="10" d="M 649.674427 1242.57877 L 717.192464 1308.485491 M 717.192464 1308.485491 L 727.803564 1361.305189 " transform="matrix(0.0993947, 0, 0, -0.0993947, 0.000000000000001776, 190.462821)"/>
<path fill="none" stroke-width="42.513" stroke-linecap="round" stroke-linejoin="round" stroke="rgb(100%, 0%, 0%)" stroke-opacity="1" stroke-miterlimit="10" d="M 750.204776 956.118368 L 747.807453 956.432771 M 747.807453 956.432771 L 745.449431 956.747174 " transform="matrix(0.0993947, 0, 0, -0.0993947, 0.000000000000001776, 190.462821)"/>
<path fill="none" stroke-width="5" stroke-linecap="round" stroke-linejoin="round" stroke="rgb(0%, 0%, 0%)" stroke-opacity="1" stroke-miterlimit="10" d="M 984.631487 853.033495 L 1010.058826 860.618467 M 1010.058826 860.618467 L 1053.485736 845.487824 M 1162.387063 929.197614 L 1216.621575 964.174944 M 1162.387063 929.197614 L 1144.348193 881.997869 " transform="matrix(0.0993947, 0, 0, -0.0993947, 0.000000000000001776, 190.462821)"/>
<path fill="none" stroke-width="42.513" stroke-linecap="round" stroke-linejoin="round" stroke="rgb(100%, 0%, 0%)" stroke-opacity="1" stroke-miterlimit="10" d="M 745.449431 956.747174 L 743.170009 957.022276 " transform="matrix(0.0993947, 0, 0, -0.0993947, 0.000000000000001776, 190.462821)"/>
<path fill="none" stroke-width="5" stroke-linecap="round" stroke-linejoin="round" stroke="rgb(0%, 0%, 0%)" stroke-opacity="1" stroke-miterlimit="10" d="M 929.139363 859.242954 L 955.981516 852.561891 M 929.139363 859.242954 L 893.336726 842.815399 M 1265.314734 1134.266948 L 1282.764098 1193.374705 M 1265.314734 1134.266948 L 1293.964704 1059.124639 " transform="matrix(0.0993947, 0, 0, -0.0993947, 0.000000000000001776, 190.462821)"/>
<path fill="none" stroke-width="42.513" stroke-linecap="round" stroke-linejoin="round" stroke="rgb(100%, 0%, 0%)" stroke-opacity="1" stroke-miterlimit="10" d="M 743.170009 957.022276 L 740.969189 957.258079 M 942.422889 855.62732 L 943.051694 851.107777 M 740.969189 957.258079 L 738.807668 957.493881 " transform="matrix(0.0993947, 0, 0, -0.0993947, 0.000000000000001776, 190.462821)"/>
<path fill="none" stroke-width="5" stroke-linecap="round" stroke-linejoin="round" stroke="rgb(0%, 0%, 0%)" stroke-opacity="1" stroke-miterlimit="10" d="M 802.59217 876.338615 L 774.885408 922.870254 M 774.885408 922.870254 L 723.480524 956.157668 M 955.981516 852.561891 L 984.631487 853.033495 M 984.631487 853.033495 L 1003.299163 830.435782 M 955.981516 852.561891 L 946.431526 829.453273 " transform="matrix(0.0993947, 0, 0, -0.0993947, 0.000000000000001776, 190.462821)"/>
<path fill="none" stroke-width="42.513" stroke-linecap="round" stroke-linejoin="round" stroke="rgb(100%, 0%, 0%)" stroke-opacity="1" stroke-miterlimit="10" d="M 738.807668 957.493881 L 736.685448 957.690383 " transform="matrix(0.0993947, 0, 0, -0.0993947, 0.000000000000001776, 190.462821)"/>
<path fill="none" stroke-width="5" stroke-linecap="round" stroke-linejoin="round" stroke="rgb(0%, 0%, 0%)" stroke-opacity="1" stroke-miterlimit="10" d="M 844.800768 1444.700576 L 960.815462 1459.123812 M 960.815462 1459.123812 L 964.666898 1487.223577 M 960.815462 1459.123812 L 1079.699083 1448.001807 " transform="matrix(0.0993947, 0, 0, -0.0993947, 0.000000000000001776, 190.462821)"/>
<path fill="none" stroke-width="42.513" stroke-linecap="round" stroke-linejoin="round" stroke="rgb(100%, 0%, 0%)" stroke-opacity="1" stroke-miterlimit="10" d="M 736.685448 957.690383 L 734.681129 957.847584 " transform="matrix(0.0993947, 0, 0, -0.0993947, 0.000000000000001776, 190.462821)"/>
<path fill="none" stroke-width="5" stroke-linecap="round" stroke-linejoin="round" stroke="rgb(0%, 0%, 0%)" stroke-opacity="1" stroke-miterlimit="10" d="M 652.779157 1049.024444 L 665.355275 1124.99206 M 665.355275 1124.99206 L 650.656937 1183.824715 " transform="matrix(0.0993947, 0, 0, -0.0993947, 0.000000000000001776, 190.462821)"/>
<path fill="none" stroke-width="42.513" stroke-linecap="round" stroke-linejoin="round" stroke="rgb(100%, 0%, 0%)" stroke-opacity="1" stroke-miterlimit="10" d="M 943.051694 851.107777 L 942.815892 847.492143 " transform="matrix(0.0993947, 0, 0, -0.0993947, 0.000000000000001776, 190.462821)"/>
<g clip-path="url(#clip-0)">
<path fill="none" stroke-width="5" stroke-linecap="round" stroke-linejoin="round" stroke="rgb(0%, 0%, 0%)" stroke-opacity="1" stroke-miterlimit="10" d="M 738.611166 1911.117375 L 466.5347 1882.467405 M 1012.731252 1889.030567 L 738.611166 1911.117375 M 756.492835 981.506407 L 738.611166 1911.117375 " transform="matrix(0.0993947, 0, 0, -0.0993947, 0.000000000000001776, 190.462821)"/>
</g>
<path fill="none" stroke-width="42.513" stroke-linecap="round" stroke-linejoin="round" stroke="rgb(100%, 0%, 0%)" stroke-opacity="1" stroke-miterlimit="10" d="M 734.681129 957.847584 L 732.716111 957.965485 " transform="matrix(0.0993947, 0, 0, -0.0993947, 0.000000000000001776, 190.462821)"/>
<path fill="none" stroke-width="5" stroke-linecap="round" stroke-linejoin="round" stroke="rgb(0%, 0%, 0%)" stroke-opacity="1" stroke-miterlimit="10" d="M 1087.952161 871.779772 L 1053.485736 845.487824 M 1144.348193 881.997869 L 1087.952161 871.779772 " transform="matrix(0.0993947, 0, 0, -0.0993947, 0.000000000000001776, 190.462821)"/>
<path fill="none" stroke-width="42.513" stroke-linecap="round" stroke-linejoin="round" stroke="rgb(100%, 0%, 0%)" stroke-opacity="1" stroke-miterlimit="10" d="M 732.716111 957.965485 L 730.829693 958.083386 " transform="matrix(0.0993947, 0, 0, -0.0993947, 0.000000000000001776, 190.462821)"/>
<path fill="none" stroke-width="5" stroke-linecap="round" stroke-linejoin="round" stroke="rgb(0%, 0%, 0%)" stroke-opacity="1" stroke-miterlimit="10" d="M 1177.124702 101.571108 L 1342.30416 256.768272 M 756.492835 981.506407 L 1342.30416 256.768272 " transform="matrix(0.0993947, 0, 0, -0.0993947, 0.000000000000001776, 190.462821)"/>
<path fill="none" stroke-width="42.513" stroke-linecap="round" stroke-linejoin="round" stroke="rgb(100%, 0%, 0%)" stroke-opacity="1" stroke-miterlimit="10" d="M 942.815892 847.492143 L 942.108486 844.505315 M 730.829693 958.083386 L 728.982575 958.161987 " transform="matrix(0.0993947, 0, 0, -0.0993947, 0.000000000000001776, 190.462821)"/>
<path fill="none" stroke-width="5" stroke-linecap="round" stroke-linejoin="round" stroke="rgb(0%, 0%, 0%)" stroke-opacity="1" stroke-miterlimit="10" d="M 893.336726 842.815399 L 853.604051 867.889036 M 853.604051 867.889036 L 802.59217 876.338615 " transform="matrix(0.0993947, 0, 0, -0.0993947, 0.000000000000001776, 190.462821)"/>
<path fill="none" stroke-width="42.513" stroke-linecap="round" stroke-linejoin="round" stroke="rgb(100%, 0%, 0%)" stroke-opacity="1" stroke-miterlimit="10" d="M 728.982575 958.161987 L 727.214059 958.240588 M 942.108486 844.505315 L 940.968775 841.990091 M 727.214059 958.240588 L 725.484842 958.240588 " transform="matrix(0.0993947, 0, 0, -0.0993947, 0.000000000000001776, 190.462821)"/>
<path fill="none" stroke-width="5" stroke-linecap="round" stroke-linejoin="round" stroke="rgb(0%, 0%, 0%)" stroke-opacity="1" stroke-miterlimit="10" d="M 1079.699083 1448.001807 L 1068.026873 1477.673587 M 1079.699083 1448.001807 L 1183.491362 1412.710074 M 1216.621575 964.174944 L 1261.148895 1008.034157 M 1216.621575 964.174944 L 1194.495466 904.477681 M 1199.447313 1368.104153 L 1183.491362 1412.710074 M 1199.447313 1368.104153 L 1278.126655 1307.738784 " transform="matrix(0.0993947, 0, 0, -0.0993947, 0.000000000000001776, 190.462821)"/>
<path fill="none" stroke-width="42.513" stroke-linecap="round" stroke-linejoin="round" stroke="rgb(100%, 0%, 0%)" stroke-opacity="1" stroke-miterlimit="10" d="M 725.484842 958.240588 L 723.834227 958.240588 " transform="matrix(0.0993947, 0, 0, -0.0993947, 0.000000000000001776, 190.462821)"/>
<path fill="none" stroke-width="5" stroke-linecap="round" stroke-linejoin="round" stroke="rgb(0%, 0%, 0%)" stroke-opacity="1" stroke-miterlimit="10" d="M 749.300867 1406.539916 L 844.800768 1444.700576 M 844.800768 1444.700576 L 863.822147 1474.84396 " transform="matrix(0.0993947, 0, 0, -0.0993947, 0.000000000000001776, 190.462821)"/>
<path fill="none" stroke-width="42.513" stroke-linecap="round" stroke-linejoin="round" stroke="rgb(100%, 0%, 0%)" stroke-opacity="1" stroke-miterlimit="10" d="M 940.968775 841.990091 L 939.553961 839.828571 " transform="matrix(0.0993947, 0, 0, -0.0993947, 0.000000000000001776, 190.462821)"/>
<path fill="none" stroke-width="5" stroke-linecap="round" stroke-linejoin="round" stroke="rgb(0%, 0%, 0%)" stroke-opacity="1" stroke-miterlimit="10" d="M 1282.764098 1193.374705 L 1287.20504 1252.050159 M 1282.764098 1193.374705 L 1313.418388 1115.520671 " transform="matrix(0.0993947, 0, 0, -0.0993947, 0.000000000000001776, 190.462821)"/>
<path fill="none" stroke-width="42.513" stroke-linecap="round" stroke-linejoin="round" stroke="rgb(100%, 0%, 0%)" stroke-opacity="1" stroke-miterlimit="10" d="M 723.834227 958.240588 L 722.262212 958.201287 M 722.262212 958.201287 L 720.729498 958.161987 " transform="matrix(0.0993947, 0, 0, -0.0993947, 0.000000000000001776, 190.462821)"/>
<path fill="none" stroke-width="5" stroke-linecap="round" stroke-linejoin="round" stroke="rgb(0%, 0%, 0%)" stroke-opacity="1" stroke-miterlimit="10" d="M 757.986249 897.325013 L 723.480524 956.157668 M 723.480524 956.157668 L 682.097233 998.75927 M 662.840052 1298.738999 L 727.803564 1361.305189 M 727.803564 1361.305189 L 749.300867 1406.539916 " transform="matrix(0.0993947, 0, 0, -0.0993947, 0.000000000000001776, 190.462821)"/>
<path fill="none" stroke-width="42.513" stroke-linecap="round" stroke-linejoin="round" stroke="rgb(100%, 0%, 0%)" stroke-opacity="1" stroke-miterlimit="10" d="M 939.553961 839.828571 L 937.942646 837.942153 M 720.729498 958.161987 L 719.275384 958.044086 " transform="matrix(0.0993947, 0, 0, -0.0993947, 0.000000000000001776, 190.462821)"/>
<path fill="none" stroke-width="5" stroke-linecap="round" stroke-linejoin="round" stroke="rgb(0%, 0%, 0%)" stroke-opacity="1" stroke-miterlimit="10" d="M 186.165856 234.36706 L 364.70744 85.261454 M 756.492835 981.506407 L 186.165856 234.36706 " transform="matrix(0.0993947, 0, 0, -0.0993947, 0.000000000000001776, 190.462821)"/>
<path fill="none" stroke-width="42.513" stroke-linecap="round" stroke-linejoin="round" stroke="rgb(100%, 0%, 0%)" stroke-opacity="1" stroke-miterlimit="10" d="M 719.275384 958.044086 L 717.899871 957.926185 M 937.942646 837.942153 L 936.056228 836.330838 " transform="matrix(0.0993947, 0, 0, -0.0993947, 0.000000000000001776, 190.462821)"/>
<path fill="none" stroke-width="5" stroke-linecap="round" stroke-linejoin="round" stroke="rgb(0%, 0%, 0%)" stroke-opacity="1" stroke-miterlimit="10" d="M 637.019708 1105.066773 L 650.656937 1183.824715 M 650.656937 1183.824715 L 649.674427 1242.57877 " transform="matrix(0.0993947, 0, 0, -0.0993947, 0.000000000000001776, 190.462821)"/>
<path fill="none" stroke-width="42.513" stroke-linecap="round" stroke-linejoin="round" stroke="rgb(100%, 0%, 0%)" stroke-opacity="1" stroke-miterlimit="10" d="M 717.899871 957.926185 L 716.563658 957.768983 " transform="matrix(0.0993947, 0, 0, -0.0993947, 0.000000000000001776, 190.462821)"/>
<path fill="none" stroke-width="5" stroke-linecap="round" stroke-linejoin="round" stroke="rgb(0%, 0%, 0%)" stroke-opacity="1" stroke-miterlimit="10" d="M 1053.485736 845.487824 L 1094.554623 843.640707 M 1053.485736 845.487824 L 1003.299163 830.435782 " transform="matrix(0.0993947, 0, 0, -0.0993947, 0.000000000000001776, 190.462821)"/>
<path fill="none" stroke-width="42.513" stroke-linecap="round" stroke-linejoin="round" stroke="rgb(100%, 0%, 0%)" stroke-opacity="1" stroke-miterlimit="10" d="M 936.056228 836.330838 L 934.09121 834.916025 M 716.563658 957.768983 L 715.345347 957.572481 " transform="matrix(0.0993947, 0, 0, -0.0993947, 0.000000000000001776, 190.462821)"/>
<path fill="none" stroke-width="5" stroke-linecap="round" stroke-linejoin="round" stroke="rgb(0%, 0%, 0%)" stroke-opacity="1" stroke-miterlimit="10" d="M 1255.646843 1817.661093 L 1012.731252 1889.030567 M 756.492835 981.506407 L 1012.731252 1889.030567 M 946.431526 829.453273 L 893.336726 842.815399 M 893.336726 842.815399 L 860.206513 839.74997 " transform="matrix(0.0993947, 0, 0, -0.0993947, 0.000000000000001776, 190.462821)"/>
<path fill="none" stroke-width="42.513" stroke-linecap="round" stroke-linejoin="round" stroke="rgb(100%, 0%, 0%)" stroke-opacity="1" stroke-miterlimit="10" d="M 715.345347 957.572481 L 714.166336 957.37598 M 934.09121 834.916025 L 931.92969 833.737014 M 714.166336 957.37598 L 713.026625 957.100877 " transform="matrix(0.0993947, 0, 0, -0.0993947, 0.000000000000001776, 190.462821)"/>
<path fill="none" stroke-width="5" stroke-linecap="round" stroke-linejoin="round" stroke="rgb(0%, 0%, 0%)" stroke-opacity="1" stroke-miterlimit="10" d="M 1144.348193 881.997869 L 1094.554623 843.640707 M 1194.495466 904.477681 L 1144.348193 881.997869 " transform="matrix(0.0993947, 0, 0, -0.0993947, 0.000000000000001776, 190.462821)"/>
<path fill="none" stroke-width="42.513" stroke-linecap="round" stroke-linejoin="round" stroke="rgb(100%, 0%, 0%)" stroke-opacity="1" stroke-miterlimit="10" d="M 931.92969 833.737014 L 929.650268 832.675903 " transform="matrix(0.0993947, 0, 0, -0.0993947, 0.000000000000001776, 190.462821)"/>
<path fill="none" stroke-width="5" stroke-linecap="round" stroke-linejoin="round" stroke="rgb(0%, 0%, 0%)" stroke-opacity="1" stroke-miterlimit="10" d="M 1261.148895 1008.034157 L 1293.964704 1059.124639 M 1261.148895 1008.034157 L 1235.996657 938.590402 " transform="matrix(0.0993947, 0, 0, -0.0993947, 0.000000000000001776, 190.462821)"/>
<path fill="none" stroke-width="42.513" stroke-linecap="round" stroke-linejoin="round" stroke="rgb(100%, 0%, 0%)" stroke-opacity="1" stroke-miterlimit="10" d="M 713.026625 957.100877 L 712.044116 956.786474 " transform="matrix(0.0993947, 0, 0, -0.0993947, 0.000000000000001776, 190.462821)"/>
<path fill="none" stroke-width="5" stroke-linecap="round" stroke-linejoin="round" stroke="rgb(0%, 0%, 0%)" stroke-opacity="1" stroke-miterlimit="10" d="M 466.5347 1882.467405 L 229.789267 1805.045674 M 756.492835 981.506407 L 466.5347 1882.467405 " transform="matrix(0.0993947, 0, 0, -0.0993947, 0.000000000000001776, 190.462821)"/>
<path fill="none" stroke-width="42.513" stroke-linecap="round" stroke-linejoin="round" stroke="rgb(100%, 0%, 0%)" stroke-opacity="1" stroke-miterlimit="10" d="M 929.650268 832.675903 L 927.292246 831.771995 " transform="matrix(0.0993947, 0, 0, -0.0993947, 0.000000000000001776, 190.462821)"/>
<path fill="none" stroke-width="5" stroke-linecap="round" stroke-linejoin="round" stroke="rgb(0%, 0%, 0%)" stroke-opacity="1" stroke-miterlimit="10" d="M 860.206513 839.74997 L 802.59217 876.338615 M 802.59217 876.338615 L 757.986249 897.325013 " transform="matrix(0.0993947, 0, 0, -0.0993947, 0.000000000000001776, 190.462821)"/>
<path fill="none" stroke-width="42.513" stroke-linecap="round" stroke-linejoin="round" stroke="rgb(100%, 0%, 0%)" stroke-opacity="1" stroke-miterlimit="10" d="M 712.044116 956.786474 L 711.061606 956.432771 " transform="matrix(0.0993947, 0, 0, -0.0993947, 0.000000000000001776, 190.462821)"/>
<path fill="none" stroke-width="5" stroke-linecap="round" stroke-linejoin="round" stroke="rgb(0%, 0%, 0%)" stroke-opacity="1" stroke-miterlimit="10" d="M 1003.299163 830.435782 L 1021.259432 821.553899 M 1003.299163 830.435782 L 946.431526 829.453273 " transform="matrix(0.0993947, 0, 0, -0.0993947, 0.000000000000001776, 190.462821)"/>
<path fill="none" stroke-width="42.513" stroke-linecap="round" stroke-linejoin="round" stroke="rgb(100%, 0%, 0%)" stroke-opacity="1" stroke-miterlimit="10" d="M 927.292246 831.771995 L 924.855623 831.064588 M 711.061606 956.432771 L 710.236299 956.000467 " transform="matrix(0.0993947, 0, 0, -0.0993947, 0.000000000000001776, 190.462821)"/>
<path fill="none" stroke-width="5" stroke-linecap="round" stroke-linejoin="round" stroke="rgb(0%, 0%, 0%)" stroke-opacity="1" stroke-miterlimit="10" d="M 946.431526 829.453273 L 937.864046 820.178386 " transform="matrix(0.0993947, 0, 0, -0.0993947, 0.000000000000001776, 190.462821)"/>
<path fill="none" stroke-width="42.513" stroke-linecap="round" stroke-linejoin="round" stroke="rgb(100%, 0%, 0%)" stroke-opacity="1" stroke-miterlimit="10" d="M 924.855623 831.064588 L 922.301099 830.435782 " transform="matrix(0.0993947, 0, 0, -0.0993947, 0.000000000000001776, 190.462821)"/>
<path fill="none" stroke-width="5" stroke-linecap="round" stroke-linejoin="round" stroke="rgb(0%, 0%, 0%)" stroke-opacity="1" stroke-miterlimit="10" d="M 1287.20504 1252.050159 L 1278.126655 1307.738784 M 1287.20504 1252.050159 L 1318.213033 1174.864231 " transform="matrix(0.0993947, 0, 0, -0.0993947, 0.000000000000001776, 190.462821)"/>
<path fill="none" stroke-width="42.513" stroke-linecap="round" stroke-linejoin="round" stroke="rgb(100%, 0%, 0%)" stroke-opacity="1" stroke-miterlimit="10" d="M 710.236299 956.000467 L 709.410991 955.568163 " transform="matrix(0.0993947, 0, 0, -0.0993947, 0.000000000000001776, 190.462821)"/>
<path fill="none" stroke-width="5" stroke-linecap="round" stroke-linejoin="round" stroke="rgb(0%, 0%, 0%)" stroke-opacity="1" stroke-miterlimit="10" d="M 863.822147 1474.84396 L 964.666898 1487.223577 M 964.666898 1487.223577 L 969.029239 1501.843315 M 964.666898 1487.223577 L 1068.026873 1477.673587 M 721.987109 930.219423 L 682.097233 998.75927 M 682.097233 998.75927 L 652.779157 1049.024444 " transform="matrix(0.0993947, 0, 0, -0.0993947, 0.000000000000001776, 190.462821)"/>
<path fill="none" stroke-width="42.513" stroke-linecap="round" stroke-linejoin="round" stroke="rgb(100%, 0%, 0%)" stroke-opacity="1" stroke-miterlimit="10" d="M 922.301099 830.435782 L 919.707274 829.924878 M 709.410991 955.568163 L 708.742885 955.017957 " transform="matrix(0.0993947, 0, 0, -0.0993947, 0.000000000000001776, 190.462821)"/>
<path fill="none" stroke-width="5" stroke-linecap="round" stroke-linejoin="round" stroke="rgb(0%, 0%, 0%)" stroke-opacity="1" stroke-miterlimit="10" d="M 1183.491362 1412.710074 L 1158.064022 1447.2944 M 1183.491362 1412.710074 L 1255.528942 1357.964658 " transform="matrix(0.0993947, 0, 0, -0.0993947, 0.000000000000001776, 190.462821)"/>
<path fill="none" stroke-width="42.513" stroke-linecap="round" stroke-linejoin="round" stroke="rgb(100%, 0%, 0%)" stroke-opacity="1" stroke-miterlimit="10" d="M 919.707274 829.924878 L 916.995549 829.531874 M 708.742885 955.017957 L 708.192679 954.428452 M 916.995549 829.531874 L 914.244523 829.296072 M 802.710071 1444.543374 L 812.18146 1449.966826 M 793.592385 1438.962722 L 802.710071 1444.543374 M 784.749801 1433.264168 L 793.592385 1438.962722 M 812.18146 1449.966826 L 822.006553 1455.233075 M 776.260921 1427.408413 L 784.749801 1433.264168 M 822.006553 1455.233075 L 832.185349 1460.342123 M 708.192679 954.428452 L 707.721075 953.721045 M 768.047144 1421.434756 L 776.260921 1427.408413 M 832.185349 1460.342123 L 842.757149 1465.29397 " transform="matrix(0.0993947, 0, 0, -0.0993947, 0.000000000000001776, 190.462821)"/>
<path fill="none" stroke-width="5" stroke-linecap="round" stroke-linejoin="round" stroke="rgb(0%, 0%, 0%)" stroke-opacity="1" stroke-miterlimit="10" d="M 635.919298 1164.488933 L 649.674427 1242.57877 M 649.674427 1242.57877 L 662.840052 1298.738999 " transform="matrix(0.0993947, 0, 0, -0.0993947, 0.000000000000001776, 190.462821)"/>
<path fill="none" stroke-width="42.513" stroke-linecap="round" stroke-linejoin="round" stroke="rgb(100%, 0%, 0%)" stroke-opacity="1" stroke-miterlimit="10" d="M 760.147769 1415.382499 L 768.047144 1421.434756 M 842.757149 1465.29397 L 853.721952 1470.010015 M 752.523497 1409.212341 L 760.147769 1415.382499 M 914.244523 829.296072 L 911.454196 829.09957 M 745.174328 1402.963582 L 752.523497 1409.212341 M 853.721952 1470.010015 L 865.119059 1474.529557 " transform="matrix(0.0993947, 0, 0, -0.0993947, 0.000000000000001776, 190.462821)"/>
<path fill="none" stroke-width="5" stroke-linecap="round" stroke-linejoin="round" stroke="rgb(0%, 0%, 0%)" stroke-opacity="1" stroke-miterlimit="10" d="M 1068.026873 1477.673587 L 1051.953022 1494.219043 M 1068.026873 1477.673587 L 1158.064022 1447.2944 M 689.996608 1349.829481 L 749.300867 1406.539916 M 749.300867 1406.539916 L 781.094867 1442.028151 " transform="matrix(0.0993947, 0, 0, -0.0993947, 0.000000000000001776, 190.462821)"/>
<path fill="none" stroke-width="42.513" stroke-linecap="round" stroke-linejoin="round" stroke="rgb(100%, 0%, 0%)" stroke-opacity="1" stroke-miterlimit="10" d="M 738.139562 1396.596922 L 745.174328 1402.963582 M 707.721075 953.721045 L 707.367372 952.935038 M 865.119059 1474.529557 L 876.987771 1478.813298 M 731.301297 1390.151661 L 738.139562 1396.596922 M 911.454196 829.09957 L 908.62457 829.020969 M 724.777436 1383.6278 L 731.301297 1390.151661 M 876.987771 1478.813298 L 889.288787 1482.821935 " transform="matrix(0.0993947, 0, 0, -0.0993947, 0.000000000000001776, 190.462821)"/>
<path fill="none" stroke-width="5" stroke-linecap="round" stroke-linejoin="round" stroke="rgb(0%, 0%, 0%)" stroke-opacity="1" stroke-miterlimit="10" d="M 781.094867 1442.028151 L 863.822147 1474.84396 M 863.822147 1474.84396 L 888.188377 1491.939621 " transform="matrix(0.0993947, 0, 0, -0.0993947, 0.000000000000001776, 190.462821)"/>
<path fill="none" stroke-width="42.513" stroke-linecap="round" stroke-linejoin="round" stroke="rgb(100%, 0%, 0%)" stroke-opacity="1" stroke-miterlimit="10" d="M 718.489376 1377.064638 L 724.777436 1383.6278 M 889.288787 1482.821935 L 902.179309 1486.51617 M 707.367372 952.935038 L 707.21017 952.031129 M 712.437119 1370.383575 L 718.489376 1377.064638 M 908.62457 829.020969 L 905.716342 829.020969 M 706.659965 1363.623911 L 712.437119 1370.383575 M 902.179309 1486.51617 L 915.620036 1489.935302 M 701.079312 1356.824947 L 706.659965 1363.623911 M 905.716342 829.020969 L 902.768815 829.13887 M 707.21017 952.031129 L 707.21017 950.930719 M 695.773762 1349.947382 L 701.079312 1356.824947 " transform="matrix(0.0993947, 0, 0, -0.0993947, 0.000000000000001776, 190.462821)"/>
<path fill="none" stroke-width="5" stroke-linecap="round" stroke-linejoin="round" stroke="rgb(0%, 0%, 0%)" stroke-opacity="1" stroke-miterlimit="10" d="M 1293.964704 1059.124639 L 1313.418388 1115.520671 M 1293.964704 1059.124639 L 1266.768848 983.235624 " transform="matrix(0.0993947, 0, 0, -0.0993947, 0.000000000000001776, 190.462821)"/>
<path fill="none" stroke-width="42.513" stroke-linecap="round" stroke-linejoin="round" stroke="rgb(100%, 0%, 0%)" stroke-opacity="1" stroke-miterlimit="10" d="M 915.620036 1489.935302 L 929.650268 1492.922131 M 902.768815 829.13887 L 899.821287 829.335372 M 690.704014 1343.030517 L 695.773762 1349.947382 M 707.21017 950.930719 L 707.445972 949.633807 M 685.830768 1336.035051 L 690.704014 1343.030517 " transform="matrix(0.0993947, 0, 0, -0.0993947, 0.000000000000001776, 190.462821)"/>
<path fill="none" stroke-width="5" stroke-linecap="round" stroke-linejoin="round" stroke="rgb(0%, 0%, 0%)" stroke-opacity="1" stroke-miterlimit="10" d="M 1194.495466 904.477681 L 1131.33977 855.66662 M 1235.996657 938.590402 L 1194.495466 904.477681 " transform="matrix(0.0993947, 0, 0, -0.0993947, 0.000000000000001776, 190.462821)"/>
<path fill="none" stroke-width="42.513" stroke-linecap="round" stroke-linejoin="round" stroke="rgb(100%, 0%, 0%)" stroke-opacity="1" stroke-miterlimit="10" d="M 929.650268 1492.922131 L 944.387907 1495.476655 M 899.821287 829.335372 L 896.834459 829.610475 M 681.193325 1328.960984 L 685.830768 1336.035051 " transform="matrix(0.0993947, 0, 0, -0.0993947, 0.000000000000001776, 190.462821)"/>
<path fill="none" stroke-width="5" stroke-linecap="round" stroke-linejoin="round" stroke="rgb(0%, 0%, 0%)" stroke-opacity="1" stroke-miterlimit="10" d="M 1094.554623 843.640707 L 1131.33977 855.66662 M 1094.554623 843.640707 L 1021.259432 821.553899 " transform="matrix(0.0993947, 0, 0, -0.0993947, 0.000000000000001776, 190.462821)"/>
<path fill="none" stroke-width="42.513" stroke-linecap="round" stroke-linejoin="round" stroke="rgb(100%, 0%, 0%)" stroke-opacity="1" stroke-miterlimit="10" d="M 896.834459 829.610475 L 893.80833 829.964178 M 676.791683 1321.926218 L 681.193325 1328.960984 M 944.387907 1495.476655 L 959.950854 1497.520274 M 707.445972 949.633807 L 707.956877 948.061792 M 893.80833 829.964178 L 890.703601 830.396482 M 672.625844 1314.77355 L 676.791683 1321.926218 " transform="matrix(0.0993947, 0, 0, -0.0993947, 0.000000000000001776, 190.462821)"/>
<path fill="none" stroke-width="5" stroke-linecap="round" stroke-linejoin="round" stroke="rgb(0%, 0%, 0%)" stroke-opacity="1" stroke-miterlimit="10" d="M 937.864046 820.178386 L 860.206513 839.74997 M 860.206513 839.74997 L 831.24214 850.675473 " transform="matrix(0.0993947, 0, 0, -0.0993947, 0.000000000000001776, 190.462821)"/>
<path fill="none" stroke-width="42.513" stroke-linecap="round" stroke-linejoin="round" stroke="rgb(100%, 0%, 0%)" stroke-opacity="1" stroke-miterlimit="10" d="M 668.656506 1307.581583 L 672.625844 1314.77355 M 890.703601 830.396482 L 887.638172 830.868086 " transform="matrix(0.0993947, 0, 0, -0.0993947, 0.000000000000001776, 190.462821)"/>
<path fill="none" stroke-width="5" stroke-linecap="round" stroke-linejoin="round" stroke="rgb(0%, 0%, 0%)" stroke-opacity="1" stroke-miterlimit="10" d="M 831.24214 850.675473 L 757.986249 897.325013 M 757.986249 897.325013 L 721.987109 930.219423 M 696.402568 974.078637 L 652.779157 1049.024444 M 652.779157 1049.024444 L 637.019708 1105.066773 " transform="matrix(0.0993947, 0, 0, -0.0993947, 0.000000000000001776, 190.462821)"/>
<path fill="none" stroke-width="42.513" stroke-linecap="round" stroke-linejoin="round" stroke="rgb(100%, 0%, 0%)" stroke-opacity="1" stroke-miterlimit="10" d="M 959.950854 1497.520274 L 976.45701 1498.974388 M 707.956877 948.061792 L 708.978687 945.978872 M 664.922971 1300.389615 L 668.656506 1307.581583 M 887.638172 830.868086 L 884.533443 831.418292 " transform="matrix(0.0993947, 0, 0, -0.0993947, 0.000000000000001776, 190.462821)"/>
<path fill="none" stroke-width="5" stroke-linecap="round" stroke-linejoin="round" stroke="rgb(0%, 0%, 0%)" stroke-opacity="1" stroke-miterlimit="10" d="M 1278.126655 1307.738784 L 1255.528942 1357.964658 M 1278.126655 1307.738784 L 1307.837735 1234.561494 " transform="matrix(0.0993947, 0, 0, -0.0993947, 0.000000000000001776, 190.462821)"/>
<path fill="none" stroke-width="42.513" stroke-linecap="round" stroke-linejoin="round" stroke="rgb(100%, 0%, 0%)" stroke-opacity="1" stroke-miterlimit="10" d="M 661.385938 1293.119046 L 664.922971 1300.389615 M 884.533443 831.418292 L 881.389413 832.086398 M 658.084707 1285.809177 L 661.385938 1293.119046 M 708.978687 945.978872 L 710.825804 942.952744 M 976.45701 1498.974388 L 994.063576 1499.603194 M 881.389413 832.086398 L 878.206083 832.754504 M 654.940677 1278.460008 L 658.084707 1285.809177 M 878.206083 832.754504 L 875.062053 833.540512 M 652.07175 1271.110839 L 654.940677 1278.460008 M 875.062053 833.540512 L 871.878723 834.365819 M 649.360024 1263.683069 L 652.07175 1271.110839 M 710.825804 942.952744 L 717.310365 934.621065 M 871.878723 834.365819 L 868.656093 835.269728 M 994.063576 1499.603194 L 1013.045655 1499.21019 " transform="matrix(0.0993947, 0, 0, -0.0993947, 0.000000000000001776, 190.462821)"/>
<path fill="none" stroke-width="5" stroke-linecap="round" stroke-linejoin="round" stroke="rgb(0%, 0%, 0%)" stroke-opacity="1" stroke-miterlimit="10" d="M 649.91023 1224.736401 L 662.840052 1298.738999 M 662.840052 1298.738999 L 689.996608 1349.829481 " transform="matrix(0.0993947, 0, 0, -0.0993947, 0.000000000000001776, 190.462821)"/>
<path fill="none" stroke-width="42.513" stroke-linecap="round" stroke-linejoin="round" stroke="rgb(100%, 0%, 0%)" stroke-opacity="1" stroke-miterlimit="10" d="M 646.884101 1256.255299 L 649.360024 1263.683069 M 868.656093 835.269728 L 865.433462 836.173636 M 865.433462 836.173636 L 862.210832 837.195446 M 644.60468 1248.788228 L 646.884101 1256.255299 M 862.210832 837.195446 L 858.948901 838.256556 " transform="matrix(0.0993947, 0, 0, -0.0993947, 0.000000000000001776, 190.462821)"/>
<path fill="none" stroke-width="5" stroke-linecap="round" stroke-linejoin="round" stroke="rgb(0%, 0%, 0%)" stroke-opacity="1" stroke-miterlimit="10" d="M 1158.064022 1447.2944 L 1123.8727 1470.010015 M 1158.064022 1447.2944 L 1220.040707 1400.448358 M 1021.259432 821.553899 L 1037.608386 827.448954 M 1021.259432 821.553899 L 937.864046 820.178386 " transform="matrix(0.0993947, 0, 0, -0.0993947, 0.000000000000001776, 190.462821)"/>
<path fill="none" stroke-width="42.513" stroke-linecap="round" stroke-linejoin="round" stroke="rgb(100%, 0%, 0%)" stroke-opacity="1" stroke-miterlimit="10" d="M 642.52176 1241.281857 L 644.60468 1248.788228 " transform="matrix(0.0993947, 0, 0, -0.0993947, 0.000000000000001776, 190.462821)"/>
<path fill="none" stroke-width="5" stroke-linecap="round" stroke-linejoin="round" stroke="rgb(0%, 0%, 0%)" stroke-opacity="1" stroke-miterlimit="10" d="M 937.864046 820.178386 L 930.672078 825.641137 " transform="matrix(0.0993947, 0, 0, -0.0993947, 0.000000000000001776, 190.462821)"/>
<path fill="none" stroke-width="42.513" stroke-linecap="round" stroke-linejoin="round" stroke="rgb(100%, 0%, 0%)" stroke-opacity="1" stroke-miterlimit="10" d="M 858.948901 838.256556 L 855.726271 839.396267 M 1013.045655 1499.21019 L 1033.835551 1497.441673 M 640.674643 1233.775486 L 642.52176 1241.281857 M 855.726271 839.396267 L 852.42504 840.575278 M 852.42504 840.575278 L 849.202409 841.793589 " transform="matrix(0.0993947, 0, 0, -0.0993947, 0.000000000000001776, 190.462821)"/>
<path fill="none" stroke-width="5" stroke-linecap="round" stroke-linejoin="round" stroke="rgb(0%, 0%, 0%)" stroke-opacity="1" stroke-miterlimit="10" d="M 1313.418388 1115.520671 L 1318.213033 1174.864231 M 1313.418388 1115.520671 L 1285.08282 1036.684128 " transform="matrix(0.0993947, 0, 0, -0.0993947, 0.000000000000001776, 190.462821)"/>
<path fill="none" stroke-width="42.513" stroke-linecap="round" stroke-linejoin="round" stroke="rgb(100%, 0%, 0%)" stroke-opacity="1" stroke-miterlimit="10" d="M 638.984727 1226.190515 L 640.674643 1233.775486 " transform="matrix(0.0993947, 0, 0, -0.0993947, 0.000000000000001776, 190.462821)"/>
<path fill="none" stroke-width="5" stroke-linecap="round" stroke-linejoin="round" stroke="rgb(0%, 0%, 0%)" stroke-opacity="1" stroke-miterlimit="10" d="M 888.188377 1491.939621 L 969.029239 1501.843315 M 969.029239 1501.843315 L 973.784584 1501.725414 M 969.029239 1501.843315 L 1051.953022 1494.219043 " transform="matrix(0.0993947, 0, 0, -0.0993947, 0.000000000000001776, 190.462821)"/>
<path fill="none" stroke-width="42.513" stroke-linecap="round" stroke-linejoin="round" stroke="rgb(100%, 0%, 0%)" stroke-opacity="1" stroke-miterlimit="10" d="M 849.202409 841.793589 L 845.901178 843.090502 " transform="matrix(0.0993947, 0, 0, -0.0993947, 0.000000000000001776, 190.462821)"/>
<path fill="none" stroke-width="5" stroke-linecap="round" stroke-linejoin="round" stroke="rgb(0%, 0%, 0%)" stroke-opacity="1" stroke-miterlimit="10" d="M 730.279488 1393.492193 L 781.094867 1442.028151 M 781.094867 1442.028151 L 822.242355 1465.844175 " transform="matrix(0.0993947, 0, 0, -0.0993947, 0.000000000000001776, 190.462821)"/>
<path fill="none" stroke-width="42.513" stroke-linecap="round" stroke-linejoin="round" stroke="rgb(100%, 0%, 0%)" stroke-opacity="1" stroke-miterlimit="10" d="M 637.530613 1218.644844 L 638.984727 1226.190515 M 728.35377 922.830954 L 718.292875 933.520655 M 845.901178 843.090502 L 842.599947 844.426714 M 842.599947 844.426714 L 839.338016 845.841528 M 636.273001 1211.020572 L 637.530613 1218.644844 M 839.338016 845.841528 L 836.036785 847.295641 M 836.036785 847.295641 L 832.735554 848.789055 M 1033.835551 1497.441673 L 1057.415773 1493.550937 M 635.211891 1203.3963 L 636.273001 1211.020572 M 832.735554 848.789055 L 829.434323 850.32177 M 829.434323 850.32177 L 826.093791 851.933085 M 634.347283 1195.693427 L 635.211891 1203.3963 " transform="matrix(0.0993947, 0, 0, -0.0993947, 0.000000000000001776, 190.462821)"/>
<g clip-path="url(#clip-1)">
<path fill="none" stroke-width="5" stroke-linecap="round" stroke-linejoin="round" stroke="rgb(0%, 0%, 0%)" stroke-opacity="1" stroke-miterlimit="10" d="M 756.492835 981.506407 L 1453.917213 1398.994245 M 1508.348226 1555.999226 L 756.492835 981.506407 M 756.492835 981.506407 L 1260.323587 1262.150354 M 756.492835 981.506407 L 954.134399 1179.226572 M 756.492835 981.506407 L 600.627565 1173.842421 M 756.492835 981.506407 L 284.259581 1247.687818 M 756.492835 981.506407 L 74.317001 1379.38336 M 756.492835 981.506407 L 2.515224 1535.602333 M 756.492835 981.506407 L 63.470099 1685.022342 M 756.492835 981.506407 L 229.789267 1805.045674 M 756.492835 981.506407 L 1255.646843 1817.661093 M 756.492835 981.506407 L 1432.577111 1702.628909 M 756.492835 981.506407 L 1177.124702 101.571108 M 756.492835 981.506407 L 921.475791 8.50783 M 756.492835 981.506407 L 628.452227 2.494874 M 756.492835 981.506407 L 364.70744 85.261454 M 1235.996657 938.590402 L 1162.111961 881.565565 M 1266.768848 983.235624 L 1235.996657 938.590402 " transform="matrix(0.0993947, 0, 0, -0.0993947, 0.000000000000001776, 190.462821)"/>
</g>
<path fill="none" stroke-width="42.513" stroke-linecap="round" stroke-linejoin="round" stroke="rgb(100%, 0%, 0%)" stroke-opacity="1" stroke-miterlimit="10" d="M 826.093791 851.933085 L 822.79256 853.583701 " transform="matrix(0.0993947, 0, 0, -0.0993947, 0.000000000000001776, 190.462821)"/>
<path fill="none" stroke-width="5" stroke-linecap="round" stroke-linejoin="round" stroke="rgb(0%, 0%, 0%)" stroke-opacity="1" stroke-miterlimit="10" d="M 1051.953022 1494.219043 L 1031.988433 1496.341263 M 1051.953022 1494.219043 L 1123.8727 1470.010015 " transform="matrix(0.0993947, 0, 0, -0.0993947, 0.000000000000001776, 190.462821)"/>
<path fill="none" stroke-width="42.513" stroke-linecap="round" stroke-linejoin="round" stroke="rgb(100%, 0%, 0%)" stroke-opacity="1" stroke-miterlimit="10" d="M 733.816521 917.446803 L 728.35377 922.830954 M 822.79256 853.583701 L 819.491329 855.273617 M 633.679177 1188.029855 L 634.347283 1195.693427 " transform="matrix(0.0993947, 0, 0, -0.0993947, 0.000000000000001776, 190.462821)"/>
<path fill="none" stroke-width="5" stroke-linecap="round" stroke-linejoin="round" stroke="rgb(0%, 0%, 0%)" stroke-opacity="1" stroke-miterlimit="10" d="M 682.726039 1027.134138 L 637.019708 1105.066773 M 637.019708 1105.066773 L 635.919298 1164.488933 " transform="matrix(0.0993947, 0, 0, -0.0993947, 0.000000000000001776, 190.462821)"/>
<path fill="none" stroke-width="42.513" stroke-linecap="round" stroke-linejoin="round" stroke="rgb(100%, 0%, 0%)" stroke-opacity="1" stroke-miterlimit="10" d="M 819.491329 855.273617 L 816.150798 857.042133 M 816.150798 857.042133 L 812.849566 858.889251 " transform="matrix(0.0993947, 0, 0, -0.0993947, 0.000000000000001776, 190.462821)"/>
<path fill="none" stroke-width="5" stroke-linecap="round" stroke-linejoin="round" stroke="rgb(0%, 0%, 0%)" stroke-opacity="1" stroke-miterlimit="10" d="M 822.242355 1465.844175 L 888.188377 1491.939621 M 888.188377 1491.939621 L 917.074149 1494.769248 " transform="matrix(0.0993947, 0, 0, -0.0993947, 0.000000000000001776, 190.462821)"/>
<path fill="none" stroke-width="42.513" stroke-linecap="round" stroke-linejoin="round" stroke="rgb(100%, 0%, 0%)" stroke-opacity="1" stroke-miterlimit="10" d="M 633.207572 1180.326982 L 633.679177 1188.029855 M 812.849566 858.889251 L 809.509035 860.736368 M 738.493265 913.005861 L 733.816521 917.446803 M 809.509035 860.736368 L 806.168503 862.662086 M 806.168503 862.662086 L 802.827972 864.627105 M 742.777006 909.075824 L 738.493265 913.005861 M 633.01107 1172.545509 L 633.207572 1180.326982 M 802.827972 864.627105 L 799.44814 866.631424 " transform="matrix(0.0993947, 0, 0, -0.0993947, 0.000000000000001776, 190.462821)"/>
<path fill="none" stroke-width="5" stroke-linecap="round" stroke-linejoin="round" stroke="rgb(0%, 0%, 0%)" stroke-opacity="1" stroke-miterlimit="10" d="M 1255.528942 1357.964658 L 1220.040707 1400.448358 M 1255.528942 1357.964658 L 1282.331794 1291.900735 " transform="matrix(0.0993947, 0, 0, -0.0993947, 0.000000000000001776, 190.462821)"/>
<path fill="none" stroke-width="42.513" stroke-linecap="round" stroke-linejoin="round" stroke="rgb(100%, 0%, 0%)" stroke-opacity="1" stroke-miterlimit="10" d="M 799.44814 866.631424 L 796.107609 868.714343 M 746.824944 905.49949 L 742.777006 909.075824 M 796.107609 868.714343 L 792.727777 870.875864 M 792.727777 870.875864 L 789.387245 873.037384 M 750.71568 902.158959 L 746.824944 905.49949 M 789.387245 873.037384 L 786.007413 875.316806 M 632.97177 1164.764036 L 633.01107 1172.545509 M 1057.415773 1493.550937 L 1085.869241 1485.612262 " transform="matrix(0.0993947, 0, 0, -0.0993947, 0.000000000000001776, 190.462821)"/>
<path fill="none" stroke-width="5" stroke-linecap="round" stroke-linejoin="round" stroke="rgb(0%, 0%, 0%)" stroke-opacity="1" stroke-miterlimit="10" d="M 807.858419 875.709809 L 721.987109 930.219423 M 721.987109 930.219423 L 696.402568 974.078637 " transform="matrix(0.0993947, 0, 0, -0.0993947, 0.000000000000001776, 190.462821)"/>
<path fill="none" stroke-width="42.513" stroke-linecap="round" stroke-linejoin="round" stroke="rgb(100%, 0%, 0%)" stroke-opacity="1" stroke-miterlimit="10" d="M 754.488516 898.975629 L 750.71568 902.158959 M 786.007413 875.316806 L 782.588281 877.635528 M 758.14345 895.9495 L 754.488516 898.975629 M 782.588281 877.635528 L 779.169149 879.99355 M 779.169149 879.99355 L 775.750017 882.430173 M 761.759085 893.041273 L 758.14345 895.9495 M 775.750017 882.430173 L 772.291584 884.984697 M 765.335418 890.250947 L 761.759085 893.041273 M 772.291584 884.984697 L 768.833151 887.578521 M 768.833151 887.578521 L 765.335418 890.250947 M 633.128971 1156.943262 L 632.97177 1164.764036 " transform="matrix(0.0993947, 0, 0, -0.0993947, 0.000000000000001776, 190.462821)"/>
<path fill="none" stroke-width="5" stroke-linecap="round" stroke-linejoin="round" stroke="rgb(0%, 0%, 0%)" stroke-opacity="1" stroke-miterlimit="10" d="M 1131.33977 855.66662 L 1162.111961 881.565565 M 1131.33977 855.66662 L 1037.608386 827.448954 " transform="matrix(0.0993947, 0, 0, -0.0993947, 0.000000000000001776, 190.462821)"/>
<path fill="none" stroke-width="42.513" stroke-linecap="round" stroke-linejoin="round" stroke="rgb(100%, 0%, 0%)" stroke-opacity="1" stroke-miterlimit="10" d="M 633.561275 1149.083188 L 633.128971 1156.943262 M 634.150781 1141.183813 L 633.561275 1149.083188 " transform="matrix(0.0993947, 0, 0, -0.0993947, 0.000000000000001776, 190.462821)"/>
<path fill="none" stroke-width="5" stroke-linecap="round" stroke-linejoin="round" stroke="rgb(0%, 0%, 0%)" stroke-opacity="1" stroke-miterlimit="10" d="M 678.678101 1283.018851 L 689.996608 1349.829481 M 689.996608 1349.829481 L 730.279488 1393.492193 M 930.672078 825.641137 L 831.24214 850.675473 M 831.24214 850.675473 L 807.858419 875.709809 M 1432.577111 1702.628909 L 1255.646843 1817.661093 " transform="matrix(0.0993947, 0, 0, -0.0993947, 0.000000000000001776, 190.462821)"/>
<path fill="none" stroke-width="42.513" stroke-linecap="round" stroke-linejoin="round" stroke="rgb(100%, 0%, 0%)" stroke-opacity="1" stroke-miterlimit="10" d="M 635.015389 1133.205838 L 634.150781 1141.183813 M 636.1158 1125.188562 L 635.015389 1133.205838 " transform="matrix(0.0993947, 0, 0, -0.0993947, 0.000000000000001776, 190.462821)"/>
<path fill="none" stroke-width="5" stroke-linecap="round" stroke-linejoin="round" stroke="rgb(0%, 0%, 0%)" stroke-opacity="1" stroke-miterlimit="10" d="M 1318.213033 1174.864231 L 1307.837735 1234.561494 M 1318.213033 1174.864231 L 1289.759564 1096.656493 " transform="matrix(0.0993947, 0, 0, -0.0993947, 0.000000000000001776, 190.462821)"/>
<path fill="none" stroke-width="42.513" stroke-linecap="round" stroke-linejoin="round" stroke="rgb(100%, 0%, 0%)" stroke-opacity="1" stroke-miterlimit="10" d="M 637.491313 1117.053386 L 636.1158 1125.188562 " transform="matrix(0.0993947, 0, 0, -0.0993947, 0.000000000000001776, 190.462821)"/>
<path fill="none" stroke-width="5" stroke-linecap="round" stroke-linejoin="round" stroke="rgb(0%, 0%, 0%)" stroke-opacity="1" stroke-miterlimit="10" d="M 921.475791 8.50783 L 1177.124702 101.571108 " transform="matrix(0.0993947, 0, 0, -0.0993947, 0.000000000000001776, 190.462821)"/>
<path fill="none" stroke-width="42.513" stroke-linecap="round" stroke-linejoin="round" stroke="rgb(100%, 0%, 0%)" stroke-opacity="1" stroke-miterlimit="10" d="M 1085.869241 1485.612262 L 1140.260954 1455.547478 M 639.102628 1108.839608 L 637.491313 1117.053386 M 641.067646 1100.468629 L 639.102628 1108.839608 " transform="matrix(0.0993947, 0, 0, -0.0993947, 0.000000000000001776, 190.462821)"/>
<path fill="none" stroke-width="5" stroke-linecap="round" stroke-linejoin="round" stroke="rgb(0%, 0%, 0%)" stroke-opacity="1" stroke-miterlimit="10" d="M 1123.8727 1470.010015 L 1082.214307 1479.442104 M 1123.8727 1470.010015 L 1172.958863 1432.910465 " transform="matrix(0.0993947, 0, 0, -0.0993947, 0.000000000000001776, 190.462821)"/>
<path fill="none" stroke-width="42.513" stroke-linecap="round" stroke-linejoin="round" stroke="rgb(100%, 0%, 0%)" stroke-opacity="1" stroke-miterlimit="10" d="M 643.347068 1091.901148 L 641.067646 1100.468629 " transform="matrix(0.0993947, 0, 0, -0.0993947, 0.000000000000001776, 190.462821)"/>
<path fill="none" stroke-width="5" stroke-linecap="round" stroke-linejoin="round" stroke="rgb(0%, 0%, 0%)" stroke-opacity="1" stroke-miterlimit="10" d="M 682.018633 1087.224404 L 635.919298 1164.488933 M 635.919298 1164.488933 L 649.91023 1224.736401 " transform="matrix(0.0993947, 0, 0, -0.0993947, 0.000000000000001776, 190.462821)"/>
<path fill="none" stroke-width="42.513" stroke-linecap="round" stroke-linejoin="round" stroke="rgb(100%, 0%, 0%)" stroke-opacity="1" stroke-miterlimit="10" d="M 646.058793 1083.058565 L 643.347068 1091.901148 " transform="matrix(0.0993947, 0, 0, -0.0993947, 0.000000000000001776, 190.462821)"/>
<path fill="none" stroke-width="5" stroke-linecap="round" stroke-linejoin="round" stroke="rgb(0%, 0%, 0%)" stroke-opacity="1" stroke-miterlimit="10" d="M 782.195277 1427.408413 L 822.242355 1465.844175 M 822.242355 1465.844175 L 871.092716 1476.533876 M 229.789267 1805.045674 L 63.470099 1685.022342 " transform="matrix(0.0993947, 0, 0, -0.0993947, 0.000000000000001776, 190.462821)"/>
<path fill="none" stroke-width="42.513" stroke-linecap="round" stroke-linejoin="round" stroke="rgb(100%, 0%, 0%)" stroke-opacity="1" stroke-miterlimit="10" d="M 649.320724 1073.783678 L 646.058793 1083.058565 " transform="matrix(0.0993947, 0, 0, -0.0993947, 0.000000000000001776, 190.462821)"/>
<g clip-path="url(#clip-2)">
<path fill="none" stroke-width="5" stroke-linecap="round" stroke-linejoin="round" stroke="rgb(0%, 0%, 0%)" stroke-opacity="1" stroke-miterlimit="10" d="M 1266.768848 983.235624 L 1185.181278 920.630133 M 1285.08282 1036.684128 L 1266.768848 983.235624 M 364.70744 85.261454 L 628.452227 2.494874 M 1037.608386 827.448954 L 1051.599318 848.435352 M 1037.608386 827.448954 L 930.672078 825.641137 M 930.672078 825.641137 L 925.248627 846.313132 M 1220.040707 1400.448358 L 1172.958863 1432.910465 M 1220.040707 1400.448358 L 1242.59912 1344.091627 " transform="matrix(0.0993947, 0, 0, -0.0993947, 0.000000000000001776, 190.462821)"/>
</g>
<path fill="none" stroke-width="42.513" stroke-linecap="round" stroke-linejoin="round" stroke="rgb(100%, 0%, 0%)" stroke-opacity="1" stroke-miterlimit="10" d="M 653.368662 1063.879984 L 649.320724 1073.783678 " transform="matrix(0.0993947, 0, 0, -0.0993947, 0.000000000000001776, 190.462821)"/>
<path fill="none" stroke-width="5" stroke-linecap="round" stroke-linejoin="round" stroke="rgb(0%, 0%, 0%)" stroke-opacity="1" stroke-miterlimit="10" d="M 917.074149 1494.769248 L 973.784584 1501.725414 M 973.784584 1501.725414 L 978.697131 1486.201767 M 973.784584 1501.725414 L 1031.988433 1496.341263 " transform="matrix(0.0993947, 0, 0, -0.0993947, 0.000000000000001776, 190.462821)"/>
<path fill="none" stroke-width="42.513" stroke-linecap="round" stroke-linejoin="round" stroke="rgb(100%, 0%, 0%)" stroke-opacity="1" stroke-miterlimit="10" d="M 658.870714 1052.482877 L 653.368662 1063.879984 " transform="matrix(0.0993947, 0, 0, -0.0993947, 0.000000000000001776, 190.462821)"/>
<path fill="none" stroke-width="5" stroke-linecap="round" stroke-linejoin="round" stroke="rgb(0%, 0%, 0%)" stroke-opacity="1" stroke-miterlimit="10" d="M 791.470165 914.184872 L 696.402568 974.078637 M 696.402568 974.078637 L 682.726039 1027.134138 M 721.201102 1336.545956 L 730.279488 1393.492193 M 730.279488 1393.492193 L 782.195277 1427.408413 M 1031.988433 1496.341263 L 1008.840515 1483.411441 M 1031.988433 1496.341263 L 1082.214307 1479.442104 " transform="matrix(0.0993947, 0, 0, -0.0993947, 0.000000000000001776, 190.462821)"/>
<path fill="none" stroke-width="42.513" stroke-linecap="round" stroke-linejoin="round" stroke="rgb(100%, 0%, 0%)" stroke-opacity="1" stroke-miterlimit="10" d="M 672.350741 1032.282486 L 658.870714 1052.482877 " transform="matrix(0.0993947, 0, 0, -0.0993947, 0.000000000000001776, 190.462821)"/>
<path fill="none" stroke-width="5" stroke-linecap="round" stroke-linejoin="round" stroke="rgb(0%, 0%, 0%)" stroke-opacity="1" stroke-miterlimit="10" d="M 1307.837735 1234.561494 L 1282.331794 1291.900735 M 1307.837735 1234.561494 L 1280.170274 1160.558896 M 871.092716 1476.533876 L 917.074149 1494.769248 M 917.074149 1494.769248 L 949.339754 1482.586133 M 1162.111961 881.565565 L 1185.181278 920.630133 M 1162.111961 881.565565 L 1051.599318 848.435352 M 925.248627 846.313132 L 807.858419 875.709809 M 807.858419 875.709809 L 791.470165 914.184872 M 694.594751 1151.598411 L 649.91023 1224.736401 M 649.91023 1224.736401 L 678.678101 1283.018851 " transform="matrix(0.0993947, 0, 0, -0.0993947, 0.000000000000001776, 190.462821)"/>
<path fill="none" stroke-width="42.513" stroke-linecap="round" stroke-linejoin="round" stroke="rgb(100%, 0%, 0%)" stroke-opacity="1" stroke-miterlimit="10" d="M 673.451152 1030.985574 L 688.738996 1018.684558 M 1176.063592 1407.01152 L 1143.837288 1452.482049 " transform="matrix(0.0993947, 0, 0, -0.0993947, 0.000000000000001776, 190.462821)"/>
<path fill="none" stroke-width="5" stroke-linecap="round" stroke-linejoin="round" stroke="rgb(0%, 0%, 0%)" stroke-opacity="1" stroke-miterlimit="10" d="M 1082.214307 1479.442104 L 1034.77876 1474.647458 M 1082.214307 1479.442104 L 1116.091227 1453.62176 M 1172.958863 1432.910465 L 1116.091227 1453.62176 M 1172.958863 1432.910465 L 1190.211726 1388.579647 M 1285.08282 1036.684128 L 1199.21151 971.484813 M 1289.759564 1096.656493 L 1285.08282 1036.684128 M 843.621757 1449.848924 L 871.092716 1476.533876 M 871.092716 1476.533876 L 925.720231 1473.114744 M 775.710716 1382.645291 L 782.195277 1427.408413 M 782.195277 1427.408413 L 843.621757 1449.848924 M 1282.331794 1291.900735 L 1242.59912 1344.091627 M 1282.331794 1291.900735 L 1256.472151 1225.286606 M 783.020585 964.764449 L 682.726039 1027.134138 M 682.726039 1027.134138 L 682.018633 1087.224404 " transform="matrix(0.0993947, 0, 0, -0.0993947, 0.000000000000001776, 190.462821)"/>
<path fill="none" stroke-width="42.513" stroke-linecap="round" stroke-linejoin="round" stroke="rgb(100%, 0%, 0%)" stroke-opacity="1" stroke-miterlimit="10" d="M 688.738996 1018.684558 L 696.363268 1015.265426 " transform="matrix(0.0993947, 0, 0, -0.0993947, 0.000000000000001776, 190.462821)"/>
<path fill="none" stroke-width="5" stroke-linecap="round" stroke-linejoin="round" stroke="rgb(0%, 0%, 0%)" stroke-opacity="1" stroke-miterlimit="10" d="M 1051.599318 848.435352 L 1062.485521 884.159389 M 1051.599318 848.435352 L 925.248627 846.313132 M 720.179292 1217.23003 L 678.678101 1283.018851 M 678.678101 1283.018851 L 721.201102 1336.545956 M 925.248627 846.313132 L 921.868795 881.801367 " transform="matrix(0.0993947, 0, 0, -0.0993947, 0.000000000000001776, 190.462821)"/>
<path fill="none" stroke-width="42.513" stroke-linecap="round" stroke-linejoin="round" stroke="rgb(100%, 0%, 0%)" stroke-opacity="1" stroke-miterlimit="10" d="M 696.363268 1015.265426 L 702.847829 1013.418308 " transform="matrix(0.0993947, 0, 0, -0.0993947, 0.000000000000001776, 190.462821)"/>
<g clip-path="url(#clip-3)">
<path fill="none" stroke-width="5" stroke-linecap="round" stroke-linejoin="round" stroke="rgb(0%, 0%, 0%)" stroke-opacity="1" stroke-miterlimit="10" d="M 978.697131 1486.201767 L 1008.840515 1483.411441 M 949.339754 1482.586133 L 978.697131 1486.201767 M 628.452227 2.494874 L 921.475791 8.50783 M 1008.840515 1483.411441 L 1034.77876 1474.647458 M 1185.181278 920.630133 L 1199.21151 971.484813 M 1185.181278 920.630133 L 1062.485521 884.159389 M 925.720231 1473.114744 L 949.339754 1482.586133 M 1116.091227 1453.62176 L 1051.992322 1461.324633 M 1116.091227 1453.62176 L 1127.488334 1423.046072 " transform="matrix(0.0993947, 0, 0, -0.0993947, 0.000000000000001776, 190.462821)"/>
</g>
<path fill="none" stroke-width="42.513" stroke-linecap="round" stroke-linejoin="round" stroke="rgb(100%, 0%, 0%)" stroke-opacity="1" stroke-miterlimit="10" d="M 702.847829 1013.418308 L 708.821485 1012.317898 " transform="matrix(0.0993947, 0, 0, -0.0993947, 0.000000000000001776, 190.462821)"/>
<path fill="none" stroke-width="5" stroke-linecap="round" stroke-linejoin="round" stroke="rgb(0%, 0%, 0%)" stroke-opacity="1" stroke-miterlimit="10" d="M 1242.59912 1344.091627 L 1190.211726 1388.579647 M 1242.59912 1344.091627 L 1219.608403 1287.616994 M 1289.759564 1096.656493 L 1203.220148 1032.007384 M 1280.170274 1160.558896 L 1289.759564 1096.656493 M 839.73102 1418.998133 L 843.621757 1449.848924 M 843.621757 1449.848924 L 911.8079 1459.398914 M 921.868795 881.801367 L 791.470165 914.184872 M 791.470165 914.184872 L 783.020585 964.764449 M 1034.77876 1474.647458 L 1051.992322 1461.324633 " transform="matrix(0.0993947, 0, 0, -0.0993947, 0.000000000000001776, 190.462821)"/>
<path fill="none" stroke-width="42.513" stroke-linecap="round" stroke-linejoin="round" stroke="rgb(100%, 0%, 0%)" stroke-opacity="1" stroke-miterlimit="10" d="M 708.821485 1012.317898 L 714.59864 1011.728392 " transform="matrix(0.0993947, 0, 0, -0.0993947, 0.000000000000001776, 190.462821)"/>
<path fill="none" stroke-width="5" stroke-linecap="round" stroke-linejoin="round" stroke="rgb(0%, 0%, 0%)" stroke-opacity="1" stroke-miterlimit="10" d="M 911.8079 1459.398914 L 925.720231 1473.114744 M 757.711146 1280.857331 L 721.201102 1336.545956 M 721.201102 1336.545956 L 775.710716 1382.645291 M 783.177787 1025.365621 L 682.018633 1087.224404 M 682.018633 1087.224404 L 694.594751 1151.598411 " transform="matrix(0.0993947, 0, 0, -0.0993947, 0.000000000000001776, 190.462821)"/>
<path fill="none" stroke-width="42.513" stroke-linecap="round" stroke-linejoin="round" stroke="rgb(100%, 0%, 0%)" stroke-opacity="1" stroke-miterlimit="10" d="M 1182.626754 1383.824302 L 1176.063592 1407.01152 M 714.59864 1011.728392 L 720.297194 1011.49259 M 720.297194 1011.49259 L 725.917147 1011.53189 " transform="matrix(0.0993947, 0, 0, -0.0993947, 0.000000000000001776, 190.462821)"/>
<path fill="none" stroke-width="5" stroke-linecap="round" stroke-linejoin="round" stroke="rgb(0%, 0%, 0%)" stroke-opacity="1" stroke-miterlimit="10" d="M 1190.211726 1388.579647 L 1127.488334 1423.046072 M 1190.211726 1388.579647 L 1171.268947 1344.44533 M 1051.992322 1461.324633 L 1057.533674 1445.722385 M 910.157284 1443.639466 L 911.8079 1459.398914 " transform="matrix(0.0993947, 0, 0, -0.0993947, 0.000000000000001776, 190.462821)"/>
<path fill="none" stroke-width="42.513" stroke-linecap="round" stroke-linejoin="round" stroke="rgb(100%, 0%, 0%)" stroke-opacity="1" stroke-miterlimit="10" d="M 725.917147 1011.53189 L 731.5764 1011.806993 " transform="matrix(0.0993947, 0, 0, -0.0993947, 0.000000000000001776, 190.462821)"/>
<path fill="none" stroke-width="5" stroke-linecap="round" stroke-linejoin="round" stroke="rgb(0%, 0%, 0%)" stroke-opacity="1" stroke-miterlimit="10" d="M 805.382496 1339.179081 L 775.710716 1382.645291 M 775.710716 1382.645291 L 839.73102 1418.998133 M 1280.170274 1160.558896 L 1196.656986 1099.44682 M 1256.472151 1225.286606 L 1280.170274 1160.558896 " transform="matrix(0.0993947, 0, 0, -0.0993947, 0.000000000000001776, 190.462821)"/>
<path fill="none" stroke-width="42.513" stroke-linecap="round" stroke-linejoin="round" stroke="rgb(100%, 0%, 0%)" stroke-opacity="1" stroke-miterlimit="10" d="M 731.5764 1011.806993 L 737.196353 1012.278597 M 1184.473871 1364.763622 L 1182.626754 1383.824302 " transform="matrix(0.0993947, 0, 0, -0.0993947, 0.000000000000001776, 190.462821)"/>
<path fill="none" stroke-width="5" stroke-linecap="round" stroke-linejoin="round" stroke="rgb(0%, 0%, 0%)" stroke-opacity="1" stroke-miterlimit="10" d="M 1062.485521 884.159389 L 1069.598888 933.442054 M 1062.485521 884.159389 L 921.868795 881.801367 M 1127.488334 1423.046072 L 1057.533674 1445.722385 M 1127.488334 1423.046072 L 1113.811805 1392.863387 M 921.868795 881.801367 L 920.886285 931.005431 M 1199.21151 971.484813 L 1203.220148 1032.007384 M 1199.21151 971.484813 L 1069.598888 933.442054 " transform="matrix(0.0993947, 0, 0, -0.0993947, 0.000000000000001776, 190.462821)"/>
<path fill="none" stroke-width="42.513" stroke-linecap="round" stroke-linejoin="round" stroke="rgb(100%, 0%, 0%)" stroke-opacity="1" stroke-miterlimit="10" d="M 737.196353 1012.278597 L 742.934207 1012.946704 " transform="matrix(0.0993947, 0, 0, -0.0993947, 0.000000000000001776, 190.462821)"/>
<path fill="none" stroke-width="5" stroke-linecap="round" stroke-linejoin="round" stroke="rgb(0%, 0%, 0%)" stroke-opacity="1" stroke-miterlimit="10" d="M 860.835319 1389.287053 L 839.73102 1418.998133 M 839.73102 1418.998133 L 910.157284 1443.639466 M 792.216872 1093.15876 L 694.594751 1151.598411 M 694.594751 1151.598411 L 720.179292 1217.23003 M 1057.533674 1445.722385 L 1050.184505 1430.434541 " transform="matrix(0.0993947, 0, 0, -0.0993947, 0.000000000000001776, 190.462821)"/>
<path fill="none" stroke-width="42.513" stroke-linecap="round" stroke-linejoin="round" stroke="rgb(100%, 0%, 0%)" stroke-opacity="1" stroke-miterlimit="10" d="M 742.934207 1012.946704 L 748.750662 1013.732711 " transform="matrix(0.0993947, 0, 0, -0.0993947, 0.000000000000001776, 190.462821)"/>
<path fill="none" stroke-width="5" stroke-linecap="round" stroke-linejoin="round" stroke="rgb(0%, 0%, 0%)" stroke-opacity="1" stroke-miterlimit="10" d="M 920.886285 931.005431 L 783.020585 964.764449 M 783.020585 964.764449 L 783.177787 1025.365621 M 921.239989 1428.626724 L 910.157284 1443.639466 " transform="matrix(0.0993947, 0, 0, -0.0993947, 0.000000000000001776, 190.462821)"/>
<path fill="none" stroke-width="42.513" stroke-linecap="round" stroke-linejoin="round" stroke="rgb(100%, 0%, 0%)" stroke-opacity="1" stroke-miterlimit="10" d="M 748.750662 1013.732711 L 754.606417 1014.71522 M 1183.766465 1347.982364 L 1184.473871 1364.763622 " transform="matrix(0.0993947, 0, 0, -0.0993947, 0.000000000000001776, 190.462821)"/>
<path fill="none" stroke-width="5" stroke-linecap="round" stroke-linejoin="round" stroke="rgb(0%, 0%, 0%)" stroke-opacity="1" stroke-miterlimit="10" d="M 1256.472151 1225.286606 L 1179.718527 1170.462589 M 1219.608403 1287.616994 L 1256.472151 1225.286606 " transform="matrix(0.0993947, 0, 0, -0.0993947, 0.000000000000001776, 190.462821)"/>
<path fill="none" stroke-width="42.513" stroke-linecap="round" stroke-linejoin="round" stroke="rgb(100%, 0%, 0%)" stroke-opacity="1" stroke-miterlimit="10" d="M 754.606417 1014.71522 L 760.619374 1015.815631 M 760.619374 1015.815631 L 766.671631 1017.033942 " transform="matrix(0.0993947, 0, 0, -0.0993947, 0.000000000000001776, 190.462821)"/>
<path fill="none" stroke-width="5" stroke-linecap="round" stroke-linejoin="round" stroke="rgb(0%, 0%, 0%)" stroke-opacity="1" stroke-miterlimit="10" d="M 1050.184505 1430.434541 L 1031.123825 1418.212126 M 1050.184505 1430.434541 L 1113.811805 1392.863387 M 809.862738 1164.803336 L 720.179292 1217.23003 M 720.179292 1217.23003 L 757.711146 1280.857331 " transform="matrix(0.0993947, 0, 0, -0.0993947, 0.000000000000001776, 190.462821)"/>
<path fill="none" stroke-width="42.513" stroke-linecap="round" stroke-linejoin="round" stroke="rgb(100%, 0%, 0%)" stroke-opacity="1" stroke-miterlimit="10" d="M 1181.408443 1332.73382 L 1183.766465 1347.982364 " transform="matrix(0.0993947, 0, 0, -0.0993947, 0.000000000000001776, 190.462821)"/>
<path fill="none" stroke-width="5" stroke-linecap="round" stroke-linejoin="round" stroke="rgb(0%, 0%, 0%)" stroke-opacity="1" stroke-miterlimit="10" d="M 943.287497 1416.954514 L 921.239989 1428.626724 M 860.835319 1389.287053 L 921.239989 1428.626724 " transform="matrix(0.0993947, 0, 0, -0.0993947, 0.000000000000001776, 190.462821)"/>
<path fill="none" stroke-width="42.513" stroke-linecap="round" stroke-linejoin="round" stroke="rgb(100%, 0%, 0%)" stroke-opacity="1" stroke-miterlimit="10" d="M 766.671631 1017.033942 L 772.841789 1018.409455 " transform="matrix(0.0993947, 0, 0, -0.0993947, 0.000000000000001776, 190.462821)"/>
<g clip-path="url(#clip-4)">
<path fill="none" stroke-width="5" stroke-linecap="round" stroke-linejoin="round" stroke="rgb(0%, 0%, 0%)" stroke-opacity="1" stroke-miterlimit="10" d="M 1508.348226 1555.999226 L 1432.577111 1702.628909 M 1219.608403 1287.616994 L 1153.112176 1241.399758 M 1171.268947 1344.44533 L 1219.608403 1287.616994 " transform="matrix(0.0993947, 0, 0, -0.0993947, 0.000000000000001776, 190.462821)"/>
</g>
<path fill="none" stroke-width="42.513" stroke-linecap="round" stroke-linejoin="round" stroke="rgb(100%, 0%, 0%)" stroke-opacity="1" stroke-miterlimit="10" d="M 772.841789 1018.409455 L 779.129848 1019.902869 " transform="matrix(0.0993947, 0, 0, -0.0993947, 0.000000000000001776, 190.462821)"/>
<path fill="none" stroke-width="5" stroke-linecap="round" stroke-linejoin="round" stroke="rgb(0%, 0%, 0%)" stroke-opacity="1" stroke-miterlimit="10" d="M 1113.811805 1392.863387 L 1076.790856 1368.497157 M 1113.811805 1392.863387 L 1171.268947 1344.44533 M 1203.220148 1032.007384 L 1196.656986 1099.44682 M 1203.220148 1032.007384 L 1072.389214 994.279028 M 1171.268947 1344.44533 L 1118.174146 1308.564092 " transform="matrix(0.0993947, 0, 0, -0.0993947, 0.000000000000001776, 190.462821)"/>
<path fill="none" stroke-width="42.513" stroke-linecap="round" stroke-linejoin="round" stroke="rgb(100%, 0%, 0%)" stroke-opacity="1" stroke-miterlimit="10" d="M 1177.91071 1318.585686 L 1181.408443 1332.73382 M 779.129848 1019.902869 L 785.496508 1021.514185 " transform="matrix(0.0993947, 0, 0, -0.0993947, 0.000000000000001776, 190.462821)"/>
<path fill="none" stroke-width="5" stroke-linecap="round" stroke-linejoin="round" stroke="rgb(0%, 0%, 0%)" stroke-opacity="1" stroke-miterlimit="10" d="M 835.290078 1236.644414 L 757.711146 1280.857331 M 757.711146 1280.857331 L 805.382496 1339.179081 M 1031.123825 1418.212126 L 1003.613566 1411.21666 M 1076.790856 1368.497157 L 1031.123825 1418.212126 M 903.790624 1366.021234 L 860.835319 1389.287053 M 805.382496 1339.179081 L 860.835319 1389.287053 M 972.448372 1410.784356 L 943.287497 1416.954514 M 903.790624 1366.021234 L 943.287497 1416.954514 M 1069.598888 933.442054 L 1072.389214 994.279028 M 1069.598888 933.442054 L 920.886285 931.005431 " transform="matrix(0.0993947, 0, 0, -0.0993947, 0.000000000000001776, 190.462821)"/>
<path fill="none" stroke-width="42.513" stroke-linecap="round" stroke-linejoin="round" stroke="rgb(100%, 0%, 0%)" stroke-opacity="1" stroke-miterlimit="10" d="M 785.496508 1021.514185 L 791.98107 1023.243401 " transform="matrix(0.0993947, 0, 0, -0.0993947, 0.000000000000001776, 190.462821)"/>
<path fill="none" stroke-width="5" stroke-linecap="round" stroke-linejoin="round" stroke="rgb(0%, 0%, 0%)" stroke-opacity="1" stroke-miterlimit="10" d="M 922.340399 991.881705 L 783.177787 1025.365621 M 783.177787 1025.365621 L 792.216872 1093.15876 M 867.123378 1304.869857 L 805.382496 1339.179081 M 920.886285 931.005431 L 922.340399 991.881705 " transform="matrix(0.0993947, 0, 0, -0.0993947, 0.000000000000001776, 190.462821)"/>
<path fill="none" stroke-width="42.513" stroke-linecap="round" stroke-linejoin="round" stroke="rgb(100%, 0%, 0%)" stroke-opacity="1" stroke-miterlimit="10" d="M 791.98107 1023.243401 L 798.544232 1025.090518 M 1173.469768 1305.341461 L 1177.91071 1318.585686 " transform="matrix(0.0993947, 0, 0, -0.0993947, 0.000000000000001776, 190.462821)"/>
<path fill="none" stroke-width="5" stroke-linecap="round" stroke-linejoin="round" stroke="rgb(0%, 0%, 0%)" stroke-opacity="1" stroke-miterlimit="10" d="M 1003.613566 1411.21666 L 972.448372 1410.784356 M 1022.674245 1354.506225 L 1003.613566 1411.21666 M 961.208466 1353.641617 L 972.448372 1410.784356 " transform="matrix(0.0993947, 0, 0, -0.0993947, 0.000000000000001776, 190.462821)"/>
<path fill="none" stroke-width="42.513" stroke-linecap="round" stroke-linejoin="round" stroke="rgb(100%, 0%, 0%)" stroke-opacity="1" stroke-miterlimit="10" d="M 798.544232 1025.090518 L 805.264595 1027.055537 " transform="matrix(0.0993947, 0, 0, -0.0993947, 0.000000000000001776, 190.462821)"/>
<path fill="none" stroke-width="5" stroke-linecap="round" stroke-linejoin="round" stroke="rgb(0%, 0%, 0%)" stroke-opacity="1" stroke-miterlimit="10" d="M 63.470099 1685.022342 L 2.515224 1535.602333 " transform="matrix(0.0993947, 0, 0, -0.0993947, 0.000000000000001776, 190.462821)"/>
<path fill="none" stroke-width="42.513" stroke-linecap="round" stroke-linejoin="round" stroke="rgb(100%, 0%, 0%)" stroke-opacity="1" stroke-miterlimit="10" d="M 805.264595 1027.055537 L 812.063559 1029.138456 M 1168.321419 1292.843944 L 1173.469768 1305.341461 M 812.063559 1029.138456 L 818.980424 1031.339277 " transform="matrix(0.0993947, 0, 0, -0.0993947, 0.000000000000001776, 190.462821)"/>
<path fill="none" stroke-width="5" stroke-linecap="round" stroke-linejoin="round" stroke="rgb(0%, 0%, 0%)" stroke-opacity="1" stroke-miterlimit="10" d="M 1196.656986 1099.44682 L 1179.718527 1170.462589 M 1196.656986 1099.44682 L 1070.659998 1063.801383 " transform="matrix(0.0993947, 0, 0, -0.0993947, 0.000000000000001776, 190.462821)"/>
<path fill="none" stroke-width="42.513" stroke-linecap="round" stroke-linejoin="round" stroke="rgb(100%, 0%, 0%)" stroke-opacity="1" stroke-miterlimit="10" d="M 1162.622865 1280.975232 L 1168.321419 1292.843944 M 818.980424 1031.339277 L 825.97589 1033.657999 " transform="matrix(0.0993947, 0, 0, -0.0993947, 0.000000000000001776, 190.462821)"/>
<path fill="none" stroke-width="5" stroke-linecap="round" stroke-linejoin="round" stroke="rgb(0%, 0%, 0%)" stroke-opacity="1" stroke-miterlimit="10" d="M 1118.174146 1308.564092 L 1076.790856 1368.497157 M 1076.790856 1368.497157 L 1022.674245 1354.506225 M 961.208466 1353.641617 L 903.790624 1366.021234 M 867.123378 1304.869857 L 903.790624 1366.021234 " transform="matrix(0.0993947, 0, 0, -0.0993947, 0.000000000000001776, 190.462821)"/>
<path fill="none" stroke-width="42.513" stroke-linecap="round" stroke-linejoin="round" stroke="rgb(100%, 0%, 0%)" stroke-opacity="1" stroke-miterlimit="10" d="M 825.97589 1033.657999 L 833.089257 1036.133922 " transform="matrix(0.0993947, 0, 0, -0.0993947, 0.000000000000001776, 190.462821)"/>
<path fill="none" stroke-width="5" stroke-linecap="round" stroke-linejoin="round" stroke="rgb(0%, 0%, 0%)" stroke-opacity="1" stroke-miterlimit="10" d="M 926.231136 1061.521962 L 792.216872 1093.15876 M 792.216872 1093.15876 L 809.862738 1164.803336 " transform="matrix(0.0993947, 0, 0, -0.0993947, 0.000000000000001776, 190.462821)"/>
<path fill="none" stroke-width="42.513" stroke-linecap="round" stroke-linejoin="round" stroke="rgb(100%, 0%, 0%)" stroke-opacity="1" stroke-miterlimit="10" d="M 1156.452707 1269.696025 L 1162.622865 1280.975232 M 833.089257 1036.133922 L 840.320526 1038.727747 M 840.320526 1038.727747 L 847.669695 1041.400172 " transform="matrix(0.0993947, 0, 0, -0.0993947, 0.000000000000001776, 190.462821)"/>
<path fill="none" stroke-width="5" stroke-linecap="round" stroke-linejoin="round" stroke="rgb(0%, 0%, 0%)" stroke-opacity="1" stroke-miterlimit="10" d="M 1072.389214 994.279028 L 1070.659998 1063.801383 M 1072.389214 994.279028 L 922.340399 991.881705 " transform="matrix(0.0993947, 0, 0, -0.0993947, 0.000000000000001776, 190.462821)"/>
<path fill="none" stroke-width="42.513" stroke-linecap="round" stroke-linejoin="round" stroke="rgb(100%, 0%, 0%)" stroke-opacity="1" stroke-miterlimit="10" d="M 1149.850245 1258.888423 L 1156.452707 1269.696025 " transform="matrix(0.0993947, 0, 0, -0.0993947, 0.000000000000001776, 190.462821)"/>
<path fill="none" stroke-width="5" stroke-linecap="round" stroke-linejoin="round" stroke="rgb(0%, 0%, 0%)" stroke-opacity="1" stroke-miterlimit="10" d="M 1179.718527 1170.462589 L 1153.112176 1241.399758 M 1179.718527 1170.462589 L 1064.450539 1138.550688 " transform="matrix(0.0993947, 0, 0, -0.0993947, 0.000000000000001776, 190.462821)"/>
<path fill="none" stroke-width="42.513" stroke-linecap="round" stroke-linejoin="round" stroke="rgb(100%, 0%, 0%)" stroke-opacity="1" stroke-miterlimit="10" d="M 847.669695 1041.400172 L 855.097465 1044.190498 " transform="matrix(0.0993947, 0, 0, -0.0993947, 0.000000000000001776, 190.462821)"/>
<path fill="none" stroke-width="5" stroke-linecap="round" stroke-linejoin="round" stroke="rgb(0%, 0%, 0%)" stroke-opacity="1" stroke-miterlimit="10" d="M 922.340399 991.881705 L 926.231136 1061.521962 M 1153.112176 1241.399758 L 1118.174146 1308.564092 M 1118.174146 1308.564092 L 1039.769907 1287.852797 M 1039.769907 1287.852797 L 1022.674245 1354.506225 M 1022.674245 1354.506225 L 961.208466 1353.641617 " transform="matrix(0.0993947, 0, 0, -0.0993947, 0.000000000000001776, 190.462821)"/>
<path fill="none" stroke-width="42.513" stroke-linecap="round" stroke-linejoin="round" stroke="rgb(100%, 0%, 0%)" stroke-opacity="1" stroke-miterlimit="10" d="M 855.097465 1044.190498 L 862.603836 1047.177327 " transform="matrix(0.0993947, 0, 0, -0.0993947, 0.000000000000001776, 190.462821)"/>
<path fill="none" stroke-width="5" stroke-linecap="round" stroke-linejoin="round" stroke="rgb(0%, 0%, 0%)" stroke-opacity="1" stroke-miterlimit="10" d="M 950.400864 1286.555884 L 961.208466 1353.641617 " transform="matrix(0.0993947, 0, 0, -0.0993947, 0.000000000000001776, 190.462821)"/>
<path fill="none" stroke-width="42.513" stroke-linecap="round" stroke-linejoin="round" stroke="rgb(100%, 0%, 0%)" stroke-opacity="1" stroke-miterlimit="10" d="M 1142.93338 1248.552426 L 1149.850245 1258.888423 " transform="matrix(0.0993947, 0, 0, -0.0993947, 0.000000000000001776, 190.462821)"/>
<path fill="none" stroke-width="5" stroke-linecap="round" stroke-linejoin="round" stroke="rgb(0%, 0%, 0%)" stroke-opacity="1" stroke-miterlimit="10" d="M 950.400864 1286.555884 L 867.123378 1304.869857 M 835.290078 1236.644414 L 867.123378 1304.869857 M 1153.112176 1241.399758 L 1053.95734 1214.596906 M 932.479895 1136.546369 L 809.862738 1164.803336 M 809.862738 1164.803336 L 835.290078 1236.644414 " transform="matrix(0.0993947, 0, 0, -0.0993947, 0.000000000000001776, 190.462821)"/>
<path fill="none" stroke-width="42.513" stroke-linecap="round" stroke-linejoin="round" stroke="rgb(100%, 0%, 0%)" stroke-opacity="1" stroke-miterlimit="10" d="M 862.603836 1047.177327 L 870.228108 1050.242755 M 1135.702111 1238.609432 L 1142.93338 1248.552426 M 870.228108 1050.242755 L 877.93098 1053.465386 " transform="matrix(0.0993947, 0, 0, -0.0993947, 0.000000000000001776, 190.462821)"/>
<path fill="none" stroke-width="5" stroke-linecap="round" stroke-linejoin="round" stroke="rgb(0%, 0%, 0%)" stroke-opacity="1" stroke-miterlimit="10" d="M 940.654372 1212.867689 L 835.290078 1236.644414 " transform="matrix(0.0993947, 0, 0, -0.0993947, 0.000000000000001776, 190.462821)"/>
<path fill="none" stroke-width="42.513" stroke-linecap="round" stroke-linejoin="round" stroke="rgb(100%, 0%, 0%)" stroke-opacity="1" stroke-miterlimit="10" d="M 877.93098 1053.465386 L 885.751754 1056.805917 M 1128.195741 1229.059442 L 1135.702111 1238.609432 M 885.751754 1056.805917 L 893.651129 1060.26435 M 1120.532168 1219.823855 L 1128.195741 1229.059442 M 893.651129 1060.26435 L 901.629104 1063.919284 M 1112.672094 1210.941971 L 1120.532168 1219.823855 M 901.629104 1063.919284 L 909.68568 1067.65282 " transform="matrix(0.0993947, 0, 0, -0.0993947, 0.000000000000001776, 190.462821)"/>
<path fill="none" stroke-width="5" stroke-linecap="round" stroke-linejoin="round" stroke="rgb(0%, 0%, 0%)" stroke-opacity="1" stroke-miterlimit="10" d="M 1070.659998 1063.801383 L 1064.450539 1138.550688 M 1070.659998 1063.801383 L 926.231136 1061.521962 " transform="matrix(0.0993947, 0, 0, -0.0993947, 0.000000000000001776, 190.462821)"/>
<path fill="none" stroke-width="42.513" stroke-linecap="round" stroke-linejoin="round" stroke="rgb(100%, 0%, 0%)" stroke-opacity="1" stroke-miterlimit="10" d="M 909.68568 1067.65282 L 917.820856 1071.582857 M 1104.615518 1202.413791 L 1112.672094 1210.941971 " transform="matrix(0.0993947, 0, 0, -0.0993947, 0.000000000000001776, 190.462821)"/>
<path fill="none" stroke-width="5" stroke-linecap="round" stroke-linejoin="round" stroke="rgb(0%, 0%, 0%)" stroke-opacity="1" stroke-miterlimit="10" d="M 926.231136 1061.521962 L 932.479895 1136.546369 M 1053.95734 1214.596906 L 1039.769907 1287.852797 M 1039.769907 1287.852797 L 950.400864 1286.555884 " transform="matrix(0.0993947, 0, 0, -0.0993947, 0.000000000000001776, 190.462821)"/>
<path fill="none" stroke-width="42.513" stroke-linecap="round" stroke-linejoin="round" stroke="rgb(100%, 0%, 0%)" stroke-opacity="1" stroke-miterlimit="10" d="M 917.820856 1071.582857 L 926.034634 1075.630795 " transform="matrix(0.0993947, 0, 0, -0.0993947, 0.000000000000001776, 190.462821)"/>
<path fill="none" stroke-width="5" stroke-linecap="round" stroke-linejoin="round" stroke="rgb(0%, 0%, 0%)" stroke-opacity="1" stroke-miterlimit="10" d="M 940.654372 1212.867689 L 950.400864 1286.555884 " transform="matrix(0.0993947, 0, 0, -0.0993947, 0.000000000000001776, 190.462821)"/>
<path fill="none" stroke-width="42.513" stroke-linecap="round" stroke-linejoin="round" stroke="rgb(100%, 0%, 0%)" stroke-opacity="1" stroke-miterlimit="10" d="M 1096.480342 1194.121412 L 1104.615518 1202.413791 M 926.034634 1075.630795 L 934.287712 1079.835935 M 1088.187963 1186.143437 L 1096.480342 1194.121412 M 934.287712 1079.835935 L 942.61939 1084.198276 M 942.61939 1084.198276 L 951.02967 1088.717818 M 1079.816984 1178.401264 L 1088.187963 1186.143437 M 951.02967 1088.717818 L 959.479249 1093.394562 M 1071.367405 1170.934194 L 1079.816984 1178.401264 M 959.479249 1093.394562 L 968.00743 1098.228508 " transform="matrix(0.0993947, 0, 0, -0.0993947, 0.000000000000001776, 190.462821)"/>
<path fill="none" stroke-width="5" stroke-linecap="round" stroke-linejoin="round" stroke="rgb(0%, 0%, 0%)" stroke-opacity="1" stroke-miterlimit="10" d="M 1064.450539 1138.550688 L 1053.95734 1214.596906 M 1064.450539 1138.550688 L 932.479895 1136.546369 " transform="matrix(0.0993947, 0, 0, -0.0993947, 0.000000000000001776, 190.462821)"/>
<path fill="none" stroke-width="42.513" stroke-linecap="round" stroke-linejoin="round" stroke="rgb(100%, 0%, 0%)" stroke-opacity="1" stroke-miterlimit="10" d="M 1062.878525 1163.702926 L 1071.367405 1170.934194 M 968.00743 1098.228508 L 976.53561 1103.258956 " transform="matrix(0.0993947, 0, 0, -0.0993947, 0.000000000000001776, 190.462821)"/>
<path fill="none" stroke-width="5" stroke-linecap="round" stroke-linejoin="round" stroke="rgb(0%, 0%, 0%)" stroke-opacity="1" stroke-miterlimit="10" d="M 1053.95734 1214.596906 L 940.654372 1212.867689 " transform="matrix(0.0993947, 0, 0, -0.0993947, 0.000000000000001776, 190.462821)"/>
<path fill="none" stroke-width="42.513" stroke-linecap="round" stroke-linejoin="round" stroke="rgb(100%, 0%, 0%)" stroke-opacity="1" stroke-miterlimit="10" d="M 1054.271743 1156.74676 L 1062.878525 1163.702926 M 976.53561 1103.258956 L 985.103091 1108.446604 " transform="matrix(0.0993947, 0, 0, -0.0993947, 0.000000000000001776, 190.462821)"/>
<path fill="none" stroke-width="5" stroke-linecap="round" stroke-linejoin="round" stroke="rgb(0%, 0%, 0%)" stroke-opacity="1" stroke-miterlimit="10" d="M 932.479895 1136.546369 L 940.654372 1212.867689 " transform="matrix(0.0993947, 0, 0, -0.0993947, 0.000000000000001776, 190.462821)"/>
<path fill="none" stroke-width="42.513" stroke-linecap="round" stroke-linejoin="round" stroke="rgb(100%, 0%, 0%)" stroke-opacity="1" stroke-miterlimit="10" d="M 1045.664962 1149.987096 L 1054.271743 1156.74676 M 985.103091 1108.446604 L 993.749173 1113.791455 M 1037.018881 1143.423934 L 1045.664962 1149.987096 M 993.749173 1113.791455 L 1002.355954 1119.332807 M 1028.333499 1137.096575 L 1037.018881 1143.423934 M 1002.355954 1119.332807 L 1011.002035 1125.031361 M 1019.687417 1130.965717 L 1028.333499 1137.096575 M 1011.002035 1125.031361 L 1019.687417 1130.965717 " transform="matrix(0.0993947, 0, 0, -0.0993947, 0.000000000000001776, 190.462821)"/>
<g clip-path="url(#clip-5)">
<path fill="none" stroke-width="5" stroke-linecap="round" stroke-linejoin="round" stroke="rgb(0%, 0%, 0%)" stroke-opacity="1" stroke-miterlimit="10" d="M 1453.917213 1398.994245 L 1508.348226 1555.999226 M 2.515224 1535.602333 L 74.317001 1379.38336 M 1260.323587 1262.150354 L 1453.917213 1398.994245 M 74.317001 1379.38336 L 284.259581 1247.687818 M 954.134399 1179.226572 L 1260.323587 1262.150354 M 284.259581 1247.687818 L 600.627565 1173.842421 M 600.627565 1173.842421 L 954.134399 1179.226572 " transform="matrix(0.0993947, 0, 0, -0.0993947, 0.000000000000001776, 190.462821)"/>
</g>
</svg>
