<?xml version="1.0" encoding="UTF-8"?>
<svg xmlns="http://www.w3.org/2000/svg" xmlns:xlink="http://www.w3.org/1999/xlink" width="539.75" height="99.88" viewBox="0 0 539.75 99.88">
<path fill="none" stroke-width="5" stroke-linecap="round" stroke-linejoin="round" stroke="rgb(0%, 0%, 0%)" stroke-opacity="1" stroke-miterlimit="10" d="M 153.232942 46.407129 L 1059.1247 46.407129 L 1059.1247 952.298886 L 153.232942 952.298886 L 153.232942 46.407129 " transform="matrix(0.09988, 0, 0, -0.09988, 0.199, 99.760144)"/>
<path fill="none" stroke-width="5" stroke-linecap="round" stroke-linejoin="round" stroke="rgb(0%, 0%, 0%)" stroke-opacity="1" stroke-miterlimit="10" d="M 1380.721553 227.601124 L 1561.876439 227.601124 L 1561.876439 46.407129 L 1743.070435 46.407129 L 1743.070435 227.601124 L 1924.22532 227.601124 L 1924.22532 408.75601 L 2105.419316 408.75601 L 2105.419316 589.950005 L 1924.22532 589.950005 L 1924.22532 771.104891 L 1743.070435 771.104891 L 1743.070435 952.298886 L 1561.876439 952.298886 L 1561.876439 771.104891 L 1380.721553 771.104891 L 1380.721553 589.950005 L 1199.527558 589.950005 L 1199.527558 408.75601 L 1380.721553 408.75601 L 1380.721553 227.601124 " transform="matrix(0.09988, 0, 0, -0.09988, 0.199, 99.760144)"/>
<path fill="none" stroke-width="5" stroke-linecap="round" stroke-linejoin="round" stroke="rgb(0%, 0%, 0%)" stroke-opacity="1" stroke-miterlimit="10" d="M 2458.968575 259.592639 L 2512.23562 259.592639 L 2512.23562 206.286484 L 2565.541775 206.286484 L 2565.541775 259.592639 L 2618.808821 259.592639 L 2618.808821 206.286484 L 2565.541775 206.286484 L 2565.541775 152.980329 L 2618.808821 152.980329 L 2618.808821 99.713283 L 2672.114975 99.713283 L 2672.114975 46.446238 L 2725.382021 46.446238 L 2725.382021 99.713283 L 2778.688176 99.713283 L 2778.688176 152.980329 L 2831.955221 152.980329 L 2831.955221 206.286484 L 2778.688176 206.286484 L 2778.688176 259.592639 L 2831.955221 259.592639 L 2831.955221 206.286484 L 2885.261376 206.286484 L 2885.261376 259.592639 L 2938.528422 259.592639 L 2938.528422 312.859684 L 2991.834576 312.859684 L 2991.834576 366.12673 L 2938.528422 366.12673 L 2938.528422 419.432884 L 2991.834576 419.432884 L 2991.834576 366.12673 L 3045.101622 366.12673 L 3045.101622 419.432884 L 3098.407777 419.432884 L 3098.407777 472.69993 L 3151.674822 472.69993 L 3151.674822 526.006085 L 3098.407777 526.006085 L 3098.407777 579.27313 L 3045.101622 579.27313 L 3045.101622 632.579285 L 2991.834576 632.579285 L 2991.834576 579.27313 L 2938.528422 579.27313 L 2938.528422 632.579285 L 2991.834576 632.579285 L 2991.834576 685.88544 L 2938.528422 685.88544 " transform="matrix(0.09988, 0, 0, -0.09988, 0.199, 99.760144)"/>
<path fill="none" stroke-width="5" stroke-linecap="round" stroke-linejoin="round" stroke="rgb(0%, 0%, 0%)" stroke-opacity="1" stroke-miterlimit="10" d="M 2938.528422 685.88544 L 2938.528422 739.152485 L 2885.261376 739.152485 L 2885.261376 792.419531 L 2831.955221 792.419531 L 2831.955221 739.152485 L 2778.688176 739.152485 L 2778.688176 792.419531 L 2831.955221 792.419531 L 2831.955221 845.725686 L 2778.688176 845.725686 L 2778.688176 898.992731 L 2725.382021 898.992731 L 2725.382021 952.298886 L 2672.114975 952.298886 L 2672.114975 898.992731 L 2618.808821 898.992731 L 2618.808821 845.725686 L 2565.541775 845.725686 L 2565.541775 792.419531 L 2618.808821 792.419531 L 2618.808821 739.152485 L 2565.541775 739.152485 L 2565.541775 792.419531 L 2512.23562 792.419531 L 2512.23562 739.152485 L 2458.968575 739.152485 L 2458.968575 685.88544 L 2405.66242 685.88544 L 2405.66242 632.579285 L 2458.968575 632.579285 L 2458.968575 579.27313 L 2405.66242 579.27313 L 2405.66242 632.579285 L 2352.395374 632.579285 L 2352.395374 579.27313 L 2299.08922 579.27313 L 2299.08922 526.006085 L 2245.822174 526.006085 L 2245.822174 472.69993 L 2299.08922 472.69993 L 2299.08922 419.432884 L 2352.395374 419.432884 L 2352.395374 366.12673 L 2405.66242 366.12673 L 2405.66242 419.432884 L 2458.968575 419.432884 L 2458.968575 366.12673 L 2405.66242 366.12673 L 2405.66242 312.859684 L 2458.968575 312.859684 " transform="matrix(0.09988, 0, 0, -0.09988, 0.199, 99.760144)"/>
<path fill="none" stroke-width="5" stroke-linecap="round" stroke-linejoin="round" stroke="rgb(0%, 0%, 0%)" stroke-opacity="1" stroke-miterlimit="10" d="M 2458.968575 312.859684 L 2458.968575 259.592639 " transform="matrix(0.09988, 0, 0, -0.09988, 0.199, 99.760144)"/>
<path fill="none" stroke-width="5" stroke-linecap="round" stroke-linejoin="round" stroke="rgb(0%, 0%, 0%)" stroke-opacity="1" stroke-miterlimit="10" d="M 3514.297469 268.626917 L 3531.388291 268.626917 L 3531.388291 251.536096 L 3548.479112 251.536096 L 3548.479112 268.626917 L 3565.569934 268.626917 L 3565.569934 251.536096 L 3548.479112 251.536096 L 3548.479112 234.445274 L 3565.569934 234.445274 L 3565.569934 217.354453 L 3582.660755 217.354453 L 3582.660755 200.263631 L 3599.751577 200.263631 L 3599.751577 217.354453 L 3616.842398 217.354453 L 3616.842398 234.445274 L 3633.93322 234.445274 L 3633.93322 251.536096 L 3616.842398 251.536096 L 3616.842398 268.626917 L 3633.93322 268.626917 L 3633.93322 251.536096 L 3651.024041 251.536096 L 3651.024041 268.626917 L 3668.114863 268.626917 L 3668.114863 251.536096 L 3651.024041 251.536096 L 3651.024041 234.445274 L 3668.114863 234.445274 L 3668.114863 217.354453 L 3651.024041 217.354453 L 3651.024041 234.445274 L 3633.93322 234.445274 L 3633.93322 217.354453 L 3616.842398 217.354453 L 3616.842398 200.263631 L 3599.751577 200.263631 L 3599.751577 183.17281 L 3616.842398 183.17281 L 3616.842398 166.081988 L 3633.93322 166.081988 L 3633.93322 148.991167 L 3651.024041 148.991167 L 3651.024041 166.081988 L 3668.114863 166.081988 L 3668.114863 148.991167 L 3651.024041 148.991167 L 3651.024041 131.900345 L 3668.114863 131.900345 " transform="matrix(0.09988, 0, 0, -0.09988, 0.199, 99.760144)"/>
<path fill="none" stroke-width="5" stroke-linecap="round" stroke-linejoin="round" stroke="rgb(0%, 0%, 0%)" stroke-opacity="1" stroke-miterlimit="10" d="M 3668.114863 131.900345 L 3668.114863 114.809524 L 3685.205684 114.809524 L 3685.205684 97.718702 L 3702.296506 97.718702 L 3702.296506 114.809524 L 3719.387327 114.809524 L 3719.387327 97.718702 L 3702.296506 97.718702 L 3702.296506 80.627881 L 3719.387327 80.627881 L 3719.387327 63.537059 L 3736.478149 63.537059 L 3736.478149 46.407129 L 3753.56897 46.407129 L 3753.56897 63.537059 L 3770.659792 63.537059 L 3770.659792 80.627881 L 3787.750613 80.627881 L 3787.750613 97.718702 L 3770.659792 97.718702 L 3770.659792 114.809524 L 3787.750613 114.809524 L 3787.750613 97.718702 L 3804.841435 97.718702 L 3804.841435 114.809524 L 3821.932256 114.809524 L 3821.932256 131.900345 L 3839.023078 131.900345 L 3839.023078 148.991167 L 3821.932256 148.991167 L 3821.932256 166.081988 L 3839.023078 166.081988 L 3839.023078 148.991167 L 3856.113899 148.991167 L 3856.113899 166.081988 L 3873.204721 166.081988 L 3873.204721 183.17281 L 3890.295542 183.17281 L 3890.295542 200.263631 L 3873.204721 200.263631 L 3873.204721 217.354453 L 3856.113899 217.354453 L 3856.113899 234.445274 L 3839.023078 234.445274 L 3839.023078 217.354453 L 3821.932256 217.354453 L 3821.932256 234.445274 L 3839.023078 234.445274 L 3839.023078 251.536096 L 3821.932256 251.536096 " transform="matrix(0.09988, 0, 0, -0.09988, 0.199, 99.760144)"/>
<path fill="none" stroke-width="5" stroke-linecap="round" stroke-linejoin="round" stroke="rgb(0%, 0%, 0%)" stroke-opacity="1" stroke-miterlimit="10" d="M 3821.932256 251.536096 L 3821.932256 268.626917 L 3839.023078 268.626917 L 3839.023078 251.536096 L 3856.113899 251.536096 L 3856.113899 268.626917 L 3873.204721 268.626917 L 3873.204721 251.536096 L 3856.113899 251.536096 L 3856.113899 234.445274 L 3873.204721 234.445274 L 3873.204721 217.354453 L 3890.295542 217.354453 L 3890.295542 200.263631 L 3907.425473 200.263631 L 3907.425473 217.354453 L 3924.516295 217.354453 L 3924.516295 234.445274 L 3941.607116 234.445274 L 3941.607116 251.536096 L 3924.516295 251.536096 L 3924.516295 268.626917 L 3941.607116 268.626917 L 3941.607116 251.536096 L 3958.697938 251.536096 L 3958.697938 268.626917 L 3975.788759 268.626917 L 3975.788759 285.717739 L 3992.87958 285.717739 L 3992.87958 302.80856 L 3975.788759 302.80856 L 3975.788759 319.899382 L 3992.87958 319.899382 L 3992.87958 302.80856 L 4009.970402 302.80856 L 4009.970402 319.899382 L 4027.061223 319.899382 L 4027.061223 336.990203 L 4044.152045 336.990203 L 4044.152045 354.081025 L 4027.061223 354.081025 L 4027.061223 371.171846 L 4009.970402 371.171846 L 4009.970402 388.262668 L 3992.87958 388.262668 L 3992.87958 371.171846 L 3975.788759 371.171846 L 3975.788759 388.262668 L 3992.87958 388.262668 L 3992.87958 405.353489 L 3975.788759 405.353489 " transform="matrix(0.09988, 0, 0, -0.09988, 0.199, 99.760144)"/>
<path fill="none" stroke-width="5" stroke-linecap="round" stroke-linejoin="round" stroke="rgb(0%, 0%, 0%)" stroke-opacity="1" stroke-miterlimit="10" d="M 3975.788759 405.353489 L 3975.788759 422.444311 L 3992.87958 422.444311 L 3992.87958 405.353489 L 4009.970402 405.353489 L 4009.970402 422.444311 L 4027.061223 422.444311 L 4027.061223 405.353489 L 4009.970402 405.353489 L 4009.970402 388.262668 L 4027.061223 388.262668 L 4027.061223 371.171846 L 4044.152045 371.171846 L 4044.152045 354.081025 L 4061.242866 354.081025 L 4061.242866 371.171846 L 4078.333688 371.171846 L 4078.333688 388.262668 L 4095.424509 388.262668 L 4095.424509 405.353489 L 4078.333688 405.353489 L 4078.333688 422.444311 L 4095.424509 422.444311 L 4095.424509 405.353489 L 4112.515331 405.353489 L 4112.515331 422.444311 L 4129.606152 422.444311 L 4129.606152 439.535132 L 4146.696974 439.535132 L 4146.696974 456.625954 L 4129.606152 456.625954 L 4129.606152 473.716775 L 4146.696974 473.716775 L 4146.696974 456.625954 L 4163.787795 456.625954 L 4163.787795 473.716775 L 4180.878617 473.716775 L 4180.878617 490.807597 L 4197.969438 490.807597 L 4197.969438 507.898418 L 4180.878617 507.898418 L 4180.878617 524.98924 L 4163.787795 524.98924 L 4163.787795 542.080061 L 4146.696974 542.080061 L 4146.696974 524.98924 L 4129.606152 524.98924 L 4129.606152 542.080061 L 4146.696974 542.080061 L 4146.696974 559.170883 L 4129.606152 559.170883 " transform="matrix(0.09988, 0, 0, -0.09988, 0.199, 99.760144)"/>
<path fill="none" stroke-width="5" stroke-linecap="round" stroke-linejoin="round" stroke="rgb(0%, 0%, 0%)" stroke-opacity="1" stroke-miterlimit="10" d="M 4129.606152 559.170883 L 4129.606152 576.261704 L 4112.515331 576.261704 L 4112.515331 593.352526 L 4095.424509 593.352526 L 4095.424509 576.261704 L 4078.333688 576.261704 L 4078.333688 593.352526 L 4095.424509 593.352526 L 4095.424509 610.443347 L 4078.333688 610.443347 L 4078.333688 627.534169 L 4061.242866 627.534169 L 4061.242866 644.664099 L 4044.152045 644.664099 L 4044.152045 627.534169 L 4027.061223 627.534169 L 4027.061223 610.443347 L 4009.970402 610.443347 L 4009.970402 593.352526 L 4027.061223 593.352526 L 4027.061223 576.261704 L 4009.970402 576.261704 L 4009.970402 593.352526 L 3992.87958 593.352526 L 3992.87958 576.261704 L 3975.788759 576.261704 L 3975.788759 593.352526 L 3992.87958 593.352526 L 3992.87958 610.443347 L 3975.788759 610.443347 L 3975.788759 627.534169 L 3992.87958 627.534169 L 3992.87958 610.443347 L 4009.970402 610.443347 L 4009.970402 627.534169 L 4027.061223 627.534169 L 4027.061223 644.664099 L 4044.152045 644.664099 L 4044.152045 661.715811 L 4027.061223 661.715811 L 4027.061223 678.845742 L 4009.970402 678.845742 L 4009.970402 695.936564 L 3992.87958 695.936564 L 3992.87958 678.845742 L 3975.788759 678.845742 L 3975.788759 695.936564 L 3992.87958 695.936564 L 3992.87958 713.027385 L 3975.788759 713.027385 " transform="matrix(0.09988, 0, 0, -0.09988, 0.199, 99.760144)"/>
<path fill="none" stroke-width="5" stroke-linecap="round" stroke-linejoin="round" stroke="rgb(0%, 0%, 0%)" stroke-opacity="1" stroke-miterlimit="10" d="M 3975.788759 713.027385 L 3975.788759 730.118207 L 3958.697938 730.118207 L 3958.697938 747.209028 L 3941.607116 747.209028 L 3941.607116 730.118207 L 3924.516295 730.118207 L 3924.516295 747.209028 L 3941.607116 747.209028 L 3941.607116 764.29985 L 3924.516295 764.29985 L 3924.516295 781.390671 L 3907.425473 781.390671 L 3907.425473 798.481493 L 3890.295542 798.481493 L 3890.295542 781.390671 L 3873.204721 781.390671 L 3873.204721 764.29985 L 3856.113899 764.29985 L 3856.113899 747.209028 L 3873.204721 747.209028 L 3873.204721 730.118207 L 3856.113899 730.118207 L 3856.113899 747.209028 L 3839.023078 747.209028 L 3839.023078 730.118207 L 3821.932256 730.118207 L 3821.932256 747.209028 L 3839.023078 747.209028 L 3839.023078 764.29985 L 3821.932256 764.29985 L 3821.932256 781.390671 L 3839.023078 781.390671 L 3839.023078 764.29985 L 3856.113899 764.29985 L 3856.113899 781.390671 L 3873.204721 781.390671 L 3873.204721 798.481493 L 3890.295542 798.481493 L 3890.295542 815.572314 L 3873.204721 815.572314 L 3873.204721 832.663136 L 3856.113899 832.663136 L 3856.113899 849.753957 L 3839.023078 849.753957 L 3839.023078 832.663136 L 3821.932256 832.663136 L 3821.932256 849.753957 L 3839.023078 849.753957 L 3839.023078 866.844779 L 3821.932256 866.844779 " transform="matrix(0.09988, 0, 0, -0.09988, 0.199, 99.760144)"/>
<path fill="none" stroke-width="5" stroke-linecap="round" stroke-linejoin="round" stroke="rgb(0%, 0%, 0%)" stroke-opacity="1" stroke-miterlimit="10" d="M 3821.932256 866.844779 L 3821.932256 883.9356 L 3804.841435 883.9356 L 3804.841435 901.026422 L 3787.750613 901.026422 L 3787.750613 883.9356 L 3770.659792 883.9356 L 3770.659792 901.026422 L 3787.750613 901.026422 L 3787.750613 918.117243 L 3770.659792 918.117243 L 3770.659792 935.208065 L 3753.56897 935.208065 L 3753.56897 952.298886 L 3736.478149 952.298886 L 3736.478149 935.208065 L 3719.387327 935.208065 L 3719.387327 918.117243 L 3702.296506 918.117243 L 3702.296506 901.026422 L 3719.387327 901.026422 L 3719.387327 883.9356 L 3702.296506 883.9356 L 3702.296506 901.026422 L 3685.205684 901.026422 L 3685.205684 883.9356 L 3668.114863 883.9356 L 3668.114863 866.844779 L 3651.024041 866.844779 L 3651.024041 849.753957 L 3668.114863 849.753957 L 3668.114863 832.663136 L 3651.024041 832.663136 L 3651.024041 849.753957 L 3633.93322 849.753957 L 3633.93322 832.663136 L 3616.842398 832.663136 L 3616.842398 815.572314 L 3599.751577 815.572314 L 3599.751577 798.481493 L 3616.842398 798.481493 L 3616.842398 781.390671 L 3633.93322 781.390671 L 3633.93322 764.29985 L 3651.024041 764.29985 L 3651.024041 781.390671 L 3668.114863 781.390671 L 3668.114863 764.29985 L 3651.024041 764.29985 L 3651.024041 747.209028 L 3668.114863 747.209028 " transform="matrix(0.09988, 0, 0, -0.09988, 0.199, 99.760144)"/>
<path fill="none" stroke-width="5" stroke-linecap="round" stroke-linejoin="round" stroke="rgb(0%, 0%, 0%)" stroke-opacity="1" stroke-miterlimit="10" d="M 3668.114863 747.209028 L 3668.114863 730.118207 L 3651.024041 730.118207 L 3651.024041 747.209028 L 3633.93322 747.209028 L 3633.93322 730.118207 L 3616.842398 730.118207 L 3616.842398 747.209028 L 3633.93322 747.209028 L 3633.93322 764.29985 L 3616.842398 764.29985 L 3616.842398 781.390671 L 3599.751577 781.390671 L 3599.751577 798.481493 L 3582.660755 798.481493 L 3582.660755 781.390671 L 3565.569934 781.390671 L 3565.569934 764.29985 L 3548.479112 764.29985 L 3548.479112 747.209028 L 3565.569934 747.209028 L 3565.569934 730.118207 L 3548.479112 730.118207 L 3548.479112 747.209028 L 3531.388291 747.209028 L 3531.388291 730.118207 L 3514.297469 730.118207 L 3514.297469 713.027385 L 3497.206648 713.027385 L 3497.206648 695.936564 L 3514.297469 695.936564 L 3514.297469 678.845742 L 3497.206648 678.845742 L 3497.206648 695.936564 L 3480.115826 695.936564 L 3480.115826 678.845742 L 3463.025005 678.845742 L 3463.025005 661.715811 L 3445.934184 661.715811 L 3445.934184 644.664099 L 3463.025005 644.664099 L 3463.025005 627.534169 L 3480.115826 627.534169 L 3480.115826 610.443347 L 3497.206648 610.443347 L 3497.206648 627.534169 L 3514.297469 627.534169 L 3514.297469 610.443347 L 3497.206648 610.443347 L 3497.206648 593.352526 L 3514.297469 593.352526 " transform="matrix(0.09988, 0, 0, -0.09988, 0.199, 99.760144)"/>
<path fill="none" stroke-width="5" stroke-linecap="round" stroke-linejoin="round" stroke="rgb(0%, 0%, 0%)" stroke-opacity="1" stroke-miterlimit="10" d="M 3514.297469 593.352526 L 3514.297469 576.261704 L 3497.206648 576.261704 L 3497.206648 593.352526 L 3480.115826 593.352526 L 3480.115826 576.261704 L 3463.025005 576.261704 L 3463.025005 593.352526 L 3480.115826 593.352526 L 3480.115826 610.443347 L 3463.025005 610.443347 L 3463.025005 627.534169 L 3445.934184 627.534169 L 3445.934184 644.664099 L 3428.843362 644.664099 L 3428.843362 627.534169 L 3411.752541 627.534169 L 3411.752541 610.443347 L 3394.661719 610.443347 L 3394.661719 593.352526 L 3411.752541 593.352526 L 3411.752541 576.261704 L 3394.661719 576.261704 L 3394.661719 593.352526 L 3377.570898 593.352526 L 3377.570898 576.261704 L 3360.440967 576.261704 L 3360.440967 559.170883 L 3343.389255 559.170883 L 3343.389255 542.080061 L 3360.440967 542.080061 L 3360.440967 524.98924 L 3343.389255 524.98924 L 3343.389255 542.080061 L 3326.298433 542.080061 L 3326.298433 524.98924 L 3309.207612 524.98924 L 3309.207612 507.898418 L 3292.11679 507.898418 L 3292.11679 490.807597 L 3309.207612 490.807597 L 3309.207612 473.716775 L 3326.298433 473.716775 L 3326.298433 456.625954 L 3343.389255 456.625954 L 3343.389255 473.716775 L 3360.440967 473.716775 L 3360.440967 456.625954 L 3343.389255 456.625954 L 3343.389255 439.535132 L 3360.440967 439.535132 " transform="matrix(0.09988, 0, 0, -0.09988, 0.199, 99.760144)"/>
<path fill="none" stroke-width="5" stroke-linecap="round" stroke-linejoin="round" stroke="rgb(0%, 0%, 0%)" stroke-opacity="1" stroke-miterlimit="10" d="M 3360.440967 439.535132 L 3360.440967 422.444311 L 3377.570898 422.444311 L 3377.570898 405.353489 L 3394.661719 405.353489 L 3394.661719 422.444311 L 3411.752541 422.444311 L 3411.752541 405.353489 L 3394.661719 405.353489 L 3394.661719 388.262668 L 3411.752541 388.262668 L 3411.752541 371.171846 L 3428.843362 371.171846 L 3428.843362 354.081025 L 3445.934184 354.081025 L 3445.934184 371.171846 L 3463.025005 371.171846 L 3463.025005 388.262668 L 3480.115826 388.262668 L 3480.115826 405.353489 L 3463.025005 405.353489 L 3463.025005 422.444311 L 3480.115826 422.444311 L 3480.115826 405.353489 L 3497.206648 405.353489 L 3497.206648 422.444311 L 3514.297469 422.444311 L 3514.297469 405.353489 L 3497.206648 405.353489 L 3497.206648 388.262668 L 3514.297469 388.262668 L 3514.297469 371.171846 L 3497.206648 371.171846 L 3497.206648 388.262668 L 3480.115826 388.262668 L 3480.115826 371.171846 L 3463.025005 371.171846 L 3463.025005 354.081025 L 3445.934184 354.081025 L 3445.934184 336.990203 L 3463.025005 336.990203 L 3463.025005 319.899382 L 3480.115826 319.899382 L 3480.115826 302.80856 L 3497.206648 302.80856 L 3497.206648 319.899382 L 3514.297469 319.899382 L 3514.297469 302.80856 L 3497.206648 302.80856 L 3497.206648 285.717739 L 3514.297469 285.717739 " transform="matrix(0.09988, 0, 0, -0.09988, 0.199, 99.760144)"/>
<path fill="none" stroke-width="5" stroke-linecap="round" stroke-linejoin="round" stroke="rgb(0%, 0%, 0%)" stroke-opacity="1" stroke-miterlimit="10" d="M 3514.297469 285.717739 L 3514.297469 268.626917 " transform="matrix(0.09988, 0, 0, -0.09988, 0.199, 99.760144)"/>
<path fill="none" stroke-width="5" stroke-linecap="round" stroke-linejoin="round" stroke="rgb(0%, 0%, 0%)" stroke-opacity="1" stroke-miterlimit="10" d="M 4563.447074 271.481906 L 4569.078832 271.481906 L 4569.078832 265.850148 L 4574.71059 265.850148 L 4574.71059 271.481906 L 4580.303239 271.481906 L 4580.303239 265.850148 L 4574.71059 265.850148 L 4574.71059 260.257499 L 4580.303239 260.257499 L 4580.303239 254.625741 L 4585.934997 254.625741 L 4585.934997 248.993983 L 4591.566755 248.993983 L 4591.566755 254.625741 L 4597.198513 254.625741 L 4597.198513 260.257499 L 4602.830271 260.257499 L 4602.830271 265.850148 L 4597.198513 265.850148 L 4597.198513 271.481906 L 4602.830271 271.481906 L 4602.830271 265.850148 L 4608.462029 265.850148 L 4608.462029 271.481906 L 4614.054678 271.481906 L 4614.054678 265.850148 L 4608.462029 265.850148 L 4608.462029 260.257499 L 4614.054678 260.257499 L 4614.054678 254.625741 L 4608.462029 254.625741 L 4608.462029 260.257499 L 4602.830271 260.257499 L 4602.830271 254.625741 L 4597.198513 254.625741 L 4597.198513 248.993983 L 4591.566755 248.993983 L 4591.566755 243.362225 L 4597.198513 243.362225 L 4597.198513 237.730467 L 4602.830271 237.730467 L 4602.830271 232.098708 L 4608.462029 232.098708 L 4608.462029 237.730467 L 4614.054678 237.730467 L 4614.054678 232.098708 L 4608.462029 232.098708 L 4608.462029 226.46695 L 4614.054678 226.46695 " transform="matrix(0.09988, 0, 0, -0.09988, 0.199, 99.760144)"/>
<path fill="none" stroke-width="5" stroke-linecap="round" stroke-linejoin="round" stroke="rgb(0%, 0%, 0%)" stroke-opacity="1" stroke-miterlimit="10" d="M 4614.054678 226.46695 L 4614.054678 220.835192 L 4619.725546 220.835192 L 4619.725546 215.242544 L 4625.357304 215.242544 L 4625.357304 220.835192 L 4630.949952 220.835192 L 4630.949952 215.242544 L 4625.357304 215.242544 L 4625.357304 209.610785 L 4630.949952 209.610785 L 4630.949952 203.979027 L 4636.581711 203.979027 L 4636.581711 198.347269 L 4642.213469 198.347269 L 4642.213469 203.979027 L 4647.845227 203.979027 L 4647.845227 209.610785 L 4653.476985 209.610785 L 4653.476985 215.242544 L 4647.845227 215.242544 L 4647.845227 220.835192 L 4653.476985 220.835192 L 4653.476985 215.242544 L 4659.108743 215.242544 L 4659.108743 220.835192 L 4664.701392 220.835192 L 4664.701392 226.46695 L 4670.33315 226.46695 L 4670.33315 232.098708 L 4664.701392 232.098708 L 4664.701392 237.730467 L 4670.33315 237.730467 L 4670.33315 232.098708 L 4675.964908 232.098708 L 4675.964908 237.730467 L 4681.596666 237.730467 L 4681.596666 243.362225 L 4687.228424 243.362225 L 4687.228424 248.993983 L 4681.596666 248.993983 L 4681.596666 254.625741 L 4675.964908 254.625741 L 4675.964908 260.257499 L 4670.33315 260.257499 L 4670.33315 254.625741 L 4664.701392 254.625741 L 4664.701392 260.257499 L 4670.33315 260.257499 L 4670.33315 265.850148 L 4664.701392 265.850148 " transform="matrix(0.09988, 0, 0, -0.09988, 0.199, 99.760144)"/>
<path fill="none" stroke-width="5" stroke-linecap="round" stroke-linejoin="round" stroke="rgb(0%, 0%, 0%)" stroke-opacity="1" stroke-miterlimit="10" d="M 4664.701392 265.850148 L 4664.701392 271.481906 L 4670.33315 271.481906 L 4670.33315 265.850148 L 4675.964908 265.850148 L 4675.964908 271.481906 L 4681.596666 271.481906 L 4681.596666 265.850148 L 4675.964908 265.850148 L 4675.964908 260.257499 L 4681.596666 260.257499 L 4681.596666 254.625741 L 4687.228424 254.625741 L 4687.228424 248.993983 L 4692.860182 248.993983 L 4692.860182 254.625741 L 4698.49194 254.625741 L 4698.49194 260.257499 L 4704.084589 260.257499 L 4704.084589 265.850148 L 4698.49194 265.850148 L 4698.49194 271.481906 L 4704.084589 271.481906 L 4704.084589 265.850148 L 4709.716347 265.850148 L 4709.716347 271.481906 L 4715.348105 271.481906 L 4715.348105 265.850148 L 4709.716347 265.850148 L 4709.716347 260.257499 L 4715.348105 260.257499 L 4715.348105 254.625741 L 4709.716347 254.625741 L 4709.716347 260.257499 L 4704.084589 260.257499 L 4704.084589 254.625741 L 4698.49194 254.625741 L 4698.49194 248.993983 L 4692.860182 248.993983 L 4692.860182 243.362225 L 4698.49194 243.362225 L 4698.49194 237.730467 L 4704.084589 237.730467 L 4704.084589 232.098708 L 4709.716347 232.098708 L 4709.716347 237.730467 L 4715.348105 237.730467 L 4715.348105 232.098708 L 4709.716347 232.098708 L 4709.716347 226.46695 L 4715.348105 226.46695 " transform="matrix(0.09988, 0, 0, -0.09988, 0.199, 99.760144)"/>
<path fill="none" stroke-width="5" stroke-linecap="round" stroke-linejoin="round" stroke="rgb(0%, 0%, 0%)" stroke-opacity="1" stroke-miterlimit="10" d="M 4715.348105 226.46695 L 4715.348105 220.835192 L 4709.716347 220.835192 L 4709.716347 226.46695 L 4704.084589 226.46695 L 4704.084589 220.835192 L 4698.49194 220.835192 L 4698.49194 226.46695 L 4704.084589 226.46695 L 4704.084589 232.098708 L 4698.49194 232.098708 L 4698.49194 237.730467 L 4692.860182 237.730467 L 4692.860182 243.362225 L 4687.228424 243.362225 L 4687.228424 237.730467 L 4681.596666 237.730467 L 4681.596666 232.098708 L 4675.964908 232.098708 L 4675.964908 226.46695 L 4681.596666 226.46695 L 4681.596666 220.835192 L 4675.964908 220.835192 L 4675.964908 226.46695 L 4670.33315 226.46695 L 4670.33315 220.835192 L 4664.701392 220.835192 L 4664.701392 215.242544 L 4659.108743 215.242544 L 4659.108743 209.610785 L 4664.701392 209.610785 L 4664.701392 203.979027 L 4659.108743 203.979027 L 4659.108743 209.610785 L 4653.476985 209.610785 L 4653.476985 203.979027 L 4647.845227 203.979027 L 4647.845227 198.347269 L 4642.213469 198.347269 L 4642.213469 192.715511 L 4647.845227 192.715511 L 4647.845227 187.083753 L 4653.476985 187.083753 L 4653.476985 181.451995 L 4659.108743 181.451995 L 4659.108743 187.083753 L 4664.701392 187.083753 L 4664.701392 181.451995 L 4659.108743 181.451995 L 4659.108743 175.820237 L 4664.701392 175.820237 " transform="matrix(0.09988, 0, 0, -0.09988, 0.199, 99.760144)"/>
<path fill="none" stroke-width="5" stroke-linecap="round" stroke-linejoin="round" stroke="rgb(0%, 0%, 0%)" stroke-opacity="1" stroke-miterlimit="10" d="M 4664.701392 175.820237 L 4664.701392 170.227588 L 4670.33315 170.227588 L 4670.33315 164.59583 L 4675.964908 164.59583 L 4675.964908 170.227588 L 4681.596666 170.227588 L 4681.596666 164.59583 L 4675.964908 164.59583 L 4675.964908 158.964072 L 4681.596666 158.964072 L 4681.596666 153.332314 L 4687.228424 153.332314 L 4687.228424 147.700556 L 4692.860182 147.700556 L 4692.860182 153.332314 L 4698.49194 153.332314 L 4698.49194 158.964072 L 4704.084589 158.964072 L 4704.084589 164.59583 L 4698.49194 164.59583 L 4698.49194 170.227588 L 4704.084589 170.227588 L 4704.084589 164.59583 L 4709.716347 164.59583 L 4709.716347 170.227588 L 4715.348105 170.227588 L 4715.348105 164.59583 L 4709.716347 164.59583 L 4709.716347 158.964072 L 4715.348105 158.964072 L 4715.348105 153.332314 L 4709.716347 153.332314 L 4709.716347 158.964072 L 4704.084589 158.964072 L 4704.084589 153.332314 L 4698.49194 153.332314 L 4698.49194 147.700556 L 4692.860182 147.700556 L 4692.860182 142.068798 L 4698.49194 142.068798 L 4698.49194 136.476149 L 4704.084589 136.476149 L 4704.084589 130.805281 L 4709.716347 130.805281 L 4709.716347 136.476149 L 4715.348105 136.476149 L 4715.348105 130.805281 L 4709.716347 130.805281 L 4709.716347 125.212633 L 4715.348105 125.212633 " transform="matrix(0.09988, 0, 0, -0.09988, 0.199, 99.760144)"/>
<path fill="none" stroke-width="5" stroke-linecap="round" stroke-linejoin="round" stroke="rgb(0%, 0%, 0%)" stroke-opacity="1" stroke-miterlimit="10" d="M 4715.348105 125.212633 L 4715.348105 119.580875 L 4720.979863 119.580875 L 4720.979863 113.949116 L 4726.611621 113.949116 L 4726.611621 119.580875 L 4732.24338 119.580875 L 4732.24338 113.949116 L 4726.611621 113.949116 L 4726.611621 108.317358 L 4732.24338 108.317358 L 4732.24338 102.6856 L 4737.875138 102.6856 L 4737.875138 97.053842 L 4743.506896 97.053842 L 4743.506896 102.6856 L 4749.099544 102.6856 L 4749.099544 108.317358 L 4754.731303 108.317358 L 4754.731303 113.949116 L 4749.099544 113.949116 L 4749.099544 119.580875 L 4754.731303 119.580875 L 4754.731303 113.949116 L 4760.363061 113.949116 L 4760.363061 119.580875 L 4765.994819 119.580875 L 4765.994819 113.949116 L 4760.363061 113.949116 L 4760.363061 108.317358 L 4765.994819 108.317358 L 4765.994819 102.6856 L 4760.363061 102.6856 L 4760.363061 108.317358 L 4754.731303 108.317358 L 4754.731303 102.6856 L 4749.099544 102.6856 L 4749.099544 97.053842 L 4743.506896 97.053842 L 4743.506896 91.422084 L 4749.099544 91.422084 L 4749.099544 85.829435 L 4754.731303 85.829435 L 4754.731303 80.197677 L 4760.363061 80.197677 L 4760.363061 85.829435 L 4765.994819 85.829435 L 4765.994819 80.197677 L 4760.363061 80.197677 L 4760.363061 74.565919 L 4765.994819 74.565919 " transform="matrix(0.09988, 0, 0, -0.09988, 0.199, 99.760144)"/>
<path fill="none" stroke-width="5" stroke-linecap="round" stroke-linejoin="round" stroke="rgb(0%, 0%, 0%)" stroke-opacity="1" stroke-miterlimit="10" d="M 4765.994819 74.565919 L 4765.994819 68.934161 L 4771.626577 68.934161 L 4771.626577 63.302403 L 4777.258335 63.302403 L 4777.258335 68.934161 L 4782.890093 68.934161 L 4782.890093 63.302403 L 4777.258335 63.302403 L 4777.258335 57.670645 L 4782.890093 57.670645 L 4782.890093 52.038887 L 4788.482742 52.038887 L 4788.482742 46.446238 L 4794.1145 46.446238 L 4794.1145 52.038887 L 4799.746258 52.038887 L 4799.746258 57.670645 L 4805.378016 57.670645 L 4805.378016 63.302403 L 4799.746258 63.302403 L 4799.746258 68.934161 L 4805.378016 68.934161 L 4805.378016 63.302403 L 4811.009774 63.302403 L 4811.009774 68.934161 L 4816.641532 68.934161 L 4816.641532 74.565919 L 4822.27329 74.565919 L 4822.27329 80.197677 L 4816.641532 80.197677 L 4816.641532 85.829435 L 4822.27329 85.829435 L 4822.27329 80.197677 L 4827.905049 80.197677 L 4827.905049 85.829435 L 4833.536807 85.829435 L 4833.536807 91.422084 L 4839.129455 91.422084 L 4839.129455 97.053842 L 4833.536807 97.053842 L 4833.536807 102.6856 L 4827.905049 102.6856 L 4827.905049 108.317358 L 4822.27329 108.317358 L 4822.27329 102.6856 L 4816.641532 102.6856 L 4816.641532 108.317358 L 4822.27329 108.317358 L 4822.27329 113.949116 L 4816.641532 113.949116 " transform="matrix(0.09988, 0, 0, -0.09988, 0.199, 99.760144)"/>
<path fill="none" stroke-width="5" stroke-linecap="round" stroke-linejoin="round" stroke="rgb(0%, 0%, 0%)" stroke-opacity="1" stroke-miterlimit="10" d="M 4816.641532 113.949116 L 4816.641532 119.580875 L 4822.27329 119.580875 L 4822.27329 113.949116 L 4827.905049 113.949116 L 4827.905049 119.580875 L 4833.536807 119.580875 L 4833.536807 113.949116 L 4827.905049 113.949116 L 4827.905049 108.317358 L 4833.536807 108.317358 L 4833.536807 102.6856 L 4839.129455 102.6856 L 4839.129455 97.053842 L 4844.761213 97.053842 L 4844.761213 102.6856 L 4850.392972 102.6856 L 4850.392972 108.317358 L 4856.02473 108.317358 L 4856.02473 113.949116 L 4850.392972 113.949116 L 4850.392972 119.580875 L 4856.02473 119.580875 L 4856.02473 113.949116 L 4861.656488 113.949116 L 4861.656488 119.580875 L 4867.288246 119.580875 L 4867.288246 125.212633 L 4872.880895 125.212633 L 4872.880895 130.805281 L 4867.288246 130.805281 L 4867.288246 136.476149 L 4872.880895 136.476149 L 4872.880895 130.805281 L 4878.512653 130.805281 L 4878.512653 136.476149 L 4884.144411 136.476149 L 4884.144411 142.068798 L 4889.776169 142.068798 L 4889.776169 147.700556 L 4884.144411 147.700556 L 4884.144411 153.332314 L 4878.512653 153.332314 L 4878.512653 158.964072 L 4872.880895 158.964072 L 4872.880895 153.332314 L 4867.288246 153.332314 L 4867.288246 158.964072 L 4872.880895 158.964072 L 4872.880895 164.59583 L 4867.288246 164.59583 " transform="matrix(0.09988, 0, 0, -0.09988, 0.199, 99.760144)"/>
<path fill="none" stroke-width="5" stroke-linecap="round" stroke-linejoin="round" stroke="rgb(0%, 0%, 0%)" stroke-opacity="1" stroke-miterlimit="10" d="M 4867.288246 164.59583 L 4867.288246 170.227588 L 4872.880895 170.227588 L 4872.880895 164.59583 L 4878.512653 164.59583 L 4878.512653 170.227588 L 4884.144411 170.227588 L 4884.144411 164.59583 L 4878.512653 164.59583 L 4878.512653 158.964072 L 4884.144411 158.964072 L 4884.144411 153.332314 L 4889.776169 153.332314 L 4889.776169 147.700556 L 4895.407927 147.700556 L 4895.407927 153.332314 L 4901.039685 153.332314 L 4901.039685 158.964072 L 4906.671443 158.964072 L 4906.671443 164.59583 L 4901.039685 164.59583 L 4901.039685 170.227588 L 4906.671443 170.227588 L 4906.671443 164.59583 L 4912.303201 164.59583 L 4912.303201 170.227588 L 4917.89585 170.227588 L 4917.89585 175.820237 L 4923.527608 175.820237 L 4923.527608 181.451995 L 4917.89585 181.451995 L 4917.89585 187.083753 L 4923.527608 187.083753 L 4923.527608 181.451995 L 4929.159366 181.451995 L 4929.159366 187.083753 L 4934.791124 187.083753 L 4934.791124 192.715511 L 4940.422882 192.715511 L 4940.422882 198.347269 L 4934.791124 198.347269 L 4934.791124 203.979027 L 4929.159366 203.979027 L 4929.159366 209.610785 L 4923.527608 209.610785 L 4923.527608 203.979027 L 4917.89585 203.979027 L 4917.89585 209.610785 L 4923.527608 209.610785 L 4923.527608 215.242544 L 4917.89585 215.242544 " transform="matrix(0.09988, 0, 0, -0.09988, 0.199, 99.760144)"/>
<path fill="none" stroke-width="5" stroke-linecap="round" stroke-linejoin="round" stroke="rgb(0%, 0%, 0%)" stroke-opacity="1" stroke-miterlimit="10" d="M 4917.89585 215.242544 L 4917.89585 220.835192 L 4912.303201 220.835192 L 4912.303201 226.46695 L 4906.671443 226.46695 L 4906.671443 220.835192 L 4901.039685 220.835192 L 4901.039685 226.46695 L 4906.671443 226.46695 L 4906.671443 232.098708 L 4901.039685 232.098708 L 4901.039685 237.730467 L 4895.407927 237.730467 L 4895.407927 243.362225 L 4889.776169 243.362225 L 4889.776169 237.730467 L 4884.144411 237.730467 L 4884.144411 232.098708 L 4878.512653 232.098708 L 4878.512653 226.46695 L 4884.144411 226.46695 L 4884.144411 220.835192 L 4878.512653 220.835192 L 4878.512653 226.46695 L 4872.880895 226.46695 L 4872.880895 220.835192 L 4867.288246 220.835192 L 4867.288246 226.46695 L 4872.880895 226.46695 L 4872.880895 232.098708 L 4867.288246 232.098708 L 4867.288246 237.730467 L 4872.880895 237.730467 L 4872.880895 232.098708 L 4878.512653 232.098708 L 4878.512653 237.730467 L 4884.144411 237.730467 L 4884.144411 243.362225 L 4889.776169 243.362225 L 4889.776169 248.993983 L 4884.144411 248.993983 L 4884.144411 254.625741 L 4878.512653 254.625741 L 4878.512653 260.257499 L 4872.880895 260.257499 L 4872.880895 254.625741 L 4867.288246 254.625741 L 4867.288246 260.257499 L 4872.880895 260.257499 L 4872.880895 265.850148 L 4867.288246 265.850148 " transform="matrix(0.09988, 0, 0, -0.09988, 0.199, 99.760144)"/>
<path fill="none" stroke-width="5" stroke-linecap="round" stroke-linejoin="round" stroke="rgb(0%, 0%, 0%)" stroke-opacity="1" stroke-miterlimit="10" d="M 4867.288246 265.850148 L 4867.288246 271.481906 L 4872.880895 271.481906 L 4872.880895 265.850148 L 4878.512653 265.850148 L 4878.512653 271.481906 L 4884.144411 271.481906 L 4884.144411 265.850148 L 4878.512653 265.850148 L 4878.512653 260.257499 L 4884.144411 260.257499 L 4884.144411 254.625741 L 4889.776169 254.625741 L 4889.776169 248.993983 L 4895.407927 248.993983 L 4895.407927 254.625741 L 4901.039685 254.625741 L 4901.039685 260.257499 L 4906.671443 260.257499 L 4906.671443 265.850148 L 4901.039685 265.850148 L 4901.039685 271.481906 L 4906.671443 271.481906 L 4906.671443 265.850148 L 4912.303201 265.850148 L 4912.303201 271.481906 L 4917.89585 271.481906 L 4917.89585 265.850148 L 4912.303201 265.850148 L 4912.303201 260.257499 L 4917.89585 260.257499 L 4917.89585 254.625741 L 4912.303201 254.625741 L 4912.303201 260.257499 L 4906.671443 260.257499 L 4906.671443 254.625741 L 4901.039685 254.625741 L 4901.039685 248.993983 L 4895.407927 248.993983 L 4895.407927 243.362225 L 4901.039685 243.362225 L 4901.039685 237.730467 L 4906.671443 237.730467 L 4906.671443 232.098708 L 4912.303201 232.098708 L 4912.303201 237.730467 L 4917.89585 237.730467 L 4917.89585 232.098708 L 4912.303201 232.098708 L 4912.303201 226.46695 L 4917.89585 226.46695 " transform="matrix(0.09988, 0, 0, -0.09988, 0.199, 99.760144)"/>
<path fill="none" stroke-width="5" stroke-linecap="round" stroke-linejoin="round" stroke="rgb(0%, 0%, 0%)" stroke-opacity="1" stroke-miterlimit="10" d="M 4917.89585 226.46695 L 4917.89585 220.835192 L 4923.527608 220.835192 L 4923.527608 215.242544 L 4929.159366 215.242544 L 4929.159366 220.835192 L 4934.791124 220.835192 L 4934.791124 215.242544 L 4929.159366 215.242544 L 4929.159366 209.610785 L 4934.791124 209.610785 L 4934.791124 203.979027 L 4940.422882 203.979027 L 4940.422882 198.347269 L 4946.054641 198.347269 L 4946.054641 203.979027 L 4951.686399 203.979027 L 4951.686399 209.610785 L 4957.279047 209.610785 L 4957.279047 215.242544 L 4951.686399 215.242544 L 4951.686399 220.835192 L 4957.279047 220.835192 L 4957.279047 215.242544 L 4962.910805 215.242544 L 4962.910805 220.835192 L 4968.542564 220.835192 L 4968.542564 226.46695 L 4974.174322 226.46695 L 4974.174322 232.098708 L 4968.542564 232.098708 L 4968.542564 237.730467 L 4974.174322 237.730467 L 4974.174322 232.098708 L 4979.80608 232.098708 L 4979.80608 237.730467 L 4985.437838 237.730467 L 4985.437838 243.362225 L 4991.069596 243.362225 L 4991.069596 248.993983 L 4985.437838 248.993983 L 4985.437838 254.625741 L 4979.80608 254.625741 L 4979.80608 260.257499 L 4974.174322 260.257499 L 4974.174322 254.625741 L 4968.542564 254.625741 L 4968.542564 260.257499 L 4974.174322 260.257499 L 4974.174322 265.850148 L 4968.542564 265.850148 " transform="matrix(0.09988, 0, 0, -0.09988, 0.199, 99.760144)"/>
<path fill="none" stroke-width="5" stroke-linecap="round" stroke-linejoin="round" stroke="rgb(0%, 0%, 0%)" stroke-opacity="1" stroke-miterlimit="10" d="M 4968.542564 265.850148 L 4968.542564 271.481906 L 4974.174322 271.481906 L 4974.174322 265.850148 L 4979.80608 265.850148 L 4979.80608 271.481906 L 4985.437838 271.481906 L 4985.437838 265.850148 L 4979.80608 265.850148 L 4979.80608 260.257499 L 4985.437838 260.257499 L 4985.437838 254.625741 L 4991.069596 254.625741 L 4991.069596 248.993983 L 4996.662245 248.993983 L 4996.662245 254.625741 L 5002.294003 254.625741 L 5002.294003 260.257499 L 5007.925761 260.257499 L 5007.925761 265.850148 L 5002.294003 265.850148 L 5002.294003 271.481906 L 5007.925761 271.481906 L 5007.925761 265.850148 L 5013.557519 265.850148 L 5013.557519 271.481906 L 5019.189277 271.481906 L 5019.189277 277.113664 L 5024.821035 277.113664 L 5024.821035 282.745422 L 5019.189277 282.745422 L 5019.189277 288.37718 L 5024.821035 288.37718 L 5024.821035 282.745422 L 5030.452793 282.745422 L 5030.452793 288.37718 L 5036.084551 288.37718 L 5036.084551 294.008938 L 5041.71631 294.008938 L 5041.71631 299.601587 L 5036.084551 299.601587 L 5036.084551 305.233345 L 5030.452793 305.233345 L 5030.452793 310.865103 L 5024.821035 310.865103 L 5024.821035 305.233345 L 5019.189277 305.233345 L 5019.189277 310.865103 L 5024.821035 310.865103 L 5024.821035 316.496861 L 5019.189277 316.496861 " transform="matrix(0.09988, 0, 0, -0.09988, 0.199, 99.760144)"/>
<path fill="none" stroke-width="5" stroke-linecap="round" stroke-linejoin="round" stroke="rgb(0%, 0%, 0%)" stroke-opacity="1" stroke-miterlimit="10" d="M 5019.189277 316.496861 L 5019.189277 322.128619 L 5024.821035 322.128619 L 5024.821035 316.496861 L 5030.452793 316.496861 L 5030.452793 322.128619 L 5036.084551 322.128619 L 5036.084551 316.496861 L 5030.452793 316.496861 L 5030.452793 310.865103 L 5036.084551 310.865103 L 5036.084551 305.233345 L 5041.71631 305.233345 L 5041.71631 299.601587 L 5047.308958 299.601587 L 5047.308958 305.233345 L 5052.940716 305.233345 L 5052.940716 310.865103 L 5058.572474 310.865103 L 5058.572474 316.496861 L 5052.940716 316.496861 L 5052.940716 322.128619 L 5058.572474 322.128619 L 5058.572474 316.496861 L 5064.204233 316.496861 L 5064.204233 322.128619 L 5069.835991 322.128619 L 5069.835991 327.760377 L 5075.467749 327.760377 L 5075.467749 333.392136 L 5069.835991 333.392136 L 5069.835991 338.984784 L 5075.467749 338.984784 L 5075.467749 333.392136 L 5081.099507 333.392136 L 5081.099507 338.984784 L 5086.692156 338.984784 L 5086.692156 344.655652 L 5092.323914 344.655652 L 5092.323914 350.2483 L 5086.692156 350.2483 L 5086.692156 355.880059 L 5081.099507 355.880059 L 5081.099507 361.511817 L 5075.467749 361.511817 L 5075.467749 355.880059 L 5069.835991 355.880059 L 5069.835991 361.511817 L 5075.467749 361.511817 L 5075.467749 367.143575 L 5069.835991 367.143575 " transform="matrix(0.09988, 0, 0, -0.09988, 0.199, 99.760144)"/>
<path fill="none" stroke-width="5" stroke-linecap="round" stroke-linejoin="round" stroke="rgb(0%, 0%, 0%)" stroke-opacity="1" stroke-miterlimit="10" d="M 5069.835991 367.143575 L 5069.835991 372.775333 L 5064.204233 372.775333 L 5064.204233 378.407091 L 5058.572474 378.407091 L 5058.572474 372.775333 L 5052.940716 372.775333 L 5052.940716 378.407091 L 5058.572474 378.407091 L 5058.572474 383.99974 L 5052.940716 383.99974 L 5052.940716 389.631498 L 5047.308958 389.631498 L 5047.308958 395.263256 L 5041.71631 395.263256 L 5041.71631 389.631498 L 5036.084551 389.631498 L 5036.084551 383.99974 L 5030.452793 383.99974 L 5030.452793 378.407091 L 5036.084551 378.407091 L 5036.084551 372.775333 L 5030.452793 372.775333 L 5030.452793 378.407091 L 5024.821035 378.407091 L 5024.821035 372.775333 L 5019.189277 372.775333 L 5019.189277 378.407091 L 5024.821035 378.407091 L 5024.821035 383.99974 L 5019.189277 383.99974 L 5019.189277 389.631498 L 5024.821035 389.631498 L 5024.821035 383.99974 L 5030.452793 383.99974 L 5030.452793 389.631498 L 5036.084551 389.631498 L 5036.084551 395.263256 L 5041.71631 395.263256 L 5041.71631 400.895014 L 5036.084551 400.895014 L 5036.084551 406.526772 L 5030.452793 406.526772 L 5030.452793 412.15853 L 5024.821035 412.15853 L 5024.821035 406.526772 L 5019.189277 406.526772 L 5019.189277 412.15853 L 5024.821035 412.15853 L 5024.821035 417.790288 L 5019.189277 417.790288 " transform="matrix(0.09988, 0, 0, -0.09988, 0.199, 99.760144)"/>
<path fill="none" stroke-width="5" stroke-linecap="round" stroke-linejoin="round" stroke="rgb(0%, 0%, 0%)" stroke-opacity="1" stroke-miterlimit="10" d="M 5019.189277 417.790288 L 5019.189277 423.382937 L 5024.821035 423.382937 L 5024.821035 417.790288 L 5030.452793 417.790288 L 5030.452793 423.382937 L 5036.084551 423.382937 L 5036.084551 417.790288 L 5030.452793 417.790288 L 5030.452793 412.15853 L 5036.084551 412.15853 L 5036.084551 406.526772 L 5041.71631 406.526772 L 5041.71631 400.895014 L 5047.308958 400.895014 L 5047.308958 406.526772 L 5052.940716 406.526772 L 5052.940716 412.15853 L 5058.572474 412.15853 L 5058.572474 417.790288 L 5052.940716 417.790288 L 5052.940716 423.382937 L 5058.572474 423.382937 L 5058.572474 417.790288 L 5064.204233 417.790288 L 5064.204233 423.382937 L 5069.835991 423.382937 L 5069.835991 417.790288 L 5064.204233 417.790288 L 5064.204233 412.15853 L 5069.835991 412.15853 L 5069.835991 406.526772 L 5064.204233 406.526772 L 5064.204233 412.15853 L 5058.572474 412.15853 L 5058.572474 406.526772 L 5052.940716 406.526772 L 5052.940716 400.895014 L 5047.308958 400.895014 L 5047.308958 395.263256 L 5052.940716 395.263256 L 5052.940716 389.631498 L 5058.572474 389.631498 L 5058.572474 383.99974 L 5064.204233 383.99974 L 5064.204233 389.631498 L 5069.835991 389.631498 L 5069.835991 383.99974 L 5064.204233 383.99974 L 5064.204233 378.407091 L 5069.835991 378.407091 " transform="matrix(0.09988, 0, 0, -0.09988, 0.199, 99.760144)"/>
<path fill="none" stroke-width="5" stroke-linecap="round" stroke-linejoin="round" stroke="rgb(0%, 0%, 0%)" stroke-opacity="1" stroke-miterlimit="10" d="M 5069.835991 378.407091 L 5069.835991 372.775333 L 5075.467749 372.775333 L 5075.467749 367.143575 L 5081.099507 367.143575 L 5081.099507 372.775333 L 5086.692156 372.775333 L 5086.692156 367.143575 L 5081.099507 367.143575 L 5081.099507 361.511817 L 5086.692156 361.511817 L 5086.692156 355.880059 L 5092.323914 355.880059 L 5092.323914 350.2483 L 5097.955672 350.2483 L 5097.955672 355.880059 L 5103.58743 355.880059 L 5103.58743 361.511817 L 5109.219188 361.511817 L 5109.219188 367.143575 L 5103.58743 367.143575 L 5103.58743 372.775333 L 5109.219188 372.775333 L 5109.219188 367.143575 L 5114.850946 367.143575 L 5114.850946 372.775333 L 5120.443595 372.775333 L 5120.443595 378.407091 L 5126.075353 378.407091 L 5126.075353 383.99974 L 5120.443595 383.99974 L 5120.443595 389.631498 L 5126.075353 389.631498 L 5126.075353 383.99974 L 5131.707111 383.99974 L 5131.707111 389.631498 L 5137.338869 389.631498 L 5137.338869 395.263256 L 5142.970627 395.263256 L 5142.970627 400.895014 L 5137.338869 400.895014 L 5137.338869 406.526772 L 5131.707111 406.526772 L 5131.707111 412.15853 L 5126.075353 412.15853 L 5126.075353 406.526772 L 5120.443595 406.526772 L 5120.443595 412.15853 L 5126.075353 412.15853 L 5126.075353 417.790288 L 5120.443595 417.790288 " transform="matrix(0.09988, 0, 0, -0.09988, 0.199, 99.760144)"/>
<path fill="none" stroke-width="5" stroke-linecap="round" stroke-linejoin="round" stroke="rgb(0%, 0%, 0%)" stroke-opacity="1" stroke-miterlimit="10" d="M 5120.443595 417.790288 L 5120.443595 423.382937 L 5126.075353 423.382937 L 5126.075353 417.790288 L 5131.707111 417.790288 L 5131.707111 423.382937 L 5137.338869 423.382937 L 5137.338869 417.790288 L 5131.707111 417.790288 L 5131.707111 412.15853 L 5137.338869 412.15853 L 5137.338869 406.526772 L 5142.970627 406.526772 L 5142.970627 400.895014 L 5148.602385 400.895014 L 5148.602385 406.526772 L 5154.234143 406.526772 L 5154.234143 412.15853 L 5159.865902 412.15853 L 5159.865902 417.790288 L 5154.234143 417.790288 L 5154.234143 423.382937 L 5159.865902 423.382937 L 5159.865902 417.790288 L 5165.45855 417.790288 L 5165.45855 423.382937 L 5171.129418 423.382937 L 5171.129418 429.014695 L 5176.722066 429.014695 L 5176.722066 434.646453 L 5171.129418 434.646453 L 5171.129418 440.278211 L 5176.722066 440.278211 L 5176.722066 434.646453 L 5182.353825 434.646453 L 5182.353825 440.278211 L 5187.985583 440.278211 L 5187.985583 445.909969 L 5193.617341 445.909969 L 5193.617341 451.541728 L 5187.985583 451.541728 L 5187.985583 457.173486 L 5182.353825 457.173486 L 5182.353825 462.805244 L 5176.722066 462.805244 L 5176.722066 457.173486 L 5171.129418 457.173486 L 5171.129418 462.805244 L 5176.722066 462.805244 L 5176.722066 468.437002 L 5171.129418 468.437002 " transform="matrix(0.09988, 0, 0, -0.09988, 0.199, 99.760144)"/>
<path fill="none" stroke-width="5" stroke-linecap="round" stroke-linejoin="round" stroke="rgb(0%, 0%, 0%)" stroke-opacity="1" stroke-miterlimit="10" d="M 5171.129418 468.437002 L 5171.129418 474.029651 L 5176.722066 474.029651 L 5176.722066 468.437002 L 5182.353825 468.437002 L 5182.353825 474.029651 L 5187.985583 474.029651 L 5187.985583 468.437002 L 5182.353825 468.437002 L 5182.353825 462.805244 L 5187.985583 462.805244 L 5187.985583 457.173486 L 5193.617341 457.173486 L 5193.617341 451.541728 L 5199.249099 451.541728 L 5199.249099 457.173486 L 5204.841748 457.173486 L 5204.841748 462.805244 L 5210.473506 462.805244 L 5210.473506 468.437002 L 5204.841748 468.437002 L 5204.841748 474.029651 L 5210.473506 474.029651 L 5210.473506 468.437002 L 5216.105264 468.437002 L 5216.105264 474.029651 L 5221.737022 474.029651 L 5221.737022 479.661409 L 5227.36878 479.661409 L 5227.36878 485.293167 L 5221.737022 485.293167 L 5221.737022 490.924925 L 5227.36878 490.924925 L 5227.36878 485.293167 L 5233.000538 485.293167 L 5233.000538 490.924925 L 5238.632296 490.924925 L 5238.632296 496.556683 L 5244.264054 496.556683 L 5244.264054 502.188441 L 5238.632296 502.188441 L 5238.632296 507.78109 L 5233.000538 507.78109 L 5233.000538 513.412848 L 5227.36878 513.412848 L 5227.36878 507.78109 L 5221.737022 507.78109 L 5221.737022 513.412848 L 5227.36878 513.412848 L 5227.36878 519.044606 L 5221.737022 519.044606 " transform="matrix(0.09988, 0, 0, -0.09988, 0.199, 99.760144)"/>
<path fill="none" stroke-width="5" stroke-linecap="round" stroke-linejoin="round" stroke="rgb(0%, 0%, 0%)" stroke-opacity="1" stroke-miterlimit="10" d="M 5221.737022 519.044606 L 5221.737022 524.676364 L 5216.105264 524.676364 L 5216.105264 530.308122 L 5210.473506 530.308122 L 5210.473506 524.676364 L 5204.841748 524.676364 L 5204.841748 530.308122 L 5210.473506 530.308122 L 5210.473506 535.93988 L 5204.841748 535.93988 L 5204.841748 541.571638 L 5199.249099 541.571638 L 5199.249099 547.203397 L 5193.617341 547.203397 L 5193.617341 541.571638 L 5187.985583 541.571638 L 5187.985583 535.93988 L 5182.353825 535.93988 L 5182.353825 530.308122 L 5187.985583 530.308122 L 5187.985583 524.676364 L 5182.353825 524.676364 L 5182.353825 530.308122 L 5176.722066 530.308122 L 5176.722066 524.676364 L 5171.129418 524.676364 L 5171.129418 530.308122 L 5176.722066 530.308122 L 5176.722066 535.93988 L 5171.129418 535.93988 L 5171.129418 541.571638 L 5176.722066 541.571638 L 5176.722066 535.93988 L 5182.353825 535.93988 L 5182.353825 541.571638 L 5187.985583 541.571638 L 5187.985583 547.203397 L 5193.617341 547.203397 L 5193.617341 552.835155 L 5187.985583 552.835155 L 5187.985583 558.427803 L 5182.353825 558.427803 L 5182.353825 564.059561 L 5176.722066 564.059561 L 5176.722066 558.427803 L 5171.129418 558.427803 L 5171.129418 564.059561 L 5176.722066 564.059561 L 5176.722066 569.69132 L 5171.129418 569.69132 " transform="matrix(0.09988, 0, 0, -0.09988, 0.199, 99.760144)"/>
<path fill="none" stroke-width="5" stroke-linecap="round" stroke-linejoin="round" stroke="rgb(0%, 0%, 0%)" stroke-opacity="1" stroke-miterlimit="10" d="M 5171.129418 569.69132 L 5171.129418 575.323078 L 5165.45855 575.323078 L 5165.45855 580.954836 L 5159.865902 580.954836 L 5159.865902 575.323078 L 5154.234143 575.323078 L 5154.234143 580.954836 L 5159.865902 580.954836 L 5159.865902 586.586594 L 5154.234143 586.586594 L 5154.234143 592.179243 L 5148.602385 592.179243 L 5148.602385 597.811001 L 5142.970627 597.811001 L 5142.970627 592.179243 L 5137.338869 592.179243 L 5137.338869 586.586594 L 5131.707111 586.586594 L 5131.707111 580.954836 L 5137.338869 580.954836 L 5137.338869 575.323078 L 5131.707111 575.323078 L 5131.707111 580.954836 L 5126.075353 580.954836 L 5126.075353 575.323078 L 5120.443595 575.323078 L 5120.443595 580.954836 L 5126.075353 580.954836 L 5126.075353 586.586594 L 5120.443595 586.586594 L 5120.443595 592.179243 L 5126.075353 592.179243 L 5126.075353 586.586594 L 5131.707111 586.586594 L 5131.707111 592.179243 L 5137.338869 592.179243 L 5137.338869 597.811001 L 5142.970627 597.811001 L 5142.970627 603.442759 L 5137.338869 603.442759 L 5137.338869 609.074517 L 5131.707111 609.074517 L 5131.707111 614.706275 L 5126.075353 614.706275 L 5126.075353 609.074517 L 5120.443595 609.074517 L 5120.443595 614.706275 L 5126.075353 614.706275 L 5126.075353 620.338033 L 5120.443595 620.338033 " transform="matrix(0.09988, 0, 0, -0.09988, 0.199, 99.760144)"/>
<path fill="none" stroke-width="5" stroke-linecap="round" stroke-linejoin="round" stroke="rgb(0%, 0%, 0%)" stroke-opacity="1" stroke-miterlimit="10" d="M 5120.443595 620.338033 L 5120.443595 625.969791 L 5114.850946 625.969791 L 5114.850946 631.601549 L 5109.219188 631.601549 L 5109.219188 625.969791 L 5103.58743 625.969791 L 5103.58743 631.601549 L 5109.219188 631.601549 L 5109.219188 637.233307 L 5103.58743 637.233307 L 5103.58743 642.825956 L 5097.955672 642.825956 L 5097.955672 648.457714 L 5092.323914 648.457714 L 5092.323914 642.825956 L 5086.692156 642.825956 L 5086.692156 637.233307 L 5081.099507 637.233307 L 5081.099507 631.601549 L 5086.692156 631.601549 L 5086.692156 625.969791 L 5081.099507 625.969791 L 5081.099507 631.601549 L 5075.467749 631.601549 L 5075.467749 625.969791 L 5069.835991 625.969791 L 5069.835991 620.338033 L 5064.204233 620.338033 L 5064.204233 614.706275 L 5069.835991 614.706275 L 5069.835991 609.074517 L 5064.204233 609.074517 L 5064.204233 614.706275 L 5058.572474 614.706275 L 5058.572474 609.074517 L 5052.940716 609.074517 L 5052.940716 603.442759 L 5047.308958 603.442759 L 5047.308958 597.811001 L 5052.940716 597.811001 L 5052.940716 592.179243 L 5058.572474 592.179243 L 5058.572474 586.586594 L 5064.204233 586.586594 L 5064.204233 592.179243 L 5069.835991 592.179243 L 5069.835991 586.586594 L 5064.204233 586.586594 L 5064.204233 580.954836 L 5069.835991 580.954836 " transform="matrix(0.09988, 0, 0, -0.09988, 0.199, 99.760144)"/>
<path fill="none" stroke-width="5" stroke-linecap="round" stroke-linejoin="round" stroke="rgb(0%, 0%, 0%)" stroke-opacity="1" stroke-miterlimit="10" d="M 5069.835991 580.954836 L 5069.835991 575.323078 L 5064.204233 575.323078 L 5064.204233 580.954836 L 5058.572474 580.954836 L 5058.572474 575.323078 L 5052.940716 575.323078 L 5052.940716 580.954836 L 5058.572474 580.954836 L 5058.572474 586.586594 L 5052.940716 586.586594 L 5052.940716 592.179243 L 5047.308958 592.179243 L 5047.308958 597.811001 L 5041.71631 597.811001 L 5041.71631 592.179243 L 5036.084551 592.179243 L 5036.084551 586.586594 L 5030.452793 586.586594 L 5030.452793 580.954836 L 5036.084551 580.954836 L 5036.084551 575.323078 L 5030.452793 575.323078 L 5030.452793 580.954836 L 5024.821035 580.954836 L 5024.821035 575.323078 L 5019.189277 575.323078 L 5019.189277 580.954836 L 5024.821035 580.954836 L 5024.821035 586.586594 L 5019.189277 586.586594 L 5019.189277 592.179243 L 5024.821035 592.179243 L 5024.821035 586.586594 L 5030.452793 586.586594 L 5030.452793 592.179243 L 5036.084551 592.179243 L 5036.084551 597.811001 L 5041.71631 597.811001 L 5041.71631 603.442759 L 5036.084551 603.442759 L 5036.084551 609.074517 L 5030.452793 609.074517 L 5030.452793 614.706275 L 5024.821035 614.706275 L 5024.821035 609.074517 L 5019.189277 609.074517 L 5019.189277 614.706275 L 5024.821035 614.706275 L 5024.821035 620.338033 L 5019.189277 620.338033 " transform="matrix(0.09988, 0, 0, -0.09988, 0.199, 99.760144)"/>
<path fill="none" stroke-width="5" stroke-linecap="round" stroke-linejoin="round" stroke="rgb(0%, 0%, 0%)" stroke-opacity="1" stroke-miterlimit="10" d="M 5019.189277 620.338033 L 5019.189277 625.969791 L 5024.821035 625.969791 L 5024.821035 620.338033 L 5030.452793 620.338033 L 5030.452793 625.969791 L 5036.084551 625.969791 L 5036.084551 620.338033 L 5030.452793 620.338033 L 5030.452793 614.706275 L 5036.084551 614.706275 L 5036.084551 609.074517 L 5041.71631 609.074517 L 5041.71631 603.442759 L 5047.308958 603.442759 L 5047.308958 609.074517 L 5052.940716 609.074517 L 5052.940716 614.706275 L 5058.572474 614.706275 L 5058.572474 620.338033 L 5052.940716 620.338033 L 5052.940716 625.969791 L 5058.572474 625.969791 L 5058.572474 620.338033 L 5064.204233 620.338033 L 5064.204233 625.969791 L 5069.835991 625.969791 L 5069.835991 631.601549 L 5075.467749 631.601549 L 5075.467749 637.233307 L 5069.835991 637.233307 L 5069.835991 642.825956 L 5075.467749 642.825956 L 5075.467749 637.233307 L 5081.099507 637.233307 L 5081.099507 642.825956 L 5086.692156 642.825956 L 5086.692156 648.457714 L 5092.323914 648.457714 L 5092.323914 654.089472 L 5086.692156 654.089472 L 5086.692156 659.72123 L 5081.099507 659.72123 L 5081.099507 665.352989 L 5075.467749 665.352989 L 5075.467749 659.72123 L 5069.835991 659.72123 L 5069.835991 665.352989 L 5075.467749 665.352989 L 5075.467749 670.984747 L 5069.835991 670.984747 " transform="matrix(0.09988, 0, 0, -0.09988, 0.199, 99.760144)"/>
<path fill="none" stroke-width="5" stroke-linecap="round" stroke-linejoin="round" stroke="rgb(0%, 0%, 0%)" stroke-opacity="1" stroke-miterlimit="10" d="M 5069.835991 670.984747 L 5069.835991 676.616505 L 5064.204233 676.616505 L 5064.204233 682.209153 L 5058.572474 682.209153 L 5058.572474 676.616505 L 5052.940716 676.616505 L 5052.940716 682.209153 L 5058.572474 682.209153 L 5058.572474 687.840912 L 5052.940716 687.840912 L 5052.940716 693.47267 L 5047.308958 693.47267 L 5047.308958 699.104428 L 5041.71631 699.104428 L 5041.71631 693.47267 L 5036.084551 693.47267 L 5036.084551 687.840912 L 5030.452793 687.840912 L 5030.452793 682.209153 L 5036.084551 682.209153 L 5036.084551 676.616505 L 5030.452793 676.616505 L 5030.452793 682.209153 L 5024.821035 682.209153 L 5024.821035 676.616505 L 5019.189277 676.616505 L 5019.189277 682.209153 L 5024.821035 682.209153 L 5024.821035 687.840912 L 5019.189277 687.840912 L 5019.189277 693.47267 L 5024.821035 693.47267 L 5024.821035 687.840912 L 5030.452793 687.840912 L 5030.452793 693.47267 L 5036.084551 693.47267 L 5036.084551 699.104428 L 5041.71631 699.104428 L 5041.71631 704.736186 L 5036.084551 704.736186 L 5036.084551 710.367944 L 5030.452793 710.367944 L 5030.452793 715.960593 L 5024.821035 715.960593 L 5024.821035 710.367944 L 5019.189277 710.367944 L 5019.189277 715.960593 L 5024.821035 715.960593 L 5024.821035 721.592351 L 5019.189277 721.592351 " transform="matrix(0.09988, 0, 0, -0.09988, 0.199, 99.760144)"/>
<path fill="none" stroke-width="5" stroke-linecap="round" stroke-linejoin="round" stroke="rgb(0%, 0%, 0%)" stroke-opacity="1" stroke-miterlimit="10" d="M 5019.189277 721.592351 L 5019.189277 727.224109 L 5013.557519 727.224109 L 5013.557519 732.855867 L 5007.925761 732.855867 L 5007.925761 727.224109 L 5002.294003 727.224109 L 5002.294003 732.855867 L 5007.925761 732.855867 L 5007.925761 738.487625 L 5002.294003 738.487625 L 5002.294003 744.119383 L 4996.662245 744.119383 L 4996.662245 749.751141 L 4991.069596 749.751141 L 4991.069596 744.119383 L 4985.437838 744.119383 L 4985.437838 738.487625 L 4979.80608 738.487625 L 4979.80608 732.855867 L 4985.437838 732.855867 L 4985.437838 727.224109 L 4979.80608 727.224109 L 4979.80608 732.855867 L 4974.174322 732.855867 L 4974.174322 727.224109 L 4968.542564 727.224109 L 4968.542564 732.855867 L 4974.174322 732.855867 L 4974.174322 738.487625 L 4968.542564 738.487625 L 4968.542564 744.119383 L 4974.174322 744.119383 L 4974.174322 738.487625 L 4979.80608 738.487625 L 4979.80608 744.119383 L 4985.437838 744.119383 L 4985.437838 749.751141 L 4991.069596 749.751141 L 4991.069596 755.382899 L 4985.437838 755.382899 L 4985.437838 761.014658 L 4979.80608 761.014658 L 4979.80608 766.607306 L 4974.174322 766.607306 L 4974.174322 761.014658 L 4968.542564 761.014658 L 4968.542564 766.607306 L 4974.174322 766.607306 L 4974.174322 772.239064 L 4968.542564 772.239064 " transform="matrix(0.09988, 0, 0, -0.09988, 0.199, 99.760144)"/>
<path fill="none" stroke-width="5" stroke-linecap="round" stroke-linejoin="round" stroke="rgb(0%, 0%, 0%)" stroke-opacity="1" stroke-miterlimit="10" d="M 4968.542564 772.239064 L 4968.542564 777.870822 L 4962.910805 777.870822 L 4962.910805 783.502581 L 4957.279047 783.502581 L 4957.279047 777.870822 L 4951.686399 777.870822 L 4951.686399 783.502581 L 4957.279047 783.502581 L 4957.279047 789.134339 L 4951.686399 789.134339 L 4951.686399 794.766097 L 4946.054641 794.766097 L 4946.054641 800.358745 L 4940.422882 800.358745 L 4940.422882 794.766097 L 4934.791124 794.766097 L 4934.791124 789.134339 L 4929.159366 789.134339 L 4929.159366 783.502581 L 4934.791124 783.502581 L 4934.791124 777.870822 L 4929.159366 777.870822 L 4929.159366 783.502581 L 4923.527608 783.502581 L 4923.527608 777.870822 L 4917.89585 777.870822 L 4917.89585 772.239064 L 4912.303201 772.239064 L 4912.303201 766.607306 L 4917.89585 766.607306 L 4917.89585 761.014658 L 4912.303201 761.014658 L 4912.303201 766.607306 L 4906.671443 766.607306 L 4906.671443 761.014658 L 4901.039685 761.014658 L 4901.039685 755.382899 L 4895.407927 755.382899 L 4895.407927 749.751141 L 4901.039685 749.751141 L 4901.039685 744.119383 L 4906.671443 744.119383 L 4906.671443 738.487625 L 4912.303201 738.487625 L 4912.303201 744.119383 L 4917.89585 744.119383 L 4917.89585 738.487625 L 4912.303201 738.487625 L 4912.303201 732.855867 L 4917.89585 732.855867 " transform="matrix(0.09988, 0, 0, -0.09988, 0.199, 99.760144)"/>
<path fill="none" stroke-width="5" stroke-linecap="round" stroke-linejoin="round" stroke="rgb(0%, 0%, 0%)" stroke-opacity="1" stroke-miterlimit="10" d="M 4917.89585 732.855867 L 4917.89585 727.224109 L 4912.303201 727.224109 L 4912.303201 732.855867 L 4906.671443 732.855867 L 4906.671443 727.224109 L 4901.039685 727.224109 L 4901.039685 732.855867 L 4906.671443 732.855867 L 4906.671443 738.487625 L 4901.039685 738.487625 L 4901.039685 744.119383 L 4895.407927 744.119383 L 4895.407927 749.751141 L 4889.776169 749.751141 L 4889.776169 744.119383 L 4884.144411 744.119383 L 4884.144411 738.487625 L 4878.512653 738.487625 L 4878.512653 732.855867 L 4884.144411 732.855867 L 4884.144411 727.224109 L 4878.512653 727.224109 L 4878.512653 732.855867 L 4872.880895 732.855867 L 4872.880895 727.224109 L 4867.288246 727.224109 L 4867.288246 732.855867 L 4872.880895 732.855867 L 4872.880895 738.487625 L 4867.288246 738.487625 L 4867.288246 744.119383 L 4872.880895 744.119383 L 4872.880895 738.487625 L 4878.512653 738.487625 L 4878.512653 744.119383 L 4884.144411 744.119383 L 4884.144411 749.751141 L 4889.776169 749.751141 L 4889.776169 755.382899 L 4884.144411 755.382899 L 4884.144411 761.014658 L 4878.512653 761.014658 L 4878.512653 766.607306 L 4872.880895 766.607306 L 4872.880895 761.014658 L 4867.288246 761.014658 L 4867.288246 766.607306 L 4872.880895 766.607306 L 4872.880895 772.239064 L 4867.288246 772.239064 " transform="matrix(0.09988, 0, 0, -0.09988, 0.199, 99.760144)"/>
<path fill="none" stroke-width="5" stroke-linecap="round" stroke-linejoin="round" stroke="rgb(0%, 0%, 0%)" stroke-opacity="1" stroke-miterlimit="10" d="M 4867.288246 772.239064 L 4867.288246 777.870822 L 4872.880895 777.870822 L 4872.880895 772.239064 L 4878.512653 772.239064 L 4878.512653 777.870822 L 4884.144411 777.870822 L 4884.144411 772.239064 L 4878.512653 772.239064 L 4878.512653 766.607306 L 4884.144411 766.607306 L 4884.144411 761.014658 L 4889.776169 761.014658 L 4889.776169 755.382899 L 4895.407927 755.382899 L 4895.407927 761.014658 L 4901.039685 761.014658 L 4901.039685 766.607306 L 4906.671443 766.607306 L 4906.671443 772.239064 L 4901.039685 772.239064 L 4901.039685 777.870822 L 4906.671443 777.870822 L 4906.671443 772.239064 L 4912.303201 772.239064 L 4912.303201 777.870822 L 4917.89585 777.870822 L 4917.89585 783.502581 L 4923.527608 783.502581 L 4923.527608 789.134339 L 4917.89585 789.134339 L 4917.89585 794.766097 L 4923.527608 794.766097 L 4923.527608 789.134339 L 4929.159366 789.134339 L 4929.159366 794.766097 L 4934.791124 794.766097 L 4934.791124 800.358745 L 4940.422882 800.358745 L 4940.422882 805.990504 L 4934.791124 805.990504 L 4934.791124 811.622262 L 4929.159366 811.622262 L 4929.159366 817.25402 L 4923.527608 817.25402 L 4923.527608 811.622262 L 4917.89585 811.622262 L 4917.89585 817.25402 L 4923.527608 817.25402 L 4923.527608 822.885778 L 4917.89585 822.885778 " transform="matrix(0.09988, 0, 0, -0.09988, 0.199, 99.760144)"/>
<path fill="none" stroke-width="5" stroke-linecap="round" stroke-linejoin="round" stroke="rgb(0%, 0%, 0%)" stroke-opacity="1" stroke-miterlimit="10" d="M 4917.89585 822.885778 L 4917.89585 828.517536 L 4912.303201 828.517536 L 4912.303201 834.149294 L 4906.671443 834.149294 L 4906.671443 828.517536 L 4901.039685 828.517536 L 4901.039685 834.149294 L 4906.671443 834.149294 L 4906.671443 839.781052 L 4901.039685 839.781052 L 4901.039685 845.41281 L 4895.407927 845.41281 L 4895.407927 851.005459 L 4889.776169 851.005459 L 4889.776169 845.41281 L 4884.144411 845.41281 L 4884.144411 839.781052 L 4878.512653 839.781052 L 4878.512653 834.149294 L 4884.144411 834.149294 L 4884.144411 828.517536 L 4878.512653 828.517536 L 4878.512653 834.149294 L 4872.880895 834.149294 L 4872.880895 828.517536 L 4867.288246 828.517536 L 4867.288246 834.149294 L 4872.880895 834.149294 L 4872.880895 839.781052 L 4867.288246 839.781052 L 4867.288246 845.41281 L 4872.880895 845.41281 L 4872.880895 839.781052 L 4878.512653 839.781052 L 4878.512653 845.41281 L 4884.144411 845.41281 L 4884.144411 851.005459 L 4889.776169 851.005459 L 4889.776169 856.637217 L 4884.144411 856.637217 L 4884.144411 862.268975 L 4878.512653 862.268975 L 4878.512653 867.900733 L 4872.880895 867.900733 L 4872.880895 862.268975 L 4867.288246 862.268975 L 4867.288246 867.900733 L 4872.880895 867.900733 L 4872.880895 873.532491 L 4867.288246 873.532491 " transform="matrix(0.09988, 0, 0, -0.09988, 0.199, 99.760144)"/>
<path fill="none" stroke-width="5" stroke-linecap="round" stroke-linejoin="round" stroke="rgb(0%, 0%, 0%)" stroke-opacity="1" stroke-miterlimit="10" d="M 4867.288246 873.532491 L 4867.288246 879.16425 L 4861.656488 879.16425 L 4861.656488 884.796008 L 4856.02473 884.796008 L 4856.02473 879.16425 L 4850.392972 879.16425 L 4850.392972 884.796008 L 4856.02473 884.796008 L 4856.02473 890.388656 L 4850.392972 890.388656 L 4850.392972 896.020414 L 4844.761213 896.020414 L 4844.761213 901.652173 L 4839.129455 901.652173 L 4839.129455 896.020414 L 4833.536807 896.020414 L 4833.536807 890.388656 L 4827.905049 890.388656 L 4827.905049 884.796008 L 4833.536807 884.796008 L 4833.536807 879.16425 L 4827.905049 879.16425 L 4827.905049 884.796008 L 4822.27329 884.796008 L 4822.27329 879.16425 L 4816.641532 879.16425 L 4816.641532 884.796008 L 4822.27329 884.796008 L 4822.27329 890.388656 L 4816.641532 890.388656 L 4816.641532 896.020414 L 4822.27329 896.020414 L 4822.27329 890.388656 L 4827.905049 890.388656 L 4827.905049 896.020414 L 4833.536807 896.020414 L 4833.536807 901.652173 L 4839.129455 901.652173 L 4839.129455 907.283931 L 4833.536807 907.283931 L 4833.536807 912.915689 L 4827.905049 912.915689 L 4827.905049 918.547447 L 4822.27329 918.547447 L 4822.27329 912.915689 L 4816.641532 912.915689 L 4816.641532 918.547447 L 4822.27329 918.547447 L 4822.27329 924.179205 L 4816.641532 924.179205 " transform="matrix(0.09988, 0, 0, -0.09988, 0.199, 99.760144)"/>
<path fill="none" stroke-width="5" stroke-linecap="round" stroke-linejoin="round" stroke="rgb(0%, 0%, 0%)" stroke-opacity="1" stroke-miterlimit="10" d="M 4816.641532 924.179205 L 4816.641532 929.771854 L 4811.009774 929.771854 L 4811.009774 935.403612 L 4805.378016 935.403612 L 4805.378016 929.771854 L 4799.746258 929.771854 L 4799.746258 935.403612 L 4805.378016 935.403612 L 4805.378016 941.03537 L 4799.746258 941.03537 L 4799.746258 946.667128 L 4794.1145 946.667128 L 4794.1145 952.298886 L 4788.482742 952.298886 L 4788.482742 946.667128 L 4782.890093 946.667128 L 4782.890093 941.03537 L 4777.258335 941.03537 L 4777.258335 935.403612 L 4782.890093 935.403612 L 4782.890093 929.771854 L 4777.258335 929.771854 L 4777.258335 935.403612 L 4771.626577 935.403612 L 4771.626577 929.771854 L 4765.994819 929.771854 L 4765.994819 924.179205 L 4760.363061 924.179205 L 4760.363061 918.547447 L 4765.994819 918.547447 L 4765.994819 912.915689 L 4760.363061 912.915689 L 4760.363061 918.547447 L 4754.731303 918.547447 L 4754.731303 912.915689 L 4749.099544 912.915689 L 4749.099544 907.283931 L 4743.506896 907.283931 L 4743.506896 901.652173 L 4749.099544 901.652173 L 4749.099544 896.020414 L 4754.731303 896.020414 L 4754.731303 890.388656 L 4760.363061 890.388656 L 4760.363061 896.020414 L 4765.994819 896.020414 L 4765.994819 890.388656 L 4760.363061 890.388656 L 4760.363061 884.796008 L 4765.994819 884.796008 " transform="matrix(0.09988, 0, 0, -0.09988, 0.199, 99.760144)"/>
<path fill="none" stroke-width="5" stroke-linecap="round" stroke-linejoin="round" stroke="rgb(0%, 0%, 0%)" stroke-opacity="1" stroke-miterlimit="10" d="M 4765.994819 884.796008 L 4765.994819 879.16425 L 4760.363061 879.16425 L 4760.363061 884.796008 L 4754.731303 884.796008 L 4754.731303 879.16425 L 4749.099544 879.16425 L 4749.099544 884.796008 L 4754.731303 884.796008 L 4754.731303 890.388656 L 4749.099544 890.388656 L 4749.099544 896.020414 L 4743.506896 896.020414 L 4743.506896 901.652173 L 4737.875138 901.652173 L 4737.875138 896.020414 L 4732.24338 896.020414 L 4732.24338 890.388656 L 4726.611621 890.388656 L 4726.611621 884.796008 L 4732.24338 884.796008 L 4732.24338 879.16425 L 4726.611621 879.16425 L 4726.611621 884.796008 L 4720.979863 884.796008 L 4720.979863 879.16425 L 4715.348105 879.16425 L 4715.348105 873.532491 L 4709.716347 873.532491 L 4709.716347 867.900733 L 4715.348105 867.900733 L 4715.348105 862.268975 L 4709.716347 862.268975 L 4709.716347 867.900733 L 4704.084589 867.900733 L 4704.084589 862.268975 L 4698.49194 862.268975 L 4698.49194 856.637217 L 4692.860182 856.637217 L 4692.860182 851.005459 L 4698.49194 851.005459 L 4698.49194 845.41281 L 4704.084589 845.41281 L 4704.084589 839.781052 L 4709.716347 839.781052 L 4709.716347 845.41281 L 4715.348105 845.41281 L 4715.348105 839.781052 L 4709.716347 839.781052 L 4709.716347 834.149294 L 4715.348105 834.149294 " transform="matrix(0.09988, 0, 0, -0.09988, 0.199, 99.760144)"/>
<path fill="none" stroke-width="5" stroke-linecap="round" stroke-linejoin="round" stroke="rgb(0%, 0%, 0%)" stroke-opacity="1" stroke-miterlimit="10" d="M 4715.348105 834.149294 L 4715.348105 828.517536 L 4709.716347 828.517536 L 4709.716347 834.149294 L 4704.084589 834.149294 L 4704.084589 828.517536 L 4698.49194 828.517536 L 4698.49194 834.149294 L 4704.084589 834.149294 L 4704.084589 839.781052 L 4698.49194 839.781052 L 4698.49194 845.41281 L 4692.860182 845.41281 L 4692.860182 851.005459 L 4687.228424 851.005459 L 4687.228424 845.41281 L 4681.596666 845.41281 L 4681.596666 839.781052 L 4675.964908 839.781052 L 4675.964908 834.149294 L 4681.596666 834.149294 L 4681.596666 828.517536 L 4675.964908 828.517536 L 4675.964908 834.149294 L 4670.33315 834.149294 L 4670.33315 828.517536 L 4664.701392 828.517536 L 4664.701392 822.885778 L 4659.108743 822.885778 L 4659.108743 817.25402 L 4664.701392 817.25402 L 4664.701392 811.622262 L 4659.108743 811.622262 L 4659.108743 817.25402 L 4653.476985 817.25402 L 4653.476985 811.622262 L 4647.845227 811.622262 L 4647.845227 805.990504 L 4642.213469 805.990504 L 4642.213469 800.358745 L 4647.845227 800.358745 L 4647.845227 794.766097 L 4653.476985 794.766097 L 4653.476985 789.134339 L 4659.108743 789.134339 L 4659.108743 794.766097 L 4664.701392 794.766097 L 4664.701392 789.134339 L 4659.108743 789.134339 L 4659.108743 783.502581 L 4664.701392 783.502581 " transform="matrix(0.09988, 0, 0, -0.09988, 0.199, 99.760144)"/>
<path fill="none" stroke-width="5" stroke-linecap="round" stroke-linejoin="round" stroke="rgb(0%, 0%, 0%)" stroke-opacity="1" stroke-miterlimit="10" d="M 4664.701392 783.502581 L 4664.701392 777.870822 L 4670.33315 777.870822 L 4670.33315 772.239064 L 4675.964908 772.239064 L 4675.964908 777.870822 L 4681.596666 777.870822 L 4681.596666 772.239064 L 4675.964908 772.239064 L 4675.964908 766.607306 L 4681.596666 766.607306 L 4681.596666 761.014658 L 4687.228424 761.014658 L 4687.228424 755.382899 L 4692.860182 755.382899 L 4692.860182 761.014658 L 4698.49194 761.014658 L 4698.49194 766.607306 L 4704.084589 766.607306 L 4704.084589 772.239064 L 4698.49194 772.239064 L 4698.49194 777.870822 L 4704.084589 777.870822 L 4704.084589 772.239064 L 4709.716347 772.239064 L 4709.716347 777.870822 L 4715.348105 777.870822 L 4715.348105 772.239064 L 4709.716347 772.239064 L 4709.716347 766.607306 L 4715.348105 766.607306 L 4715.348105 761.014658 L 4709.716347 761.014658 L 4709.716347 766.607306 L 4704.084589 766.607306 L 4704.084589 761.014658 L 4698.49194 761.014658 L 4698.49194 755.382899 L 4692.860182 755.382899 L 4692.860182 749.751141 L 4698.49194 749.751141 L 4698.49194 744.119383 L 4704.084589 744.119383 L 4704.084589 738.487625 L 4709.716347 738.487625 L 4709.716347 744.119383 L 4715.348105 744.119383 L 4715.348105 738.487625 L 4709.716347 738.487625 L 4709.716347 732.855867 L 4715.348105 732.855867 " transform="matrix(0.09988, 0, 0, -0.09988, 0.199, 99.760144)"/>
<path fill="none" stroke-width="5" stroke-linecap="round" stroke-linejoin="round" stroke="rgb(0%, 0%, 0%)" stroke-opacity="1" stroke-miterlimit="10" d="M 4715.348105 732.855867 L 4715.348105 727.224109 L 4709.716347 727.224109 L 4709.716347 732.855867 L 4704.084589 732.855867 L 4704.084589 727.224109 L 4698.49194 727.224109 L 4698.49194 732.855867 L 4704.084589 732.855867 L 4704.084589 738.487625 L 4698.49194 738.487625 L 4698.49194 744.119383 L 4692.860182 744.119383 L 4692.860182 749.751141 L 4687.228424 749.751141 L 4687.228424 744.119383 L 4681.596666 744.119383 L 4681.596666 738.487625 L 4675.964908 738.487625 L 4675.964908 732.855867 L 4681.596666 732.855867 L 4681.596666 727.224109 L 4675.964908 727.224109 L 4675.964908 732.855867 L 4670.33315 732.855867 L 4670.33315 727.224109 L 4664.701392 727.224109 L 4664.701392 732.855867 L 4670.33315 732.855867 L 4670.33315 738.487625 L 4664.701392 738.487625 L 4664.701392 744.119383 L 4670.33315 744.119383 L 4670.33315 738.487625 L 4675.964908 738.487625 L 4675.964908 744.119383 L 4681.596666 744.119383 L 4681.596666 749.751141 L 4687.228424 749.751141 L 4687.228424 755.382899 L 4681.596666 755.382899 L 4681.596666 761.014658 L 4675.964908 761.014658 L 4675.964908 766.607306 L 4670.33315 766.607306 L 4670.33315 761.014658 L 4664.701392 761.014658 L 4664.701392 766.607306 L 4670.33315 766.607306 L 4670.33315 772.239064 L 4664.701392 772.239064 " transform="matrix(0.09988, 0, 0, -0.09988, 0.199, 99.760144)"/>
<path fill="none" stroke-width="5" stroke-linecap="round" stroke-linejoin="round" stroke="rgb(0%, 0%, 0%)" stroke-opacity="1" stroke-miterlimit="10" d="M 4664.701392 772.239064 L 4664.701392 777.870822 L 4659.108743 777.870822 L 4659.108743 783.502581 L 4653.476985 783.502581 L 4653.476985 777.870822 L 4647.845227 777.870822 L 4647.845227 783.502581 L 4653.476985 783.502581 L 4653.476985 789.134339 L 4647.845227 789.134339 L 4647.845227 794.766097 L 4642.213469 794.766097 L 4642.213469 800.358745 L 4636.581711 800.358745 L 4636.581711 794.766097 L 4630.949952 794.766097 L 4630.949952 789.134339 L 4625.357304 789.134339 L 4625.357304 783.502581 L 4630.949952 783.502581 L 4630.949952 777.870822 L 4625.357304 777.870822 L 4625.357304 783.502581 L 4619.725546 783.502581 L 4619.725546 777.870822 L 4614.054678 777.870822 L 4614.054678 772.239064 L 4608.462029 772.239064 L 4608.462029 766.607306 L 4614.054678 766.607306 L 4614.054678 761.014658 L 4608.462029 761.014658 L 4608.462029 766.607306 L 4602.830271 766.607306 L 4602.830271 761.014658 L 4597.198513 761.014658 L 4597.198513 755.382899 L 4591.566755 755.382899 L 4591.566755 749.751141 L 4597.198513 749.751141 L 4597.198513 744.119383 L 4602.830271 744.119383 L 4602.830271 738.487625 L 4608.462029 738.487625 L 4608.462029 744.119383 L 4614.054678 744.119383 L 4614.054678 738.487625 L 4608.462029 738.487625 L 4608.462029 732.855867 L 4614.054678 732.855867 " transform="matrix(0.09988, 0, 0, -0.09988, 0.199, 99.760144)"/>
<path fill="none" stroke-width="5" stroke-linecap="round" stroke-linejoin="round" stroke="rgb(0%, 0%, 0%)" stroke-opacity="1" stroke-miterlimit="10" d="M 4614.054678 732.855867 L 4614.054678 727.224109 L 4608.462029 727.224109 L 4608.462029 732.855867 L 4602.830271 732.855867 L 4602.830271 727.224109 L 4597.198513 727.224109 L 4597.198513 732.855867 L 4602.830271 732.855867 L 4602.830271 738.487625 L 4597.198513 738.487625 L 4597.198513 744.119383 L 4591.566755 744.119383 L 4591.566755 749.751141 L 4585.934997 749.751141 L 4585.934997 744.119383 L 4580.303239 744.119383 L 4580.303239 738.487625 L 4574.71059 738.487625 L 4574.71059 732.855867 L 4580.303239 732.855867 L 4580.303239 727.224109 L 4574.71059 727.224109 L 4574.71059 732.855867 L 4569.078832 732.855867 L 4569.078832 727.224109 L 4563.447074 727.224109 L 4563.447074 721.592351 L 4557.815316 721.592351 L 4557.815316 715.960593 L 4563.447074 715.960593 L 4563.447074 710.367944 L 4557.815316 710.367944 L 4557.815316 715.960593 L 4552.183558 715.960593 L 4552.183558 710.367944 L 4546.5518 710.367944 L 4546.5518 704.736186 L 4540.920042 704.736186 L 4540.920042 699.104428 L 4546.5518 699.104428 L 4546.5518 693.47267 L 4552.183558 693.47267 L 4552.183558 687.840912 L 4557.815316 687.840912 L 4557.815316 693.47267 L 4563.447074 693.47267 L 4563.447074 687.840912 L 4557.815316 687.840912 L 4557.815316 682.209153 L 4563.447074 682.209153 " transform="matrix(0.09988, 0, 0, -0.09988, 0.199, 99.760144)"/>
<path fill="none" stroke-width="5" stroke-linecap="round" stroke-linejoin="round" stroke="rgb(0%, 0%, 0%)" stroke-opacity="1" stroke-miterlimit="10" d="M 4563.447074 682.209153 L 4563.447074 676.616505 L 4557.815316 676.616505 L 4557.815316 682.209153 L 4552.183558 682.209153 L 4552.183558 676.616505 L 4546.5518 676.616505 L 4546.5518 682.209153 L 4552.183558 682.209153 L 4552.183558 687.840912 L 4546.5518 687.840912 L 4546.5518 693.47267 L 4540.920042 693.47267 L 4540.920042 699.104428 L 4535.327393 699.104428 L 4535.327393 693.47267 L 4529.695635 693.47267 L 4529.695635 687.840912 L 4524.063877 687.840912 L 4524.063877 682.209153 L 4529.695635 682.209153 L 4529.695635 676.616505 L 4524.063877 676.616505 L 4524.063877 682.209153 L 4518.432119 682.209153 L 4518.432119 676.616505 L 4512.80036 676.616505 L 4512.80036 670.984747 L 4507.168602 670.984747 L 4507.168602 665.352989 L 4512.80036 665.352989 L 4512.80036 659.72123 L 4507.168602 659.72123 L 4507.168602 665.352989 L 4501.536844 665.352989 L 4501.536844 659.72123 L 4495.905086 659.72123 L 4495.905086 654.089472 L 4490.312437 654.089472 L 4490.312437 648.457714 L 4495.905086 648.457714 L 4495.905086 642.825956 L 4501.536844 642.825956 L 4501.536844 637.233307 L 4507.168602 637.233307 L 4507.168602 642.825956 L 4512.80036 642.825956 L 4512.80036 637.233307 L 4507.168602 637.233307 L 4507.168602 631.601549 L 4512.80036 631.601549 " transform="matrix(0.09988, 0, 0, -0.09988, 0.199, 99.760144)"/>
<path fill="none" stroke-width="5" stroke-linecap="round" stroke-linejoin="round" stroke="rgb(0%, 0%, 0%)" stroke-opacity="1" stroke-miterlimit="10" d="M 4512.80036 631.601549 L 4512.80036 625.969791 L 4518.432119 625.969791 L 4518.432119 620.338033 L 4524.063877 620.338033 L 4524.063877 625.969791 L 4529.695635 625.969791 L 4529.695635 620.338033 L 4524.063877 620.338033 L 4524.063877 614.706275 L 4529.695635 614.706275 L 4529.695635 609.074517 L 4535.327393 609.074517 L 4535.327393 603.442759 L 4540.920042 603.442759 L 4540.920042 609.074517 L 4546.5518 609.074517 L 4546.5518 614.706275 L 4552.183558 614.706275 L 4552.183558 620.338033 L 4546.5518 620.338033 L 4546.5518 625.969791 L 4552.183558 625.969791 L 4552.183558 620.338033 L 4557.815316 620.338033 L 4557.815316 625.969791 L 4563.447074 625.969791 L 4563.447074 620.338033 L 4557.815316 620.338033 L 4557.815316 614.706275 L 4563.447074 614.706275 L 4563.447074 609.074517 L 4557.815316 609.074517 L 4557.815316 614.706275 L 4552.183558 614.706275 L 4552.183558 609.074517 L 4546.5518 609.074517 L 4546.5518 603.442759 L 4540.920042 603.442759 L 4540.920042 597.811001 L 4546.5518 597.811001 L 4546.5518 592.179243 L 4552.183558 592.179243 L 4552.183558 586.586594 L 4557.815316 586.586594 L 4557.815316 592.179243 L 4563.447074 592.179243 L 4563.447074 586.586594 L 4557.815316 586.586594 L 4557.815316 580.954836 L 4563.447074 580.954836 " transform="matrix(0.09988, 0, 0, -0.09988, 0.199, 99.760144)"/>
<path fill="none" stroke-width="5" stroke-linecap="round" stroke-linejoin="round" stroke="rgb(0%, 0%, 0%)" stroke-opacity="1" stroke-miterlimit="10" d="M 4563.447074 580.954836 L 4563.447074 575.323078 L 4557.815316 575.323078 L 4557.815316 580.954836 L 4552.183558 580.954836 L 4552.183558 575.323078 L 4546.5518 575.323078 L 4546.5518 580.954836 L 4552.183558 580.954836 L 4552.183558 586.586594 L 4546.5518 586.586594 L 4546.5518 592.179243 L 4540.920042 592.179243 L 4540.920042 597.811001 L 4535.327393 597.811001 L 4535.327393 592.179243 L 4529.695635 592.179243 L 4529.695635 586.586594 L 4524.063877 586.586594 L 4524.063877 580.954836 L 4529.695635 580.954836 L 4529.695635 575.323078 L 4524.063877 575.323078 L 4524.063877 580.954836 L 4518.432119 580.954836 L 4518.432119 575.323078 L 4512.80036 575.323078 L 4512.80036 580.954836 L 4518.432119 580.954836 L 4518.432119 586.586594 L 4512.80036 586.586594 L 4512.80036 592.179243 L 4518.432119 592.179243 L 4518.432119 586.586594 L 4524.063877 586.586594 L 4524.063877 592.179243 L 4529.695635 592.179243 L 4529.695635 597.811001 L 4535.327393 597.811001 L 4535.327393 603.442759 L 4529.695635 603.442759 L 4529.695635 609.074517 L 4524.063877 609.074517 L 4524.063877 614.706275 L 4518.432119 614.706275 L 4518.432119 609.074517 L 4512.80036 609.074517 L 4512.80036 614.706275 L 4518.432119 614.706275 L 4518.432119 620.338033 L 4512.80036 620.338033 " transform="matrix(0.09988, 0, 0, -0.09988, 0.199, 99.760144)"/>
<path fill="none" stroke-width="5" stroke-linecap="round" stroke-linejoin="round" stroke="rgb(0%, 0%, 0%)" stroke-opacity="1" stroke-miterlimit="10" d="M 4512.80036 620.338033 L 4512.80036 625.969791 L 4507.168602 625.969791 L 4507.168602 631.601549 L 4501.536844 631.601549 L 4501.536844 625.969791 L 4495.905086 625.969791 L 4495.905086 631.601549 L 4501.536844 631.601549 L 4501.536844 637.233307 L 4495.905086 637.233307 L 4495.905086 642.825956 L 4490.312437 642.825956 L 4490.312437 648.457714 L 4484.680679 648.457714 L 4484.680679 642.825956 L 4479.048921 642.825956 L 4479.048921 637.233307 L 4473.417163 637.233307 L 4473.417163 631.601549 L 4479.048921 631.601549 L 4479.048921 625.969791 L 4473.417163 625.969791 L 4473.417163 631.601549 L 4467.785405 631.601549 L 4467.785405 625.969791 L 4462.153647 625.969791 L 4462.153647 620.338033 L 4456.521889 620.338033 L 4456.521889 614.706275 L 4462.153647 614.706275 L 4462.153647 609.074517 L 4456.521889 609.074517 L 4456.521889 614.706275 L 4450.92924 614.706275 L 4450.92924 609.074517 L 4445.297482 609.074517 L 4445.297482 603.442759 L 4439.665724 603.442759 L 4439.665724 597.811001 L 4445.297482 597.811001 L 4445.297482 592.179243 L 4450.92924 592.179243 L 4450.92924 586.586594 L 4456.521889 586.586594 L 4456.521889 592.179243 L 4462.153647 592.179243 L 4462.153647 586.586594 L 4456.521889 586.586594 L 4456.521889 580.954836 L 4462.153647 580.954836 " transform="matrix(0.09988, 0, 0, -0.09988, 0.199, 99.760144)"/>
<path fill="none" stroke-width="5" stroke-linecap="round" stroke-linejoin="round" stroke="rgb(0%, 0%, 0%)" stroke-opacity="1" stroke-miterlimit="10" d="M 4462.153647 580.954836 L 4462.153647 575.323078 L 4456.521889 575.323078 L 4456.521889 580.954836 L 4450.92924 580.954836 L 4450.92924 575.323078 L 4445.297482 575.323078 L 4445.297482 580.954836 L 4450.92924 580.954836 L 4450.92924 586.586594 L 4445.297482 586.586594 L 4445.297482 592.179243 L 4439.665724 592.179243 L 4439.665724 597.811001 L 4434.033966 597.811001 L 4434.033966 592.179243 L 4428.402208 592.179243 L 4428.402208 586.586594 L 4422.77045 586.586594 L 4422.77045 580.954836 L 4428.402208 580.954836 L 4428.402208 575.323078 L 4422.77045 575.323078 L 4422.77045 580.954836 L 4417.177801 580.954836 L 4417.177801 575.323078 L 4411.546043 575.323078 L 4411.546043 569.69132 L 4405.875175 569.69132 L 4405.875175 564.059561 L 4411.546043 564.059561 L 4411.546043 558.427803 L 4405.875175 558.427803 L 4405.875175 564.059561 L 4400.282527 564.059561 L 4400.282527 558.427803 L 4394.650768 558.427803 L 4394.650768 552.835155 L 4389.01901 552.835155 L 4389.01901 547.203397 L 4394.650768 547.203397 L 4394.650768 541.571638 L 4400.282527 541.571638 L 4400.282527 535.93988 L 4405.875175 535.93988 L 4405.875175 541.571638 L 4411.546043 541.571638 L 4411.546043 535.93988 L 4405.875175 535.93988 L 4405.875175 530.308122 L 4411.546043 530.308122 " transform="matrix(0.09988, 0, 0, -0.09988, 0.199, 99.760144)"/>
<path fill="none" stroke-width="5" stroke-linecap="round" stroke-linejoin="round" stroke="rgb(0%, 0%, 0%)" stroke-opacity="1" stroke-miterlimit="10" d="M 4411.546043 530.308122 L 4411.546043 524.676364 L 4405.875175 524.676364 L 4405.875175 530.308122 L 4400.282527 530.308122 L 4400.282527 524.676364 L 4394.650768 524.676364 L 4394.650768 530.308122 L 4400.282527 530.308122 L 4400.282527 535.93988 L 4394.650768 535.93988 L 4394.650768 541.571638 L 4389.01901 541.571638 L 4389.01901 547.203397 L 4383.387252 547.203397 L 4383.387252 541.571638 L 4377.755494 541.571638 L 4377.755494 535.93988 L 4372.123736 535.93988 L 4372.123736 530.308122 L 4377.755494 530.308122 L 4377.755494 524.676364 L 4372.123736 524.676364 L 4372.123736 530.308122 L 4366.531087 530.308122 L 4366.531087 524.676364 L 4360.899329 524.676364 L 4360.899329 519.044606 L 4355.267571 519.044606 L 4355.267571 513.412848 L 4360.899329 513.412848 L 4360.899329 507.78109 L 4355.267571 507.78109 L 4355.267571 513.412848 L 4349.635813 513.412848 L 4349.635813 507.78109 L 4344.004055 507.78109 L 4344.004055 502.188441 L 4338.372297 502.188441 L 4338.372297 496.556683 L 4344.004055 496.556683 L 4344.004055 490.924925 L 4349.635813 490.924925 L 4349.635813 485.293167 L 4355.267571 485.293167 L 4355.267571 490.924925 L 4360.899329 490.924925 L 4360.899329 485.293167 L 4355.267571 485.293167 L 4355.267571 479.661409 L 4360.899329 479.661409 " transform="matrix(0.09988, 0, 0, -0.09988, 0.199, 99.760144)"/>
<path fill="none" stroke-width="5" stroke-linecap="round" stroke-linejoin="round" stroke="rgb(0%, 0%, 0%)" stroke-opacity="1" stroke-miterlimit="10" d="M 4360.899329 479.661409 L 4360.899329 474.029651 L 4366.531087 474.029651 L 4366.531087 468.437002 L 4372.123736 468.437002 L 4372.123736 474.029651 L 4377.755494 474.029651 L 4377.755494 468.437002 L 4372.123736 468.437002 L 4372.123736 462.805244 L 4377.755494 462.805244 L 4377.755494 457.173486 L 4383.387252 457.173486 L 4383.387252 451.541728 L 4389.01901 451.541728 L 4389.01901 457.173486 L 4394.650768 457.173486 L 4394.650768 462.805244 L 4400.282527 462.805244 L 4400.282527 468.437002 L 4394.650768 468.437002 L 4394.650768 474.029651 L 4400.282527 474.029651 L 4400.282527 468.437002 L 4405.875175 468.437002 L 4405.875175 474.029651 L 4411.546043 474.029651 L 4411.546043 468.437002 L 4405.875175 468.437002 L 4405.875175 462.805244 L 4411.546043 462.805244 L 4411.546043 457.173486 L 4405.875175 457.173486 L 4405.875175 462.805244 L 4400.282527 462.805244 L 4400.282527 457.173486 L 4394.650768 457.173486 L 4394.650768 451.541728 L 4389.01901 451.541728 L 4389.01901 445.909969 L 4394.650768 445.909969 L 4394.650768 440.278211 L 4400.282527 440.278211 L 4400.282527 434.646453 L 4405.875175 434.646453 L 4405.875175 440.278211 L 4411.546043 440.278211 L 4411.546043 434.646453 L 4405.875175 434.646453 L 4405.875175 429.014695 L 4411.546043 429.014695 " transform="matrix(0.09988, 0, 0, -0.09988, 0.199, 99.760144)"/>
<path fill="none" stroke-width="5" stroke-linecap="round" stroke-linejoin="round" stroke="rgb(0%, 0%, 0%)" stroke-opacity="1" stroke-miterlimit="10" d="M 4411.546043 429.014695 L 4411.546043 423.382937 L 4417.177801 423.382937 L 4417.177801 417.790288 L 4422.77045 417.790288 L 4422.77045 423.382937 L 4428.402208 423.382937 L 4428.402208 417.790288 L 4422.77045 417.790288 L 4422.77045 412.15853 L 4428.402208 412.15853 L 4428.402208 406.526772 L 4434.033966 406.526772 L 4434.033966 400.895014 L 4439.665724 400.895014 L 4439.665724 406.526772 L 4445.297482 406.526772 L 4445.297482 412.15853 L 4450.92924 412.15853 L 4450.92924 417.790288 L 4445.297482 417.790288 L 4445.297482 423.382937 L 4450.92924 423.382937 L 4450.92924 417.790288 L 4456.521889 417.790288 L 4456.521889 423.382937 L 4462.153647 423.382937 L 4462.153647 417.790288 L 4456.521889 417.790288 L 4456.521889 412.15853 L 4462.153647 412.15853 L 4462.153647 406.526772 L 4456.521889 406.526772 L 4456.521889 412.15853 L 4450.92924 412.15853 L 4450.92924 406.526772 L 4445.297482 406.526772 L 4445.297482 400.895014 L 4439.665724 400.895014 L 4439.665724 395.263256 L 4445.297482 395.263256 L 4445.297482 389.631498 L 4450.92924 389.631498 L 4450.92924 383.99974 L 4456.521889 383.99974 L 4456.521889 389.631498 L 4462.153647 389.631498 L 4462.153647 383.99974 L 4456.521889 383.99974 L 4456.521889 378.407091 L 4462.153647 378.407091 " transform="matrix(0.09988, 0, 0, -0.09988, 0.199, 99.760144)"/>
<path fill="none" stroke-width="5" stroke-linecap="round" stroke-linejoin="round" stroke="rgb(0%, 0%, 0%)" stroke-opacity="1" stroke-miterlimit="10" d="M 4462.153647 378.407091 L 4462.153647 372.775333 L 4467.785405 372.775333 L 4467.785405 367.143575 L 4473.417163 367.143575 L 4473.417163 372.775333 L 4479.048921 372.775333 L 4479.048921 367.143575 L 4473.417163 367.143575 L 4473.417163 361.511817 L 4479.048921 361.511817 L 4479.048921 355.880059 L 4484.680679 355.880059 L 4484.680679 350.2483 L 4490.312437 350.2483 L 4490.312437 355.880059 L 4495.905086 355.880059 L 4495.905086 361.511817 L 4501.536844 361.511817 L 4501.536844 367.143575 L 4495.905086 367.143575 L 4495.905086 372.775333 L 4501.536844 372.775333 L 4501.536844 367.143575 L 4507.168602 367.143575 L 4507.168602 372.775333 L 4512.80036 372.775333 L 4512.80036 378.407091 L 4518.432119 378.407091 L 4518.432119 383.99974 L 4512.80036 383.99974 L 4512.80036 389.631498 L 4518.432119 389.631498 L 4518.432119 383.99974 L 4524.063877 383.99974 L 4524.063877 389.631498 L 4529.695635 389.631498 L 4529.695635 395.263256 L 4535.327393 395.263256 L 4535.327393 400.895014 L 4529.695635 400.895014 L 4529.695635 406.526772 L 4524.063877 406.526772 L 4524.063877 412.15853 L 4518.432119 412.15853 L 4518.432119 406.526772 L 4512.80036 406.526772 L 4512.80036 412.15853 L 4518.432119 412.15853 L 4518.432119 417.790288 L 4512.80036 417.790288 " transform="matrix(0.09988, 0, 0, -0.09988, 0.199, 99.760144)"/>
<path fill="none" stroke-width="5" stroke-linecap="round" stroke-linejoin="round" stroke="rgb(0%, 0%, 0%)" stroke-opacity="1" stroke-miterlimit="10" d="M 4512.80036 417.790288 L 4512.80036 423.382937 L 4518.432119 423.382937 L 4518.432119 417.790288 L 4524.063877 417.790288 L 4524.063877 423.382937 L 4529.695635 423.382937 L 4529.695635 417.790288 L 4524.063877 417.790288 L 4524.063877 412.15853 L 4529.695635 412.15853 L 4529.695635 406.526772 L 4535.327393 406.526772 L 4535.327393 400.895014 L 4540.920042 400.895014 L 4540.920042 406.526772 L 4546.5518 406.526772 L 4546.5518 412.15853 L 4552.183558 412.15853 L 4552.183558 417.790288 L 4546.5518 417.790288 L 4546.5518 423.382937 L 4552.183558 423.382937 L 4552.183558 417.790288 L 4557.815316 417.790288 L 4557.815316 423.382937 L 4563.447074 423.382937 L 4563.447074 417.790288 L 4557.815316 417.790288 L 4557.815316 412.15853 L 4563.447074 412.15853 L 4563.447074 406.526772 L 4557.815316 406.526772 L 4557.815316 412.15853 L 4552.183558 412.15853 L 4552.183558 406.526772 L 4546.5518 406.526772 L 4546.5518 400.895014 L 4540.920042 400.895014 L 4540.920042 395.263256 L 4546.5518 395.263256 L 4546.5518 389.631498 L 4552.183558 389.631498 L 4552.183558 383.99974 L 4557.815316 383.99974 L 4557.815316 389.631498 L 4563.447074 389.631498 L 4563.447074 383.99974 L 4557.815316 383.99974 L 4557.815316 378.407091 L 4563.447074 378.407091 " transform="matrix(0.09988, 0, 0, -0.09988, 0.199, 99.760144)"/>
<path fill="none" stroke-width="5" stroke-linecap="round" stroke-linejoin="round" stroke="rgb(0%, 0%, 0%)" stroke-opacity="1" stroke-miterlimit="10" d="M 4563.447074 378.407091 L 4563.447074 372.775333 L 4557.815316 372.775333 L 4557.815316 378.407091 L 4552.183558 378.407091 L 4552.183558 372.775333 L 4546.5518 372.775333 L 4546.5518 378.407091 L 4552.183558 378.407091 L 4552.183558 383.99974 L 4546.5518 383.99974 L 4546.5518 389.631498 L 4540.920042 389.631498 L 4540.920042 395.263256 L 4535.327393 395.263256 L 4535.327393 389.631498 L 4529.695635 389.631498 L 4529.695635 383.99974 L 4524.063877 383.99974 L 4524.063877 378.407091 L 4529.695635 378.407091 L 4529.695635 372.775333 L 4524.063877 372.775333 L 4524.063877 378.407091 L 4518.432119 378.407091 L 4518.432119 372.775333 L 4512.80036 372.775333 L 4512.80036 367.143575 L 4507.168602 367.143575 L 4507.168602 361.511817 L 4512.80036 361.511817 L 4512.80036 355.880059 L 4507.168602 355.880059 L 4507.168602 361.511817 L 4501.536844 361.511817 L 4501.536844 355.880059 L 4495.905086 355.880059 L 4495.905086 350.2483 L 4490.312437 350.2483 L 4490.312437 344.655652 L 4495.905086 344.655652 L 4495.905086 338.984784 L 4501.536844 338.984784 L 4501.536844 333.392136 L 4507.168602 333.392136 L 4507.168602 338.984784 L 4512.80036 338.984784 L 4512.80036 333.392136 L 4507.168602 333.392136 L 4507.168602 327.760377 L 4512.80036 327.760377 " transform="matrix(0.09988, 0, 0, -0.09988, 0.199, 99.760144)"/>
<path fill="none" stroke-width="5" stroke-linecap="round" stroke-linejoin="round" stroke="rgb(0%, 0%, 0%)" stroke-opacity="1" stroke-miterlimit="10" d="M 4512.80036 327.760377 L 4512.80036 322.128619 L 4518.432119 322.128619 L 4518.432119 316.496861 L 4524.063877 316.496861 L 4524.063877 322.128619 L 4529.695635 322.128619 L 4529.695635 316.496861 L 4524.063877 316.496861 L 4524.063877 310.865103 L 4529.695635 310.865103 L 4529.695635 305.233345 L 4535.327393 305.233345 L 4535.327393 299.601587 L 4540.920042 299.601587 L 4540.920042 305.233345 L 4546.5518 305.233345 L 4546.5518 310.865103 L 4552.183558 310.865103 L 4552.183558 316.496861 L 4546.5518 316.496861 L 4546.5518 322.128619 L 4552.183558 322.128619 L 4552.183558 316.496861 L 4557.815316 316.496861 L 4557.815316 322.128619 L 4563.447074 322.128619 L 4563.447074 316.496861 L 4557.815316 316.496861 L 4557.815316 310.865103 L 4563.447074 310.865103 L 4563.447074 305.233345 L 4557.815316 305.233345 L 4557.815316 310.865103 L 4552.183558 310.865103 L 4552.183558 305.233345 L 4546.5518 305.233345 L 4546.5518 299.601587 L 4540.920042 299.601587 L 4540.920042 294.008938 L 4546.5518 294.008938 L 4546.5518 288.37718 L 4552.183558 288.37718 L 4552.183558 282.745422 L 4557.815316 282.745422 L 4557.815316 288.37718 L 4563.447074 288.37718 L 4563.447074 282.745422 L 4557.815316 282.745422 L 4557.815316 277.113664 L 4563.447074 277.113664 " transform="matrix(0.09988, 0, 0, -0.09988, 0.199, 99.760144)"/>
<path fill="none" stroke-width="5" stroke-linecap="round" stroke-linejoin="round" stroke="rgb(0%, 0%, 0%)" stroke-opacity="1" stroke-miterlimit="10" d="M 4563.447074 277.113664 L 4563.447074 271.481906 " transform="matrix(0.09988, 0, 0, -0.09988, 0.199, 99.760144)"/>
</svg>
