<?xml version="1.0" encoding="UTF-8"?>
<svg xmlns="http://www.w3.org/2000/svg" xmlns:xlink="http://www.w3.org/1999/xlink" width="437" height="86" viewBox="0 0 437 86">
<path fill="none" stroke-width="3.78302" stroke-linecap="round" stroke-linejoin="round" stroke="rgb(0%, 0%, 0%)" stroke-opacity="1" stroke-miterlimit="10" d="M 399.296875 820.039062 L 849.6875 820.039062 L 1074.84375 430 L 849.6875 39.960938 L 399.296875 39.960938 L 174.140625 430 L 399.296875 820.039062 " transform="matrix(0.1, 0, 0, -0.1, 0, 86)"/>
<path fill="none" stroke-width="3.78302" stroke-linecap="round" stroke-linejoin="round" stroke="rgb(0%, 0%, 0%)" stroke-opacity="1" stroke-miterlimit="10" d="M 1439.648438 820.039062 L 1589.765625 820.039062 L 1664.84375 690 L 1739.882812 820.039062 L 1890.039062 820.039062 L 1965.078125 690 L 1890.039062 560 L 2040.15625 560 L 2115.195312 430 L 2040.15625 300 L 1890.039062 300 L 1965.078125 169.960938 L 1890.039062 39.960938 L 1739.882812 39.960938 L 1664.84375 169.960938 L 1589.765625 39.960938 L 1439.648438 39.960938 L 1364.609375 169.960938 L 1439.648438 300 L 1289.53125 300 L 1214.453125 430 L 1289.53125 560 L 1439.648438 560 L 1364.609375 690 L 1439.648438 820.039062 " transform="matrix(0.1, 0, 0, -0.1, 0, 86)"/>
<path fill="none" stroke-width="3.78302" stroke-linecap="round" stroke-linejoin="round" stroke="rgb(0%, 0%, 0%)" stroke-opacity="1" stroke-miterlimit="10" d="M 2479.960938 820.039062 L 2530.039062 820.039062 L 2555.039062 776.679688 L 2580.078125 820.039062 L 2630.117188 820.039062 L 2655.117188 776.679688 L 2630.117188 733.359375 L 2680.15625 733.359375 L 2705.15625 690 L 2730.195312 733.359375 L 2780.234375 733.359375 L 2755.195312 776.679688 L 2780.234375 820.039062 L 2830.273438 820.039062 L 2855.273438 776.679688 L 2880.3125 820.039062 L 2930.351562 820.039062 L 2955.351562 776.679688 L 2930.351562 733.359375 L 2980.390625 733.359375 L 3005.390625 690 L 2980.390625 646.679688 L 2930.351562 646.679688 L 2955.351562 603.359375 L 2930.351562 560 L 2980.390625 560 L 3005.390625 516.679688 L 3030.429688 560 L 3080.46875 560 L 3105.507812 516.679688 L 3080.46875 473.320312 L 3130.507812 473.320312 L 3155.546875 430 L 3130.507812 386.679688 L 3080.46875 386.679688 L 3105.507812 343.320312 L 3080.46875 300 L 3030.429688 300 L 3005.390625 343.320312 L 2980.390625 300 L 2930.351562 300 L 2955.351562 256.640625 L 2930.351562 213.320312 L 2980.390625 213.320312 L 3005.390625 169.960938 L 2980.390625 126.640625 L 2930.351562 126.640625 L 2955.351562 83.320312 L 2930.351562 39.960938 L 2880.3125 39.960938 " transform="matrix(0.1, 0, 0, -0.1, 0, 86)"/>
<path fill="none" stroke-width="3.78302" stroke-linecap="round" stroke-linejoin="round" stroke="rgb(0%, 0%, 0%)" stroke-opacity="1" stroke-miterlimit="10" d="M 2880.3125 39.960938 L 2855.273438 83.320312 L 2830.273438 39.960938 L 2780.234375 39.960938 L 2755.195312 83.320312 L 2780.234375 126.640625 L 2730.195312 126.640625 L 2705.15625 169.960938 L 2680.15625 126.640625 L 2630.117188 126.640625 L 2655.117188 83.320312 L 2630.117188 39.960938 L 2580.078125 39.960938 L 2555.039062 83.320312 L 2530.039062 39.960938 L 2479.960938 39.960938 L 2454.960938 83.320312 L 2479.960938 126.640625 L 2429.960938 126.640625 L 2404.921875 169.960938 L 2429.960938 213.320312 L 2479.960938 213.320312 L 2454.960938 256.640625 L 2479.960938 300 L 2429.960938 300 L 2404.921875 343.320312 L 2379.882812 300 L 2329.84375 300 L 2304.84375 343.320312 L 2329.84375 386.679688 L 2279.804688 386.679688 L 2254.804688 430 L 2279.804688 473.320312 L 2329.84375 473.320312 L 2304.84375 516.679688 L 2329.84375 560 L 2379.882812 560 L 2404.921875 516.679688 L 2429.960938 560 L 2479.960938 560 L 2454.960938 603.359375 L 2479.960938 646.679688 L 2429.960938 646.679688 L 2404.921875 690 L 2429.960938 733.359375 L 2479.960938 733.359375 L 2454.960938 776.679688 L 2479.960938 820.039062 " transform="matrix(0.1, 0, 0, -0.1, 0, 86)"/>
<path fill="none" stroke-width="3.78302" stroke-linecap="round" stroke-linejoin="round" stroke="rgb(0%, 0%, 0%)" stroke-opacity="1" stroke-miterlimit="10" d="M 3520.3125 820.039062 L 3536.992188 820.039062 L 3545.351562 805.585938 L 3553.671875 820.039062 L 3570.351562 820.039062 L 3578.710938 805.585938 L 3570.351562 791.132812 L 3587.03125 791.132812 L 3595.390625 776.679688 L 3603.710938 791.132812 L 3620.390625 791.132812 L 3612.070312 805.585938 L 3620.390625 820.039062 L 3637.070312 820.039062 L 3645.429688 805.585938 L 3653.789062 820.039062 L 3670.429688 820.039062 L 3678.789062 805.585938 L 3670.429688 791.132812 L 3687.148438 791.132812 L 3695.46875 776.679688 L 3687.148438 762.226562 L 3670.429688 762.226562 L 3678.789062 747.8125 L 3670.429688 733.359375 L 3687.148438 733.359375 L 3695.46875 718.90625 L 3703.828125 733.359375 L 3720.46875 733.359375 L 3728.828125 718.90625 L 3720.46875 704.453125 L 3737.148438 704.453125 L 3745.507812 690 L 3753.867188 704.453125 L 3770.546875 704.453125 L 3762.1875 718.90625 L 3770.546875 733.359375 L 3787.1875 733.359375 L 3795.546875 718.90625 L 3803.90625 733.359375 L 3820.585938 733.359375 L 3812.226562 747.8125 L 3820.585938 762.226562 L 3803.90625 762.226562 L 3795.546875 776.679688 L 3803.90625 791.132812 L 3820.585938 791.132812 L 3812.226562 805.585938 L 3820.585938 820.039062 L 3837.226562 820.039062 " transform="matrix(0.1, 0, 0, -0.1, 0, 86)"/>
<path fill="none" stroke-width="3.78302" stroke-linecap="round" stroke-linejoin="round" stroke="rgb(0%, 0%, 0%)" stroke-opacity="1" stroke-miterlimit="10" d="M 3837.226562 820.039062 L 3845.585938 805.585938 L 3853.945312 820.039062 L 3870.625 820.039062 L 3878.945312 805.585938 L 3870.625 791.132812 L 3887.304688 791.132812 L 3895.625 776.679688 L 3903.945312 791.132812 L 3920.664062 791.132812 L 3912.304688 805.585938 L 3920.664062 820.039062 L 3937.304688 820.039062 L 3945.664062 805.585938 L 3954.023438 820.039062 L 3970.703125 820.039062 L 3979.023438 805.585938 L 3970.703125 791.132812 L 3987.34375 791.132812 L 3995.703125 776.679688 L 3987.34375 762.226562 L 3970.703125 762.226562 L 3979.023438 747.8125 L 3970.703125 733.359375 L 3987.34375 733.359375 L 3995.703125 718.90625 L 4004.0625 733.359375 L 4020.742188 733.359375 L 4029.0625 718.90625 L 4020.742188 704.453125 L 4037.382812 704.453125 L 4045.742188 690 L 4037.382812 675.585938 L 4020.742188 675.585938 L 4029.0625 661.132812 L 4020.742188 646.679688 L 4004.0625 646.679688 L 3995.703125 661.132812 L 3987.34375 646.679688 L 3970.703125 646.679688 L 3979.023438 632.226562 L 3970.703125 617.773438 L 3987.34375 617.773438 L 3995.703125 603.359375 L 3987.34375 588.90625 L 3970.703125 588.90625 L 3979.023438 574.453125 L 3970.703125 560 L 3987.34375 560 L 3995.703125 545.546875 L 4004.0625 560 " transform="matrix(0.1, 0, 0, -0.1, 0, 86)"/>
<path fill="none" stroke-width="3.78302" stroke-linecap="round" stroke-linejoin="round" stroke="rgb(0%, 0%, 0%)" stroke-opacity="1" stroke-miterlimit="10" d="M 4004.0625 560 L 4020.742188 560 L 4029.0625 545.546875 L 4020.742188 531.132812 L 4037.382812 531.132812 L 4045.742188 516.679688 L 4054.101562 531.132812 L 4070.78125 531.132812 L 4062.421875 545.546875 L 4070.78125 560 L 4087.421875 560 L 4095.78125 545.546875 L 4104.140625 560 L 4120.820312 560 L 4129.140625 545.546875 L 4120.820312 531.132812 L 4137.460938 531.132812 L 4145.820312 516.679688 L 4137.460938 502.226562 L 4120.820312 502.226562 L 4129.140625 487.773438 L 4120.820312 473.320312 L 4137.460938 473.320312 L 4145.820312 458.90625 L 4154.179688 473.320312 L 4170.859375 473.320312 L 4179.179688 458.90625 L 4170.859375 444.453125 L 4187.539062 444.453125 L 4195.859375 430 L 4187.539062 415.546875 L 4170.859375 415.546875 L 4179.179688 401.09375 L 4170.859375 386.679688 L 4154.179688 386.679688 L 4145.820312 401.09375 L 4137.460938 386.679688 L 4120.820312 386.679688 L 4129.140625 372.226562 L 4120.820312 357.773438 L 4137.460938 357.773438 L 4145.820312 343.320312 L 4137.460938 328.90625 L 4120.820312 328.90625 L 4129.140625 314.453125 L 4120.820312 300 L 4104.140625 300 L 4095.78125 314.453125 L 4087.421875 300 L 4070.78125 300 L 4062.421875 314.453125 " transform="matrix(0.1, 0, 0, -0.1, 0, 86)"/>
<path fill="none" stroke-width="3.78302" stroke-linecap="round" stroke-linejoin="round" stroke="rgb(0%, 0%, 0%)" stroke-opacity="1" stroke-miterlimit="10" d="M 4062.421875 314.453125 L 4070.78125 328.90625 L 4054.101562 328.90625 L 4045.742188 343.320312 L 4037.382812 328.90625 L 4020.742188 328.90625 L 4029.0625 314.453125 L 4020.742188 300 L 4004.0625 300 L 3995.703125 314.453125 L 3987.34375 300 L 3970.703125 300 L 3979.023438 285.546875 L 3970.703125 271.09375 L 3987.34375 271.09375 L 3995.703125 256.640625 L 3987.34375 242.1875 L 3970.703125 242.1875 L 3979.023438 227.773438 L 3970.703125 213.320312 L 3987.34375 213.320312 L 3995.703125 198.867188 L 4004.0625 213.320312 L 4020.742188 213.320312 L 4029.0625 198.867188 L 4020.742188 184.453125 L 4037.382812 184.453125 L 4045.742188 169.960938 L 4037.382812 155.546875 L 4020.742188 155.546875 L 4029.0625 141.09375 L 4020.742188 126.640625 L 4004.0625 126.640625 L 3995.703125 141.09375 L 3987.34375 126.640625 L 3970.703125 126.640625 L 3979.023438 112.1875 L 3970.703125 97.734375 L 3987.34375 97.734375 L 3995.703125 83.320312 L 3987.34375 68.867188 L 3970.703125 68.867188 L 3979.023438 54.414062 L 3970.703125 39.960938 L 3954.023438 39.960938 L 3945.664062 54.414062 L 3937.304688 39.960938 L 3920.664062 39.960938 L 3912.304688 54.414062 L 3920.664062 68.867188 L 3903.945312 68.867188 " transform="matrix(0.1, 0, 0, -0.1, 0, 86)"/>
<path fill="none" stroke-width="3.78302" stroke-linecap="round" stroke-linejoin="round" stroke="rgb(0%, 0%, 0%)" stroke-opacity="1" stroke-miterlimit="10" d="M 3903.945312 68.867188 L 3895.625 83.320312 L 3887.304688 68.867188 L 3870.625 68.867188 L 3878.945312 54.414062 L 3870.625 39.960938 L 3853.945312 39.960938 L 3845.585938 54.414062 L 3837.226562 39.960938 L 3820.585938 39.960938 L 3812.226562 54.414062 L 3820.585938 68.867188 L 3803.90625 68.867188 L 3795.546875 83.320312 L 3803.90625 97.734375 L 3820.585938 97.734375 L 3812.226562 112.1875 L 3820.585938 126.640625 L 3803.90625 126.640625 L 3795.546875 141.09375 L 3787.1875 126.640625 L 3770.546875 126.640625 L 3762.1875 141.09375 L 3770.546875 155.546875 L 3753.867188 155.546875 L 3745.507812 169.960938 L 3737.148438 155.546875 L 3720.46875 155.546875 L 3728.828125 141.09375 L 3720.46875 126.640625 L 3703.828125 126.640625 L 3695.46875 141.09375 L 3687.148438 126.640625 L 3670.429688 126.640625 L 3678.789062 112.1875 L 3670.429688 97.734375 L 3687.148438 97.734375 L 3695.46875 83.320312 L 3687.148438 68.867188 L 3670.429688 68.867188 L 3678.789062 54.414062 L 3670.429688 39.960938 L 3653.789062 39.960938 L 3645.429688 54.414062 L 3637.070312 39.960938 L 3620.390625 39.960938 L 3612.070312 54.414062 L 3620.390625 68.867188 L 3603.710938 68.867188 L 3595.390625 83.320312 L 3587.03125 68.867188 " transform="matrix(0.1, 0, 0, -0.1, 0, 86)"/>
<path fill="none" stroke-width="3.78302" stroke-linecap="round" stroke-linejoin="round" stroke="rgb(0%, 0%, 0%)" stroke-opacity="1" stroke-miterlimit="10" d="M 3587.03125 68.867188 L 3570.351562 68.867188 L 3578.710938 54.414062 L 3570.351562 39.960938 L 3553.671875 39.960938 L 3545.351562 54.414062 L 3536.992188 39.960938 L 3520.3125 39.960938 L 3511.992188 54.414062 L 3520.3125 68.867188 L 3503.632812 68.867188 L 3495.3125 83.320312 L 3503.632812 97.734375 L 3520.3125 97.734375 L 3511.992188 112.1875 L 3520.3125 126.640625 L 3503.632812 126.640625 L 3495.3125 141.09375 L 3486.953125 126.640625 L 3470.273438 126.640625 L 3461.953125 141.09375 L 3470.273438 155.546875 L 3453.59375 155.546875 L 3445.273438 169.960938 L 3453.59375 184.453125 L 3470.273438 184.453125 L 3461.953125 198.867188 L 3470.273438 213.320312 L 3486.953125 213.320312 L 3495.3125 198.867188 L 3503.632812 213.320312 L 3520.3125 213.320312 L 3511.992188 227.773438 L 3520.3125 242.1875 L 3503.632812 242.1875 L 3495.3125 256.640625 L 3503.632812 271.09375 L 3520.3125 271.09375 L 3511.992188 285.546875 L 3520.3125 300 L 3503.632812 300 L 3495.3125 314.453125 L 3486.953125 300 L 3470.273438 300 L 3461.953125 314.453125 L 3470.273438 328.90625 L 3453.59375 328.90625 L 3445.273438 343.320312 L 3436.914062 328.90625 L 3420.234375 328.90625 L 3428.59375 314.453125 " transform="matrix(0.1, 0, 0, -0.1, 0, 86)"/>
<path fill="none" stroke-width="3.78302" stroke-linecap="round" stroke-linejoin="round" stroke="rgb(0%, 0%, 0%)" stroke-opacity="1" stroke-miterlimit="10" d="M 3428.59375 314.453125 L 3420.234375 300 L 3403.554688 300 L 3395.234375 314.453125 L 3386.875 300 L 3370.195312 300 L 3361.875 314.453125 L 3370.195312 328.90625 L 3353.515625 328.90625 L 3345.195312 343.320312 L 3353.515625 357.773438 L 3370.195312 357.773438 L 3361.875 372.226562 L 3370.195312 386.679688 L 3353.515625 386.679688 L 3345.195312 401.09375 L 3336.835938 386.679688 L 3320.15625 386.679688 L 3311.835938 401.09375 L 3320.15625 415.546875 L 3303.476562 415.546875 L 3295.15625 430 L 3303.476562 444.453125 L 3320.15625 444.453125 L 3311.835938 458.90625 L 3320.15625 473.320312 L 3336.835938 473.320312 L 3345.195312 458.90625 L 3353.515625 473.320312 L 3370.195312 473.320312 L 3361.875 487.773438 L 3370.195312 502.226562 L 3353.515625 502.226562 L 3345.195312 516.679688 L 3353.515625 531.132812 L 3370.195312 531.132812 L 3361.875 545.546875 L 3370.195312 560 L 3386.875 560 L 3395.234375 545.546875 L 3403.554688 560 L 3420.234375 560 L 3428.59375 545.546875 L 3420.234375 531.132812 L 3436.914062 531.132812 L 3445.273438 516.679688 L 3453.59375 531.132812 L 3470.273438 531.132812 L 3461.953125 545.546875 L 3470.273438 560 L 3486.953125 560 " transform="matrix(0.1, 0, 0, -0.1, 0, 86)"/>
<path fill="none" stroke-width="3.78302" stroke-linecap="round" stroke-linejoin="round" stroke="rgb(0%, 0%, 0%)" stroke-opacity="1" stroke-miterlimit="10" d="M 3486.953125 560 L 3495.3125 545.546875 L 3503.632812 560 L 3520.3125 560 L 3511.992188 574.453125 L 3520.3125 588.90625 L 3503.632812 588.90625 L 3495.3125 603.359375 L 3503.632812 617.773438 L 3520.3125 617.773438 L 3511.992188 632.226562 L 3520.3125 646.679688 L 3503.632812 646.679688 L 3495.3125 661.132812 L 3486.953125 646.679688 L 3470.273438 646.679688 L 3461.953125 661.132812 L 3470.273438 675.585938 L 3453.59375 675.585938 L 3445.273438 690 L 3453.59375 704.453125 L 3470.273438 704.453125 L 3461.953125 718.90625 L 3470.273438 733.359375 L 3486.953125 733.359375 L 3495.3125 718.90625 L 3503.632812 733.359375 L 3520.3125 733.359375 L 3511.992188 747.8125 L 3520.3125 762.226562 L 3503.632812 762.226562 L 3495.3125 776.679688 L 3503.632812 791.132812 L 3520.3125 791.132812 L 3511.992188 805.585938 L 3520.3125 820.039062 " transform="matrix(0.1, 0, 0, -0.1, 0, 86)"/>
</svg>
