<?xml version="1.0" encoding="UTF-8"?>
<svg xmlns="http://www.w3.org/2000/svg" xmlns:xlink="http://www.w3.org/1999/xlink" width="491" height="89" viewBox="0 0 491 89">
<path fill="none" stroke-width="3.39038" stroke-linecap="round" stroke-linejoin="round" stroke="rgb(0%, 0%, 0%)" stroke-opacity="1" stroke-miterlimit="10" d="M 186.679688 41.367188 L 186.679688 848.59375 L 993.90625 848.59375 L 993.90625 41.367188 " transform="matrix(0.1, 0, 0, -0.1, 0, 89)"/>
<path fill="none" stroke-width="3.39039" stroke-linecap="round" stroke-linejoin="round" stroke="rgb(0%, 0%, 0%)" stroke-opacity="1" stroke-miterlimit="10" d="M 1119.023438 41.367188 L 1388.125 41.367188 L 1388.125 310.429688 L 1119.023438 310.429688 L 1119.023438 848.59375 L 1388.125 848.59375 L 1388.125 579.53125 L 1657.1875 579.53125 L 1657.1875 848.59375 L 1926.25 848.59375 L 1926.25 310.429688 L 1657.1875 310.429688 L 1657.1875 41.367188 L 1926.25 41.367188 " transform="matrix(0.1, 0, 0, -0.1, 0, 89)"/>
<path fill="none" stroke-width="3.39037" stroke-linecap="round" stroke-linejoin="round" stroke="rgb(0%, 0%, 0%)" stroke-opacity="1" stroke-miterlimit="10" d="M 2051.40625 41.367188 L 2051.40625 156.679688 L 2166.71875 156.679688 L 2166.71875 41.367188 L 2397.34375 41.367188 L 2397.34375 156.679688 L 2282.03125 156.679688 L 2282.03125 272.03125 L 2397.34375 272.03125 L 2397.34375 387.34375 L 2166.71875 387.34375 L 2166.71875 272.03125 L 2051.40625 272.03125 L 2051.40625 502.65625 L 2166.71875 502.65625 L 2166.71875 617.96875 L 2051.40625 617.96875 L 2051.40625 848.59375 L 2166.71875 848.59375 L 2166.71875 733.28125 L 2282.03125 733.28125 L 2282.03125 848.59375 L 2397.34375 848.59375 L 2397.34375 617.96875 L 2282.03125 617.96875 L 2282.03125 502.65625 L 2627.96875 502.65625 L 2627.96875 617.96875 L 2512.65625 617.96875 L 2512.65625 848.59375 L 2627.96875 848.59375 L 2627.96875 733.28125 L 2743.28125 733.28125 L 2743.28125 848.59375 L 2858.632812 848.59375 L 2858.632812 617.96875 L 2743.28125 617.96875 L 2743.28125 502.65625 L 2858.632812 502.65625 L 2858.632812 272.03125 " transform="matrix(0.1, 0, 0, -0.1, 0, 89)"/>
<path fill="none" stroke-width="3.39037" stroke-linecap="round" stroke-linejoin="round" stroke="rgb(0%, 0%, 0%)" stroke-opacity="1" stroke-miterlimit="10" d="M 2858.632812 272.03125 L 2743.28125 272.03125 L 2743.28125 387.34375 L 2512.65625 387.34375 L 2512.65625 272.03125 L 2627.96875 272.03125 L 2627.96875 156.679688 L 2512.65625 156.679688 L 2512.65625 41.367188 L 2743.28125 41.367188 L 2743.28125 156.679688 L 2858.632812 156.679688 L 2858.632812 41.367188 " transform="matrix(0.1, 0, 0, -0.1, 0, 89)"/>
<path fill="none" stroke-width="3.39039" stroke-linecap="round" stroke-linejoin="round" stroke="rgb(0%, 0%, 0%)" stroke-opacity="1" stroke-miterlimit="10" d="M 2983.75 41.367188 L 3037.539062 41.367188 L 3037.539062 95.195312 L 2983.75 95.195312 L 2983.75 202.8125 L 3037.539062 202.8125 L 3037.539062 148.984375 L 3091.367188 148.984375 L 3091.367188 202.8125 L 3145.195312 202.8125 L 3145.195312 95.195312 L 3091.367188 95.195312 L 3091.367188 41.367188 L 3198.984375 41.367188 L 3198.984375 95.195312 L 3252.8125 95.195312 L 3252.8125 41.367188 L 3360.46875 41.367188 L 3360.46875 95.195312 L 3306.640625 95.195312 L 3306.640625 148.984375 L 3360.46875 148.984375 L 3360.46875 202.8125 L 3252.8125 202.8125 L 3252.8125 148.984375 L 3198.984375 148.984375 L 3198.984375 310.429688 L 3252.8125 310.429688 L 3252.8125 256.640625 L 3360.46875 256.640625 L 3360.46875 310.429688 L 3306.640625 310.429688 L 3306.640625 364.257812 L 3360.46875 364.257812 L 3360.46875 418.085938 L 3252.8125 418.085938 L 3252.8125 364.257812 L 3198.984375 364.257812 L 3198.984375 418.085938 L 3091.367188 418.085938 " transform="matrix(0.1, 0, 0, -0.1, 0, 89)"/>
<path fill="none" stroke-width="3.39039" stroke-linecap="round" stroke-linejoin="round" stroke="rgb(0%, 0%, 0%)" stroke-opacity="1" stroke-miterlimit="10" d="M 3091.367188 418.085938 L 3091.367188 364.257812 L 3145.195312 364.257812 L 3145.195312 256.640625 L 3091.367188 256.640625 L 3091.367188 310.429688 L 3037.539062 310.429688 L 3037.539062 256.640625 L 2983.75 256.640625 L 2983.75 364.257812 L 3037.539062 364.257812 L 3037.539062 418.085938 L 2983.75 418.085938 L 2983.75 525.703125 L 3037.539062 525.703125 L 3037.539062 471.914062 L 3145.195312 471.914062 L 3145.195312 525.703125 L 3091.367188 525.703125 L 3091.367188 579.53125 L 3145.195312 579.53125 L 3145.195312 633.359375 L 3037.539062 633.359375 L 3037.539062 579.53125 L 2983.75 579.53125 L 2983.75 687.148438 L 3037.539062 687.148438 L 3037.539062 740.976562 L 2983.75 740.976562 L 2983.75 848.59375 L 3037.539062 848.59375 L 3037.539062 794.804688 L 3091.367188 794.804688 L 3091.367188 848.59375 L 3145.195312 848.59375 L 3145.195312 740.976562 L 3091.367188 740.976562 L 3091.367188 687.148438 L 3252.8125 687.148438 L 3252.8125 740.976562 L 3198.984375 740.976562 " transform="matrix(0.1, 0, 0, -0.1, 0, 89)"/>
<path fill="none" stroke-width="3.39039" stroke-linecap="round" stroke-linejoin="round" stroke="rgb(0%, 0%, 0%)" stroke-opacity="1" stroke-miterlimit="10" d="M 3198.984375 740.976562 L 3198.984375 848.59375 L 3252.8125 848.59375 L 3252.8125 794.804688 L 3306.640625 794.804688 L 3306.640625 848.59375 L 3360.46875 848.59375 L 3360.46875 740.976562 L 3306.640625 740.976562 L 3306.640625 687.148438 L 3360.46875 687.148438 L 3360.46875 579.53125 L 3306.640625 579.53125 L 3306.640625 633.359375 L 3198.984375 633.359375 L 3198.984375 579.53125 L 3252.8125 579.53125 L 3252.8125 525.703125 L 3198.984375 525.703125 L 3198.984375 471.914062 L 3306.640625 471.914062 L 3306.640625 525.703125 L 3360.46875 525.703125 L 3360.46875 471.914062 L 3414.257812 471.914062 L 3414.257812 525.703125 L 3468.085938 525.703125 L 3468.085938 471.914062 L 3575.703125 471.914062 L 3575.703125 525.703125 L 3521.875 525.703125 L 3521.875 579.53125 L 3575.703125 579.53125 L 3575.703125 633.359375 L 3468.085938 633.359375 L 3468.085938 579.53125 L 3414.257812 579.53125 L 3414.257812 687.148438 L 3468.085938 687.148438 L 3468.085938 740.976562 L 3414.257812 740.976562 L 3414.257812 848.59375 " transform="matrix(0.1, 0, 0, -0.1, 0, 89)"/>
<path fill="none" stroke-width="3.39039" stroke-linecap="round" stroke-linejoin="round" stroke="rgb(0%, 0%, 0%)" stroke-opacity="1" stroke-miterlimit="10" d="M 3414.257812 848.59375 L 3468.085938 848.59375 L 3468.085938 794.804688 L 3521.875 794.804688 L 3521.875 848.59375 L 3575.703125 848.59375 L 3575.703125 740.976562 L 3521.875 740.976562 L 3521.875 687.148438 L 3683.359375 687.148438 L 3683.359375 740.976562 L 3629.53125 740.976562 L 3629.53125 848.59375 L 3683.359375 848.59375 L 3683.359375 794.804688 L 3737.148438 794.804688 L 3737.148438 848.59375 L 3790.976562 848.59375 L 3790.976562 740.976562 L 3737.148438 740.976562 L 3737.148438 687.148438 L 3790.976562 687.148438 L 3790.976562 579.53125 L 3737.148438 579.53125 L 3737.148438 633.359375 L 3629.53125 633.359375 L 3629.53125 579.53125 L 3683.359375 579.53125 L 3683.359375 525.703125 L 3629.53125 525.703125 L 3629.53125 471.914062 L 3737.148438 471.914062 L 3737.148438 525.703125 L 3790.976562 525.703125 L 3790.976562 418.085938 L 3737.148438 418.085938 L 3737.148438 364.257812 L 3790.976562 364.257812 L 3790.976562 256.640625 L 3737.148438 256.640625 L 3737.148438 310.429688 " transform="matrix(0.1, 0, 0, -0.1, 0, 89)"/>
<path fill="none" stroke-width="3.39039" stroke-linecap="round" stroke-linejoin="round" stroke="rgb(0%, 0%, 0%)" stroke-opacity="1" stroke-miterlimit="10" d="M 3737.148438 310.429688 L 3683.359375 310.429688 L 3683.359375 256.640625 L 3629.53125 256.640625 L 3629.53125 364.257812 L 3683.359375 364.257812 L 3683.359375 418.085938 L 3575.703125 418.085938 L 3575.703125 364.257812 L 3521.875 364.257812 L 3521.875 418.085938 L 3414.257812 418.085938 L 3414.257812 364.257812 L 3468.085938 364.257812 L 3468.085938 310.429688 L 3414.257812 310.429688 L 3414.257812 256.640625 L 3521.875 256.640625 L 3521.875 310.429688 L 3575.703125 310.429688 L 3575.703125 148.984375 L 3521.875 148.984375 L 3521.875 202.8125 L 3414.257812 202.8125 L 3414.257812 148.984375 L 3468.085938 148.984375 L 3468.085938 95.195312 L 3414.257812 95.195312 L 3414.257812 41.367188 L 3521.875 41.367188 L 3521.875 95.195312 L 3575.703125 95.195312 L 3575.703125 41.367188 L 3683.359375 41.367188 L 3683.359375 95.195312 L 3629.53125 95.195312 L 3629.53125 202.8125 L 3683.359375 202.8125 L 3683.359375 148.984375 L 3737.148438 148.984375 L 3737.148438 202.8125 " transform="matrix(0.1, 0, 0, -0.1, 0, 89)"/>
<path fill="none" stroke-width="3.39039" stroke-linecap="round" stroke-linejoin="round" stroke="rgb(0%, 0%, 0%)" stroke-opacity="1" stroke-miterlimit="10" d="M 3737.148438 202.8125 L 3790.976562 202.8125 L 3790.976562 95.195312 L 3737.148438 95.195312 L 3737.148438 41.367188 L 3790.976562 41.367188 " transform="matrix(0.1, 0, 0, -0.1, 0, 89)"/>
<path fill="none" stroke-width="3.39037" stroke-linecap="round" stroke-linejoin="round" stroke="rgb(0%, 0%, 0%)" stroke-opacity="1" stroke-miterlimit="10" d="M 3916.09375 41.367188 L 3916.09375 67.421875 L 3942.148438 67.421875 L 3942.148438 41.367188 L 3994.21875 41.367188 L 3994.21875 67.421875 L 3968.164062 67.421875 L 3968.164062 93.4375 L 3994.21875 93.4375 L 3994.21875 119.492188 L 3942.148438 119.492188 L 3942.148438 93.4375 L 3916.09375 93.4375 L 3916.09375 145.546875 L 3942.148438 145.546875 L 3942.148438 171.5625 L 3916.09375 171.5625 L 3916.09375 223.632812 L 3942.148438 223.632812 L 3942.148438 197.617188 L 3968.164062 197.617188 L 3968.164062 223.632812 L 3994.21875 223.632812 L 3994.21875 171.5625 L 3968.164062 171.5625 L 3968.164062 145.546875 L 4046.289062 145.546875 L 4046.289062 171.5625 L 4020.273438 171.5625 L 4020.273438 223.632812 L 4046.289062 223.632812 L 4046.289062 197.617188 L 4072.34375 197.617188 L 4072.34375 223.632812 L 4098.359375 223.632812 L 4098.359375 171.5625 L 4072.34375 171.5625 L 4072.34375 145.546875 L 4098.359375 145.546875 L 4098.359375 93.4375 " transform="matrix(0.1, 0, 0, -0.1, 0, 89)"/>
<path fill="none" stroke-width="3.39037" stroke-linecap="round" stroke-linejoin="round" stroke="rgb(0%, 0%, 0%)" stroke-opacity="1" stroke-miterlimit="10" d="M 4098.359375 93.4375 L 4072.34375 93.4375 L 4072.34375 119.492188 L 4020.273438 119.492188 L 4020.273438 93.4375 L 4046.289062 93.4375 L 4046.289062 67.421875 L 4020.273438 67.421875 L 4020.273438 41.367188 L 4072.34375 41.367188 L 4072.34375 67.421875 L 4098.359375 67.421875 L 4098.359375 41.367188 L 4150.46875 41.367188 L 4150.46875 67.421875 L 4124.414062 67.421875 L 4124.414062 119.492188 L 4150.46875 119.492188 L 4150.46875 93.4375 L 4176.484375 93.4375 L 4176.484375 119.492188 L 4202.539062 119.492188 L 4202.539062 67.421875 L 4176.484375 67.421875 L 4176.484375 41.367188 L 4228.554688 41.367188 L 4228.554688 67.421875 L 4254.609375 67.421875 L 4254.609375 41.367188 L 4306.71875 41.367188 L 4306.71875 67.421875 L 4280.664062 67.421875 L 4280.664062 93.4375 L 4306.71875 93.4375 L 4306.71875 119.492188 L 4254.609375 119.492188 L 4254.609375 93.4375 L 4228.554688 93.4375 L 4228.554688 171.5625 L 4254.609375 171.5625 L 4254.609375 145.546875 " transform="matrix(0.1, 0, 0, -0.1, 0, 89)"/>
<path fill="none" stroke-width="3.39037" stroke-linecap="round" stroke-linejoin="round" stroke="rgb(0%, 0%, 0%)" stroke-opacity="1" stroke-miterlimit="10" d="M 4254.609375 145.546875 L 4306.71875 145.546875 L 4306.71875 171.5625 L 4280.664062 171.5625 L 4280.664062 197.617188 L 4306.71875 197.617188 L 4306.71875 223.632812 L 4254.609375 223.632812 L 4254.609375 197.617188 L 4228.554688 197.617188 L 4228.554688 223.632812 L 4176.484375 223.632812 L 4176.484375 197.617188 L 4202.539062 197.617188 L 4202.539062 145.546875 L 4176.484375 145.546875 L 4176.484375 171.5625 L 4150.46875 171.5625 L 4150.46875 145.546875 L 4124.414062 145.546875 L 4124.414062 197.617188 L 4150.46875 197.617188 L 4150.46875 223.632812 L 4124.414062 223.632812 L 4124.414062 249.6875 L 4150.46875 249.6875 L 4150.46875 275.742188 L 4124.414062 275.742188 L 4124.414062 327.8125 L 4150.46875 327.8125 L 4150.46875 301.757812 L 4176.484375 301.757812 L 4176.484375 327.8125 L 4202.539062 327.8125 L 4202.539062 275.742188 L 4176.484375 275.742188 L 4176.484375 249.6875 L 4228.554688 249.6875 L 4228.554688 275.742188 L 4254.609375 275.742188 L 4254.609375 249.6875 L 4306.71875 249.6875 " transform="matrix(0.1, 0, 0, -0.1, 0, 89)"/>
<path fill="none" stroke-width="3.39037" stroke-linecap="round" stroke-linejoin="round" stroke="rgb(0%, 0%, 0%)" stroke-opacity="1" stroke-miterlimit="10" d="M 4306.71875 249.6875 L 4306.71875 275.742188 L 4280.664062 275.742188 L 4280.664062 301.757812 L 4306.71875 301.757812 L 4306.71875 327.8125 L 4254.609375 327.8125 L 4254.609375 301.757812 L 4228.554688 301.757812 L 4228.554688 379.882812 L 4254.609375 379.882812 L 4254.609375 353.867188 L 4306.71875 353.867188 L 4306.71875 379.882812 L 4280.664062 379.882812 L 4280.664062 405.9375 L 4306.71875 405.9375 L 4306.71875 431.953125 L 4254.609375 431.953125 L 4254.609375 405.9375 L 4228.554688 405.9375 L 4228.554688 431.953125 L 4176.484375 431.953125 L 4176.484375 405.9375 L 4202.539062 405.9375 L 4202.539062 353.867188 L 4176.484375 353.867188 L 4176.484375 379.882812 L 4150.46875 379.882812 L 4150.46875 353.867188 L 4124.414062 353.867188 L 4124.414062 405.9375 L 4150.46875 405.9375 L 4150.46875 431.953125 L 4098.359375 431.953125 L 4098.359375 405.9375 L 4072.34375 405.9375 L 4072.34375 431.953125 L 4020.273438 431.953125 L 4020.273438 405.9375 L 4046.289062 405.9375 " transform="matrix(0.1, 0, 0, -0.1, 0, 89)"/>
<path fill="none" stroke-width="3.39037" stroke-linecap="round" stroke-linejoin="round" stroke="rgb(0%, 0%, 0%)" stroke-opacity="1" stroke-miterlimit="10" d="M 4046.289062 405.9375 L 4046.289062 379.882812 L 4020.273438 379.882812 L 4020.273438 353.867188 L 4072.34375 353.867188 L 4072.34375 379.882812 L 4098.359375 379.882812 L 4098.359375 327.8125 L 4072.34375 327.8125 L 4072.34375 301.757812 L 4098.359375 301.757812 L 4098.359375 249.6875 L 4072.34375 249.6875 L 4072.34375 275.742188 L 4046.289062 275.742188 L 4046.289062 249.6875 L 4020.273438 249.6875 L 4020.273438 301.757812 L 4046.289062 301.757812 L 4046.289062 327.8125 L 3968.164062 327.8125 L 3968.164062 301.757812 L 3994.21875 301.757812 L 3994.21875 249.6875 L 3968.164062 249.6875 L 3968.164062 275.742188 L 3942.148438 275.742188 L 3942.148438 249.6875 L 3916.09375 249.6875 L 3916.09375 301.757812 L 3942.148438 301.757812 L 3942.148438 327.8125 L 3916.09375 327.8125 L 3916.09375 379.882812 L 3942.148438 379.882812 L 3942.148438 353.867188 L 3994.21875 353.867188 L 3994.21875 379.882812 L 3968.164062 379.882812 L 3968.164062 405.9375 L 3994.21875 405.9375 " transform="matrix(0.1, 0, 0, -0.1, 0, 89)"/>
<path fill="none" stroke-width="3.39037" stroke-linecap="round" stroke-linejoin="round" stroke="rgb(0%, 0%, 0%)" stroke-opacity="1" stroke-miterlimit="10" d="M 3994.21875 405.9375 L 3994.21875 431.953125 L 3942.148438 431.953125 L 3942.148438 405.9375 L 3916.09375 405.9375 L 3916.09375 458.007812 L 3942.148438 458.007812 L 3942.148438 484.0625 L 3916.09375 484.0625 L 3916.09375 536.132812 L 3942.148438 536.132812 L 3942.148438 510.078125 L 3968.164062 510.078125 L 3968.164062 536.132812 L 3994.21875 536.132812 L 3994.21875 484.0625 L 3968.164062 484.0625 L 3968.164062 458.007812 L 4020.273438 458.007812 L 4020.273438 484.0625 L 4046.289062 484.0625 L 4046.289062 458.007812 L 4098.359375 458.007812 L 4098.359375 484.0625 L 4072.34375 484.0625 L 4072.34375 510.078125 L 4098.359375 510.078125 L 4098.359375 536.132812 L 4046.289062 536.132812 L 4046.289062 510.078125 L 4020.273438 510.078125 L 4020.273438 588.203125 L 4046.289062 588.203125 L 4046.289062 562.1875 L 4098.359375 562.1875 L 4098.359375 588.203125 L 4072.34375 588.203125 L 4072.34375 614.257812 L 4098.359375 614.257812 L 4098.359375 640.273438 L 4072.34375 640.273438 " transform="matrix(0.1, 0, 0, -0.1, 0, 89)"/>
<path fill="none" stroke-width="3.39037" stroke-linecap="round" stroke-linejoin="round" stroke="rgb(0%, 0%, 0%)" stroke-opacity="1" stroke-miterlimit="10" d="M 4072.34375 640.273438 L 4046.289062 640.273438 L 4046.289062 614.257812 L 4020.273438 614.257812 L 4020.273438 640.273438 L 3968.164062 640.273438 L 3968.164062 614.257812 L 3994.21875 614.257812 L 3994.21875 562.1875 L 3968.164062 562.1875 L 3968.164062 588.203125 L 3942.148438 588.203125 L 3942.148438 562.1875 L 3916.09375 562.1875 L 3916.09375 614.257812 L 3942.148438 614.257812 L 3942.148438 640.273438 L 3916.09375 640.273438 L 3916.09375 692.382812 L 3942.148438 692.382812 L 3942.148438 666.328125 L 3994.21875 666.328125 L 3994.21875 692.382812 L 3968.164062 692.382812 L 3968.164062 718.398438 L 3994.21875 718.398438 L 3994.21875 744.453125 L 3942.148438 744.453125 L 3942.148438 718.398438 L 3916.09375 718.398438 L 3916.09375 770.46875 L 3942.148438 770.46875 L 3942.148438 796.523438 L 3916.09375 796.523438 L 3916.09375 848.59375 L 3942.148438 848.59375 L 3942.148438 822.578125 L 3968.164062 822.578125 L 3968.164062 848.59375 L 3994.21875 848.59375 L 3994.21875 796.523438 L 3968.164062 796.523438 " transform="matrix(0.1, 0, 0, -0.1, 0, 89)"/>
<path fill="none" stroke-width="3.39037" stroke-linecap="round" stroke-linejoin="round" stroke="rgb(0%, 0%, 0%)" stroke-opacity="1" stroke-miterlimit="10" d="M 3968.164062 796.523438 L 3968.164062 770.46875 L 4046.289062 770.46875 L 4046.289062 796.523438 L 4020.273438 796.523438 L 4020.273438 848.59375 L 4046.289062 848.59375 L 4046.289062 822.578125 L 4072.34375 822.578125 L 4072.34375 848.59375 L 4098.359375 848.59375 L 4098.359375 796.523438 L 4072.34375 796.523438 L 4072.34375 770.46875 L 4098.359375 770.46875 L 4098.359375 718.398438 L 4072.34375 718.398438 L 4072.34375 744.453125 L 4020.273438 744.453125 L 4020.273438 718.398438 L 4046.289062 718.398438 L 4046.289062 692.382812 L 4020.273438 692.382812 L 4020.273438 666.328125 L 4072.34375 666.328125 L 4072.34375 692.382812 L 4098.359375 692.382812 L 4098.359375 666.328125 L 4124.414062 666.328125 L 4124.414062 692.382812 L 4150.46875 692.382812 L 4150.46875 666.328125 L 4202.539062 666.328125 L 4202.539062 692.382812 L 4176.484375 692.382812 L 4176.484375 718.398438 L 4202.539062 718.398438 L 4202.539062 744.453125 L 4150.46875 744.453125 L 4150.46875 718.398438 L 4124.414062 718.398438 L 4124.414062 744.453125 " transform="matrix(0.1, 0, 0, -0.1, 0, 89)"/>
<path fill="none" stroke-width="3.39037" stroke-linecap="round" stroke-linejoin="round" stroke="rgb(0%, 0%, 0%)" stroke-opacity="1" stroke-miterlimit="10" d="M 4124.414062 744.453125 L 4124.414062 770.46875 L 4150.46875 770.46875 L 4150.46875 796.523438 L 4124.414062 796.523438 L 4124.414062 848.59375 L 4150.46875 848.59375 L 4150.46875 822.578125 L 4176.484375 822.578125 L 4176.484375 848.59375 L 4202.539062 848.59375 L 4202.539062 796.523438 L 4176.484375 796.523438 L 4176.484375 770.46875 L 4254.609375 770.46875 L 4254.609375 796.523438 L 4228.554688 796.523438 L 4228.554688 848.59375 L 4254.609375 848.59375 L 4254.609375 822.578125 L 4280.664062 822.578125 L 4280.664062 848.59375 L 4306.71875 848.59375 L 4306.71875 796.523438 L 4280.664062 796.523438 L 4280.664062 770.46875 L 4306.71875 770.46875 L 4306.71875 718.398438 L 4280.664062 718.398438 L 4280.664062 744.453125 L 4228.554688 744.453125 L 4228.554688 718.398438 L 4254.609375 718.398438 L 4254.609375 692.382812 L 4228.554688 692.382812 L 4228.554688 666.328125 L 4280.664062 666.328125 L 4280.664062 692.382812 L 4306.71875 692.382812 L 4306.71875 640.273438 L 4280.664062 640.273438 " transform="matrix(0.1, 0, 0, -0.1, 0, 89)"/>
<path fill="none" stroke-width="3.39037" stroke-linecap="round" stroke-linejoin="round" stroke="rgb(0%, 0%, 0%)" stroke-opacity="1" stroke-miterlimit="10" d="M 4280.664062 640.273438 L 4280.664062 614.257812 L 4306.71875 614.257812 L 4306.71875 562.1875 L 4280.664062 562.1875 L 4280.664062 588.203125 L 4254.609375 588.203125 L 4254.609375 562.1875 L 4228.554688 562.1875 L 4228.554688 614.257812 L 4254.609375 614.257812 L 4254.609375 640.273438 L 4202.539062 640.273438 L 4202.539062 614.257812 L 4176.484375 614.257812 L 4176.484375 640.273438 L 4124.414062 640.273438 L 4124.414062 614.257812 L 4150.46875 614.257812 L 4150.46875 588.203125 L 4124.414062 588.203125 L 4124.414062 562.1875 L 4176.484375 562.1875 L 4176.484375 588.203125 L 4202.539062 588.203125 L 4202.539062 510.078125 L 4176.484375 510.078125 L 4176.484375 536.132812 L 4124.414062 536.132812 L 4124.414062 510.078125 L 4150.46875 510.078125 L 4150.46875 484.0625 L 4124.414062 484.0625 L 4124.414062 458.007812 L 4176.484375 458.007812 L 4176.484375 484.0625 L 4202.539062 484.0625 L 4202.539062 458.007812 L 4254.609375 458.007812 L 4254.609375 484.0625 L 4228.554688 484.0625 " transform="matrix(0.1, 0, 0, -0.1, 0, 89)"/>
<path fill="none" stroke-width="3.39037" stroke-linecap="round" stroke-linejoin="round" stroke="rgb(0%, 0%, 0%)" stroke-opacity="1" stroke-miterlimit="10" d="M 4228.554688 484.0625 L 4228.554688 536.132812 L 4254.609375 536.132812 L 4254.609375 510.078125 L 4280.664062 510.078125 L 4280.664062 536.132812 L 4306.71875 536.132812 L 4306.71875 484.0625 L 4280.664062 484.0625 L 4280.664062 458.007812 L 4358.789062 458.007812 L 4358.789062 484.0625 L 4332.734375 484.0625 L 4332.734375 536.132812 L 4358.789062 536.132812 L 4358.789062 510.078125 L 4384.804688 510.078125 L 4384.804688 536.132812 L 4410.859375 536.132812 L 4410.859375 484.0625 L 4384.804688 484.0625 L 4384.804688 458.007812 L 4436.875 458.007812 L 4436.875 484.0625 L 4462.929688 484.0625 L 4462.929688 458.007812 L 4515 458.007812 L 4515 484.0625 L 4488.984375 484.0625 L 4488.984375 510.078125 L 4515 510.078125 L 4515 536.132812 L 4462.929688 536.132812 L 4462.929688 510.078125 L 4436.875 510.078125 L 4436.875 588.203125 L 4462.929688 588.203125 L 4462.929688 562.1875 L 4515 562.1875 " transform="matrix(0.1, 0, 0, -0.1, 0, 89)"/>
<path fill="none" stroke-width="3.39037" stroke-linecap="round" stroke-linejoin="round" stroke="rgb(0%, 0%, 0%)" stroke-opacity="1" stroke-miterlimit="10" d="M 4515 562.1875 L 4515 588.203125 L 4488.984375 588.203125 L 4488.984375 614.257812 L 4515 614.257812 L 4515 640.273438 L 4462.929688 640.273438 L 4462.929688 614.257812 L 4436.875 614.257812 L 4436.875 640.273438 L 4384.804688 640.273438 L 4384.804688 614.257812 L 4410.859375 614.257812 L 4410.859375 562.1875 L 4384.804688 562.1875 L 4384.804688 588.203125 L 4358.789062 588.203125 L 4358.789062 562.1875 L 4332.734375 562.1875 L 4332.734375 614.257812 L 4358.789062 614.257812 L 4358.789062 640.273438 L 4332.734375 640.273438 L 4332.734375 692.382812 L 4358.789062 692.382812 L 4358.789062 666.328125 L 4410.859375 666.328125 L 4410.859375 692.382812 L 4384.804688 692.382812 L 4384.804688 718.398438 L 4410.859375 718.398438 L 4410.859375 744.453125 L 4358.789062 744.453125 L 4358.789062 718.398438 L 4332.734375 718.398438 L 4332.734375 770.46875 L 4358.789062 770.46875 L 4358.789062 796.523438 L 4332.734375 796.523438 L 4332.734375 848.59375 L 4358.789062 848.59375 L 4358.789062 822.578125 " transform="matrix(0.1, 0, 0, -0.1, 0, 89)"/>
<path fill="none" stroke-width="3.39037" stroke-linecap="round" stroke-linejoin="round" stroke="rgb(0%, 0%, 0%)" stroke-opacity="1" stroke-miterlimit="10" d="M 4358.789062 822.578125 L 4384.804688 822.578125 L 4384.804688 848.59375 L 4410.859375 848.59375 L 4410.859375 796.523438 L 4384.804688 796.523438 L 4384.804688 770.46875 L 4462.929688 770.46875 L 4462.929688 796.523438 L 4436.875 796.523438 L 4436.875 848.59375 L 4462.929688 848.59375 L 4462.929688 822.578125 L 4488.984375 822.578125 L 4488.984375 848.59375 L 4515 848.59375 L 4515 796.523438 L 4488.984375 796.523438 L 4488.984375 770.46875 L 4515 770.46875 L 4515 718.398438 L 4488.984375 718.398438 L 4488.984375 744.453125 L 4436.875 744.453125 L 4436.875 718.398438 L 4462.929688 718.398438 L 4462.929688 692.382812 L 4436.875 692.382812 L 4436.875 666.328125 L 4488.984375 666.328125 L 4488.984375 692.382812 L 4515 692.382812 L 4515 666.328125 L 4541.054688 666.328125 L 4541.054688 692.382812 L 4567.109375 692.382812 L 4567.109375 666.328125 L 4619.179688 666.328125 L 4619.179688 692.382812 L 4593.125 692.382812 L 4593.125 718.398438 L 4619.179688 718.398438 " transform="matrix(0.1, 0, 0, -0.1, 0, 89)"/>
<path fill="none" stroke-width="3.39037" stroke-linecap="round" stroke-linejoin="round" stroke="rgb(0%, 0%, 0%)" stroke-opacity="1" stroke-miterlimit="10" d="M 4619.179688 718.398438 L 4619.179688 744.453125 L 4567.109375 744.453125 L 4567.109375 718.398438 L 4541.054688 718.398438 L 4541.054688 770.46875 L 4567.109375 770.46875 L 4567.109375 796.523438 L 4541.054688 796.523438 L 4541.054688 848.59375 L 4567.109375 848.59375 L 4567.109375 822.578125 L 4593.125 822.578125 L 4593.125 848.59375 L 4619.179688 848.59375 L 4619.179688 796.523438 L 4593.125 796.523438 L 4593.125 770.46875 L 4671.25 770.46875 L 4671.25 796.523438 L 4645.195312 796.523438 L 4645.195312 848.59375 L 4671.25 848.59375 L 4671.25 822.578125 L 4697.304688 822.578125 L 4697.304688 848.59375 L 4723.320312 848.59375 L 4723.320312 796.523438 L 4697.304688 796.523438 L 4697.304688 770.46875 L 4723.320312 770.46875 L 4723.320312 718.398438 L 4697.304688 718.398438 L 4697.304688 744.453125 L 4645.195312 744.453125 L 4645.195312 718.398438 L 4671.25 718.398438 L 4671.25 692.382812 L 4645.195312 692.382812 L 4645.195312 666.328125 L 4671.25 666.328125 " transform="matrix(0.1, 0, 0, -0.1, 0, 89)"/>
<path fill="none" stroke-width="3.39037" stroke-linecap="round" stroke-linejoin="round" stroke="rgb(0%, 0%, 0%)" stroke-opacity="1" stroke-miterlimit="10" d="M 4671.25 666.328125 L 4697.304688 666.328125 L 4697.304688 692.382812 L 4723.320312 692.382812 L 4723.320312 640.273438 L 4697.304688 640.273438 L 4697.304688 614.257812 L 4723.320312 614.257812 L 4723.320312 562.1875 L 4697.304688 562.1875 L 4697.304688 588.203125 L 4671.25 588.203125 L 4671.25 562.1875 L 4645.195312 562.1875 L 4645.195312 614.257812 L 4671.25 614.257812 L 4671.25 640.273438 L 4619.179688 640.273438 L 4619.179688 614.257812 L 4593.125 614.257812 L 4593.125 640.273438 L 4541.054688 640.273438 L 4541.054688 614.257812 L 4567.109375 614.257812 L 4567.109375 588.203125 L 4541.054688 588.203125 L 4541.054688 562.1875 L 4593.125 562.1875 L 4593.125 588.203125 L 4619.179688 588.203125 L 4619.179688 510.078125 L 4593.125 510.078125 L 4593.125 536.132812 L 4541.054688 536.132812 L 4541.054688 510.078125 L 4567.109375 510.078125 L 4567.109375 484.0625 L 4541.054688 484.0625 L 4541.054688 458.007812 L 4593.125 458.007812 L 4593.125 484.0625 " transform="matrix(0.1, 0, 0, -0.1, 0, 89)"/>
<path fill="none" stroke-width="3.39037" stroke-linecap="round" stroke-linejoin="round" stroke="rgb(0%, 0%, 0%)" stroke-opacity="1" stroke-miterlimit="10" d="M 4593.125 484.0625 L 4619.179688 484.0625 L 4619.179688 458.007812 L 4671.25 458.007812 L 4671.25 484.0625 L 4645.195312 484.0625 L 4645.195312 536.132812 L 4671.25 536.132812 L 4671.25 510.078125 L 4697.304688 510.078125 L 4697.304688 536.132812 L 4723.320312 536.132812 L 4723.320312 484.0625 L 4697.304688 484.0625 L 4697.304688 458.007812 L 4723.320312 458.007812 L 4723.320312 405.9375 L 4697.304688 405.9375 L 4697.304688 431.953125 L 4645.195312 431.953125 L 4645.195312 405.9375 L 4671.25 405.9375 L 4671.25 379.882812 L 4645.195312 379.882812 L 4645.195312 353.867188 L 4697.304688 353.867188 L 4697.304688 379.882812 L 4723.320312 379.882812 L 4723.320312 327.8125 L 4697.304688 327.8125 L 4697.304688 301.757812 L 4723.320312 301.757812 L 4723.320312 249.6875 L 4697.304688 249.6875 L 4697.304688 275.742188 L 4671.25 275.742188 L 4671.25 249.6875 L 4645.195312 249.6875 L 4645.195312 301.757812 L 4671.25 301.757812 L 4671.25 327.8125 L 4645.195312 327.8125 " transform="matrix(0.1, 0, 0, -0.1, 0, 89)"/>
<path fill="none" stroke-width="3.39037" stroke-linecap="round" stroke-linejoin="round" stroke="rgb(0%, 0%, 0%)" stroke-opacity="1" stroke-miterlimit="10" d="M 4645.195312 327.8125 L 4593.125 327.8125 L 4593.125 301.757812 L 4619.179688 301.757812 L 4619.179688 249.6875 L 4593.125 249.6875 L 4593.125 275.742188 L 4567.109375 275.742188 L 4567.109375 249.6875 L 4541.054688 249.6875 L 4541.054688 301.757812 L 4567.109375 301.757812 L 4567.109375 327.8125 L 4541.054688 327.8125 L 4541.054688 379.882812 L 4567.109375 379.882812 L 4567.109375 353.867188 L 4619.179688 353.867188 L 4619.179688 379.882812 L 4593.125 379.882812 L 4593.125 405.9375 L 4619.179688 405.9375 L 4619.179688 431.953125 L 4567.109375 431.953125 L 4567.109375 405.9375 L 4541.054688 405.9375 L 4541.054688 431.953125 L 4488.984375 431.953125 L 4488.984375 405.9375 L 4515 405.9375 L 4515 353.867188 L 4488.984375 353.867188 L 4488.984375 379.882812 L 4462.929688 379.882812 L 4462.929688 353.867188 L 4436.875 353.867188 L 4436.875 405.9375 L 4462.929688 405.9375 L 4462.929688 431.953125 L 4410.859375 431.953125 L 4410.859375 405.9375 " transform="matrix(0.1, 0, 0, -0.1, 0, 89)"/>
<path fill="none" stroke-width="3.39037" stroke-linecap="round" stroke-linejoin="round" stroke="rgb(0%, 0%, 0%)" stroke-opacity="1" stroke-miterlimit="10" d="M 4410.859375 405.9375 L 4384.804688 405.9375 L 4384.804688 431.953125 L 4332.734375 431.953125 L 4332.734375 405.9375 L 4358.789062 405.9375 L 4358.789062 379.882812 L 4332.734375 379.882812 L 4332.734375 353.867188 L 4384.804688 353.867188 L 4384.804688 379.882812 L 4410.859375 379.882812 L 4410.859375 301.757812 L 4384.804688 301.757812 L 4384.804688 327.8125 L 4332.734375 327.8125 L 4332.734375 301.757812 L 4358.789062 301.757812 L 4358.789062 275.742188 L 4332.734375 275.742188 L 4332.734375 249.6875 L 4384.804688 249.6875 L 4384.804688 275.742188 L 4410.859375 275.742188 L 4410.859375 249.6875 L 4462.929688 249.6875 L 4462.929688 275.742188 L 4436.875 275.742188 L 4436.875 327.8125 L 4462.929688 327.8125 L 4462.929688 301.757812 L 4488.984375 301.757812 L 4488.984375 327.8125 L 4515 327.8125 L 4515 275.742188 L 4488.984375 275.742188 L 4488.984375 249.6875 L 4515 249.6875 L 4515 223.632812 L 4488.984375 223.632812 L 4488.984375 197.617188 L 4515 197.617188 " transform="matrix(0.1, 0, 0, -0.1, 0, 89)"/>
<path fill="none" stroke-width="3.39037" stroke-linecap="round" stroke-linejoin="round" stroke="rgb(0%, 0%, 0%)" stroke-opacity="1" stroke-miterlimit="10" d="M 4515 197.617188 L 4515 145.546875 L 4488.984375 145.546875 L 4488.984375 171.5625 L 4462.929688 171.5625 L 4462.929688 145.546875 L 4436.875 145.546875 L 4436.875 197.617188 L 4462.929688 197.617188 L 4462.929688 223.632812 L 4410.859375 223.632812 L 4410.859375 197.617188 L 4384.804688 197.617188 L 4384.804688 223.632812 L 4332.734375 223.632812 L 4332.734375 197.617188 L 4358.789062 197.617188 L 4358.789062 171.5625 L 4332.734375 171.5625 L 4332.734375 145.546875 L 4384.804688 145.546875 L 4384.804688 171.5625 L 4410.859375 171.5625 L 4410.859375 93.4375 L 4384.804688 93.4375 L 4384.804688 119.492188 L 4332.734375 119.492188 L 4332.734375 93.4375 L 4358.789062 93.4375 L 4358.789062 67.421875 L 4332.734375 67.421875 L 4332.734375 41.367188 L 4384.804688 41.367188 L 4384.804688 67.421875 L 4410.859375 67.421875 L 4410.859375 41.367188 L 4462.929688 41.367188 L 4462.929688 67.421875 L 4436.875 67.421875 L 4436.875 119.492188 " transform="matrix(0.1, 0, 0, -0.1, 0, 89)"/>
<path fill="none" stroke-width="3.39037" stroke-linecap="round" stroke-linejoin="round" stroke="rgb(0%, 0%, 0%)" stroke-opacity="1" stroke-miterlimit="10" d="M 4436.875 119.492188 L 4462.929688 119.492188 L 4462.929688 93.4375 L 4488.984375 93.4375 L 4488.984375 119.492188 L 4515 119.492188 L 4515 67.421875 L 4488.984375 67.421875 L 4488.984375 41.367188 L 4541.054688 41.367188 L 4541.054688 67.421875 L 4567.109375 67.421875 L 4567.109375 41.367188 L 4619.179688 41.367188 L 4619.179688 67.421875 L 4593.125 67.421875 L 4593.125 93.4375 L 4619.179688 93.4375 L 4619.179688 119.492188 L 4567.109375 119.492188 L 4567.109375 93.4375 L 4541.054688 93.4375 L 4541.054688 145.546875 L 4567.109375 145.546875 L 4567.109375 171.5625 L 4541.054688 171.5625 L 4541.054688 223.632812 L 4567.109375 223.632812 L 4567.109375 197.617188 L 4593.125 197.617188 L 4593.125 223.632812 L 4619.179688 223.632812 L 4619.179688 171.5625 L 4593.125 171.5625 L 4593.125 145.546875 L 4671.25 145.546875 L 4671.25 171.5625 L 4645.195312 171.5625 L 4645.195312 223.632812 L 4671.25 223.632812 L 4671.25 197.617188 " transform="matrix(0.1, 0, 0, -0.1, 0, 89)"/>
<path fill="none" stroke-width="3.39037" stroke-linecap="round" stroke-linejoin="round" stroke="rgb(0%, 0%, 0%)" stroke-opacity="1" stroke-miterlimit="10" d="M 4671.25 197.617188 L 4697.304688 197.617188 L 4697.304688 223.632812 L 4723.320312 223.632812 L 4723.320312 171.5625 L 4697.304688 171.5625 L 4697.304688 145.546875 L 4723.320312 145.546875 L 4723.320312 93.4375 L 4697.304688 93.4375 L 4697.304688 119.492188 L 4645.195312 119.492188 L 4645.195312 93.4375 L 4671.25 93.4375 L 4671.25 67.421875 L 4645.195312 67.421875 L 4645.195312 41.367188 L 4697.304688 41.367188 L 4697.304688 67.421875 L 4723.320312 67.421875 L 4723.320312 41.367188 " transform="matrix(0.1, 0, 0, -0.1, 0, 89)"/>
</svg>
