<?xml version="1.0" encoding="UTF-8"?>
<svg xmlns="http://www.w3.org/2000/svg" xmlns:xlink="http://www.w3.org/1999/xlink" width="361" height="68" viewBox="0 0 361 68">
<path fill="none" stroke-width="1.25" stroke-linecap="butt" stroke-linejoin="miter" stroke="rgb(0%, 0%, 0%)" stroke-opacity="1" stroke-miterlimit="4" d="M 25 665 L 775 665 L 405 15 Z M 25 665 " transform="matrix(0.1, 0, 0, -0.1, 0, 68)"/>
<path fill="none" stroke-width="1.25" stroke-linecap="butt" stroke-linejoin="miter" stroke="rgb(0%, 0%, 0%)" stroke-opacity="1" stroke-miterlimit="4" d="M 965 665 L 1215 665 L 1345 445 L 1465 665 L 1715 665 L 1595 445 L 1345 445 L 1465 225 L 1345 15 L 1215 225 L 1345 445 L 1095 445 Z M 965 665 " transform="matrix(0.1, 0, 0, -0.1, 0, 68)"/>
<path fill="none" stroke-width="1.25" stroke-linecap="butt" stroke-linejoin="miter" stroke="rgb(0%, 0%, 0%)" stroke-opacity="1" stroke-miterlimit="4" d="M 1905 665 L 1985 665 L 2025 585 L 2075 665 L 2155 665 L 2195 585 L 2155 515 L 2235 515 L 2275 445 L 2325 515 L 2405 515 L 2365 585 L 2405 665 L 2485 665 L 2525 585 L 2575 665 L 2655 665 L 2615 585 L 2525 585 L 2575 515 L 2525 445 L 2445 445 L 2405 515 L 2365 445 L 2275 445 L 2325 375 L 2275 295 L 2365 295 L 2405 225 L 2365 155 L 2275 155 L 2325 85 L 2275 15 L 2235 85 L 2275 155 L 2195 155 L 2155 225 L 2195 295 L 2275 295 L 2235 375 L 2275 445 L 2195 445 L 2155 515 L 2115 445 L 2025 445 L 1985 515 L 2025 585 L 1945 585 Z M 1905 665 " transform="matrix(0.1, 0, 0, -0.1, 0, 68)"/>
<path fill="none" stroke-width="1.25" stroke-linecap="butt" stroke-linejoin="miter" stroke="rgb(0%, 0%, 0%)" stroke-opacity="1" stroke-miterlimit="4" d="M 2845 665 L 2865 665 L 2885 635 L 2895 665 L 2925 665 L 2935 635 L 2925 615 L 2955 615 L 2965 585 L 2985 615 L 3005 615 L 2995 635 L 3005 665 L 3035 665 L 3045 635 L 3065 665 L 3095 665 L 3105 635 L 3095 615 L 3115 615 L 3135 585 L 3115 565 L 3095 565 L 3105 535 L 3095 515 L 3115 515 L 3135 495 L 3145 515 L 3175 515 L 3185 495 L 3175 465 L 3205 465 L 3215 445 L 3235 465 L 3255 465 L 3245 495 L 3255 515 L 3285 515 L 3295 495 L 3315 515 L 3345 515 L 3325 535 L 3345 565 L 3315 565 L 3295 585 L 3315 615 L 3345 615 L 3325 635 L 3345 665 L 3365 665 L 3385 635 L 3395 665 L 3425 665 L 3435 635 L 3425 615 L 3455 615 L 3465 585 L 3485 615 L 3505 615 L 3495 635 L 3505 665 L 3535 665 L 3545 635 L 3565 665 L 3595 665 L 3575 635 L 3545 635 L 3565 615 L 3545 585 L 3525 585 L 3505 615 L 3495 585 L 3465 585 L 3485 565 L 3465 535 L 3495 535 L 3505 515 L 3495 495 L 3465 495 L 3485 465 L 3465 445 L 3435 445 L 3425 465 L 3415 445 L 3385 445 L 3365 465 L 3385 495 L 3355 495 L 3345 515 L 3325 495 L 3295 495 L 3315 465 L 3295 445 L 3275 445 L 3255 465 L 3245 445 L 3215 445 L 3235 415 L 3215 395 L 3245 395 L 3255 375 L 3245 345 L 3215 345 L 3235 325 L 3215 295 L 3245 295 L 3255 275 L 3275 295 L 3295 295 L 3315 275 L 3295 255 L 3325 255 L 3345 225 L 3325 205 L 3295 205 L 3315 175 L 3295 155 L 3275 155 L 3255 175 L 3245 155 L 3215 155 L 3235 135 L 3215 105 L 3245 105 L 3255 85 L 3245 55 L 3215 55 L 3235 35 L 3215 15 L 3205 35 L 3215 55 L 3185 55 L 3175 85 L 3185 105 L 3215 105 L 3205 135 L 3215 155 L 3185 155 L 3175 175 L 3165 155 L 3135 155 L 3115 175 L 3135 205 L 3105 205 L 3095 225 L 3105 255 L 3135 255 L 3115 275 L 3135 295 L 3165 295 L 3175 275 L 3185 295 L 3215 295 L 3205 325 L 3215 345 L 3185 345 L 3175 375 L 3185 395 L 3215 395 L 3205 415 L 3215 445 L 3185 445 L 3175 465 L 3165 445 L 3135 445 L 3115 465 L 3135 495 L 3105 495 L 3095 515 L 3075 495 L 3045 495 L 3065 465 L 3045 445 L 3025 445 L 3005 465 L 2995 445 L 2965 445 L 2955 465 L 2965 495 L 2935 495 L 2925 515 L 2935 535 L 2965 535 L 2955 565 L 2965 585 L 2935 585 L 2925 615 L 2915 585 L 2885 585 L 2865 615 L 2885 635 L 2855 635 Z M 2845 665 " transform="matrix(0.1, 0, 0, -0.1, 0, 68)"/>
</svg>
