<?xml version="1.0" encoding="UTF-8"?>
<svg xmlns="http://www.w3.org/2000/svg" xmlns:xlink="http://www.w3.org/1999/xlink" width="500" height="244.13" viewBox="0 0 500 244.13">
<path fill="none" stroke-width="5" stroke-linecap="round" stroke-linejoin="round" stroke="rgb(0%, 0%, 0%)" stroke-opacity="1" stroke-miterlimit="10" d="M 433.560469 372.077147 L 337.712297 372.077147 L 337.712297 180.341603 L 433.560469 180.341603 L 433.560469 84.493432 L 625.296013 84.493432 L 625.296013 180.341603 L 625.296013 84.493432 L 816.992356 84.493432 L 816.992356 180.341603 L 912.840527 180.341603 L 912.840527 372.077147 L 816.992356 372.077147 L 816.992356 276.189774 L 1008.688698 276.189774 L 1008.688698 372.077147 L 1104.576071 372.077147 L 1104.576071 563.77349 L 1008.688698 563.77349 L 1104.576071 563.77349 L 1104.576071 755.469833 L 1008.688698 755.469833 L 1008.688698 851.357206 L 816.992356 851.357206 L 816.992356 755.469833 L 912.840527 755.469833 L 912.840527 947.205377 L 816.992356 947.205377 L 816.992356 1043.053548 L 625.296013 1043.053548 L 625.296013 947.205377 L 625.296013 1043.053548 L 433.560469 1043.053548 L 433.560469 947.205377 L 337.712297 947.205377 L 337.712297 755.469833 L 433.560469 755.469833 L 433.560469 851.357206 " transform="matrix(0.0996449, 0, 0, -0.0996449, 0.887755, 243.263089)"/>
<path fill="none" stroke-width="5" stroke-linecap="round" stroke-linejoin="round" stroke="rgb(0%, 0%, 0%)" stroke-opacity="1" stroke-miterlimit="10" d="M 433.560469 851.357206 L 241.864126 851.357206 L 241.864126 755.469833 L 145.976753 755.469833 L 145.976753 563.77349 L 241.864126 563.77349 L 145.976753 563.77349 L 145.976753 372.077147 L 241.864126 372.077147 L 241.864126 276.189774 L 433.560469 276.189774 L 433.560469 372.077147 " transform="matrix(0.0996449, 0, 0, -0.0996449, 0.887755, 243.263089)"/>
<path fill="none" stroke-width="5" stroke-linecap="round" stroke-linejoin="round" stroke="rgb(0%, 0%, 0%)" stroke-opacity="1" stroke-miterlimit="10" d="M 1684.761321 405.398598 L 1638.934526 451.225392 L 1593.06853 405.398598 L 1547.241736 359.571803 L 1593.06853 313.705807 L 1547.241736 267.879013 L 1593.06853 222.013017 L 1638.934526 176.186222 L 1684.761321 222.013017 L 1638.934526 176.186222 L 1684.761321 130.320226 L 1730.627317 84.493432 L 1776.454111 130.320226 L 1822.280906 84.493432 L 1868.146902 130.320226 L 1913.973696 176.186222 L 1868.146902 222.013017 L 1822.280906 176.186222 L 1913.973696 84.493432 L 1959.839692 130.320226 L 2005.666487 84.493432 L 2051.532483 130.320226 L 2097.398479 176.186222 L 2051.532483 222.013017 L 2097.398479 176.186222 L 2143.225273 222.013017 L 2189.052068 267.879013 L 2143.225273 313.705807 L 2189.052068 359.571803 L 2097.398479 451.225392 L 2005.666487 359.571803 L 2051.532483 313.705807 L 2097.398479 267.879013 L 2143.225273 313.705807 L 2189.052068 267.879013 L 2234.918064 313.705807 L 2280.744858 359.571803 L 2234.918064 405.398598 L 2280.744858 359.571803 L 2326.571652 405.398598 L 2372.437648 451.225392 L 2326.571652 497.091388 L 2372.437648 542.918182 L 2280.744858 634.610973 L 2234.918064 588.784179 L 2280.744858 542.918182 " transform="matrix(0.0996449, 0, 0, -0.0996449, 0.887755, 243.263089)"/>
<path fill="none" stroke-width="5" stroke-linecap="round" stroke-linejoin="round" stroke="rgb(0%, 0%, 0%)" stroke-opacity="1" stroke-miterlimit="10" d="M 2280.744858 542.918182 L 2326.571652 588.784179 L 2372.437648 634.610973 L 2326.571652 680.476969 L 2372.437648 726.303763 L 2280.744858 817.996554 L 2234.918064 772.169759 L 2280.744858 817.996554 L 2189.052068 909.689344 L 2143.225273 863.823348 L 2097.398479 909.689344 L 2051.532483 863.823348 L 2005.666487 817.996554 L 2051.532483 772.169759 L 2097.398479 726.303763 L 2143.225273 772.169759 L 2189.052068 817.996554 L 2143.225273 863.823348 L 2189.052068 909.689344 L 2143.225273 955.516139 L 2097.398479 1001.382135 L 2051.532483 955.516139 L 2097.398479 1001.382135 L 2051.532483 1047.208929 L 2005.666487 1093.074925 L 1959.839692 1047.208929 L 1913.973696 1093.074925 L 1868.146902 1047.208929 L 1822.280906 1001.382135 L 1868.146902 955.516139 L 1913.973696 1001.382135 L 1822.280906 1093.074925 L 1776.454111 1047.208929 L 1730.627317 1093.074925 L 1638.934526 1001.382135 L 1684.761321 955.516139 L 1638.934526 1001.382135 L 1547.241736 909.689344 L 1593.06853 863.823348 L 1547.241736 817.996554 L 1638.934526 726.303763 L 1684.761321 772.169759 L 1730.627317 817.996554 L 1684.761321 863.823348 L 1638.934526 909.689344 " transform="matrix(0.0996449, 0, 0, -0.0996449, 0.887755, 243.263089)"/>
<path fill="none" stroke-width="5" stroke-linecap="round" stroke-linejoin="round" stroke="rgb(0%, 0%, 0%)" stroke-opacity="1" stroke-miterlimit="10" d="M 1638.934526 909.689344 L 1593.06853 863.823348 L 1547.241736 909.689344 L 1455.548945 817.996554 L 1501.37574 772.169759 L 1455.548945 817.996554 L 1409.682949 772.169759 L 1363.856155 726.303763 L 1409.682949 680.476969 L 1363.856155 634.610973 L 1455.548945 542.918182 L 1501.37574 588.784179 L 1455.548945 634.610973 L 1409.682949 588.784179 L 1363.856155 542.918182 L 1409.682949 497.091388 L 1363.856155 451.225392 L 1409.682949 405.398598 L 1455.548945 359.571803 L 1501.37574 405.398598 L 1455.548945 359.571803 L 1501.37574 313.705807 L 1547.241736 267.879013 L 1593.06853 313.705807 L 1638.934526 267.879013 L 1730.627317 359.571803 L 1684.761321 405.398598 " transform="matrix(0.0996449, 0, 0, -0.0996449, 0.887755, 243.263089)"/>
<path fill="none" stroke-width="5" stroke-linecap="round" stroke-linejoin="round" stroke="rgb(0%, 0%, 0%)" stroke-opacity="1" stroke-miterlimit="10" d="M 2902.640723 405.398598 L 2902.640723 451.225392 L 2810.947932 451.225392 L 2810.947932 405.398598 L 2765.081936 405.398598 L 2765.081936 313.705807 L 2810.947932 313.705807 L 2765.081936 313.705807 L 2765.081936 222.013017 L 2810.947932 222.013017 L 2810.947932 176.186222 L 2902.640723 176.186222 L 2902.640723 222.013017 L 2856.774727 222.013017 L 2856.774727 130.320226 L 2902.640723 130.320226 L 2902.640723 84.493432 L 2994.333513 84.493432 L 2994.333513 130.320226 L 2994.333513 84.493432 L 3086.026304 84.493432 L 3086.026304 130.320226 L 3131.853098 130.320226 L 3131.853098 222.013017 L 3040.160308 222.013017 L 3040.160308 130.320226 L 3086.026304 130.320226 L 3086.026304 84.493432 L 3177.719094 84.493432 L 3177.719094 130.320226 L 3177.719094 84.493432 L 3269.372683 84.493432 L 3269.372683 130.320226 L 3315.238679 130.320226 L 3315.238679 222.013017 L 3269.372683 222.013017 L 3269.372683 176.186222 " transform="matrix(0.0996449, 0, 0, -0.0996449, 0.887755, 243.263089)"/>
<path fill="none" stroke-width="5" stroke-linecap="round" stroke-linejoin="round" stroke="rgb(0%, 0%, 0%)" stroke-opacity="1" stroke-miterlimit="10" d="M 3269.372683 176.186222 L 3361.065474 176.186222 L 3361.065474 222.013017 L 3406.93147 222.013017 L 3406.93147 313.705807 L 3361.065474 313.705807 L 3406.93147 313.705807 L 3406.93147 405.398598 L 3361.065474 405.398598 L 3361.065474 451.225392 L 3269.372683 451.225392 L 3269.372683 405.398598 L 3223.545889 405.398598 L 3223.545889 313.705807 L 3269.372683 313.705807 L 3269.372683 267.879013 L 3361.065474 267.879013 L 3361.065474 313.705807 L 3361.065474 267.879013 L 3452.758264 267.879013 L 3452.758264 313.705807 L 3498.62426 313.705807 L 3498.62426 405.398598 L 3452.758264 405.398598 L 3452.758264 359.571803 L 3544.451055 359.571803 L 3544.451055 405.398598 L 3590.317051 405.398598 L 3590.317051 497.091388 L 3544.451055 497.091388 L 3590.317051 497.091388 L 3590.317051 588.784179 L 3544.451055 588.784179 L 3544.451055 634.610973 L 3452.758264 634.610973 L 3452.758264 542.918182 L 3544.451055 542.918182 " transform="matrix(0.0996449, 0, 0, -0.0996449, 0.887755, 243.263089)"/>
<path fill="none" stroke-width="5" stroke-linecap="round" stroke-linejoin="round" stroke="rgb(0%, 0%, 0%)" stroke-opacity="1" stroke-miterlimit="10" d="M 3544.451055 542.918182 L 3544.451055 588.784179 L 3590.317051 588.784179 L 3590.317051 680.476969 L 3544.451055 680.476969 L 3590.317051 680.476969 L 3590.317051 772.169759 L 3544.451055 772.169759 L 3544.451055 817.996554 L 3452.758264 817.996554 L 3452.758264 772.169759 L 3498.62426 772.169759 L 3498.62426 863.823348 L 3452.758264 863.823348 L 3452.758264 909.689344 L 3361.065474 909.689344 L 3361.065474 863.823348 L 3361.065474 909.689344 L 3269.372683 909.689344 L 3269.372683 863.823348 L 3223.545889 863.823348 L 3223.545889 772.169759 L 3269.372683 772.169759 L 3269.372683 726.303763 L 3361.065474 726.303763 L 3361.065474 772.169759 L 3406.93147 772.169759 L 3406.93147 863.823348 L 3361.065474 863.823348 L 3406.93147 863.823348 L 3406.93147 955.516139 L 3361.065474 955.516139 L 3361.065474 1001.382135 L 3269.372683 1001.382135 L 3269.372683 955.516139 L 3315.238679 955.516139 L 3315.238679 1047.208929 L 3269.372683 1047.208929 L 3269.372683 1093.074925 " transform="matrix(0.0996449, 0, 0, -0.0996449, 0.887755, 243.263089)"/>
<path fill="none" stroke-width="5" stroke-linecap="round" stroke-linejoin="round" stroke="rgb(0%, 0%, 0%)" stroke-opacity="1" stroke-miterlimit="10" d="M 3269.372683 1093.074925 L 3177.719094 1093.074925 L 3177.719094 1047.208929 L 3177.719094 1093.074925 L 3086.026304 1093.074925 L 3086.026304 1047.208929 L 3040.160308 1047.208929 L 3040.160308 955.516139 L 3131.853098 955.516139 L 3131.853098 1047.208929 L 3086.026304 1047.208929 L 3086.026304 1093.074925 L 2994.333513 1093.074925 L 2994.333513 1047.208929 L 2994.333513 1093.074925 L 2902.640723 1093.074925 L 2902.640723 1047.208929 L 2856.774727 1047.208929 L 2856.774727 955.516139 L 2902.640723 955.516139 L 2902.640723 1001.382135 L 2810.947932 1001.382135 L 2810.947932 955.516139 L 2765.081936 955.516139 L 2765.081936 863.823348 L 2810.947932 863.823348 L 2765.081936 863.823348 L 2765.081936 772.169759 L 2810.947932 772.169759 L 2810.947932 726.303763 L 2902.640723 726.303763 L 2902.640723 772.169759 L 2948.467517 772.169759 L 2948.467517 863.823348 L 2902.640723 863.823348 L 2902.640723 909.689344 L 2810.947932 909.689344 " transform="matrix(0.0996449, 0, 0, -0.0996449, 0.887755, 243.263089)"/>
<path fill="none" stroke-width="5" stroke-linecap="round" stroke-linejoin="round" stroke="rgb(0%, 0%, 0%)" stroke-opacity="1" stroke-miterlimit="10" d="M 2810.947932 909.689344 L 2810.947932 863.823348 L 2810.947932 909.689344 L 2719.255142 909.689344 L 2719.255142 863.823348 L 2673.428348 863.823348 L 2673.428348 772.169759 L 2719.255142 772.169759 L 2719.255142 817.996554 L 2627.562352 817.996554 L 2627.562352 772.169759 L 2581.735557 772.169759 L 2581.735557 680.476969 L 2627.562352 680.476969 L 2581.735557 680.476969 L 2581.735557 588.784179 L 2627.562352 588.784179 L 2627.562352 542.918182 L 2719.255142 542.918182 L 2719.255142 634.610973 L 2627.562352 634.610973 L 2627.562352 588.784179 L 2581.735557 588.784179 L 2581.735557 497.091388 L 2627.562352 497.091388 L 2581.735557 497.091388 L 2581.735557 405.398598 L 2627.562352 405.398598 L 2627.562352 359.571803 L 2719.255142 359.571803 L 2719.255142 405.398598 L 2673.428348 405.398598 L 2673.428348 313.705807 L 2719.255142 313.705807 L 2719.255142 267.879013 L 2810.947932 267.879013 L 2810.947932 313.705807 L 2810.947932 267.879013 " transform="matrix(0.0996449, 0, 0, -0.0996449, 0.887755, 243.263089)"/>
<path fill="none" stroke-width="5" stroke-linecap="round" stroke-linejoin="round" stroke="rgb(0%, 0%, 0%)" stroke-opacity="1" stroke-miterlimit="10" d="M 2810.947932 267.879013 L 2902.640723 267.879013 L 2902.640723 313.705807 L 2948.467517 313.705807 L 2948.467517 405.398598 L 2902.640723 405.398598 " transform="matrix(0.0996449, 0, 0, -0.0996449, 0.887755, 243.263089)"/>
<path fill="none" stroke-width="5" stroke-linecap="round" stroke-linejoin="round" stroke="rgb(0%, 0%, 0%)" stroke-opacity="1" stroke-miterlimit="10" d="M 4136.083202 421.000877 L 4158.54578 443.424252 L 4113.659826 488.310206 L 4091.236451 465.88683 L 4068.813075 488.310206 L 4046.350497 465.88683 L 4023.927121 443.424252 L 4046.350497 421.000877 L 4023.927121 443.424252 L 4001.503745 421.000877 L 3979.041168 398.577501 L 4001.503745 376.114923 L 3979.041168 353.691547 L 4001.503745 331.268171 L 4023.927121 308.844796 L 4046.350497 331.268171 L 4023.927121 353.691547 L 4001.503745 331.268171 L 3979.041168 308.844796 L 4001.503745 286.382218 L 3979.041168 263.958842 L 4001.503745 241.535466 L 4023.927121 219.11209 L 4046.350497 241.535466 L 4023.927121 219.11209 L 4046.350497 196.649513 L 4068.813075 174.226137 L 4091.236451 196.649513 L 4113.659826 174.226137 L 4158.54578 219.11209 L 4136.083202 241.535466 L 4113.659826 263.958842 L 4068.813075 219.11209 L 4091.236451 196.649513 L 4068.813075 174.226137 L 4113.659826 129.379385 L 4136.083202 151.802761 L 4113.659826 129.379385 L 4136.083202 106.916808 L 4158.54578 84.493432 L 4180.969156 106.916808 L 4203.392532 84.493432 L 4248.278485 129.379385 L 4225.815908 151.802761 L 4203.392532 129.379385 " transform="matrix(0.0996449, 0, 0, -0.0996449, 0.887755, 243.263089)"/>
<path fill="none" stroke-width="5" stroke-linecap="round" stroke-linejoin="round" stroke="rgb(0%, 0%, 0%)" stroke-opacity="1" stroke-miterlimit="10" d="M 4203.392532 129.379385 L 4225.815908 106.916808 L 4248.278485 84.493432 L 4270.701861 106.916808 L 4293.125237 84.493432 L 4315.587814 106.916808 L 4338.01119 129.379385 L 4315.587814 151.802761 L 4338.01119 129.379385 L 4360.434566 151.802761 L 4382.897144 174.226137 L 4360.434566 196.649513 L 4382.897144 219.11209 L 4360.434566 241.535466 L 4338.01119 263.958842 L 4315.587814 241.535466 L 4293.125237 263.958842 L 4248.278485 219.11209 L 4270.701861 196.649513 L 4248.278485 174.226137 L 4293.125237 129.379385 L 4315.587814 151.802761 L 4293.125237 129.379385 L 4338.01119 84.493432 L 4360.434566 106.916808 L 4382.897144 84.493432 L 4405.32052 106.916808 L 4427.743895 129.379385 L 4405.32052 151.802761 L 4382.897144 129.379385 L 4405.32052 106.916808 L 4427.743895 84.493432 L 4450.167271 106.916808 L 4472.629849 84.493432 L 4495.053225 106.916808 L 4517.476601 129.379385 L 4495.053225 151.802761 L 4517.476601 129.379385 L 4539.939178 151.802761 L 4562.362554 174.226137 L 4539.939178 196.649513 L 4562.362554 219.11209 L 4539.939178 241.535466 L 4517.476601 263.958842 L 4472.629849 219.11209 L 4495.053225 196.649513 L 4517.476601 174.226137 " transform="matrix(0.0996449, 0, 0, -0.0996449, 0.887755, 243.263089)"/>
<path fill="none" stroke-width="5" stroke-linecap="round" stroke-linejoin="round" stroke="rgb(0%, 0%, 0%)" stroke-opacity="1" stroke-miterlimit="10" d="M 4517.476601 174.226137 L 4539.939178 196.649513 L 4562.362554 174.226137 L 4584.78593 196.649513 L 4607.209306 219.11209 L 4584.78593 241.535466 L 4607.209306 219.11209 L 4629.671883 241.535466 L 4652.095259 263.958842 L 4629.671883 286.382218 L 4652.095259 308.844796 L 4629.671883 331.268171 L 4607.209306 353.691547 L 4584.78593 331.268171 L 4607.209306 308.844796 L 4629.671883 331.268171 L 4652.095259 353.691547 L 4629.671883 376.114923 L 4652.095259 398.577501 L 4629.671883 421.000877 L 4607.209306 443.424252 L 4584.78593 421.000877 L 4607.209306 443.424252 L 4584.78593 465.88683 L 4562.362554 488.310206 L 4539.939178 465.88683 L 4517.476601 488.310206 L 4495.053225 465.88683 L 4472.629849 443.424252 L 4495.053225 421.000877 L 4472.629849 443.424252 L 4450.167271 421.000877 L 4427.743895 398.577501 L 4450.167271 376.114923 L 4427.743895 353.691547 L 4450.167271 331.268171 L 4472.629849 308.844796 L 4495.053225 331.268171 L 4472.629849 308.844796 L 4495.053225 286.382218 L 4517.476601 263.958842 L 4539.939178 286.382218 L 4562.362554 263.958842 L 4584.78593 286.382218 L 4607.209306 308.844796 L 4584.78593 331.268171 L 4562.362554 308.844796 L 4584.78593 286.382218 L 4607.209306 263.958842 L 4629.671883 286.382218 L 4652.095259 263.958842 " transform="matrix(0.0996449, 0, 0, -0.0996449, 0.887755, 243.263089)"/>
<path fill="none" stroke-width="5" stroke-linecap="round" stroke-linejoin="round" stroke="rgb(0%, 0%, 0%)" stroke-opacity="1" stroke-miterlimit="10" d="M 4652.095259 263.958842 L 4696.981213 308.844796 L 4674.518635 331.268171 L 4696.981213 308.844796 L 4741.827964 353.691547 L 4719.404588 376.114923 L 4741.827964 398.577501 L 4696.981213 443.424252 L 4674.518635 421.000877 L 4652.095259 398.577501 L 4674.518635 376.114923 L 4696.981213 353.691547 L 4719.404588 376.114923 L 4741.827964 353.691547 L 4786.713918 398.577501 L 4764.25134 421.000877 L 4786.713918 398.577501 L 4831.56067 443.424252 L 4809.137294 465.88683 L 4831.56067 488.310206 L 4809.137294 510.733582 L 4786.713918 533.196159 L 4764.25134 510.733582 L 4786.713918 488.310206 L 4809.137294 510.733582 L 4831.56067 533.196159 L 4809.137294 555.619535 L 4831.56067 578.042911 L 4809.137294 600.466287 L 4786.713918 622.928864 L 4764.25134 600.466287 L 4786.713918 622.928864 L 4764.25134 645.35224 L 4741.827964 667.775616 L 4719.404588 645.35224 L 4696.981213 667.775616 L 4674.518635 645.35224 L 4652.095259 622.928864 L 4674.518635 600.466287 L 4652.095259 578.042911 L 4674.518635 555.619535 L 4696.981213 533.196159 L 4719.404588 555.619535 L 4741.827964 533.196159 L 4764.25134 555.619535 L 4786.713918 578.042911 " transform="matrix(0.0996449, 0, 0, -0.0996449, 0.887755, 243.263089)"/>
<path fill="none" stroke-width="5" stroke-linecap="round" stroke-linejoin="round" stroke="rgb(0%, 0%, 0%)" stroke-opacity="1" stroke-miterlimit="10" d="M 4786.713918 578.042911 L 4764.25134 600.466287 L 4786.713918 578.042911 L 4809.137294 600.466287 L 4831.56067 622.928864 L 4809.137294 645.35224 L 4831.56067 667.775616 L 4809.137294 690.238194 L 4786.713918 712.66157 L 4764.25134 690.238194 L 4786.713918 667.775616 L 4809.137294 690.238194 L 4831.56067 712.66157 L 4809.137294 735.084946 L 4831.56067 757.508321 L 4809.137294 779.970899 L 4786.713918 802.394275 L 4764.25134 779.970899 L 4786.713918 802.394275 L 4764.25134 824.817651 L 4741.827964 847.280228 L 4719.404588 824.817651 L 4696.981213 847.280228 L 4652.095259 802.394275 L 4696.981213 757.508321 L 4719.404588 779.970899 L 4741.827964 802.394275 L 4719.404588 824.817651 L 4741.827964 847.280228 L 4696.981213 892.12698 L 4674.518635 869.703604 L 4696.981213 892.12698 L 4652.095259 937.012933 L 4629.671883 914.589558 L 4607.209306 937.012933 L 4584.78593 914.589558 L 4562.362554 892.12698 L 4584.78593 869.703604 L 4607.209306 892.12698 L 4584.78593 914.589558 L 4562.362554 937.012933 L 4539.939178 914.589558 L 4517.476601 937.012933 L 4495.053225 914.589558 L 4472.629849 892.12698 L 4495.053225 869.703604 L 4472.629849 892.12698 " transform="matrix(0.0996449, 0, 0, -0.0996449, 0.887755, 243.263089)"/>
<path fill="none" stroke-width="5" stroke-linecap="round" stroke-linejoin="round" stroke="rgb(0%, 0%, 0%)" stroke-opacity="1" stroke-miterlimit="10" d="M 4472.629849 892.12698 L 4450.167271 869.703604 L 4427.743895 847.280228 L 4450.167271 824.817651 L 4427.743895 802.394275 L 4472.629849 757.508321 L 4495.053225 779.970899 L 4472.629849 757.508321 L 4517.476601 712.66157 L 4539.939178 735.084946 L 4562.362554 712.66157 L 4607.209306 757.508321 L 4584.78593 779.970899 L 4607.209306 757.508321 L 4652.095259 802.394275 L 4629.671883 824.817651 L 4652.095259 847.280228 L 4629.671883 869.703604 L 4607.209306 892.12698 L 4584.78593 869.703604 L 4607.209306 847.280228 L 4629.671883 869.703604 L 4652.095259 892.12698 L 4629.671883 914.589558 L 4652.095259 937.012933 L 4629.671883 959.436309 L 4607.209306 981.859685 L 4584.78593 959.436309 L 4607.209306 981.859685 L 4584.78593 1004.283061 L 4562.362554 1026.745639 L 4539.939178 1004.283061 L 4517.476601 1026.745639 L 4495.053225 1004.283061 L 4472.629849 981.859685 L 4517.476601 937.012933 L 4539.939178 959.436309 L 4562.362554 981.859685 L 4539.939178 1004.283061 L 4562.362554 1026.745639 L 4539.939178 1049.169014 L 4517.476601 1071.59239 L 4495.053225 1049.169014 L 4517.476601 1071.59239 L 4495.053225 1094.054968 L 4472.629849 1116.478344 " transform="matrix(0.0996449, 0, 0, -0.0996449, 0.887755, 243.263089)"/>
<path fill="none" stroke-width="5" stroke-linecap="round" stroke-linejoin="round" stroke="rgb(0%, 0%, 0%)" stroke-opacity="1" stroke-miterlimit="10" d="M 4472.629849 1116.478344 L 4450.167271 1094.054968 L 4427.743895 1116.478344 L 4405.32052 1094.054968 L 4382.897144 1071.59239 L 4405.32052 1049.169014 L 4427.743895 1071.59239 L 4405.32052 1094.054968 L 4382.897144 1116.478344 L 4360.434566 1094.054968 L 4338.01119 1116.478344 L 4293.125237 1071.59239 L 4315.587814 1049.169014 L 4293.125237 1071.59239 L 4248.278485 1026.745639 L 4270.701861 1004.283061 L 4248.278485 981.859685 L 4293.125237 937.012933 L 4315.587814 959.436309 L 4338.01119 937.012933 L 4360.434566 959.436309 L 4382.897144 981.859685 L 4360.434566 1004.283061 L 4382.897144 1026.745639 L 4360.434566 1049.169014 L 4338.01119 1071.59239 L 4315.587814 1049.169014 L 4338.01119 1071.59239 L 4315.587814 1094.054968 L 4293.125237 1116.478344 L 4270.701861 1094.054968 L 4248.278485 1116.478344 L 4225.815908 1094.054968 L 4203.392532 1071.59239 L 4225.815908 1049.169014 L 4248.278485 1071.59239 L 4203.392532 1116.478344 L 4180.969156 1094.054968 L 4158.54578 1116.478344 L 4136.083202 1094.054968 L 4113.659826 1071.59239 L 4136.083202 1049.169014 L 4113.659826 1071.59239 L 4068.813075 1026.745639 L 4091.236451 1004.283061 L 4068.813075 981.859685 " transform="matrix(0.0996449, 0, 0, -0.0996449, 0.887755, 243.263089)"/>
<path fill="none" stroke-width="5" stroke-linecap="round" stroke-linejoin="round" stroke="rgb(0%, 0%, 0%)" stroke-opacity="1" stroke-miterlimit="10" d="M 4068.813075 981.859685 L 4113.659826 937.012933 L 4136.083202 959.436309 L 4158.54578 981.859685 L 4136.083202 1004.283061 L 4113.659826 1026.745639 L 4091.236451 1004.283061 L 4068.813075 1026.745639 L 4023.927121 981.859685 L 4046.350497 959.436309 L 4023.927121 981.859685 L 4001.503745 959.436309 L 3979.041168 937.012933 L 4001.503745 914.589558 L 3979.041168 892.12698 L 4001.503745 869.703604 L 4023.927121 847.280228 L 4046.350497 869.703604 L 4023.927121 892.12698 L 4001.503745 869.703604 L 3979.041168 847.280228 L 4001.503745 824.817651 L 3979.041168 802.394275 L 4001.503745 779.970899 L 4023.927121 757.508321 L 4046.350497 779.970899 L 4023.927121 757.508321 L 4046.350497 735.084946 L 4068.813075 712.66157 L 4091.236451 735.084946 L 4113.659826 712.66157 L 4136.083202 735.084946 L 4158.54578 757.508321 L 4136.083202 779.970899 L 4158.54578 757.508321 L 4180.969156 779.970899 L 4203.392532 802.394275 L 4180.969156 824.817651 L 4203.392532 847.280228 L 4158.54578 892.12698 L 4136.083202 869.703604 L 4158.54578 892.12698 L 4113.659826 937.012933 L 4091.236451 914.589558 L 4068.813075 937.012933 L 4046.350497 914.589558 L 4023.927121 892.12698 " transform="matrix(0.0996449, 0, 0, -0.0996449, 0.887755, 243.263089)"/>
<path fill="none" stroke-width="5" stroke-linecap="round" stroke-linejoin="round" stroke="rgb(0%, 0%, 0%)" stroke-opacity="1" stroke-miterlimit="10" d="M 4023.927121 892.12698 L 4046.350497 869.703604 L 4068.813075 892.12698 L 4023.927121 937.012933 L 4001.503745 914.589558 L 3979.041168 937.012933 L 3956.617792 914.589558 L 3934.194416 892.12698 L 3956.617792 869.703604 L 3934.194416 892.12698 L 3911.77104 869.703604 L 3889.308463 847.280228 L 3911.77104 824.817651 L 3889.308463 802.394275 L 3911.77104 779.970899 L 3934.194416 757.508321 L 3956.617792 779.970899 L 3979.041168 802.394275 L 3956.617792 824.817651 L 3934.194416 847.280228 L 3911.77104 824.817651 L 3889.308463 847.280228 L 3866.885087 824.817651 L 3844.461711 802.394275 L 3866.885087 779.970899 L 3844.461711 802.394275 L 3799.575758 757.508321 L 3822.038335 735.084946 L 3799.575758 712.66157 L 3822.038335 690.238194 L 3844.461711 667.775616 L 3866.885087 690.238194 L 3844.461711 712.66157 L 3799.575758 667.775616 L 3822.038335 645.35224 L 3799.575758 622.928864 L 3844.461711 578.042911 L 3866.885087 600.466287 L 3844.461711 578.042911 L 3889.308463 533.196159 L 3911.77104 555.619535 L 3934.194416 533.196159 L 3979.041168 578.042911 L 3956.617792 600.466287 L 3979.041168 622.928864 " transform="matrix(0.0996449, 0, 0, -0.0996449, 0.887755, 243.263089)"/>
<path fill="none" stroke-width="5" stroke-linecap="round" stroke-linejoin="round" stroke="rgb(0%, 0%, 0%)" stroke-opacity="1" stroke-miterlimit="10" d="M 3979.041168 622.928864 L 3934.194416 667.775616 L 3911.77104 645.35224 L 3889.308463 667.775616 L 3844.461711 622.928864 L 3866.885087 600.466287 L 3844.461711 622.928864 L 3822.038335 600.466287 L 3799.575758 578.042911 L 3822.038335 555.619535 L 3799.575758 533.196159 L 3844.461711 488.310206 L 3866.885087 510.733582 L 3844.461711 533.196159 L 3822.038335 510.733582 L 3799.575758 488.310206 L 3822.038335 465.88683 L 3799.575758 443.424252 L 3822.038335 421.000877 L 3844.461711 398.577501 L 3866.885087 421.000877 L 3844.461711 398.577501 L 3866.885087 376.114923 L 3889.308463 353.691547 L 3911.77104 376.114923 L 3934.194416 353.691547 L 3956.617792 376.114923 L 3979.041168 398.577501 L 3934.194416 443.424252 L 3911.77104 421.000877 L 3889.308463 398.577501 L 3911.77104 376.114923 L 3889.308463 353.691547 L 3911.77104 331.268171 L 3934.194416 308.844796 L 3956.617792 331.268171 L 3934.194416 308.844796 L 3956.617792 286.382218 L 3979.041168 263.958842 L 4001.503745 286.382218 L 4023.927121 263.958842 L 4068.813075 308.844796 L 4046.350497 331.268171 L 4023.927121 308.844796 L 4046.350497 286.382218 L 4068.813075 263.958842 " transform="matrix(0.0996449, 0, 0, -0.0996449, 0.887755, 243.263089)"/>
<path fill="none" stroke-width="5" stroke-linecap="round" stroke-linejoin="round" stroke="rgb(0%, 0%, 0%)" stroke-opacity="1" stroke-miterlimit="10" d="M 4068.813075 263.958842 L 4091.236451 286.382218 L 4113.659826 263.958842 L 4158.54578 308.844796 L 4136.083202 331.268171 L 4158.54578 308.844796 L 4203.392532 353.691547 L 4180.969156 376.114923 L 4203.392532 398.577501 L 4158.54578 443.424252 L 4136.083202 421.000877 " transform="matrix(0.0996449, 0, 0, -0.0996449, 0.887755, 243.263089)"/>
<path fill="none" stroke-width="5" stroke-linecap="round" stroke-linejoin="round" stroke="rgb(0%, 0%, 0%)" stroke-opacity="1" stroke-miterlimit="10" d="M 145.976753 1302.333632 L 1200.424242 1302.333632 L 1200.424242 2356.781122 L 145.976753 2356.781122 L 145.976753 1302.333632 " transform="matrix(0.0996449, 0, 0, -0.0996449, 0.887755, 243.263089)"/>
<path fill="none" stroke-width="5" stroke-linecap="round" stroke-linejoin="round" stroke="rgb(0%, 0%, 0%)" stroke-opacity="1" stroke-miterlimit="10" d="M 1627.448427 1565.965105 L 1891.0799 1302.333632 L 2154.672171 1565.965105 L 2418.264443 1829.557377 L 2154.672171 2093.18885 L 1891.0799 2356.781122 L 1627.448427 2093.18885 L 1363.856155 1829.557377 L 1627.448427 1565.965105 " transform="matrix(0.0996449, 0, 0, -0.0996449, 0.887755, 243.263089)"/>
<path fill="none" stroke-width="5" stroke-linecap="round" stroke-linejoin="round" stroke="rgb(0%, 0%, 0%)" stroke-opacity="1" stroke-miterlimit="10" d="M 2845.327829 1565.965105 L 2845.327829 1302.333632 L 3372.551573 1302.333632 L 3372.551573 1565.965105 L 3636.143845 1565.965105 L 3636.143845 2093.18885 L 3372.551573 2093.18885 L 3372.551573 2356.781122 L 2845.327829 2356.781122 L 2845.327829 2093.18885 L 2581.735557 2093.18885 L 2581.735557 1565.965105 L 2845.327829 1565.965105 " transform="matrix(0.0996449, 0, 0, -0.0996449, 0.887755, 243.263089)"/>
<path fill="none" stroke-width="5" stroke-linecap="round" stroke-linejoin="round" stroke="rgb(0%, 0%, 0%)" stroke-opacity="1" stroke-miterlimit="10" d="M 4087.159473 1589.917348 L 3991.311302 1494.069177 L 4087.159473 1398.221005 L 4183.007644 1302.333632 L 4278.855816 1398.221005 L 4374.703987 1302.333632 L 4566.439531 1494.069177 L 4470.59136 1589.917348 L 4566.439531 1494.069177 L 4758.135874 1685.765519 L 4662.287703 1781.61369 L 4758.135874 1877.501063 L 4566.439531 2069.197406 L 4470.59136 1973.349235 L 4566.439531 2069.197406 L 4470.59136 2165.045577 L 4374.703987 2260.893749 L 4278.855816 2165.045577 L 4183.007644 2260.893749 L 3991.311302 2069.197406 L 4087.159473 1973.349235 L 3991.311302 2069.197406 L 3895.423929 1973.349235 L 3799.575758 1877.501063 L 3895.423929 1781.61369 L 3799.575758 1685.765519 L 3895.423929 1589.917348 L 3991.311302 1494.069177 L 4087.159473 1589.917348 " transform="matrix(0.0996449, 0, 0, -0.0996449, 0.887755, 243.263089)"/>
</svg>
