<?xml version="1.0" encoding="UTF-8"?>
<svg xmlns="http://www.w3.org/2000/svg" xmlns:xlink="http://www.w3.org/1999/xlink" width="499.63" height="92.5" viewBox="0 0 499.63 92.5">
<path fill="none" stroke-width="5" stroke-linecap="round" stroke-linejoin="round" stroke="rgb(0%, 0%, 0%)" stroke-opacity="1" stroke-miterlimit="10" d="M 140.571149 42.992399 L 979.574105 42.992399 L 979.574105 881.995355 L 140.571149 881.995355 L 140.571149 42.992399 " transform="matrix(0.0994624, 0, 0, -0.0994624, 1.159086, 92.002688)"/>
<path fill="none" stroke-width="5" stroke-linecap="round" stroke-linejoin="round" stroke="rgb(0%, 0%, 0%)" stroke-opacity="1" stroke-miterlimit="10" d="M 1208.735845 178.407939 L 1443.278074 42.992399 L 1578.654341 277.534628 L 1813.196571 142.119088 L 1948.572838 376.622044 L 1714.069882 512.037584 L 1849.485422 746.579814 L 1614.943193 881.995355 L 1479.527652 647.453125 L 1245.024696 782.868666 L 1109.609155 548.326436 L 1344.112111 412.910895 L 1208.735845 178.407939 " transform="matrix(0.0994624, 0, 0, -0.0994624, 1.159086, 92.002688)"/>
<path fill="none" stroke-width="5" stroke-linecap="round" stroke-linejoin="round" stroke="rgb(0%, 0%, 0%)" stroke-opacity="1" stroke-miterlimit="10" d="M 2156.526807 194.353041 L 2217.91152 87.960726 L 2324.303834 149.384713 L 2385.727821 42.992399 L 2492.080861 104.416385 L 2430.696149 210.808699 L 2537.049189 272.193412 L 2598.473176 165.840372 L 2704.86549 227.264358 L 2766.289476 120.872044 L 2872.642517 182.29603 L 2811.21853 288.688345 L 2917.610845 350.073057 L 2856.186858 456.465372 L 2749.794544 395.041385 L 2688.409831 501.433699 L 2794.762872 562.857686 L 2733.378159 669.210726 L 2839.731199 730.634713 L 2778.307213 837.027027 L 2671.954172 775.603041 L 2610.530186 881.995355 L 2504.137872 820.571368 L 2565.561858 714.179054 L 2459.208818 652.755068 L 2397.784831 759.147382 L 2291.392517 697.723395 L 2229.96853 804.115709 L 2123.61549 742.691723 L 2185.039476 636.299409 L 2078.647162 574.875422 L 2140.031875 468.522382 L 2246.424189 529.946368 L 2307.848176 423.554054 L 2201.455861 362.130068 L 2262.879848 255.737753 L 2156.526807 194.353041 " transform="matrix(0.0994624, 0, 0, -0.0994624, 1.159086, 92.002688)"/>
<path fill="none" stroke-width="5" stroke-linecap="round" stroke-linejoin="round" stroke="rgb(0%, 0%, 0%)" stroke-opacity="1" stroke-miterlimit="10" d="M 3103.571571 210.808699 L 3103.571571 154.84375 L 3159.53652 154.84375 L 3159.53652 98.918074 L 3215.462196 98.918074 L 3215.462196 154.84375 L 3271.387872 154.84375 L 3271.387872 98.918074 L 3327.313547 98.918074 L 3327.313547 42.992399 L 3383.239223 42.992399 L 3383.239223 98.918074 L 3439.164899 98.918074 L 3439.164899 154.84375 L 3383.239223 154.84375 L 3383.239223 210.808699 L 3439.164899 210.808699 L 3439.164899 266.734375 L 3495.129848 266.734375 L 3495.129848 210.808699 L 3551.055524 210.808699 L 3551.055524 154.84375 L 3606.981199 154.84375 L 3606.981199 210.808699 L 3662.906875 210.808699 L 3662.906875 154.84375 L 3718.832551 154.84375 L 3718.832551 98.918074 L 3774.7975 98.918074 L 3774.7975 154.84375 L 3830.723176 154.84375 L 3830.723176 210.808699 L 3774.7975 210.808699 L 3774.7975 266.734375 L 3830.723176 266.734375 L 3830.723176 322.660051 L 3886.648851 322.660051 L 3886.648851 378.585726 L 3830.723176 378.585726 L 3830.723176 434.511402 L 3774.7975 434.511402 L 3774.7975 378.585726 L 3718.832551 378.585726 L 3718.832551 434.511402 L 3662.906875 434.511402 L 3662.906875 490.476351 L 3718.832551 490.476351 L 3718.832551 546.402027 L 3774.7975 546.402027 L 3774.7975 602.327703 " transform="matrix(0.0994624, 0, 0, -0.0994624, 1.159086, 92.002688)"/>
<path fill="none" stroke-width="5" stroke-linecap="round" stroke-linejoin="round" stroke="rgb(0%, 0%, 0%)" stroke-opacity="1" stroke-miterlimit="10" d="M 3774.7975 602.327703 L 3718.832551 602.327703 L 3718.832551 658.253378 L 3774.7975 658.253378 L 3774.7975 714.179054 L 3830.723176 714.179054 L 3830.723176 770.10473 L 3774.7975 770.10473 L 3774.7975 826.030405 L 3718.832551 826.030405 L 3718.832551 770.10473 L 3662.906875 770.10473 L 3662.906875 826.030405 L 3606.981199 826.030405 L 3606.981199 881.995355 L 3551.055524 881.995355 L 3551.055524 826.030405 L 3495.129848 826.030405 L 3495.129848 770.10473 L 3551.055524 770.10473 L 3551.055524 714.179054 L 3495.129848 714.179054 L 3495.129848 658.253378 L 3439.164899 658.253378 L 3439.164899 714.179054 L 3383.239223 714.179054 L 3383.239223 770.10473 L 3327.313547 770.10473 L 3327.313547 714.179054 L 3271.387872 714.179054 L 3271.387872 770.10473 L 3215.462196 770.10473 L 3215.462196 826.030405 L 3159.53652 826.030405 L 3159.53652 770.10473 L 3103.571571 770.10473 L 3103.571571 714.179054 L 3159.53652 714.179054 L 3159.53652 658.253378 L 3103.571571 658.253378 L 3103.571571 602.327703 L 3047.645895 602.327703 L 3047.645895 546.402027 L 3103.571571 546.402027 L 3103.571571 490.476351 L 3159.53652 490.476351 L 3159.53652 546.402027 L 3215.462196 546.402027 L 3215.462196 490.476351 L 3271.387872 490.476351 L 3271.387872 434.511402 " transform="matrix(0.0994624, 0, 0, -0.0994624, 1.159086, 92.002688)"/>
<path fill="none" stroke-width="5" stroke-linecap="round" stroke-linejoin="round" stroke="rgb(0%, 0%, 0%)" stroke-opacity="1" stroke-miterlimit="10" d="M 3271.387872 434.511402 L 3215.462196 434.511402 L 3215.462196 378.585726 L 3159.53652 378.585726 L 3159.53652 322.660051 L 3215.462196 322.660051 L 3215.462196 266.734375 L 3159.53652 266.734375 L 3159.53652 210.808699 L 3103.571571 210.808699 " transform="matrix(0.0994624, 0, 0, -0.0994624, 1.159086, 92.002688)"/>
<path fill="none" stroke-width="5" stroke-linecap="round" stroke-linejoin="round" stroke="rgb(0%, 0%, 0%)" stroke-opacity="1" stroke-miterlimit="10" d="M 4061.180946 234.844172 L 4048.809747 213.361486 L 4070.292432 200.951014 L 4057.881959 179.468328 L 4079.364645 167.057855 L 4091.775118 188.540541 L 4113.257804 176.169341 L 4100.847331 154.647382 L 4122.369291 142.236909 L 4109.958818 120.754223 L 4131.441503 108.34375 L 4143.851976 129.865709 L 4165.334662 117.455236 L 4177.745135 138.937922 L 4156.262449 151.348395 L 4168.633649 172.831081 L 4190.155608 160.420608 L 4202.566081 181.903294 L 4224.048767 169.492821 L 4211.638294 148.010135 L 4233.12098 135.599662 L 4220.710507 114.116976 L 4242.193193 101.706503 L 4254.603666 123.189189 L 4276.086351 110.778716 L 4263.715152 89.29603 L 4285.197838 76.885557 L 4272.787365 55.402872 L 4294.270051 42.992399 L 4306.64125 64.475084 L 4328.163209 52.064611 L 4340.573682 73.586571 L 4319.090997 85.997044 L 4331.462196 107.47973 L 4352.984155 95.069257 L 4365.394628 116.551943 L 4386.877314 104.14147 L 4399.287787 125.624155 L 4377.765828 138.034628 L 4390.215574 159.517314 L 4368.693615 171.927787 L 4356.283142 150.445101 L 4334.800456 162.855574 L 4347.210929 184.33826 L 4325.728243 196.748733 L 4338.138716 218.231419 L 4359.621402 205.820946 L 4372.031875 227.342905 L 4393.514561 214.932432 L 4405.925034 236.415118 " transform="matrix(0.0994624, 0, 0, -0.0994624, 1.159086, 92.002688)"/>
<path fill="none" stroke-width="5" stroke-linecap="round" stroke-linejoin="round" stroke="rgb(0%, 0%, 0%)" stroke-opacity="1" stroke-miterlimit="10" d="M 4405.925034 236.415118 L 4384.442348 248.825591 L 4396.852821 270.308277 L 4418.335507 257.897804 L 4430.74598 279.38049 L 4452.228666 266.970017 L 4439.818193 245.487331 L 4461.300878 233.076858 L 4448.890405 211.594172 L 4470.373091 199.183699 L 4482.783564 220.666385 L 4504.305524 208.255912 L 4491.895051 186.773226 L 4513.377736 174.362753 L 4500.967264 152.880068 L 4522.449949 140.469595 L 4534.860422 161.95228 L 4556.343108 149.541807 L 4568.753581 171.024493 L 4547.270895 183.434966 L 4559.681368 204.956926 L 4581.164054 192.546453 L 4593.574527 214.029139 L 4615.057213 201.618666 L 4602.64674 180.13598 L 4624.129426 167.725507 L 4611.758226 146.242821 L 4633.201639 133.832348 L 4645.612111 155.315034 L 4667.134071 142.904561 L 4654.723598 121.421875 L 4676.206284 109.011402 L 4663.795811 87.528716 L 4685.278497 75.118243 L 4697.68897 96.600929 L 4719.171655 84.190456 L 4731.582128 105.673142 L 4710.099443 118.083615 L 4722.509916 139.605574 L 4743.992601 127.155828 L 4756.403074 148.677787 L 4777.88576 136.267314 L 4790.296233 157.75 L 4768.813547 170.160473 L 4781.22402 191.643159 L 4759.702061 204.053632 L 4747.330861 182.570946 L 4725.848176 194.981419 L 4738.258649 216.464105 L 4716.736689 228.874578 L 4729.147162 250.357264 " transform="matrix(0.0994624, 0, 0, -0.0994624, 1.159086, 92.002688)"/>
<path fill="none" stroke-width="5" stroke-linecap="round" stroke-linejoin="round" stroke="rgb(0%, 0%, 0%)" stroke-opacity="1" stroke-miterlimit="10" d="M 4729.147162 250.357264 L 4750.629848 237.946791 L 4763.040321 259.429476 L 4784.523007 247.019003 L 4796.93348 268.501689 L 4775.450794 280.912162 L 4787.861267 302.394848 L 4809.343953 290.023649 L 4821.754426 311.506334 L 4843.237111 299.095861 L 4855.647584 320.578547 L 4834.164899 332.98902 L 4846.575372 354.471706 L 4825.092686 366.882179 L 4812.682213 345.399493 L 4791.199527 357.809966 L 4803.570726 379.292652 L 4782.127314 391.703125 L 4794.498514 413.185811 L 4773.015828 425.596284 L 4760.605355 404.113598 L 4739.122669 416.524071 L 4726.712196 395.002111 L 4748.194882 382.630912 L 4735.823682 361.148226 L 4714.301723 373.519426 L 4701.89125 352.03674 L 4680.408564 364.447213 L 4692.819037 385.929899 L 4671.336351 398.340372 L 4683.746824 419.823057 L 4662.264139 432.23353 L 4649.853666 410.750845 L 4628.37098 423.161318 L 4640.781453 444.644003 L 4619.298767 457.054476 L 4631.669966 478.537162 L 4653.152652 466.126689 L 4665.563125 487.609375 L 4687.085084 475.238176 L 4699.495557 496.720861 L 4677.973598 509.131334 L 4690.384071 530.61402 L 4711.866757 518.203547 L 4724.27723 539.686233 L 4745.799189 527.27576 L 4758.170389 548.758446 L 4736.687703 561.168919 L 4749.098176 582.651605 L 4727.61549 595.062078 L 4715.205017 573.579392 " transform="matrix(0.0994624, 0, 0, -0.0994624, 1.159086, 92.002688)"/>
<path fill="none" stroke-width="5" stroke-linecap="round" stroke-linejoin="round" stroke="rgb(0%, 0%, 0%)" stroke-opacity="1" stroke-miterlimit="10" d="M 4715.205017 573.579392 L 4693.722331 585.989865 L 4706.132804 607.472551 L 4684.610845 619.883024 L 4697.021318 641.365709 L 4718.543277 628.955236 L 4730.95375 650.477196 L 4752.436436 638.066723 L 4764.846909 659.549409 L 4743.324949 671.959882 L 4755.735422 693.442568 L 4777.257382 681.032095 L 4789.667855 702.51478 L 4811.150541 690.104307 L 4823.52174 711.586993 L 4802.039054 723.997466 L 4814.449527 745.519426 L 4792.966841 757.890625 L 4780.556368 736.407939 L 4759.073682 748.818412 L 4771.484155 770.301098 L 4750.00147 782.711571 L 4762.411943 804.194257 L 4740.929257 816.60473 L 4728.518784 795.122044 L 4706.996824 807.532517 L 4694.625625 786.049831 L 4716.108311 773.639358 L 4703.697838 752.156672 L 4682.215152 764.567145 L 4669.804679 743.045186 L 4648.28272 755.494932 L 4660.693193 776.977618 L 4639.210507 789.388091 L 4651.62098 810.870777 L 4630.138294 823.28125 L 4617.727821 801.759291 L 4596.245135 814.169764 L 4608.655608 835.691723 L 4587.172922 848.062922 L 4599.544122 869.584882 L 4578.061436 881.995355 L 4565.690236 860.473395 L 4544.168277 872.883868 L 4531.797078 851.401182 L 4553.24049 838.990709 L 4540.869291 817.508024 L 4519.347331 829.918497 L 4506.976132 808.435811 L 4485.493446 820.846284 L 4473.043699 799.363598 " transform="matrix(0.0994624, 0, 0, -0.0994624, 1.159086, 92.002688)"/>
<path fill="none" stroke-width="5" stroke-linecap="round" stroke-linejoin="round" stroke="rgb(0%, 0%, 0%)" stroke-opacity="1" stroke-miterlimit="10" d="M 4473.043699 799.363598 L 4494.565659 786.953125 L 4482.155186 765.431166 L 4503.637872 753.059966 L 4516.048345 774.542652 L 4537.53103 762.132179 L 4525.120557 740.649493 L 4546.603243 728.23902 L 4534.19277 706.717061 L 4512.710084 719.127534 L 4500.299611 697.644848 L 4478.816926 710.055321 L 4466.406453 688.572635 L 4487.928412 676.162162 L 4475.478666 654.679476 L 4453.99598 667.089949 L 4441.62478 645.607264 L 4420.102821 658.017736 L 4432.513294 679.500422 L 4411.030608 691.910895 L 4423.441081 713.393581 L 4401.958395 725.804054 L 4389.547922 704.282095 L 4368.065236 716.731841 L 4380.475709 738.214527 L 4358.95375 750.585726 L 4371.364223 772.107686 L 4349.881537 784.518159 L 4337.471064 763.035473 L 4315.988378 775.406672 L 4303.577905 753.923986 L 4325.060591 741.513514 L 4312.650118 720.030828 L 4291.167432 732.441301 L 4278.756959 710.958615 L 4257.274274 723.369088 L 4269.684747 744.851774 L 4248.202061 757.262247 L 4260.612534 778.744932 L 4239.129848 791.155405 L 4226.719375 769.67272 L 4205.236689 782.083193 L 4217.647162 803.565878 L 4196.125203 815.976351 L 4208.535676 837.459037 L 4187.05299 849.86951 L 4174.642517 828.386824 L 4153.159831 840.758024 L 4140.749358 819.275338 L 4162.232044 806.904139 L 4149.821571 785.382179 " transform="matrix(0.0994624, 0, 0, -0.0994624, 1.159086, 92.002688)"/>
<path fill="none" stroke-width="5" stroke-linecap="round" stroke-linejoin="round" stroke="rgb(0%, 0%, 0%)" stroke-opacity="1" stroke-miterlimit="10" d="M 4149.821571 785.382179 L 4128.338885 797.792652 L 4115.928412 776.309966 L 4094.445726 788.720439 L 4082.035253 767.237753 L 4103.517939 754.82728 L 4091.107466 733.344595 L 4112.629426 720.934122 L 4125.000625 742.416807 L 4146.522584 730.006334 L 4134.112111 708.523649 L 4155.594797 696.113176 L 4143.184324 674.63049 L 4121.701639 687.040963 L 4109.291166 665.558277 L 4087.80848 677.929476 L 4075.398007 656.446791 L 4096.880693 644.036318 L 4084.47022 622.553632 L 4062.987534 634.964105 L 4050.577061 613.481419 L 4029.094375 625.891892 L 4016.683902 604.409206 L 4038.166588 591.998733 L 4025.756115 570.516047 L 4047.238801 558.105574 L 4059.649274 579.58826 L 4081.131959 567.177787 L 4068.76076 545.695101 L 4090.243446 533.284628 L 4077.832973 511.801943 L 4099.315659 499.39147 L 4111.726132 520.874155 L 4133.208818 508.463682 L 4145.619291 529.946368 L 4124.136605 542.356841 L 4136.547078 563.839527 L 4158.029764 551.429054 L 4170.440236 572.91174 L 4191.922922 560.540541 L 4179.512449 539.057855 L 4200.995135 526.647382 L 4188.584662 505.125422 L 4210.106622 492.714949 L 4222.477821 514.236909 L 4243.960507 501.826436 L 4231.589307 480.34375 L 4253.071993 467.933277 L 4240.66152 446.411318 L 4219.178834 458.821791 L 4206.768361 437.339105 " transform="matrix(0.0994624, 0, 0, -0.0994624, 1.159086, 92.002688)"/>
<path fill="none" stroke-width="5" stroke-linecap="round" stroke-linejoin="round" stroke="rgb(0%, 0%, 0%)" stroke-opacity="1" stroke-miterlimit="10" d="M 4206.768361 437.339105 L 4185.285676 449.749578 L 4172.875203 428.266892 L 4194.357889 415.856419 L 4181.947416 394.373733 L 4160.46473 406.784206 L 4148.054257 385.30152 L 4126.571571 397.711993 L 4114.161098 376.190034 L 4135.643784 363.779561 L 4123.233311 342.296875 L 4144.715997 329.886402 L 4157.12647 351.408361 L 4178.609155 338.997889 L 4166.237956 317.515203 L 4187.681368 305.10473 L 4175.310169 283.58277 L 4153.827483 295.993243 L 4141.41701 274.510557 L 4119.934324 286.92103 L 4107.484578 265.438345 L 4129.006537 253.027872 L 4116.596064 231.545186 L 4095.113378 243.955659 L 4082.702905 222.433699 L 4061.180946 234.844172 " transform="matrix(0.0994624, 0, 0, -0.0994624, 1.159086, 92.002688)"/>
</svg>
