<?xml version="1.0" encoding="UTF-8"?>
<svg xmlns="http://www.w3.org/2000/svg" xmlns:xlink="http://www.w3.org/1999/xlink" width="447" height="109" viewBox="0 0 447 109">
<path fill-rule="nonzero" fill="rgb(0%, 0%, 0%)" fill-opacity="1" d="M 71.699219 5.066406 L 13.585938 23.949219 L 13.585938 85.050781 L 71.699219 103.933594 L 107.613281 54.5 "/>
<path fill-rule="nonzero" fill="rgb(0%, 0%, 0%)" fill-opacity="1" d="M 180.296875 5.066406 L 158.101562 12.28125 L 158.101562 35.617188 L 180.296875 42.832031 L 194.015625 23.949219 "/>
<path fill-rule="nonzero" fill="rgb(0%, 0%, 0%)" fill-opacity="1" d="M 144.382812 16.738281 L 122.1875 23.949219 L 122.1875 47.289062 L 144.382812 54.5 L 158.101562 35.617188 "/>
<path fill-rule="nonzero" fill="rgb(0%, 0%, 0%)" fill-opacity="1" d="M 144.382812 54.5 L 122.1875 61.714844 L 122.1875 85.050781 L 144.382812 92.265625 L 158.101562 73.382812 "/>
<path fill-rule="nonzero" fill="rgb(0%, 0%, 0%)" fill-opacity="1" d="M 180.296875 66.171875 L 158.101562 73.382812 L 158.101562 96.71875 L 180.296875 103.933594 L 194.015625 85.050781 "/>
<path fill-rule="nonzero" fill="rgb(0%, 0%, 0%)" fill-opacity="1" d="M 202.496094 35.617188 L 180.296875 42.832031 L 180.296875 66.171875 L 202.496094 73.382812 L 216.214844 54.5 "/>
<path fill-rule="nonzero" fill="rgb(0%, 0%, 0%)" fill-opacity="1" d="M 158.101562 35.617188 L 144.382812 54.5 L 158.101562 73.382812 L 180.296875 66.171875 L 180.296875 42.832031 "/>
<path fill-rule="nonzero" fill="rgb(0%, 0%, 0%)" fill-opacity="1" d="M 288.898438 5.066406 L 280.421875 7.824219 L 280.421875 16.738281 L 288.898438 19.492188 L 294.136719 12.28125 "/>
<path fill-rule="nonzero" fill="rgb(0%, 0%, 0%)" fill-opacity="1" d="M 275.179688 9.527344 L 266.703125 12.28125 L 266.703125 21.195312 L 275.179688 23.949219 L 280.421875 16.738281 "/>
<path fill-rule="nonzero" fill="rgb(0%, 0%, 0%)" fill-opacity="1" d="M 275.179688 23.949219 L 266.703125 26.703125 L 266.703125 35.617188 L 275.179688 38.375 L 280.421875 31.160156 "/>
<path fill-rule="nonzero" fill="rgb(0%, 0%, 0%)" fill-opacity="1" d="M 288.898438 28.40625 L 280.421875 31.160156 L 280.421875 40.078125 L 288.898438 42.832031 L 294.136719 35.617188 "/>
<path fill-rule="nonzero" fill="rgb(0%, 0%, 0%)" fill-opacity="1" d="M 297.378906 16.738281 L 288.898438 19.492188 L 288.898438 28.40625 L 297.378906 31.160156 L 302.617188 23.949219 "/>
<path fill-rule="nonzero" fill="rgb(0%, 0%, 0%)" fill-opacity="1" d="M 280.421875 16.738281 L 275.179688 23.949219 L 280.421875 31.160156 L 288.898438 28.40625 L 288.898438 19.492188 "/>
<path fill-rule="nonzero" fill="rgb(0%, 0%, 0%)" fill-opacity="1" d="M 252.984375 16.738281 L 244.503906 19.492188 L 244.503906 28.40625 L 252.984375 31.160156 L 258.222656 23.949219 "/>
<path fill-rule="nonzero" fill="rgb(0%, 0%, 0%)" fill-opacity="1" d="M 239.265625 21.195312 L 230.785156 23.949219 L 230.785156 32.863281 L 239.265625 35.617188 L 244.503906 28.40625 "/>
<path fill-rule="nonzero" fill="rgb(0%, 0%, 0%)" fill-opacity="1" d="M 239.265625 35.617188 L 230.785156 38.375 L 230.785156 47.289062 L 239.265625 50.042969 L 244.503906 42.832031 "/>
<path fill-rule="nonzero" fill="rgb(0%, 0%, 0%)" fill-opacity="1" d="M 252.984375 40.078125 L 244.503906 42.832031 L 244.503906 51.746094 L 252.984375 54.5 L 258.222656 47.289062 "/>
<path fill-rule="nonzero" fill="rgb(0%, 0%, 0%)" fill-opacity="1" d="M 261.460938 28.40625 L 252.984375 31.160156 L 252.984375 40.078125 L 261.460938 42.832031 L 266.703125 35.617188 "/>
<path fill-rule="nonzero" fill="rgb(0%, 0%, 0%)" fill-opacity="1" d="M 244.503906 28.40625 L 239.265625 35.617188 L 244.503906 42.832031 L 252.984375 40.078125 L 252.984375 31.160156 "/>
<path fill-rule="nonzero" fill="rgb(0%, 0%, 0%)" fill-opacity="1" d="M 252.984375 54.5 L 244.503906 57.253906 L 244.503906 66.171875 L 252.984375 68.925781 L 258.222656 61.714844 "/>
<path fill-rule="nonzero" fill="rgb(0%, 0%, 0%)" fill-opacity="1" d="M 239.265625 58.957031 L 230.785156 61.714844 L 230.785156 70.628906 L 239.265625 73.382812 L 244.503906 66.171875 "/>
<path fill-rule="nonzero" fill="rgb(0%, 0%, 0%)" fill-opacity="1" d="M 239.265625 73.382812 L 230.785156 76.136719 L 230.785156 85.050781 L 239.265625 87.804688 L 244.503906 80.59375 "/>
<path fill-rule="nonzero" fill="rgb(0%, 0%, 0%)" fill-opacity="1" d="M 252.984375 77.839844 L 244.503906 80.59375 L 244.503906 89.507812 L 252.984375 92.265625 L 258.222656 85.050781 "/>
<path fill-rule="nonzero" fill="rgb(0%, 0%, 0%)" fill-opacity="1" d="M 261.460938 66.171875 L 252.984375 68.925781 L 252.984375 77.839844 L 261.460938 80.59375 L 266.703125 73.382812 "/>
<path fill-rule="nonzero" fill="rgb(0%, 0%, 0%)" fill-opacity="1" d="M 244.503906 66.171875 L 239.265625 73.382812 L 244.503906 80.59375 L 252.984375 77.839844 L 252.984375 68.925781 "/>
<path fill-rule="nonzero" fill="rgb(0%, 0%, 0%)" fill-opacity="1" d="M 288.898438 66.171875 L 280.421875 68.925781 L 280.421875 77.839844 L 288.898438 80.59375 L 294.136719 73.382812 "/>
<path fill-rule="nonzero" fill="rgb(0%, 0%, 0%)" fill-opacity="1" d="M 275.179688 70.628906 L 266.703125 73.382812 L 266.703125 82.296875 L 275.179688 85.050781 L 280.421875 77.839844 "/>
<path fill-rule="nonzero" fill="rgb(0%, 0%, 0%)" fill-opacity="1" d="M 275.179688 85.050781 L 266.703125 87.804688 L 266.703125 96.71875 L 275.179688 99.476562 L 280.421875 92.265625 "/>
<path fill-rule="nonzero" fill="rgb(0%, 0%, 0%)" fill-opacity="1" d="M 288.898438 89.507812 L 280.421875 92.265625 L 280.421875 101.179688 L 288.898438 103.933594 L 294.136719 96.71875 "/>
<path fill-rule="nonzero" fill="rgb(0%, 0%, 0%)" fill-opacity="1" d="M 297.378906 77.839844 L 288.898438 80.59375 L 288.898438 89.507812 L 297.378906 92.265625 L 302.617188 85.050781 "/>
<path fill-rule="nonzero" fill="rgb(0%, 0%, 0%)" fill-opacity="1" d="M 280.421875 77.839844 L 275.179688 85.050781 L 280.421875 92.265625 L 288.898438 89.507812 L 288.898438 80.59375 "/>
<path fill-rule="nonzero" fill="rgb(0%, 0%, 0%)" fill-opacity="1" d="M 311.09375 35.617188 L 302.617188 38.375 L 302.617188 47.289062 L 311.09375 50.042969 L 316.335938 42.832031 "/>
<path fill-rule="nonzero" fill="rgb(0%, 0%, 0%)" fill-opacity="1" d="M 297.378906 40.078125 L 288.898438 42.832031 L 288.898438 51.746094 L 297.378906 54.5 L 302.617188 47.289062 "/>
<path fill-rule="nonzero" fill="rgb(0%, 0%, 0%)" fill-opacity="1" d="M 297.378906 54.5 L 288.898438 57.253906 L 288.898438 66.171875 L 297.378906 68.925781 L 302.617188 61.714844 "/>
<path fill-rule="nonzero" fill="rgb(0%, 0%, 0%)" fill-opacity="1" d="M 311.09375 58.957031 L 302.617188 61.714844 L 302.617188 70.628906 L 311.09375 73.382812 L 316.335938 66.171875 "/>
<path fill-rule="nonzero" fill="rgb(0%, 0%, 0%)" fill-opacity="1" d="M 319.574219 47.289062 L 311.09375 50.042969 L 311.09375 58.957031 L 319.574219 61.714844 L 324.8125 54.5 "/>
<path fill-rule="nonzero" fill="rgb(0%, 0%, 0%)" fill-opacity="1" d="M 302.617188 47.289062 L 297.378906 54.5 L 302.617188 61.714844 L 311.09375 58.957031 L 311.09375 50.042969 "/>
<path fill-rule="nonzero" fill="rgb(0%, 0%, 0%)" fill-opacity="1" d="M 266.703125 35.617188 L 261.460938 42.832031 L 266.703125 50.042969 L 275.179688 47.289062 L 275.179688 38.375 "/>
<path fill-rule="nonzero" fill="rgb(0%, 0%, 0%)" fill-opacity="1" d="M 258.222656 47.289062 L 252.984375 54.5 L 258.222656 61.714844 L 266.703125 58.957031 L 266.703125 50.042969 "/>
<path fill-rule="nonzero" fill="rgb(0%, 0%, 0%)" fill-opacity="1" d="M 266.703125 58.957031 L 261.460938 66.171875 L 266.703125 73.382812 L 275.179688 70.628906 L 275.179688 61.714844 "/>
<path fill-rule="nonzero" fill="rgb(0%, 0%, 0%)" fill-opacity="1" d="M 280.421875 54.5 L 275.179688 61.714844 L 280.421875 68.925781 L 288.898438 66.171875 L 288.898438 57.253906 "/>
<path fill-rule="nonzero" fill="rgb(0%, 0%, 0%)" fill-opacity="1" d="M 280.421875 40.078125 L 275.179688 47.289062 L 280.421875 54.5 L 288.898438 51.746094 L 288.898438 42.832031 "/>
<path fill-rule="nonzero" fill="rgb(0%, 0%, 0%)" fill-opacity="1" d="M 266.703125 50.042969 L 266.703125 58.957031 L 275.179688 61.714844 L 280.421875 54.5 L 275.179688 47.289062 "/>
<path fill-rule="nonzero" fill="rgb(0%, 0%, 0%)" fill-opacity="1" d="M 397.496094 5.066406 L 394.257812 6.121094 L 394.257812 9.527344 L 397.496094 10.578125 L 399.5 7.824219 "/>
<path fill-rule="nonzero" fill="rgb(0%, 0%, 0%)" fill-opacity="1" d="M 392.257812 6.769531 L 389.019531 7.824219 L 389.019531 11.230469 L 392.257812 12.28125 L 394.257812 9.527344 "/>
<path fill-rule="nonzero" fill="rgb(0%, 0%, 0%)" fill-opacity="1" d="M 392.257812 12.28125 L 389.019531 13.332031 L 389.019531 16.738281 L 392.257812 17.789062 L 394.257812 15.035156 "/>
<path fill-rule="nonzero" fill="rgb(0%, 0%, 0%)" fill-opacity="1" d="M 397.496094 13.984375 L 394.257812 15.035156 L 394.257812 18.441406 L 397.496094 19.492188 L 399.5 16.738281 "/>
<path fill-rule="nonzero" fill="rgb(0%, 0%, 0%)" fill-opacity="1" d="M 400.738281 9.527344 L 397.496094 10.578125 L 397.496094 13.984375 L 400.738281 15.035156 L 402.738281 12.28125 "/>
<path fill-rule="nonzero" fill="rgb(0%, 0%, 0%)" fill-opacity="1" d="M 394.257812 9.527344 L 392.257812 12.28125 L 394.257812 15.035156 L 397.496094 13.984375 L 397.496094 10.578125 "/>
<path fill-rule="nonzero" fill="rgb(0%, 0%, 0%)" fill-opacity="1" d="M 383.78125 9.527344 L 380.539062 10.578125 L 380.539062 13.984375 L 383.78125 15.035156 L 385.78125 12.28125 "/>
<path fill-rule="nonzero" fill="rgb(0%, 0%, 0%)" fill-opacity="1" d="M 378.539062 11.230469 L 375.300781 12.28125 L 375.300781 15.683594 L 378.539062 16.738281 L 380.539062 13.984375 "/>
<path fill-rule="nonzero" fill="rgb(0%, 0%, 0%)" fill-opacity="1" d="M 378.539062 16.738281 L 375.300781 17.789062 L 375.300781 21.195312 L 378.539062 22.246094 L 380.539062 19.492188 "/>
<path fill-rule="nonzero" fill="rgb(0%, 0%, 0%)" fill-opacity="1" d="M 383.78125 18.441406 L 380.539062 19.492188 L 380.539062 22.898438 L 383.78125 23.949219 L 385.78125 21.195312 "/>
<path fill-rule="nonzero" fill="rgb(0%, 0%, 0%)" fill-opacity="1" d="M 387.019531 13.984375 L 383.78125 15.035156 L 383.78125 18.441406 L 387.019531 19.492188 L 389.019531 16.738281 "/>
<path fill-rule="nonzero" fill="rgb(0%, 0%, 0%)" fill-opacity="1" d="M 380.539062 13.984375 L 378.539062 16.738281 L 380.539062 19.492188 L 383.78125 18.441406 L 383.78125 15.035156 "/>
<path fill-rule="nonzero" fill="rgb(0%, 0%, 0%)" fill-opacity="1" d="M 383.78125 23.949219 L 380.539062 25.003906 L 380.539062 28.40625 L 383.78125 29.460938 L 385.78125 26.703125 "/>
<path fill-rule="nonzero" fill="rgb(0%, 0%, 0%)" fill-opacity="1" d="M 378.539062 25.652344 L 375.300781 26.703125 L 375.300781 30.109375 L 378.539062 31.160156 L 380.539062 28.40625 "/>
<path fill-rule="nonzero" fill="rgb(0%, 0%, 0%)" fill-opacity="1" d="M 378.539062 31.160156 L 375.300781 32.214844 L 375.300781 35.621094 L 378.539062 36.671875 L 380.539062 33.917969 "/>
<path fill-rule="nonzero" fill="rgb(0%, 0%, 0%)" fill-opacity="1" d="M 383.78125 32.863281 L 380.539062 33.917969 L 380.539062 37.320312 L 383.78125 38.375 L 385.78125 35.621094 "/>
<path fill-rule="nonzero" fill="rgb(0%, 0%, 0%)" fill-opacity="1" d="M 387.019531 28.40625 L 383.78125 29.460938 L 383.78125 32.863281 L 387.019531 33.917969 L 389.019531 31.160156 "/>
<path fill-rule="nonzero" fill="rgb(0%, 0%, 0%)" fill-opacity="1" d="M 380.539062 28.40625 L 378.539062 31.160156 L 380.539062 33.917969 L 383.78125 32.863281 L 383.78125 29.460938 "/>
<path fill-rule="nonzero" fill="rgb(0%, 0%, 0%)" fill-opacity="1" d="M 397.496094 28.40625 L 394.257812 29.460938 L 394.257812 32.863281 L 397.496094 33.917969 L 399.5 31.160156 "/>
<path fill-rule="nonzero" fill="rgb(0%, 0%, 0%)" fill-opacity="1" d="M 392.257812 30.109375 L 389.019531 31.160156 L 389.019531 34.566406 L 392.257812 35.621094 L 394.257812 32.863281 "/>
<path fill-rule="nonzero" fill="rgb(0%, 0%, 0%)" fill-opacity="1" d="M 392.257812 35.621094 L 389.019531 36.671875 L 389.019531 40.078125 L 392.257812 41.128906 L 394.257812 38.375 "/>
<path fill-rule="nonzero" fill="rgb(0%, 0%, 0%)" fill-opacity="1" d="M 397.496094 37.320312 L 394.257812 38.375 L 394.257812 41.777344 L 397.496094 42.832031 L 399.5 40.078125 "/>
<path fill-rule="nonzero" fill="rgb(0%, 0%, 0%)" fill-opacity="1" d="M 400.738281 32.863281 L 397.496094 33.917969 L 397.496094 37.320312 L 400.738281 38.375 L 402.738281 35.621094 "/>
<path fill-rule="nonzero" fill="rgb(0%, 0%, 0%)" fill-opacity="1" d="M 394.257812 32.863281 L 392.257812 35.621094 L 394.257812 38.375 L 397.496094 37.320312 L 397.496094 33.917969 "/>
<path fill-rule="nonzero" fill="rgb(0%, 0%, 0%)" fill-opacity="1" d="M 405.976562 16.738281 L 402.738281 17.789062 L 402.738281 21.195312 L 405.976562 22.246094 L 407.976562 19.492188 "/>
<path fill-rule="nonzero" fill="rgb(0%, 0%, 0%)" fill-opacity="1" d="M 400.738281 18.441406 L 397.496094 19.492188 L 397.496094 22.898438 L 400.738281 23.949219 L 402.738281 21.195312 "/>
<path fill-rule="nonzero" fill="rgb(0%, 0%, 0%)" fill-opacity="1" d="M 400.738281 23.949219 L 397.496094 25.003906 L 397.496094 28.40625 L 400.738281 29.460938 L 402.738281 26.703125 "/>
<path fill-rule="nonzero" fill="rgb(0%, 0%, 0%)" fill-opacity="1" d="M 405.976562 25.652344 L 402.738281 26.703125 L 402.738281 30.109375 L 405.976562 31.160156 L 407.976562 28.40625 "/>
<path fill-rule="nonzero" fill="rgb(0%, 0%, 0%)" fill-opacity="1" d="M 409.214844 21.195312 L 405.976562 22.246094 L 405.976562 25.652344 L 409.214844 26.703125 L 411.214844 23.949219 "/>
<path fill-rule="nonzero" fill="rgb(0%, 0%, 0%)" fill-opacity="1" d="M 402.738281 21.195312 L 400.738281 23.949219 L 402.738281 26.703125 L 405.976562 25.652344 L 405.976562 22.246094 "/>
<path fill-rule="nonzero" fill="rgb(0%, 0%, 0%)" fill-opacity="1" d="M 389.019531 16.738281 L 387.019531 19.492188 L 389.019531 22.246094 L 392.257812 21.195312 L 392.257812 17.789062 "/>
<path fill-rule="nonzero" fill="rgb(0%, 0%, 0%)" fill-opacity="1" d="M 385.78125 21.195312 L 383.78125 23.949219 L 385.78125 26.703125 L 389.019531 25.652344 L 389.019531 22.246094 "/>
<path fill-rule="nonzero" fill="rgb(0%, 0%, 0%)" fill-opacity="1" d="M 389.019531 25.652344 L 387.019531 28.40625 L 389.019531 31.160156 L 392.257812 30.109375 L 392.257812 26.703125 "/>
<path fill-rule="nonzero" fill="rgb(0%, 0%, 0%)" fill-opacity="1" d="M 394.257812 23.949219 L 392.257812 26.703125 L 394.257812 29.460938 L 397.496094 28.40625 L 397.496094 25.003906 "/>
<path fill-rule="nonzero" fill="rgb(0%, 0%, 0%)" fill-opacity="1" d="M 394.257812 18.441406 L 392.257812 21.195312 L 394.257812 23.949219 L 397.496094 22.898438 L 397.496094 19.492188 "/>
<path fill-rule="nonzero" fill="rgb(0%, 0%, 0%)" fill-opacity="1" d="M 389.019531 22.246094 L 389.019531 25.652344 L 392.257812 26.703125 L 394.257812 23.949219 L 392.257812 21.195312 "/>
<path fill-rule="nonzero" fill="rgb(0%, 0%, 0%)" fill-opacity="1" d="M 361.585938 16.738281 L 358.34375 17.789062 L 358.34375 21.195312 L 361.585938 22.246094 L 363.585938 19.492188 "/>
<path fill-rule="nonzero" fill="rgb(0%, 0%, 0%)" fill-opacity="1" d="M 356.34375 18.441406 L 353.105469 19.492188 L 353.105469 22.898438 L 356.34375 23.949219 L 358.34375 21.195312 "/>
<path fill-rule="nonzero" fill="rgb(0%, 0%, 0%)" fill-opacity="1" d="M 356.34375 23.949219 L 353.105469 25.003906 L 353.105469 28.40625 L 356.34375 29.460938 L 358.34375 26.703125 "/>
<path fill-rule="nonzero" fill="rgb(0%, 0%, 0%)" fill-opacity="1" d="M 361.585938 25.652344 L 358.34375 26.703125 L 358.34375 30.109375 L 361.585938 31.160156 L 363.585938 28.40625 "/>
<path fill-rule="nonzero" fill="rgb(0%, 0%, 0%)" fill-opacity="1" d="M 364.820312 21.195312 L 361.585938 22.246094 L 361.585938 25.652344 L 364.820312 26.703125 L 366.824219 23.949219 "/>
<path fill-rule="nonzero" fill="rgb(0%, 0%, 0%)" fill-opacity="1" d="M 358.34375 21.195312 L 356.34375 23.949219 L 358.34375 26.703125 L 361.585938 25.652344 L 361.585938 22.246094 "/>
<path fill-rule="nonzero" fill="rgb(0%, 0%, 0%)" fill-opacity="1" d="M 347.867188 21.195312 L 344.628906 22.246094 L 344.628906 25.652344 L 347.867188 26.703125 L 349.867188 23.949219 "/>
<path fill-rule="nonzero" fill="rgb(0%, 0%, 0%)" fill-opacity="1" d="M 342.625 22.898438 L 339.386719 23.949219 L 339.386719 27.355469 L 342.625 28.40625 L 344.628906 25.652344 "/>
<path fill-rule="nonzero" fill="rgb(0%, 0%, 0%)" fill-opacity="1" d="M 342.625 28.40625 L 339.386719 29.460938 L 339.386719 32.863281 L 342.625 33.917969 L 344.628906 31.160156 "/>
<path fill-rule="nonzero" fill="rgb(0%, 0%, 0%)" fill-opacity="1" d="M 347.867188 30.109375 L 344.628906 31.160156 L 344.628906 34.566406 L 347.867188 35.621094 L 349.867188 32.863281 "/>
<path fill-rule="nonzero" fill="rgb(0%, 0%, 0%)" fill-opacity="1" d="M 351.105469 25.652344 L 347.867188 26.703125 L 347.867188 30.109375 L 351.105469 31.160156 L 353.105469 28.40625 "/>
<path fill-rule="nonzero" fill="rgb(0%, 0%, 0%)" fill-opacity="1" d="M 344.628906 25.652344 L 342.625 28.40625 L 344.628906 31.160156 L 347.867188 30.109375 L 347.867188 26.703125 "/>
<path fill-rule="nonzero" fill="rgb(0%, 0%, 0%)" fill-opacity="1" d="M 347.867188 35.621094 L 344.628906 36.671875 L 344.628906 40.078125 L 347.867188 41.128906 L 349.867188 38.375 "/>
<path fill-rule="nonzero" fill="rgb(0%, 0%, 0%)" fill-opacity="1" d="M 342.625 37.320312 L 339.386719 38.375 L 339.386719 41.777344 L 342.625 42.832031 L 344.628906 40.078125 "/>
<path fill-rule="nonzero" fill="rgb(0%, 0%, 0%)" fill-opacity="1" d="M 342.625 42.832031 L 339.386719 43.882812 L 339.386719 47.289062 L 342.625 48.339844 L 344.628906 45.585938 "/>
<path fill-rule="nonzero" fill="rgb(0%, 0%, 0%)" fill-opacity="1" d="M 347.867188 44.535156 L 344.628906 45.585938 L 344.628906 48.992188 L 347.867188 50.042969 L 349.867188 47.289062 "/>
<path fill-rule="nonzero" fill="rgb(0%, 0%, 0%)" fill-opacity="1" d="M 351.105469 40.078125 L 347.867188 41.128906 L 347.867188 44.535156 L 351.105469 45.585938 L 353.105469 42.832031 "/>
<path fill-rule="nonzero" fill="rgb(0%, 0%, 0%)" fill-opacity="1" d="M 344.628906 40.078125 L 342.625 42.832031 L 344.628906 45.585938 L 347.867188 44.535156 L 347.867188 41.128906 "/>
<path fill-rule="nonzero" fill="rgb(0%, 0%, 0%)" fill-opacity="1" d="M 361.585938 40.078125 L 358.34375 41.128906 L 358.34375 44.535156 L 361.585938 45.585938 L 363.585938 42.832031 "/>
<path fill-rule="nonzero" fill="rgb(0%, 0%, 0%)" fill-opacity="1" d="M 356.34375 41.777344 L 353.105469 42.832031 L 353.105469 46.234375 L 356.34375 47.289062 L 358.34375 44.535156 "/>
<path fill-rule="nonzero" fill="rgb(0%, 0%, 0%)" fill-opacity="1" d="M 356.34375 47.289062 L 353.105469 48.339844 L 353.105469 51.746094 L 356.34375 52.796875 L 358.34375 50.042969 "/>
<path fill-rule="nonzero" fill="rgb(0%, 0%, 0%)" fill-opacity="1" d="M 361.585938 48.992188 L 358.34375 50.042969 L 358.34375 53.449219 L 361.585938 54.5 L 363.585938 51.746094 "/>
<path fill-rule="nonzero" fill="rgb(0%, 0%, 0%)" fill-opacity="1" d="M 364.820312 44.535156 L 361.585938 45.585938 L 361.585938 48.992188 L 364.820312 50.042969 L 366.824219 47.289062 "/>
<path fill-rule="nonzero" fill="rgb(0%, 0%, 0%)" fill-opacity="1" d="M 358.34375 44.535156 L 356.34375 47.289062 L 358.34375 50.042969 L 361.585938 48.992188 L 361.585938 45.585938 "/>
<path fill-rule="nonzero" fill="rgb(0%, 0%, 0%)" fill-opacity="1" d="M 370.0625 28.40625 L 366.824219 29.460938 L 366.824219 32.863281 L 370.0625 33.917969 L 372.0625 31.160156 "/>
<path fill-rule="nonzero" fill="rgb(0%, 0%, 0%)" fill-opacity="1" d="M 364.820312 30.109375 L 361.585938 31.160156 L 361.585938 34.566406 L 364.820312 35.621094 L 366.824219 32.863281 "/>
<path fill-rule="nonzero" fill="rgb(0%, 0%, 0%)" fill-opacity="1" d="M 364.820312 35.621094 L 361.585938 36.671875 L 361.585938 40.078125 L 364.820312 41.128906 L 366.824219 38.375 "/>
<path fill-rule="nonzero" fill="rgb(0%, 0%, 0%)" fill-opacity="1" d="M 370.0625 37.320312 L 366.824219 38.375 L 366.824219 41.777344 L 370.0625 42.832031 L 372.0625 40.078125 "/>
<path fill-rule="nonzero" fill="rgb(0%, 0%, 0%)" fill-opacity="1" d="M 373.300781 32.863281 L 370.0625 33.917969 L 370.0625 37.320312 L 373.300781 38.375 L 375.300781 35.621094 "/>
<path fill-rule="nonzero" fill="rgb(0%, 0%, 0%)" fill-opacity="1" d="M 366.824219 32.863281 L 364.820312 35.621094 L 366.824219 38.375 L 370.0625 37.320312 L 370.0625 33.917969 "/>
<path fill-rule="nonzero" fill="rgb(0%, 0%, 0%)" fill-opacity="1" d="M 353.105469 28.40625 L 351.105469 31.160156 L 353.105469 33.917969 L 356.34375 32.863281 L 356.34375 29.460938 "/>
<path fill-rule="nonzero" fill="rgb(0%, 0%, 0%)" fill-opacity="1" d="M 349.867188 32.863281 L 347.867188 35.621094 L 349.867188 38.375 L 353.105469 37.320312 L 353.105469 33.917969 "/>
<path fill-rule="nonzero" fill="rgb(0%, 0%, 0%)" fill-opacity="1" d="M 353.105469 37.320312 L 351.105469 40.078125 L 353.105469 42.832031 L 356.34375 41.777344 L 356.34375 38.375 "/>
<path fill-rule="nonzero" fill="rgb(0%, 0%, 0%)" fill-opacity="1" d="M 358.34375 35.621094 L 356.34375 38.375 L 358.34375 41.128906 L 361.585938 40.078125 L 361.585938 36.671875 "/>
<path fill-rule="nonzero" fill="rgb(0%, 0%, 0%)" fill-opacity="1" d="M 358.34375 30.109375 L 356.34375 32.863281 L 358.34375 35.621094 L 361.585938 34.566406 L 361.585938 31.160156 "/>
<path fill-rule="nonzero" fill="rgb(0%, 0%, 0%)" fill-opacity="1" d="M 353.105469 33.917969 L 353.105469 37.320312 L 356.34375 38.375 L 358.34375 35.621094 L 356.34375 32.863281 "/>
<path fill-rule="nonzero" fill="rgb(0%, 0%, 0%)" fill-opacity="1" d="M 361.585938 54.5 L 358.34375 55.554688 L 358.34375 58.957031 L 361.585938 60.011719 L 363.585938 57.253906 "/>
<path fill-rule="nonzero" fill="rgb(0%, 0%, 0%)" fill-opacity="1" d="M 356.34375 56.203125 L 353.105469 57.253906 L 353.105469 60.660156 L 356.34375 61.714844 L 358.34375 58.957031 "/>
<path fill-rule="nonzero" fill="rgb(0%, 0%, 0%)" fill-opacity="1" d="M 356.34375 61.714844 L 353.105469 62.765625 L 353.105469 66.171875 L 356.34375 67.222656 L 358.34375 64.46875 "/>
<path fill-rule="nonzero" fill="rgb(0%, 0%, 0%)" fill-opacity="1" d="M 361.585938 63.414062 L 358.34375 64.46875 L 358.34375 67.871094 L 361.585938 68.925781 L 363.585938 66.171875 "/>
<path fill-rule="nonzero" fill="rgb(0%, 0%, 0%)" fill-opacity="1" d="M 364.820312 58.957031 L 361.585938 60.011719 L 361.585938 63.414062 L 364.820312 64.46875 L 366.824219 61.714844 "/>
<path fill-rule="nonzero" fill="rgb(0%, 0%, 0%)" fill-opacity="1" d="M 358.34375 58.957031 L 356.34375 61.714844 L 358.34375 64.46875 L 361.585938 63.414062 L 361.585938 60.011719 "/>
<path fill-rule="nonzero" fill="rgb(0%, 0%, 0%)" fill-opacity="1" d="M 347.867188 58.957031 L 344.628906 60.011719 L 344.628906 63.414062 L 347.867188 64.46875 L 349.867188 61.714844 "/>
<path fill-rule="nonzero" fill="rgb(0%, 0%, 0%)" fill-opacity="1" d="M 342.625 60.660156 L 339.386719 61.714844 L 339.386719 65.117188 L 342.625 66.171875 L 344.628906 63.414062 "/>
<path fill-rule="nonzero" fill="rgb(0%, 0%, 0%)" fill-opacity="1" d="M 342.625 66.171875 L 339.386719 67.222656 L 339.386719 70.628906 L 342.625 71.679688 L 344.628906 68.925781 "/>
<path fill-rule="nonzero" fill="rgb(0%, 0%, 0%)" fill-opacity="1" d="M 347.867188 67.871094 L 344.628906 68.925781 L 344.628906 72.332031 L 347.867188 73.382812 L 349.867188 70.628906 "/>
<path fill-rule="nonzero" fill="rgb(0%, 0%, 0%)" fill-opacity="1" d="M 351.105469 63.414062 L 347.867188 64.46875 L 347.867188 67.871094 L 351.105469 68.925781 L 353.105469 66.171875 "/>
<path fill-rule="nonzero" fill="rgb(0%, 0%, 0%)" fill-opacity="1" d="M 344.628906 63.414062 L 342.625 66.171875 L 344.628906 68.925781 L 347.867188 67.871094 L 347.867188 64.46875 "/>
<path fill-rule="nonzero" fill="rgb(0%, 0%, 0%)" fill-opacity="1" d="M 347.867188 73.382812 L 344.628906 74.433594 L 344.628906 77.839844 L 347.867188 78.890625 L 349.867188 76.136719 "/>
<path fill-rule="nonzero" fill="rgb(0%, 0%, 0%)" fill-opacity="1" d="M 342.625 75.085938 L 339.386719 76.136719 L 339.386719 79.542969 L 342.625 80.59375 L 344.628906 77.839844 "/>
<path fill-rule="nonzero" fill="rgb(0%, 0%, 0%)" fill-opacity="1" d="M 342.625 80.59375 L 339.386719 81.648438 L 339.386719 85.050781 L 342.625 86.101562 L 344.628906 83.347656 "/>
<path fill-rule="nonzero" fill="rgb(0%, 0%, 0%)" fill-opacity="1" d="M 347.867188 82.296875 L 344.628906 83.347656 L 344.628906 86.753906 L 347.867188 87.804688 L 349.867188 85.050781 "/>
<path fill-rule="nonzero" fill="rgb(0%, 0%, 0%)" fill-opacity="1" d="M 351.105469 77.839844 L 347.867188 78.890625 L 347.867188 82.296875 L 351.105469 83.347656 L 353.105469 80.59375 "/>
<path fill-rule="nonzero" fill="rgb(0%, 0%, 0%)" fill-opacity="1" d="M 344.628906 77.839844 L 342.625 80.59375 L 344.628906 83.347656 L 347.867188 82.296875 L 347.867188 78.890625 "/>
<path fill-rule="nonzero" fill="rgb(0%, 0%, 0%)" fill-opacity="1" d="M 361.585938 77.839844 L 358.34375 78.890625 L 358.34375 82.296875 L 361.585938 83.347656 L 363.585938 80.59375 "/>
<path fill-rule="nonzero" fill="rgb(0%, 0%, 0%)" fill-opacity="1" d="M 356.34375 79.542969 L 353.105469 80.59375 L 353.105469 84 L 356.34375 85.050781 L 358.34375 82.296875 "/>
<path fill-rule="nonzero" fill="rgb(0%, 0%, 0%)" fill-opacity="1" d="M 356.34375 85.050781 L 353.105469 86.101562 L 353.105469 89.507812 L 356.34375 90.5625 L 358.34375 87.804688 "/>
<path fill-rule="nonzero" fill="rgb(0%, 0%, 0%)" fill-opacity="1" d="M 361.585938 86.753906 L 358.34375 87.804688 L 358.34375 91.210938 L 361.585938 92.265625 L 363.585938 89.507812 "/>
<path fill-rule="nonzero" fill="rgb(0%, 0%, 0%)" fill-opacity="1" d="M 364.820312 82.296875 L 361.585938 83.347656 L 361.585938 86.753906 L 364.820312 87.804688 L 366.824219 85.050781 "/>
<path fill-rule="nonzero" fill="rgb(0%, 0%, 0%)" fill-opacity="1" d="M 358.34375 82.296875 L 356.34375 85.050781 L 358.34375 87.804688 L 361.585938 86.753906 L 361.585938 83.347656 "/>
<path fill-rule="nonzero" fill="rgb(0%, 0%, 0%)" fill-opacity="1" d="M 370.0625 66.171875 L 366.824219 67.222656 L 366.824219 70.628906 L 370.0625 71.679688 L 372.0625 68.925781 "/>
<path fill-rule="nonzero" fill="rgb(0%, 0%, 0%)" fill-opacity="1" d="M 364.820312 67.871094 L 361.585938 68.925781 L 361.585938 72.332031 L 364.820312 73.382812 L 366.824219 70.628906 "/>
<path fill-rule="nonzero" fill="rgb(0%, 0%, 0%)" fill-opacity="1" d="M 364.820312 73.382812 L 361.585938 74.433594 L 361.585938 77.839844 L 364.820312 78.890625 L 366.824219 76.136719 "/>
<path fill-rule="nonzero" fill="rgb(0%, 0%, 0%)" fill-opacity="1" d="M 370.0625 75.085938 L 366.824219 76.136719 L 366.824219 79.542969 L 370.0625 80.59375 L 372.0625 77.839844 "/>
<path fill-rule="nonzero" fill="rgb(0%, 0%, 0%)" fill-opacity="1" d="M 373.300781 70.628906 L 370.0625 71.679688 L 370.0625 75.085938 L 373.300781 76.136719 L 375.300781 73.382812 "/>
<path fill-rule="nonzero" fill="rgb(0%, 0%, 0%)" fill-opacity="1" d="M 366.824219 70.628906 L 364.820312 73.382812 L 366.824219 76.136719 L 370.0625 75.085938 L 370.0625 71.679688 "/>
<path fill-rule="nonzero" fill="rgb(0%, 0%, 0%)" fill-opacity="1" d="M 353.105469 66.171875 L 351.105469 68.925781 L 353.105469 71.679688 L 356.34375 70.628906 L 356.34375 67.222656 "/>
<path fill-rule="nonzero" fill="rgb(0%, 0%, 0%)" fill-opacity="1" d="M 349.867188 70.628906 L 347.867188 73.382812 L 349.867188 76.136719 L 353.105469 75.085938 L 353.105469 71.679688 "/>
<path fill-rule="nonzero" fill="rgb(0%, 0%, 0%)" fill-opacity="1" d="M 353.105469 75.085938 L 351.105469 77.839844 L 353.105469 80.59375 L 356.34375 79.542969 L 356.34375 76.136719 "/>
<path fill-rule="nonzero" fill="rgb(0%, 0%, 0%)" fill-opacity="1" d="M 358.34375 73.382812 L 356.34375 76.136719 L 358.34375 78.890625 L 361.585938 77.839844 L 361.585938 74.433594 "/>
<path fill-rule="nonzero" fill="rgb(0%, 0%, 0%)" fill-opacity="1" d="M 358.34375 67.871094 L 356.34375 70.628906 L 358.34375 73.382812 L 361.585938 72.332031 L 361.585938 68.925781 "/>
<path fill-rule="nonzero" fill="rgb(0%, 0%, 0%)" fill-opacity="1" d="M 353.105469 71.679688 L 353.105469 75.085938 L 356.34375 76.136719 L 358.34375 73.382812 L 356.34375 70.628906 "/>
<path fill-rule="nonzero" fill="rgb(0%, 0%, 0%)" fill-opacity="1" d="M 397.496094 66.171875 L 394.257812 67.222656 L 394.257812 70.628906 L 397.496094 71.679688 L 399.5 68.925781 "/>
<path fill-rule="nonzero" fill="rgb(0%, 0%, 0%)" fill-opacity="1" d="M 392.257812 67.871094 L 389.019531 68.925781 L 389.019531 72.332031 L 392.257812 73.382812 L 394.257812 70.628906 "/>
<path fill-rule="nonzero" fill="rgb(0%, 0%, 0%)" fill-opacity="1" d="M 392.257812 73.382812 L 389.019531 74.433594 L 389.019531 77.839844 L 392.257812 78.890625 L 394.257812 76.136719 "/>
<path fill-rule="nonzero" fill="rgb(0%, 0%, 0%)" fill-opacity="1" d="M 397.496094 75.085938 L 394.257812 76.136719 L 394.257812 79.542969 L 397.496094 80.59375 L 399.5 77.839844 "/>
<path fill-rule="nonzero" fill="rgb(0%, 0%, 0%)" fill-opacity="1" d="M 400.738281 70.628906 L 397.496094 71.679688 L 397.496094 75.085938 L 400.738281 76.136719 L 402.738281 73.382812 "/>
<path fill-rule="nonzero" fill="rgb(0%, 0%, 0%)" fill-opacity="1" d="M 394.257812 70.628906 L 392.257812 73.382812 L 394.257812 76.136719 L 397.496094 75.085938 L 397.496094 71.679688 "/>
<path fill-rule="nonzero" fill="rgb(0%, 0%, 0%)" fill-opacity="1" d="M 383.78125 70.628906 L 380.539062 71.679688 L 380.539062 75.085938 L 383.78125 76.136719 L 385.78125 73.382812 "/>
<path fill-rule="nonzero" fill="rgb(0%, 0%, 0%)" fill-opacity="1" d="M 378.539062 72.332031 L 375.300781 73.382812 L 375.300781 76.789062 L 378.539062 77.839844 L 380.539062 75.085938 "/>
<path fill-rule="nonzero" fill="rgb(0%, 0%, 0%)" fill-opacity="1" d="M 378.539062 77.839844 L 375.300781 78.890625 L 375.300781 82.296875 L 378.539062 83.347656 L 380.539062 80.59375 "/>
<path fill-rule="nonzero" fill="rgb(0%, 0%, 0%)" fill-opacity="1" d="M 383.78125 79.542969 L 380.539062 80.59375 L 380.539062 84 L 383.78125 85.050781 L 385.78125 82.296875 "/>
<path fill-rule="nonzero" fill="rgb(0%, 0%, 0%)" fill-opacity="1" d="M 387.019531 75.085938 L 383.78125 76.136719 L 383.78125 79.542969 L 387.019531 80.59375 L 389.019531 77.839844 "/>
<path fill-rule="nonzero" fill="rgb(0%, 0%, 0%)" fill-opacity="1" d="M 380.539062 75.085938 L 378.539062 77.839844 L 380.539062 80.59375 L 383.78125 79.542969 L 383.78125 76.136719 "/>
<path fill-rule="nonzero" fill="rgb(0%, 0%, 0%)" fill-opacity="1" d="M 383.78125 85.050781 L 380.539062 86.101562 L 380.539062 89.507812 L 383.78125 90.5625 L 385.78125 87.804688 "/>
<path fill-rule="nonzero" fill="rgb(0%, 0%, 0%)" fill-opacity="1" d="M 378.539062 86.753906 L 375.300781 87.804688 L 375.300781 91.210938 L 378.539062 92.265625 L 380.539062 89.507812 "/>
<path fill-rule="nonzero" fill="rgb(0%, 0%, 0%)" fill-opacity="1" d="M 378.539062 92.265625 L 375.300781 93.316406 L 375.300781 96.71875 L 378.539062 97.773438 L 380.539062 95.019531 "/>
<path fill-rule="nonzero" fill="rgb(0%, 0%, 0%)" fill-opacity="1" d="M 383.78125 93.964844 L 380.539062 95.019531 L 380.539062 98.421875 L 383.78125 99.476562 L 385.78125 96.71875 "/>
<path fill-rule="nonzero" fill="rgb(0%, 0%, 0%)" fill-opacity="1" d="M 387.019531 89.507812 L 383.78125 90.5625 L 383.78125 93.964844 L 387.019531 95.019531 L 389.019531 92.265625 "/>
<path fill-rule="nonzero" fill="rgb(0%, 0%, 0%)" fill-opacity="1" d="M 380.539062 89.507812 L 378.539062 92.265625 L 380.539062 95.019531 L 383.78125 93.964844 L 383.78125 90.5625 "/>
<path fill-rule="nonzero" fill="rgb(0%, 0%, 0%)" fill-opacity="1" d="M 397.496094 89.507812 L 394.257812 90.5625 L 394.257812 93.964844 L 397.496094 95.019531 L 399.5 92.265625 "/>
<path fill-rule="nonzero" fill="rgb(0%, 0%, 0%)" fill-opacity="1" d="M 392.257812 91.210938 L 389.019531 92.265625 L 389.019531 95.667969 L 392.257812 96.71875 L 394.257812 93.964844 "/>
<path fill-rule="nonzero" fill="rgb(0%, 0%, 0%)" fill-opacity="1" d="M 392.257812 96.71875 L 389.019531 97.773438 L 389.019531 101.175781 L 392.257812 102.230469 L 394.257812 99.476562 "/>
<path fill-rule="nonzero" fill="rgb(0%, 0%, 0%)" fill-opacity="1" d="M 397.496094 98.421875 L 394.257812 99.476562 L 394.257812 102.882812 L 397.496094 103.933594 L 399.5 101.175781 "/>
<path fill-rule="nonzero" fill="rgb(0%, 0%, 0%)" fill-opacity="1" d="M 400.738281 93.964844 L 397.496094 95.019531 L 397.496094 98.421875 L 400.738281 99.476562 L 402.738281 96.71875 "/>
<path fill-rule="nonzero" fill="rgb(0%, 0%, 0%)" fill-opacity="1" d="M 394.257812 93.964844 L 392.257812 96.71875 L 394.257812 99.476562 L 397.496094 98.421875 L 397.496094 95.019531 "/>
<path fill-rule="nonzero" fill="rgb(0%, 0%, 0%)" fill-opacity="1" d="M 405.976562 77.839844 L 402.738281 78.890625 L 402.738281 82.296875 L 405.976562 83.347656 L 407.976562 80.59375 "/>
<path fill-rule="nonzero" fill="rgb(0%, 0%, 0%)" fill-opacity="1" d="M 400.738281 79.542969 L 397.496094 80.59375 L 397.496094 84 L 400.738281 85.050781 L 402.738281 82.296875 "/>
<path fill-rule="nonzero" fill="rgb(0%, 0%, 0%)" fill-opacity="1" d="M 400.738281 85.050781 L 397.496094 86.101562 L 397.496094 89.507812 L 400.738281 90.5625 L 402.738281 87.804688 "/>
<path fill-rule="nonzero" fill="rgb(0%, 0%, 0%)" fill-opacity="1" d="M 405.976562 86.753906 L 402.738281 87.804688 L 402.738281 91.210938 L 405.976562 92.265625 L 407.976562 89.507812 "/>
<path fill-rule="nonzero" fill="rgb(0%, 0%, 0%)" fill-opacity="1" d="M 409.214844 82.296875 L 405.976562 83.347656 L 405.976562 86.753906 L 409.214844 87.804688 L 411.214844 85.050781 "/>
<path fill-rule="nonzero" fill="rgb(0%, 0%, 0%)" fill-opacity="1" d="M 402.738281 82.296875 L 400.738281 85.050781 L 402.738281 87.804688 L 405.976562 86.753906 L 405.976562 83.347656 "/>
<path fill-rule="nonzero" fill="rgb(0%, 0%, 0%)" fill-opacity="1" d="M 389.019531 77.839844 L 387.019531 80.59375 L 389.019531 83.347656 L 392.257812 82.296875 L 392.257812 78.890625 "/>
<path fill-rule="nonzero" fill="rgb(0%, 0%, 0%)" fill-opacity="1" d="M 385.78125 82.296875 L 383.78125 85.050781 L 385.78125 87.804688 L 389.019531 86.753906 L 389.019531 83.347656 "/>
<path fill-rule="nonzero" fill="rgb(0%, 0%, 0%)" fill-opacity="1" d="M 389.019531 86.753906 L 387.019531 89.507812 L 389.019531 92.265625 L 392.257812 91.210938 L 392.257812 87.804688 "/>
<path fill-rule="nonzero" fill="rgb(0%, 0%, 0%)" fill-opacity="1" d="M 394.257812 85.050781 L 392.257812 87.804688 L 394.257812 90.5625 L 397.496094 89.507812 L 397.496094 86.101562 "/>
<path fill-rule="nonzero" fill="rgb(0%, 0%, 0%)" fill-opacity="1" d="M 394.257812 79.542969 L 392.257812 82.296875 L 394.257812 85.050781 L 397.496094 84 L 397.496094 80.59375 "/>
<path fill-rule="nonzero" fill="rgb(0%, 0%, 0%)" fill-opacity="1" d="M 389.019531 83.347656 L 389.019531 86.753906 L 392.257812 87.804688 L 394.257812 85.050781 L 392.257812 82.296875 "/>
<path fill-rule="nonzero" fill="rgb(0%, 0%, 0%)" fill-opacity="1" d="M 419.695312 35.621094 L 416.457031 36.671875 L 416.457031 40.078125 L 419.695312 41.128906 L 421.695312 38.375 "/>
<path fill-rule="nonzero" fill="rgb(0%, 0%, 0%)" fill-opacity="1" d="M 414.453125 37.320312 L 411.214844 38.375 L 411.214844 41.777344 L 414.453125 42.832031 L 416.457031 40.078125 "/>
<path fill-rule="nonzero" fill="rgb(0%, 0%, 0%)" fill-opacity="1" d="M 414.453125 42.832031 L 411.214844 43.882812 L 411.214844 47.289062 L 414.453125 48.339844 L 416.457031 45.585938 "/>
<path fill-rule="nonzero" fill="rgb(0%, 0%, 0%)" fill-opacity="1" d="M 419.695312 44.535156 L 416.457031 45.585938 L 416.457031 48.992188 L 419.695312 50.042969 L 421.695312 47.289062 "/>
<path fill-rule="nonzero" fill="rgb(0%, 0%, 0%)" fill-opacity="1" d="M 422.933594 40.078125 L 419.695312 41.128906 L 419.695312 44.535156 L 422.933594 45.585938 L 424.933594 42.832031 "/>
<path fill-rule="nonzero" fill="rgb(0%, 0%, 0%)" fill-opacity="1" d="M 416.457031 40.078125 L 414.453125 42.832031 L 416.457031 45.585938 L 419.695312 44.535156 L 419.695312 41.128906 "/>
<path fill-rule="nonzero" fill="rgb(0%, 0%, 0%)" fill-opacity="1" d="M 405.976562 40.078125 L 402.738281 41.128906 L 402.738281 44.535156 L 405.976562 45.585938 L 407.976562 42.832031 "/>
<path fill-rule="nonzero" fill="rgb(0%, 0%, 0%)" fill-opacity="1" d="M 400.738281 41.777344 L 397.496094 42.832031 L 397.496094 46.234375 L 400.738281 47.289062 L 402.738281 44.535156 "/>
<path fill-rule="nonzero" fill="rgb(0%, 0%, 0%)" fill-opacity="1" d="M 400.738281 47.289062 L 397.496094 48.339844 L 397.496094 51.746094 L 400.738281 52.796875 L 402.738281 50.042969 "/>
<path fill-rule="nonzero" fill="rgb(0%, 0%, 0%)" fill-opacity="1" d="M 405.976562 48.992188 L 402.738281 50.042969 L 402.738281 53.449219 L 405.976562 54.5 L 407.976562 51.746094 "/>
<path fill-rule="nonzero" fill="rgb(0%, 0%, 0%)" fill-opacity="1" d="M 409.214844 44.535156 L 405.976562 45.585938 L 405.976562 48.992188 L 409.214844 50.042969 L 411.214844 47.289062 "/>
<path fill-rule="nonzero" fill="rgb(0%, 0%, 0%)" fill-opacity="1" d="M 402.738281 44.535156 L 400.738281 47.289062 L 402.738281 50.042969 L 405.976562 48.992188 L 405.976562 45.585938 "/>
<path fill-rule="nonzero" fill="rgb(0%, 0%, 0%)" fill-opacity="1" d="M 405.976562 54.5 L 402.738281 55.554688 L 402.738281 58.957031 L 405.976562 60.011719 L 407.976562 57.253906 "/>
<path fill-rule="nonzero" fill="rgb(0%, 0%, 0%)" fill-opacity="1" d="M 400.738281 56.203125 L 397.496094 57.253906 L 397.496094 60.660156 L 400.738281 61.714844 L 402.738281 58.957031 "/>
<path fill-rule="nonzero" fill="rgb(0%, 0%, 0%)" fill-opacity="1" d="M 400.738281 61.714844 L 397.496094 62.765625 L 397.496094 66.171875 L 400.738281 67.222656 L 402.738281 64.46875 "/>
<path fill-rule="nonzero" fill="rgb(0%, 0%, 0%)" fill-opacity="1" d="M 405.976562 63.414062 L 402.738281 64.46875 L 402.738281 67.871094 L 405.976562 68.925781 L 407.976562 66.171875 "/>
<path fill-rule="nonzero" fill="rgb(0%, 0%, 0%)" fill-opacity="1" d="M 409.214844 58.957031 L 405.976562 60.011719 L 405.976562 63.414062 L 409.214844 64.46875 L 411.214844 61.714844 "/>
<path fill-rule="nonzero" fill="rgb(0%, 0%, 0%)" fill-opacity="1" d="M 402.738281 58.957031 L 400.738281 61.714844 L 402.738281 64.46875 L 405.976562 63.414062 L 405.976562 60.011719 "/>
<path fill-rule="nonzero" fill="rgb(0%, 0%, 0%)" fill-opacity="1" d="M 419.695312 58.957031 L 416.457031 60.011719 L 416.457031 63.414062 L 419.695312 64.46875 L 421.695312 61.714844 "/>
<path fill-rule="nonzero" fill="rgb(0%, 0%, 0%)" fill-opacity="1" d="M 414.453125 60.660156 L 411.214844 61.714844 L 411.214844 65.117188 L 414.453125 66.171875 L 416.457031 63.414062 "/>
<path fill-rule="nonzero" fill="rgb(0%, 0%, 0%)" fill-opacity="1" d="M 414.453125 66.171875 L 411.214844 67.222656 L 411.214844 70.628906 L 414.453125 71.679688 L 416.457031 68.925781 "/>
<path fill-rule="nonzero" fill="rgb(0%, 0%, 0%)" fill-opacity="1" d="M 419.695312 67.871094 L 416.457031 68.925781 L 416.457031 72.332031 L 419.695312 73.382812 L 421.695312 70.628906 "/>
<path fill-rule="nonzero" fill="rgb(0%, 0%, 0%)" fill-opacity="1" d="M 422.933594 63.414062 L 419.695312 64.46875 L 419.695312 67.871094 L 422.933594 68.925781 L 424.933594 66.171875 "/>
<path fill-rule="nonzero" fill="rgb(0%, 0%, 0%)" fill-opacity="1" d="M 416.457031 63.414062 L 414.453125 66.171875 L 416.457031 68.925781 L 419.695312 67.871094 L 419.695312 64.46875 "/>
<path fill-rule="nonzero" fill="rgb(0%, 0%, 0%)" fill-opacity="1" d="M 428.171875 47.289062 L 424.933594 48.339844 L 424.933594 51.746094 L 428.171875 52.796875 L 430.175781 50.042969 "/>
<path fill-rule="nonzero" fill="rgb(0%, 0%, 0%)" fill-opacity="1" d="M 422.933594 48.992188 L 419.695312 50.042969 L 419.695312 53.449219 L 422.933594 54.5 L 424.933594 51.746094 "/>
<path fill-rule="nonzero" fill="rgb(0%, 0%, 0%)" fill-opacity="1" d="M 422.933594 54.5 L 419.695312 55.554688 L 419.695312 58.957031 L 422.933594 60.011719 L 424.933594 57.253906 "/>
<path fill-rule="nonzero" fill="rgb(0%, 0%, 0%)" fill-opacity="1" d="M 428.171875 56.203125 L 424.933594 57.253906 L 424.933594 60.660156 L 428.171875 61.714844 L 430.175781 58.957031 "/>
<path fill-rule="nonzero" fill="rgb(0%, 0%, 0%)" fill-opacity="1" d="M 431.410156 51.746094 L 428.171875 52.796875 L 428.171875 56.203125 L 431.410156 57.253906 L 433.414062 54.5 "/>
<path fill-rule="nonzero" fill="rgb(0%, 0%, 0%)" fill-opacity="1" d="M 424.933594 51.746094 L 422.933594 54.5 L 424.933594 57.253906 L 428.171875 56.203125 L 428.171875 52.796875 "/>
<path fill-rule="nonzero" fill="rgb(0%, 0%, 0%)" fill-opacity="1" d="M 411.214844 47.289062 L 409.214844 50.042969 L 411.214844 52.796875 L 414.453125 51.746094 L 414.453125 48.339844 "/>
<path fill-rule="nonzero" fill="rgb(0%, 0%, 0%)" fill-opacity="1" d="M 407.976562 51.746094 L 405.976562 54.5 L 407.976562 57.253906 L 411.214844 56.203125 L 411.214844 52.796875 "/>
<path fill-rule="nonzero" fill="rgb(0%, 0%, 0%)" fill-opacity="1" d="M 411.214844 56.203125 L 409.214844 58.957031 L 411.214844 61.714844 L 414.453125 60.660156 L 414.453125 57.253906 "/>
<path fill-rule="nonzero" fill="rgb(0%, 0%, 0%)" fill-opacity="1" d="M 416.457031 54.5 L 414.453125 57.253906 L 416.457031 60.011719 L 419.695312 58.957031 L 419.695312 55.554688 "/>
<path fill-rule="nonzero" fill="rgb(0%, 0%, 0%)" fill-opacity="1" d="M 416.457031 48.992188 L 414.453125 51.746094 L 416.457031 54.5 L 419.695312 53.449219 L 419.695312 50.042969 "/>
<path fill-rule="nonzero" fill="rgb(0%, 0%, 0%)" fill-opacity="1" d="M 411.214844 52.796875 L 411.214844 56.203125 L 414.453125 57.253906 L 416.457031 54.5 L 414.453125 51.746094 "/>
<path fill-rule="nonzero" fill="rgb(0%, 0%, 0%)" fill-opacity="1" d="M 375.300781 35.621094 L 373.300781 38.375 L 375.300781 41.128906 L 378.539062 40.078125 L 378.539062 36.671875 "/>
<path fill-rule="nonzero" fill="rgb(0%, 0%, 0%)" fill-opacity="1" d="M 372.0625 40.078125 L 370.0625 42.832031 L 372.0625 45.585938 L 375.300781 44.535156 L 375.300781 41.128906 "/>
<path fill-rule="nonzero" fill="rgb(0%, 0%, 0%)" fill-opacity="1" d="M 375.300781 44.535156 L 373.300781 47.289062 L 375.300781 50.042969 L 378.539062 48.992188 L 378.539062 45.585938 "/>
<path fill-rule="nonzero" fill="rgb(0%, 0%, 0%)" fill-opacity="1" d="M 380.539062 42.832031 L 378.539062 45.585938 L 380.539062 48.339844 L 383.78125 47.289062 L 383.78125 43.882812 "/>
<path fill-rule="nonzero" fill="rgb(0%, 0%, 0%)" fill-opacity="1" d="M 380.539062 37.320312 L 378.539062 40.078125 L 380.539062 42.832031 L 383.78125 41.777344 L 383.78125 38.375 "/>
<path fill-rule="nonzero" fill="rgb(0%, 0%, 0%)" fill-opacity="1" d="M 375.300781 41.128906 L 375.300781 44.535156 L 378.539062 45.585938 L 380.539062 42.832031 L 378.539062 40.078125 "/>
<path fill-rule="nonzero" fill="rgb(0%, 0%, 0%)" fill-opacity="1" d="M 366.824219 47.289062 L 364.820312 50.042969 L 366.824219 52.796875 L 370.0625 51.746094 L 370.0625 48.339844 "/>
<path fill-rule="nonzero" fill="rgb(0%, 0%, 0%)" fill-opacity="1" d="M 363.585938 51.746094 L 361.585938 54.5 L 363.585938 57.253906 L 366.824219 56.203125 L 366.824219 52.796875 "/>
<path fill-rule="nonzero" fill="rgb(0%, 0%, 0%)" fill-opacity="1" d="M 366.824219 56.203125 L 364.820312 58.957031 L 366.824219 61.714844 L 370.0625 60.660156 L 370.0625 57.253906 "/>
<path fill-rule="nonzero" fill="rgb(0%, 0%, 0%)" fill-opacity="1" d="M 372.0625 54.5 L 370.0625 57.253906 L 372.0625 60.011719 L 375.300781 58.957031 L 375.300781 55.554688 "/>
<path fill-rule="nonzero" fill="rgb(0%, 0%, 0%)" fill-opacity="1" d="M 372.0625 48.992188 L 370.0625 51.746094 L 372.0625 54.5 L 375.300781 53.449219 L 375.300781 50.042969 "/>
<path fill-rule="nonzero" fill="rgb(0%, 0%, 0%)" fill-opacity="1" d="M 366.824219 52.796875 L 366.824219 56.203125 L 370.0625 57.253906 L 372.0625 54.5 L 370.0625 51.746094 "/>
<path fill-rule="nonzero" fill="rgb(0%, 0%, 0%)" fill-opacity="1" d="M 375.300781 58.957031 L 373.300781 61.714844 L 375.300781 64.46875 L 378.539062 63.414062 L 378.539062 60.011719 "/>
<path fill-rule="nonzero" fill="rgb(0%, 0%, 0%)" fill-opacity="1" d="M 372.0625 63.414062 L 370.0625 66.171875 L 372.0625 68.925781 L 375.300781 67.871094 L 375.300781 64.46875 "/>
<path fill-rule="nonzero" fill="rgb(0%, 0%, 0%)" fill-opacity="1" d="M 375.300781 67.871094 L 373.300781 70.628906 L 375.300781 73.382812 L 378.539062 72.332031 L 378.539062 68.925781 "/>
<path fill-rule="nonzero" fill="rgb(0%, 0%, 0%)" fill-opacity="1" d="M 380.539062 66.171875 L 378.539062 68.925781 L 380.539062 71.679688 L 383.78125 70.628906 L 383.78125 67.222656 "/>
<path fill-rule="nonzero" fill="rgb(0%, 0%, 0%)" fill-opacity="1" d="M 380.539062 60.660156 L 378.539062 63.414062 L 380.539062 66.171875 L 383.78125 65.117188 L 383.78125 61.714844 "/>
<path fill-rule="nonzero" fill="rgb(0%, 0%, 0%)" fill-opacity="1" d="M 375.300781 64.46875 L 375.300781 67.871094 L 378.539062 68.925781 L 380.539062 66.171875 L 378.539062 63.414062 "/>
<path fill-rule="nonzero" fill="rgb(0%, 0%, 0%)" fill-opacity="1" d="M 389.019531 54.5 L 387.019531 57.253906 L 389.019531 60.011719 L 392.257812 58.957031 L 392.257812 55.554688 "/>
<path fill-rule="nonzero" fill="rgb(0%, 0%, 0%)" fill-opacity="1" d="M 385.78125 58.957031 L 383.78125 61.714844 L 385.78125 64.46875 L 389.019531 63.414062 L 389.019531 60.011719 "/>
<path fill-rule="nonzero" fill="rgb(0%, 0%, 0%)" fill-opacity="1" d="M 389.019531 63.414062 L 387.019531 66.171875 L 389.019531 68.925781 L 392.257812 67.871094 L 392.257812 64.46875 "/>
<path fill-rule="nonzero" fill="rgb(0%, 0%, 0%)" fill-opacity="1" d="M 394.257812 61.714844 L 392.257812 64.46875 L 394.257812 67.222656 L 397.496094 66.171875 L 397.496094 62.765625 "/>
<path fill-rule="nonzero" fill="rgb(0%, 0%, 0%)" fill-opacity="1" d="M 394.257812 56.203125 L 392.257812 58.957031 L 394.257812 61.714844 L 397.496094 60.660156 L 397.496094 57.253906 "/>
<path fill-rule="nonzero" fill="rgb(0%, 0%, 0%)" fill-opacity="1" d="M 389.019531 60.011719 L 389.019531 63.414062 L 392.257812 64.46875 L 394.257812 61.714844 L 392.257812 58.957031 "/>
<path fill-rule="nonzero" fill="rgb(0%, 0%, 0%)" fill-opacity="1" d="M 389.019531 40.078125 L 387.019531 42.832031 L 389.019531 45.585938 L 392.257812 44.535156 L 392.257812 41.128906 "/>
<path fill-rule="nonzero" fill="rgb(0%, 0%, 0%)" fill-opacity="1" d="M 385.78125 44.535156 L 383.78125 47.289062 L 385.78125 50.042969 L 389.019531 48.992188 L 389.019531 45.585938 "/>
<path fill-rule="nonzero" fill="rgb(0%, 0%, 0%)" fill-opacity="1" d="M 389.019531 48.992188 L 387.019531 51.746094 L 389.019531 54.5 L 392.257812 53.449219 L 392.257812 50.042969 "/>
<path fill-rule="nonzero" fill="rgb(0%, 0%, 0%)" fill-opacity="1" d="M 394.257812 47.289062 L 392.257812 50.042969 L 394.257812 52.796875 L 397.496094 51.746094 L 397.496094 48.339844 "/>
<path fill-rule="nonzero" fill="rgb(0%, 0%, 0%)" fill-opacity="1" d="M 394.257812 41.777344 L 392.257812 44.535156 L 394.257812 47.289062 L 397.496094 46.234375 L 397.496094 42.832031 "/>
<path fill-rule="nonzero" fill="rgb(0%, 0%, 0%)" fill-opacity="1" d="M 389.019531 45.585938 L 389.019531 48.992188 L 392.257812 50.042969 L 394.257812 47.289062 L 392.257812 44.535156 "/>
<path fill-rule="nonzero" fill="rgb(0%, 0%, 0%)" fill-opacity="1" d="M 375.300781 50.042969 L 375.300781 53.449219 L 378.539062 54.5 L 380.539062 51.746094 L 378.539062 48.992188 "/>
<path fill-rule="nonzero" fill="rgb(0%, 0%, 0%)" fill-opacity="1" d="M 375.300781 55.554688 L 375.300781 58.957031 L 378.539062 60.011719 L 380.539062 57.253906 L 378.539062 54.5 "/>
<path fill-rule="nonzero" fill="rgb(0%, 0%, 0%)" fill-opacity="1" d="M 380.539062 57.253906 L 380.539062 60.660156 L 383.78125 61.714844 L 385.78125 58.957031 L 383.78125 56.203125 "/>
<path fill-rule="nonzero" fill="rgb(0%, 0%, 0%)" fill-opacity="1" d="M 383.78125 52.796875 L 383.78125 56.203125 L 387.019531 57.253906 L 389.019531 54.5 L 387.019531 51.746094 "/>
<path fill-rule="nonzero" fill="rgb(0%, 0%, 0%)" fill-opacity="1" d="M 380.539062 48.339844 L 380.539062 51.746094 L 383.78125 52.796875 L 385.78125 50.042969 L 383.78125 47.289062 "/>
<path fill-rule="nonzero" fill="rgb(0%, 0%, 0%)" fill-opacity="1" d="M 378.539062 54.5 L 380.539062 57.253906 L 383.78125 56.203125 L 383.78125 52.796875 L 380.539062 51.746094 "/>
</svg>
