<?xml version="1.0" encoding="UTF-8"?>
<svg xmlns="http://www.w3.org/2000/svg" xmlns:xlink="http://www.w3.org/1999/xlink" width="355.44" height="144.13" viewBox="0 0 355.44 144.13">
<path fill="none" stroke-width="5" stroke-linecap="round" stroke-linejoin="round" stroke="rgb(0%, 0%, 0%)" stroke-opacity="1" stroke-miterlimit="10" d="M 290.582243 361.147208 L 314.5542 361.147208 L 314.5542 385.079867 L 338.486859 385.079867 L 338.486859 361.147208 L 314.5542 361.147208 L 314.5542 337.175252 L 338.486859 337.175252 L 338.486859 361.147208 L 362.419517 361.147208 L 362.419517 385.079867 L 338.486859 385.079867 L 338.486859 409.012525 L 362.419517 409.012525 L 362.419517 385.079867 L 386.352176 385.079867 L 386.352176 409.012525 L 362.419517 409.012525 L 362.419517 432.945184 L 386.352176 432.945184 L 386.352176 456.91714 L 410.324132 456.91714 L 410.324132 432.945184 L 386.352176 432.945184 L 386.352176 409.012525 L 410.324132 409.012525 L 410.324132 432.945184 L 434.256791 432.945184 L 434.256791 409.012525 L 458.189449 409.012525 L 458.189449 385.079867 L 434.256791 385.079867 L 434.256791 409.012525 L 410.324132 409.012525 L 410.324132 385.079867 L 434.256791 385.079867 L 434.256791 361.147208 L 410.324132 361.147208 L 410.324132 337.175252 L 386.352176 337.175252 L 386.352176 361.147208 L 410.324132 361.147208 L 410.324132 385.079867 L 386.352176 385.079867 L 386.352176 361.147208 L 362.419517 361.147208 L 362.419517 337.175252 L 386.352176 337.175252 L 386.352176 313.242593 L 362.419517 313.242593 " transform="matrix(0.0994, 0, 0, -0.0994, 0.788, 143.26522)"/>
<path fill="none" stroke-width="5" stroke-linecap="round" stroke-linejoin="round" stroke="rgb(0%, 0%, 0%)" stroke-opacity="1" stroke-miterlimit="10" d="M 362.419517 313.242593 L 362.419517 337.175252 L 338.486859 337.175252 L 338.486859 313.242593 L 362.419517 313.242593 L 362.419517 289.309935 L 386.352176 289.309935 L 386.352176 313.242593 L 410.324132 313.242593 L 410.324132 289.309935 L 386.352176 289.309935 L 386.352176 265.377276 L 410.324132 265.377276 L 410.324132 289.309935 L 434.256791 289.309935 L 434.256791 313.242593 L 410.324132 313.242593 L 410.324132 337.175252 L 434.256791 337.175252 L 434.256791 313.242593 L 458.189449 313.242593 L 458.189449 337.175252 L 434.256791 337.175252 L 434.256791 361.147208 L 458.189449 361.147208 L 458.189449 385.079867 L 482.122108 385.079867 L 482.122108 361.147208 L 458.189449 361.147208 L 458.189449 337.175252 L 482.122108 337.175252 L 482.122108 361.147208 L 506.094064 361.147208 L 506.094064 385.079867 L 482.122108 385.079867 L 482.122108 409.012525 L 506.094064 409.012525 L 506.094064 385.079867 L 530.026723 385.079867 L 530.026723 409.012525 L 506.094064 409.012525 L 506.094064 432.945184 L 482.122108 432.945184 L 482.122108 409.012525 L 458.189449 409.012525 L 458.189449 432.945184 L 482.122108 432.945184 L 482.122108 456.91714 L 458.189449 456.91714 L 458.189449 432.945184 L 434.256791 432.945184 " transform="matrix(0.0994, 0, 0, -0.0994, 0.788, 143.26522)"/>
<path fill="none" stroke-width="5" stroke-linecap="round" stroke-linejoin="round" stroke="rgb(0%, 0%, 0%)" stroke-opacity="1" stroke-miterlimit="10" d="M 434.256791 432.945184 L 434.256791 456.91714 L 410.324132 456.91714 L 410.324132 480.849799 L 434.256791 480.849799 L 434.256791 456.91714 L 458.189449 456.91714 L 458.189449 480.849799 L 434.256791 480.849799 L 434.256791 504.782457 L 458.189449 504.782457 L 458.189449 528.754414 L 482.122108 528.754414 L 482.122108 504.782457 L 458.189449 504.782457 L 458.189449 480.849799 L 482.122108 480.849799 L 482.122108 504.782457 L 506.094064 504.782457 L 506.094064 480.849799 L 530.026723 480.849799 L 530.026723 456.91714 L 506.094064 456.91714 L 506.094064 480.849799 L 482.122108 480.849799 L 482.122108 456.91714 L 506.094064 456.91714 L 506.094064 432.945184 L 530.026723 432.945184 L 530.026723 456.91714 L 553.959381 456.91714 L 553.959381 432.945184 L 530.026723 432.945184 L 530.026723 409.012525 L 553.959381 409.012525 L 553.959381 432.945184 L 577.89204 432.945184 L 577.89204 456.91714 L 553.959381 456.91714 L 553.959381 480.849799 L 577.89204 480.849799 L 577.89204 456.91714 L 601.863996 456.91714 L 601.863996 480.849799 L 577.89204 480.849799 L 577.89204 504.782457 L 553.959381 504.782457 L 553.959381 480.849799 L 530.026723 480.849799 L 530.026723 504.782457 L 553.959381 504.782457 " transform="matrix(0.0994, 0, 0, -0.0994, 0.788, 143.26522)"/>
<path fill="none" stroke-width="5" stroke-linecap="round" stroke-linejoin="round" stroke="rgb(0%, 0%, 0%)" stroke-opacity="1" stroke-miterlimit="10" d="M 553.959381 504.782457 L 553.959381 528.754414 L 530.026723 528.754414 L 530.026723 504.782457 L 506.094064 504.782457 L 506.094064 528.754414 L 482.122108 528.754414 L 482.122108 552.687072 L 506.094064 552.687072 L 506.094064 528.754414 L 530.026723 528.754414 L 530.026723 552.687072 L 506.094064 552.687072 L 506.094064 576.619731 L 530.026723 576.619731 L 530.026723 600.552389 L 553.959381 600.552389 L 553.959381 576.619731 L 530.026723 576.619731 L 530.026723 552.687072 L 553.959381 552.687072 L 553.959381 576.619731 L 577.89204 576.619731 L 577.89204 600.552389 L 553.959381 600.552389 L 553.959381 624.485048 L 577.89204 624.485048 L 577.89204 600.552389 L 601.863996 600.552389 L 601.863996 624.485048 L 577.89204 624.485048 L 577.89204 648.457005 L 601.863996 648.457005 L 601.863996 672.389663 L 625.796655 672.389663 L 625.796655 648.457005 L 601.863996 648.457005 L 601.863996 624.485048 L 625.796655 624.485048 L 625.796655 648.457005 L 649.729313 648.457005 L 649.729313 624.485048 L 673.661972 624.485048 L 673.661972 600.552389 L 649.729313 600.552389 L 649.729313 624.485048 L 625.796655 624.485048 L 625.796655 600.552389 L 649.729313 600.552389 L 649.729313 576.619731 L 625.796655 576.619731 " transform="matrix(0.0994, 0, 0, -0.0994, 0.788, 143.26522)"/>
<path fill="none" stroke-width="5" stroke-linecap="round" stroke-linejoin="round" stroke="rgb(0%, 0%, 0%)" stroke-opacity="1" stroke-miterlimit="10" d="M 625.796655 576.619731 L 625.796655 552.687072 L 601.863996 552.687072 L 601.863996 576.619731 L 625.796655 576.619731 L 625.796655 600.552389 L 601.863996 600.552389 L 601.863996 576.619731 L 577.89204 576.619731 L 577.89204 552.687072 L 601.863996 552.687072 L 601.863996 528.754414 L 577.89204 528.754414 L 577.89204 552.687072 L 553.959381 552.687072 L 553.959381 528.754414 L 577.89204 528.754414 L 577.89204 504.782457 L 601.863996 504.782457 L 601.863996 528.754414 L 625.796655 528.754414 L 625.796655 504.782457 L 601.863996 504.782457 L 601.863996 480.849799 L 625.796655 480.849799 L 625.796655 504.782457 L 649.729313 504.782457 L 649.729313 528.754414 L 625.796655 528.754414 L 625.796655 552.687072 L 649.729313 552.687072 L 649.729313 528.754414 L 673.661972 528.754414 L 673.661972 552.687072 L 649.729313 552.687072 L 649.729313 576.619731 L 673.661972 576.619731 L 673.661972 600.552389 L 697.633929 600.552389 L 697.633929 576.619731 L 673.661972 576.619731 L 673.661972 552.687072 L 697.633929 552.687072 L 697.633929 576.619731 L 721.566587 576.619731 L 721.566587 552.687072 L 745.499245 552.687072 L 745.499245 528.754414 L 721.566587 528.754414 L 721.566587 552.687072 L 697.633929 552.687072 " transform="matrix(0.0994, 0, 0, -0.0994, 0.788, 143.26522)"/>
<path fill="none" stroke-width="5" stroke-linecap="round" stroke-linejoin="round" stroke="rgb(0%, 0%, 0%)" stroke-opacity="1" stroke-miterlimit="10" d="M 697.633929 552.687072 L 697.633929 528.754414 L 721.566587 528.754414 L 721.566587 504.782457 L 745.499245 504.782457 L 745.499245 528.754414 L 769.471202 528.754414 L 769.471202 504.782457 L 745.499245 504.782457 L 745.499245 480.849799 L 769.471202 480.849799 L 769.471202 504.782457 L 793.403861 504.782457 L 793.403861 480.849799 L 817.336519 480.849799 L 817.336519 456.91714 L 793.403861 456.91714 L 793.403861 480.849799 L 769.471202 480.849799 L 769.471202 456.91714 L 793.403861 456.91714 L 793.403861 432.945184 L 769.471202 432.945184 L 769.471202 409.012525 L 745.499245 409.012525 L 745.499245 432.945184 L 769.471202 432.945184 L 769.471202 456.91714 L 745.499245 456.91714 L 745.499245 432.945184 L 721.566587 432.945184 L 721.566587 456.91714 L 697.633929 456.91714 L 697.633929 480.849799 L 721.566587 480.849799 L 721.566587 456.91714 L 745.499245 456.91714 L 745.499245 480.849799 L 721.566587 480.849799 L 721.566587 504.782457 L 697.633929 504.782457 L 697.633929 480.849799 L 673.661972 480.849799 L 673.661972 504.782457 L 697.633929 504.782457 L 697.633929 528.754414 L 673.661972 528.754414 L 673.661972 504.782457 L 649.729313 504.782457 L 649.729313 480.849799 L 673.661972 480.849799 " transform="matrix(0.0994, 0, 0, -0.0994, 0.788, 143.26522)"/>
<path fill="none" stroke-width="5" stroke-linecap="round" stroke-linejoin="round" stroke="rgb(0%, 0%, 0%)" stroke-opacity="1" stroke-miterlimit="10" d="M 673.661972 480.849799 L 673.661972 456.91714 L 649.729313 456.91714 L 649.729313 480.849799 L 625.796655 480.849799 L 625.796655 456.91714 L 649.729313 456.91714 L 649.729313 432.945184 L 673.661972 432.945184 L 673.661972 456.91714 L 697.633929 456.91714 L 697.633929 432.945184 L 673.661972 432.945184 L 673.661972 409.012525 L 697.633929 409.012525 L 697.633929 432.945184 L 721.566587 432.945184 L 721.566587 409.012525 L 745.499245 409.012525 L 745.499245 385.079867 L 721.566587 385.079867 L 721.566587 409.012525 L 697.633929 409.012525 L 697.633929 385.079867 L 721.566587 385.079867 L 721.566587 361.147208 L 697.633929 361.147208 L 697.633929 337.175252 L 673.661972 337.175252 L 673.661972 361.147208 L 697.633929 361.147208 L 697.633929 385.079867 L 673.661972 385.079867 L 673.661972 361.147208 L 649.729313 361.147208 L 649.729313 337.175252 L 673.661972 337.175252 L 673.661972 313.242593 L 649.729313 313.242593 L 649.729313 337.175252 L 625.796655 337.175252 L 625.796655 313.242593 L 649.729313 313.242593 L 649.729313 289.309935 L 625.796655 289.309935 L 625.796655 265.377276 L 601.863996 265.377276 L 601.863996 289.309935 L 625.796655 289.309935 L 625.796655 313.242593 L 601.863996 313.242593 " transform="matrix(0.0994, 0, 0, -0.0994, 0.788, 143.26522)"/>
<path fill="none" stroke-width="5" stroke-linecap="round" stroke-linejoin="round" stroke="rgb(0%, 0%, 0%)" stroke-opacity="1" stroke-miterlimit="10" d="M 601.863996 313.242593 L 601.863996 289.309935 L 577.89204 289.309935 L 577.89204 313.242593 L 553.959381 313.242593 L 553.959381 337.175252 L 577.89204 337.175252 L 577.89204 313.242593 L 601.863996 313.242593 L 601.863996 337.175252 L 577.89204 337.175252 L 577.89204 361.147208 L 601.863996 361.147208 L 601.863996 385.079867 L 625.796655 385.079867 L 625.796655 361.147208 L 601.863996 361.147208 L 601.863996 337.175252 L 625.796655 337.175252 L 625.796655 361.147208 L 649.729313 361.147208 L 649.729313 385.079867 L 625.796655 385.079867 L 625.796655 409.012525 L 649.729313 409.012525 L 649.729313 385.079867 L 673.661972 385.079867 L 673.661972 409.012525 L 649.729313 409.012525 L 649.729313 432.945184 L 625.796655 432.945184 L 625.796655 409.012525 L 601.863996 409.012525 L 601.863996 432.945184 L 625.796655 432.945184 L 625.796655 456.91714 L 601.863996 456.91714 L 601.863996 432.945184 L 577.89204 432.945184 L 577.89204 409.012525 L 601.863996 409.012525 L 601.863996 385.079867 L 577.89204 385.079867 L 577.89204 409.012525 L 553.959381 409.012525 L 553.959381 385.079867 L 577.89204 385.079867 L 577.89204 361.147208 L 553.959381 361.147208 L 553.959381 337.175252 L 530.026723 337.175252 " transform="matrix(0.0994, 0, 0, -0.0994, 0.788, 143.26522)"/>
<path fill="none" stroke-width="5" stroke-linecap="round" stroke-linejoin="round" stroke="rgb(0%, 0%, 0%)" stroke-opacity="1" stroke-miterlimit="10" d="M 530.026723 337.175252 L 530.026723 361.147208 L 553.959381 361.147208 L 553.959381 385.079867 L 530.026723 385.079867 L 530.026723 361.147208 L 506.094064 361.147208 L 506.094064 337.175252 L 530.026723 337.175252 L 530.026723 313.242593 L 506.094064 313.242593 L 506.094064 337.175252 L 482.122108 337.175252 L 482.122108 313.242593 L 506.094064 313.242593 L 506.094064 289.309935 L 530.026723 289.309935 L 530.026723 313.242593 L 553.959381 313.242593 L 553.959381 289.309935 L 530.026723 289.309935 L 530.026723 265.377276 L 553.959381 265.377276 L 553.959381 289.309935 L 577.89204 289.309935 L 577.89204 265.377276 L 601.863996 265.377276 L 601.863996 241.405319 L 577.89204 241.405319 L 577.89204 265.377276 L 553.959381 265.377276 L 553.959381 241.405319 L 577.89204 241.405319 L 577.89204 217.472661 L 553.959381 217.472661 L 553.959381 193.540003 L 530.026723 193.540003 L 530.026723 217.472661 L 553.959381 217.472661 L 553.959381 241.405319 L 530.026723 241.405319 L 530.026723 217.472661 L 506.094064 217.472661 L 506.094064 241.405319 L 482.122108 241.405319 L 482.122108 265.377276 L 506.094064 265.377276 L 506.094064 241.405319 L 530.026723 241.405319 L 530.026723 265.377276 L 506.094064 265.377276 " transform="matrix(0.0994, 0, 0, -0.0994, 0.788, 143.26522)"/>
<path fill="none" stroke-width="5" stroke-linecap="round" stroke-linejoin="round" stroke="rgb(0%, 0%, 0%)" stroke-opacity="1" stroke-miterlimit="10" d="M 506.094064 265.377276 L 506.094064 289.309935 L 482.122108 289.309935 L 482.122108 265.377276 L 458.189449 265.377276 L 458.189449 289.309935 L 482.122108 289.309935 L 482.122108 313.242593 L 458.189449 313.242593 L 458.189449 289.309935 L 434.256791 289.309935 L 434.256791 265.377276 L 458.189449 265.377276 L 458.189449 241.405319 L 434.256791 241.405319 L 434.256791 265.377276 L 410.324132 265.377276 L 410.324132 241.405319 L 434.256791 241.405319 L 434.256791 217.472661 L 458.189449 217.472661 L 458.189449 241.405319 L 482.122108 241.405319 L 482.122108 217.472661 L 458.189449 217.472661 L 458.189449 193.540003 L 482.122108 193.540003 L 482.122108 217.472661 L 506.094064 217.472661 L 506.094064 193.540003 L 530.026723 193.540003 L 530.026723 169.607344 L 506.094064 169.607344 L 506.094064 193.540003 L 482.122108 193.540003 L 482.122108 169.607344 L 506.094064 169.607344 L 506.094064 145.635387 L 530.026723 145.635387 L 530.026723 169.607344 L 553.959381 169.607344 L 553.959381 145.635387 L 530.026723 145.635387 L 530.026723 121.702729 L 553.959381 121.702729 L 553.959381 145.635387 L 577.89204 145.635387 L 577.89204 169.607344 L 553.959381 169.607344 L 553.959381 193.540003 L 577.89204 193.540003 " transform="matrix(0.0994, 0, 0, -0.0994, 0.788, 143.26522)"/>
<path fill="none" stroke-width="5" stroke-linecap="round" stroke-linejoin="round" stroke="rgb(0%, 0%, 0%)" stroke-opacity="1" stroke-miterlimit="10" d="M 577.89204 193.540003 L 577.89204 169.607344 L 601.863996 169.607344 L 601.863996 193.540003 L 577.89204 193.540003 L 577.89204 217.472661 L 601.863996 217.472661 L 601.863996 241.405319 L 625.796655 241.405319 L 625.796655 217.472661 L 601.863996 217.472661 L 601.863996 193.540003 L 625.796655 193.540003 L 625.796655 217.472661 L 649.729313 217.472661 L 649.729313 193.540003 L 673.661972 193.540003 L 673.661972 169.607344 L 649.729313 169.607344 L 649.729313 193.540003 L 625.796655 193.540003 L 625.796655 169.607344 L 649.729313 169.607344 L 649.729313 145.635387 L 625.796655 145.635387 L 625.796655 121.702729 L 601.863996 121.702729 L 601.863996 145.635387 L 625.796655 145.635387 L 625.796655 169.607344 L 601.863996 169.607344 L 601.863996 145.635387 L 577.89204 145.635387 L 577.89204 121.702729 L 601.863996 121.702729 L 601.863996 97.77007 L 577.89204 97.77007 L 577.89204 121.702729 L 553.959381 121.702729 L 553.959381 97.77007 L 577.89204 97.77007 L 577.89204 73.837412 L 601.863996 73.837412 L 601.863996 97.77007 L 625.796655 97.77007 L 625.796655 73.837412 L 601.863996 73.837412 L 601.863996 49.865455 L 625.796655 49.865455 L 625.796655 73.837412 L 649.729313 73.837412 " transform="matrix(0.0994, 0, 0, -0.0994, 0.788, 143.26522)"/>
<path fill="none" stroke-width="5" stroke-linecap="round" stroke-linejoin="round" stroke="rgb(0%, 0%, 0%)" stroke-opacity="1" stroke-miterlimit="10" d="M 649.729313 73.837412 L 649.729313 97.77007 L 625.796655 97.77007 L 625.796655 121.702729 L 649.729313 121.702729 L 649.729313 97.77007 L 673.661972 97.77007 L 673.661972 121.702729 L 649.729313 121.702729 L 649.729313 145.635387 L 673.661972 145.635387 L 673.661972 169.607344 L 697.633929 169.607344 L 697.633929 145.635387 L 673.661972 145.635387 L 673.661972 121.702729 L 697.633929 121.702729 L 697.633929 145.635387 L 721.566587 145.635387 L 721.566587 169.607344 L 697.633929 169.607344 L 697.633929 193.540003 L 721.566587 193.540003 L 721.566587 169.607344 L 745.499245 169.607344 L 745.499245 193.540003 L 721.566587 193.540003 L 721.566587 217.472661 L 697.633929 217.472661 L 697.633929 193.540003 L 673.661972 193.540003 L 673.661972 217.472661 L 697.633929 217.472661 L 697.633929 241.405319 L 673.661972 241.405319 L 673.661972 217.472661 L 649.729313 217.472661 L 649.729313 241.405319 L 625.796655 241.405319 L 625.796655 265.377276 L 649.729313 265.377276 L 649.729313 241.405319 L 673.661972 241.405319 L 673.661972 265.377276 L 649.729313 265.377276 L 649.729313 289.309935 L 673.661972 289.309935 L 673.661972 313.242593 L 697.633929 313.242593 L 697.633929 289.309935 L 673.661972 289.309935 " transform="matrix(0.0994, 0, 0, -0.0994, 0.788, 143.26522)"/>
<path fill="none" stroke-width="5" stroke-linecap="round" stroke-linejoin="round" stroke="rgb(0%, 0%, 0%)" stroke-opacity="1" stroke-miterlimit="10" d="M 673.661972 289.309935 L 673.661972 265.377276 L 697.633929 265.377276 L 697.633929 289.309935 L 721.566587 289.309935 L 721.566587 265.377276 L 745.499245 265.377276 L 745.499245 241.405319 L 721.566587 241.405319 L 721.566587 265.377276 L 697.633929 265.377276 L 697.633929 241.405319 L 721.566587 241.405319 L 721.566587 217.472661 L 745.499245 217.472661 L 745.499245 241.405319 L 769.471202 241.405319 L 769.471202 217.472661 L 745.499245 217.472661 L 745.499245 193.540003 L 769.471202 193.540003 L 769.471202 217.472661 L 793.403861 217.472661 L 793.403861 241.405319 L 769.471202 241.405319 L 769.471202 265.377276 L 793.403861 265.377276 L 793.403861 241.405319 L 817.336519 241.405319 L 817.336519 265.377276 L 793.403861 265.377276 L 793.403861 289.309935 L 769.471202 289.309935 L 769.471202 265.377276 L 745.499245 265.377276 L 745.499245 289.309935 L 769.471202 289.309935 L 769.471202 313.242593 L 745.499245 313.242593 L 745.499245 289.309935 L 721.566587 289.309935 L 721.566587 313.242593 L 697.633929 313.242593 L 697.633929 337.175252 L 721.566587 337.175252 L 721.566587 313.242593 L 745.499245 313.242593 L 745.499245 337.175252 L 721.566587 337.175252 L 721.566587 361.147208 L 745.499245 361.147208 " transform="matrix(0.0994, 0, 0, -0.0994, 0.788, 143.26522)"/>
<path fill="none" stroke-width="5" stroke-linecap="round" stroke-linejoin="round" stroke="rgb(0%, 0%, 0%)" stroke-opacity="1" stroke-miterlimit="10" d="M 745.499245 361.147208 L 745.499245 385.079867 L 769.471202 385.079867 L 769.471202 361.147208 L 745.499245 361.147208 L 745.499245 337.175252 L 769.471202 337.175252 L 769.471202 361.147208 L 793.403861 361.147208 L 793.403861 385.079867 L 769.471202 385.079867 L 769.471202 409.012525 L 793.403861 409.012525 L 793.403861 385.079867 L 817.336519 385.079867 L 817.336519 409.012525 L 793.403861 409.012525 L 793.403861 432.945184 L 817.336519 432.945184 L 817.336519 456.91714 L 841.269178 456.91714 L 841.269178 432.945184 L 817.336519 432.945184 L 817.336519 409.012525 L 841.269178 409.012525 L 841.269178 432.945184 L 865.241134 432.945184 L 865.241134 409.012525 L 889.173793 409.012525 L 889.173793 385.079867 L 865.241134 385.079867 L 865.241134 409.012525 L 841.269178 409.012525 L 841.269178 385.079867 L 865.241134 385.079867 L 865.241134 361.147208 L 841.269178 361.147208 L 841.269178 337.175252 L 817.336519 337.175252 L 817.336519 361.147208 L 841.269178 361.147208 L 841.269178 385.079867 L 817.336519 385.079867 L 817.336519 361.147208 L 793.403861 361.147208 L 793.403861 337.175252 L 817.336519 337.175252 L 817.336519 313.242593 L 793.403861 313.242593 L 793.403861 337.175252 L 769.471202 337.175252 " transform="matrix(0.0994, 0, 0, -0.0994, 0.788, 143.26522)"/>
<path fill="none" stroke-width="5" stroke-linecap="round" stroke-linejoin="round" stroke="rgb(0%, 0%, 0%)" stroke-opacity="1" stroke-miterlimit="10" d="M 769.471202 337.175252 L 769.471202 313.242593 L 793.403861 313.242593 L 793.403861 289.309935 L 817.336519 289.309935 L 817.336519 313.242593 L 841.269178 313.242593 L 841.269178 289.309935 L 817.336519 289.309935 L 817.336519 265.377276 L 841.269178 265.377276 L 841.269178 289.309935 L 865.241134 289.309935 L 865.241134 313.242593 L 841.269178 313.242593 L 841.269178 337.175252 L 865.241134 337.175252 L 865.241134 313.242593 L 889.173793 313.242593 L 889.173793 337.175252 L 865.241134 337.175252 L 865.241134 361.147208 L 889.173793 361.147208 L 889.173793 385.079867 L 913.106451 385.079867 L 913.106451 361.147208 L 889.173793 361.147208 L 889.173793 337.175252 L 913.106451 337.175252 L 913.106451 361.147208 L 937.03911 361.147208 " transform="matrix(0.0994, 0, 0, -0.0994, 0.788, 143.26522)"/>
<path fill="none" stroke-width="5" stroke-linecap="round" stroke-linejoin="round" stroke="rgb(0%, 0%, 0%)" stroke-opacity="1" stroke-miterlimit="10" d="M 1762.224598 49.865455 L 1792.169894 49.865455 L 1807.142543 75.802326 L 1777.197246 75.802326 L 1762.224598 101.739198 L 1822.115191 101.739198 L 1837.08784 75.802326 L 1867.033136 75.802326 L 1896.978433 127.676069 L 1867.033136 127.676069 L 1852.060488 101.739198 L 1837.08784 127.676069 L 1852.060488 153.61294 L 1837.08784 179.549811 L 1777.197246 179.549811 L 1792.169894 153.61294 L 1822.115191 153.61294 L 1807.142543 127.676069 L 1777.197246 127.676069 L 1762.224598 153.61294 L 1732.279301 153.61294 L 1747.251949 127.676069 L 1732.279301 101.739198 L 1717.306652 127.676069 L 1702.294706 153.61294 L 1717.306652 179.549811 L 1747.251949 179.549811 L 1762.224598 205.525981 L 1732.279301 205.525981 L 1717.306652 231.462852 L 1777.197246 231.462852 L 1792.169894 205.525981 L 1822.115191 205.525981 L 1837.08784 231.462852 L 1807.142543 231.462852 L 1792.169894 257.399723 L 1852.060488 257.399723 L 1867.033136 231.462852 L 1852.060488 205.525981 L 1867.033136 179.549811 L 1882.005785 153.61294 L 1896.978433 179.549811 L 1882.005785 205.525981 L 1911.951081 205.525981 L 1926.92373 179.549811 " transform="matrix(0.0994, 0, 0, -0.0994, 0.788, 143.26522)"/>
<path fill="none" stroke-width="5" stroke-linecap="round" stroke-linejoin="round" stroke="rgb(0%, 0%, 0%)" stroke-opacity="1" stroke-miterlimit="10" d="M 1926.92373 179.549811 L 1956.908325 179.549811 L 1971.841675 205.525981 L 1941.896378 205.525981 L 1926.92373 231.462852 L 1986.853622 231.462852 L 2001.82627 205.525981 L 2031.771567 205.525981 L 2061.716864 257.399723 L 2031.771567 257.399723 L 2016.798919 231.462852 L 2001.82627 257.399723 L 2016.798919 283.336595 L 2046.744215 283.336595 L 2076.689512 335.210337 L 2046.744215 335.210337 L 2031.771567 309.273466 L 2016.798919 335.210337 L 2031.771567 361.147208 L 2016.798919 387.084079 L 1956.908325 387.084079 L 1971.841675 361.147208 L 2001.82627 361.147208 L 1986.853622 335.210337 L 1956.908325 335.210337 L 1941.896378 309.273466 L 1956.908325 283.336595 L 1971.841675 309.273466 L 2001.82627 309.273466 L 1986.853622 283.336595 L 1971.841675 257.399723 L 1941.896378 257.399723 L 1926.92373 283.336595 L 1896.978433 283.336595 L 1911.951081 257.399723 L 1896.978433 231.462852 L 1867.033136 283.336595 L 1882.005785 309.273466 L 1911.951081 309.273466 L 1941.896378 361.147208 L 1911.951081 361.147208 L 1896.978433 335.210337 L 1882.005785 361.147208 L 1896.978433 387.084079 L 1882.005785 413.020951 " transform="matrix(0.0994, 0, 0, -0.0994, 0.788, 143.26522)"/>
<path fill="none" stroke-width="5" stroke-linecap="round" stroke-linejoin="round" stroke="rgb(0%, 0%, 0%)" stroke-opacity="1" stroke-miterlimit="10" d="M 1882.005785 413.020951 L 1852.060488 413.020951 L 1867.033136 387.084079 L 1852.060488 361.147208 L 1822.115191 413.020951 L 1837.08784 438.957822 L 1822.115191 464.894693 L 1762.224598 464.894693 L 1777.197246 438.957822 L 1807.142543 438.957822 L 1792.169894 413.020951 L 1762.224598 413.020951 L 1747.251949 438.957822 L 1687.322057 438.957822 L 1702.294706 413.020951 L 1732.279301 413.020951 L 1717.306652 387.084079 L 1687.322057 387.084079 L 1672.349409 361.147208 L 1702.294706 309.273466 L 1717.306652 335.210337 L 1702.294706 361.147208 L 1732.279301 361.147208 L 1747.251949 335.210337 L 1777.197246 335.210337 L 1792.169894 361.147208 L 1762.224598 361.147208 L 1747.251949 387.084079 L 1807.142543 387.084079 L 1822.115191 361.147208 L 1807.142543 335.210337 L 1822.115191 309.273466 L 1837.08784 335.210337 L 1867.033136 335.210337 L 1837.08784 283.336595 L 1807.142543 283.336595 L 1792.169894 309.273466 L 1732.279301 309.273466 L 1747.251949 283.336595 L 1777.197246 283.336595 L 1762.224598 257.399723 L 1732.279301 257.399723 L 1717.306652 283.336595 L 1687.322057 283.336595 " transform="matrix(0.0994, 0, 0, -0.0994, 0.788, 143.26522)"/>
<path fill="none" stroke-width="5" stroke-linecap="round" stroke-linejoin="round" stroke="rgb(0%, 0%, 0%)" stroke-opacity="1" stroke-miterlimit="10" d="M 1687.322057 283.336595 L 1702.294706 257.399723 L 1687.322057 231.462852 L 1657.376761 283.336595 L 1672.349409 309.273466 L 1657.376761 335.210337 L 1597.486167 335.210337 L 1612.458815 309.273466 L 1642.404112 309.273466 L 1627.431464 283.336595 L 1597.486167 283.336595 L 1582.513519 257.399723 L 1612.458815 205.525981 L 1627.431464 231.462852 L 1612.458815 257.399723 L 1642.404112 257.399723 L 1657.376761 231.462852 L 1642.404112 205.525981 L 1657.376761 179.549811 L 1672.349409 205.525981 L 1702.294706 205.525981 L 1687.322057 179.549811 L 1672.349409 153.61294 L 1642.404112 153.61294 L 1627.431464 179.549811 L 1597.486167 179.549811 L 1612.458815 153.61294 L 1597.486167 127.676069 L 1567.54087 179.549811 L 1582.513519 205.525981 L 1567.54087 231.462852 L 1537.595573 231.462852 L 1552.568222 205.525981 L 1537.595573 179.549811 L 1522.622925 205.525981 L 1507.610978 231.462852 L 1522.622925 257.399723 L 1552.568222 257.399723 L 1582.513519 309.273466 L 1552.568222 309.273466 L 1537.595573 283.336595 L 1522.622925 309.273466 L 1537.595573 335.210337 L 1567.54087 335.210337 L 1582.513519 361.147208 L 1552.568222 361.147208 " transform="matrix(0.0994, 0, 0, -0.0994, 0.788, 143.26522)"/>
<path fill="none" stroke-width="5" stroke-linecap="round" stroke-linejoin="round" stroke="rgb(0%, 0%, 0%)" stroke-opacity="1" stroke-miterlimit="10" d="M 1552.568222 361.147208 L 1537.595573 387.084079 L 1597.486167 387.084079 L 1612.458815 361.147208 L 1642.404112 361.147208 L 1672.349409 413.020951 L 1642.404112 413.020951 L 1627.431464 387.084079 L 1612.458815 413.020951 L 1627.431464 438.957822 L 1612.458815 464.894693 L 1552.568222 464.894693 L 1567.54087 438.957822 L 1597.486167 438.957822 L 1582.513519 413.020951 L 1552.568222 413.020951 L 1537.595573 438.957822 L 1507.610978 438.957822 L 1522.622925 413.020951 L 1507.610978 387.084079 L 1492.677628 413.020951 L 1477.665682 438.957822 L 1492.677628 464.894693 L 1522.622925 464.894693 L 1537.595573 490.831564 L 1507.610978 490.831564 L 1492.677628 516.768436 L 1552.568222 516.768436 L 1567.54087 490.831564 L 1597.486167 490.831564 L 1612.458815 516.768436 L 1582.513519 516.768436 L 1567.54087 542.705307 L 1627.431464 542.705307 L 1642.404112 516.768436 L 1627.431464 490.831564 L 1657.376761 438.957822 L 1672.349409 464.894693 L 1657.376761 490.831564 L 1687.322057 490.831564 L 1702.294706 464.894693 L 1732.279301 464.894693 L 1747.251949 490.831564 L 1717.306652 490.831564 L 1702.294706 516.768436 " transform="matrix(0.0994, 0, 0, -0.0994, 0.788, 143.26522)"/>
<path fill="none" stroke-width="5" stroke-linecap="round" stroke-linejoin="round" stroke="rgb(0%, 0%, 0%)" stroke-opacity="1" stroke-miterlimit="10" d="M 1702.294706 516.768436 L 1762.224598 516.768436 L 1777.197246 490.831564 L 1807.142543 490.831564 L 1837.08784 542.705307 L 1807.142543 542.705307 L 1792.169894 516.768436 L 1777.197246 542.705307 L 1792.169894 568.642178 L 1777.197246 594.579049 L 1717.306652 594.579049 L 1732.279301 568.642178 L 1762.224598 568.642178 L 1747.251949 542.705307 L 1717.306652 542.705307 L 1702.294706 568.642178 L 1672.349409 568.642178 L 1687.322057 542.705307 L 1672.349409 516.768436 L 1642.404112 568.642178 L 1657.376761 594.579049 L 1687.322057 594.579049 L 1702.294706 620.515921 L 1672.349409 620.515921 L 1657.376761 646.452792 L 1717.306652 646.452792 L 1732.279301 620.515921 L 1762.224598 620.515921 L 1777.197246 646.452792 L 1747.251949 646.452792 L 1732.279301 672.389663 L 1792.169894 672.389663 L 1807.142543 646.452792 L 1792.169894 620.515921 L 1822.115191 568.642178 L 1837.08784 594.579049 L 1822.115191 620.515921 L 1852.060488 620.515921 L 1867.033136 594.579049 L 1852.060488 568.642178 L 1867.033136 542.705307 L 1882.005785 568.642178 L 1911.951081 568.642178 L 1896.978433 542.705307 " transform="matrix(0.0994, 0, 0, -0.0994, 0.788, 143.26522)"/>
<path fill="none" stroke-width="5" stroke-linecap="round" stroke-linejoin="round" stroke="rgb(0%, 0%, 0%)" stroke-opacity="1" stroke-miterlimit="10" d="M 1896.978433 542.705307 L 1882.005785 516.768436 L 1852.060488 516.768436 L 1837.08784 490.831564 L 1867.033136 438.957822 L 1882.005785 464.894693 L 1867.033136 490.831564 L 1896.978433 490.831564 L 1911.951081 464.894693 L 1896.978433 438.957822 L 1926.92373 387.084079 L 1941.896378 413.020951 L 1926.92373 438.957822 L 1956.908325 438.957822 L 1971.841675 413.020951 L 2001.82627 413.020951 L 2031.771567 464.894693 L 2001.82627 464.894693 L 1986.853622 438.957822 L 1971.841675 464.894693 L 1986.853622 490.831564 L 1971.841675 516.768436 L 1941.896378 516.768436 L 1956.908325 490.831564 L 1941.896378 464.894693 L 1911.951081 516.768436 L 1926.92373 542.705307 L 1956.908325 542.705307 L 1971.841675 568.642178 L 1941.896378 568.642178 L 1926.92373 594.579049 L 1986.853622 594.579049 L 2001.82627 568.642178 L 1986.853622 542.705307 L 2016.798919 490.831564 L 2031.771567 516.768436 L 2016.798919 542.705307 L 2046.744215 542.705307 L 2061.716864 516.768436 " transform="matrix(0.0994, 0, 0, -0.0994, 0.788, 143.26522)"/>
<path fill="none" stroke-width="5" stroke-linecap="round" stroke-linejoin="round" stroke="rgb(0%, 0%, 0%)" stroke-opacity="1" stroke-miterlimit="10" d="M 321.392103 1192.384633 L 337.622296 1177.097598 L 348.468624 1177.097598 L 359.314952 1187.275855 L 359.314952 1197.49341 L 348.468624 1207.710966 L 348.468624 1217.889223 L 359.314952 1228.106778 L 359.314952 1238.324334 L 348.468624 1248.502591 L 337.622296 1248.502591 L 326.815267 1238.324334 L 315.968939 1238.324334 L 305.161909 1248.502591 L 305.161909 1258.720146 L 315.968939 1268.937701 L 315.968939 1279.155257 L 305.161909 1289.333514 L 294.315581 1289.333514 L 283.469253 1279.155257 L 283.469253 1268.937701 L 294.315581 1258.720146 L 294.315581 1248.502591 L 283.469253 1238.324334 L 272.662223 1238.324334 L 261.815895 1248.502591 L 251.008866 1248.502591 L 240.162538 1238.324334 L 229.355508 1238.324334 L 218.50918 1248.502591 L 218.50918 1258.720146 L 229.355508 1268.937701 L 229.355508 1279.155257 L 218.50918 1289.333514 L 207.662852 1289.333514 L 196.855822 1279.155257 L 196.855822 1268.937701 L 207.662852 1258.720146 L 207.662852 1248.502591 L 196.855822 1238.324334 L 196.855822 1228.106778 L 207.662852 1217.889223 L 218.50918 1217.889223 L 229.355508 1228.106778 L 240.162538 1228.106778 L 251.008866 1217.889223 L 251.008866 1207.710966 L 240.162538 1197.49341 L 229.355508 1197.49341 L 218.50918 1207.710966 " transform="matrix(0.0994, 0, 0, -0.0994, 0.788, 143.26522)"/>
<path fill="none" stroke-width="5" stroke-linecap="round" stroke-linejoin="round" stroke="rgb(0%, 0%, 0%)" stroke-opacity="1" stroke-miterlimit="10" d="M 218.50918 1207.710966 L 207.662852 1207.710966 L 196.855822 1197.49341 L 196.855822 1187.275855 L 207.662852 1177.097598 L 207.662852 1166.880043 L 196.855822 1156.662487 L 186.009494 1156.662487 L 175.163166 1166.880043 L 164.356137 1166.880043 L 153.509809 1156.662487 L 142.702779 1156.662487 L 131.856451 1166.880043 L 131.856451 1177.097598 L 142.702779 1187.275855 L 142.702779 1197.49341 L 131.856451 1207.710966 L 121.049422 1207.710966 L 110.203094 1197.49341 L 110.203094 1187.275855 L 121.049422 1177.097598 L 121.049422 1166.880043 L 110.203094 1156.662487 L 110.203094 1146.48423 L 121.049422 1136.266675 L 131.856451 1136.266675 L 142.702779 1146.48423 L 153.509809 1146.48423 L 164.356137 1136.266675 L 164.356137 1126.04912 L 153.509809 1115.831564 L 153.509809 1105.653307 L 164.356137 1095.435752 L 175.163166 1095.435752 L 186.009494 1105.653307 L 186.009494 1115.831564 L 175.163166 1126.04912 L 175.163166 1136.266675 L 186.009494 1146.48423 L 196.855822 1146.48423 L 207.662852 1136.266675 L 218.50918 1136.266675 L 229.355508 1146.48423 L 240.162538 1146.48423 L 251.008866 1136.266675 L 251.008866 1126.04912 L 240.162538 1115.831564 L 229.355508 1115.831564 L 218.50918 1126.04912 L 207.662852 1126.04912 L 196.855822 1115.831564 " transform="matrix(0.0994, 0, 0, -0.0994, 0.788, 143.26522)"/>
<path fill="none" stroke-width="5" stroke-linecap="round" stroke-linejoin="round" stroke="rgb(0%, 0%, 0%)" stroke-opacity="1" stroke-miterlimit="10" d="M 196.855822 1115.831564 L 196.855822 1105.653307 L 207.662852 1095.435752 L 207.662852 1085.218197 L 196.855822 1075.03994 L 196.855822 1064.822384 L 207.662852 1054.604829 L 218.50918 1054.604829 L 229.355508 1064.822384 L 240.162538 1064.822384 L 251.008866 1054.604829 L 251.008866 1044.426572 L 240.162538 1034.209017 L 229.355508 1034.209017 L 218.50918 1044.426572 L 207.662852 1044.426572 L 196.855822 1034.209017 L 196.855822 1023.991461 L 207.662852 1013.813204 L 207.662852 1003.595649 L 196.855822 993.378094 L 186.009494 993.378094 L 175.163166 1003.595649 L 164.356137 1003.595649 L 153.509809 993.378094 L 142.702779 993.378094 L 131.856451 1003.595649 L 131.856451 1013.813204 L 142.702779 1023.991461 L 142.702779 1034.209017 L 131.856451 1044.426572 L 121.049422 1044.426572 L 110.203094 1034.209017 L 110.203094 1023.991461 L 121.049422 1013.813204 L 121.049422 1003.595649 L 110.203094 993.378094 L 110.203094 983.199837 L 121.049422 972.982281 L 131.856451 972.982281 L 142.702779 983.199837 L 153.509809 983.199837 L 164.356137 972.982281 L 164.356137 962.764726 L 153.509809 952.586469 L 153.509809 942.368913 L 164.356137 932.151358 L 175.163166 932.151358 L 186.009494 942.368913 L 186.009494 952.586469 L 175.163166 962.764726 " transform="matrix(0.0994, 0, 0, -0.0994, 0.788, 143.26522)"/>
<path fill="none" stroke-width="5" stroke-linecap="round" stroke-linejoin="round" stroke="rgb(0%, 0%, 0%)" stroke-opacity="1" stroke-miterlimit="10" d="M 175.163166 962.764726 L 175.163166 972.982281 L 186.009494 983.199837 L 196.855822 983.199837 L 207.662852 972.982281 L 218.50918 972.982281 L 229.355508 983.199837 L 240.162538 983.199837 L 251.008866 972.982281 L 251.008866 962.764726 L 240.162538 952.586469 L 240.162538 942.368913 L 251.008866 932.151358 L 261.815895 932.151358 L 272.662223 942.368913 L 272.662223 952.586469 L 261.815895 962.764726 L 261.815895 972.982281 L 272.662223 983.199837 L 272.662223 993.378094 L 261.815895 1003.595649 L 251.008866 1003.595649 L 240.162538 993.378094 L 229.355508 993.378094 L 218.50918 1003.595649 L 218.50918 1013.813204 L 229.355508 1023.991461 L 240.162538 1023.991461 L 251.008866 1013.813204 L 261.815895 1013.813204 L 272.662223 1023.991461 L 272.662223 1034.209017 L 261.815895 1044.426572 L 261.815895 1054.604829 L 272.662223 1064.822384 L 283.469253 1064.822384 L 294.315581 1054.604829 L 305.161909 1054.604829 L 315.968939 1064.822384 L 326.815267 1064.822384 L 337.622296 1054.604829 L 337.622296 1044.426572 L 326.815267 1034.209017 L 315.968939 1034.209017 L 305.161909 1044.426572 L 294.315581 1044.426572 L 283.469253 1034.209017 L 283.469253 1023.991461 L 294.315581 1013.813204 L 294.315581 1003.595649 L 283.469253 993.378094 " transform="matrix(0.0994, 0, 0, -0.0994, 0.788, 143.26522)"/>
<path fill="none" stroke-width="5" stroke-linecap="round" stroke-linejoin="round" stroke="rgb(0%, 0%, 0%)" stroke-opacity="1" stroke-miterlimit="10" d="M 283.469253 993.378094 L 283.469253 983.199837 L 294.315581 972.982281 L 305.161909 972.982281 L 315.968939 983.199837 L 326.815267 983.199837 L 337.622296 972.982281 L 337.622296 962.764726 L 326.815267 952.586469 L 326.815267 942.368913 L 337.622296 932.151358 L 348.468624 932.151358 L 359.314952 942.368913 L 359.314952 952.586469 L 348.468624 962.764726 L 348.468624 972.982281 L 359.314952 983.199837 L 370.121982 983.199837 L 380.96831 972.982281 L 391.814638 972.982281 L 402.621668 983.199837 L 413.467995 983.199837 L 424.275025 972.982281 L 424.275025 962.764726 L 413.467995 952.586469 L 402.621668 952.586469 L 391.814638 962.764726 L 380.96831 962.764726 L 370.121982 952.586469 L 370.121982 942.368913 L 380.96831 932.151358 L 380.96831 921.933803 L 370.121982 911.755546 L 370.121982 901.53799 L 380.96831 891.359733 L 391.814638 891.359733 L 402.621668 901.53799 L 413.467995 901.53799 L 424.275025 891.359733 L 424.275025 881.142178 L 413.467995 870.924623 L 402.621668 870.924623 L 391.814638 881.142178 L 380.96831 881.142178 L 370.121982 870.924623 L 370.121982 860.746366 L 380.96831 850.52881 L 380.96831 840.311255 L 370.121982 830.0937 L 359.314952 830.0937 L 348.468624 840.311255 " transform="matrix(0.0994, 0, 0, -0.0994, 0.788, 143.26522)"/>
<path fill="none" stroke-width="5" stroke-linecap="round" stroke-linejoin="round" stroke="rgb(0%, 0%, 0%)" stroke-opacity="1" stroke-miterlimit="10" d="M 348.468624 840.311255 L 337.622296 840.311255 L 326.815267 830.0937 L 315.968939 830.0937 L 305.161909 840.311255 L 305.161909 850.52881 L 315.968939 860.746366 L 315.968939 870.924623 L 305.161909 881.142178 L 294.315581 881.142178 L 283.469253 870.924623 L 283.469253 860.746366 L 294.315581 850.52881 L 294.315581 840.311255 L 283.469253 830.0937 L 283.469253 819.915443 L 294.315581 809.697887 L 305.161909 809.697887 L 315.968939 819.915443 L 326.815267 819.915443 L 337.622296 809.697887 L 337.622296 799.480332 L 326.815267 789.302075 L 326.815267 779.08452 L 337.622296 768.866964 L 348.468624 768.866964 L 359.314952 779.08452 L 359.314952 789.302075 L 348.468624 799.480332 L 348.468624 809.697887 L 359.314952 819.915443 L 370.121982 819.915443 L 380.96831 809.697887 L 391.814638 809.697887 L 402.621668 819.915443 L 413.467995 819.915443 L 424.275025 809.697887 L 424.275025 799.480332 L 413.467995 789.302075 L 413.467995 779.08452 L 424.275025 768.866964 L 435.121353 768.866964 L 445.967681 779.08452 L 445.967681 789.302075 L 435.121353 799.480332 L 435.121353 809.697887 L 445.967681 819.915443 L 445.967681 830.0937 L 435.121353 840.311255 L 424.275025 840.311255 L 413.467995 830.0937 " transform="matrix(0.0994, 0, 0, -0.0994, 0.788, 143.26522)"/>
<path fill="none" stroke-width="5" stroke-linecap="round" stroke-linejoin="round" stroke="rgb(0%, 0%, 0%)" stroke-opacity="1" stroke-miterlimit="10" d="M 413.467995 830.0937 L 402.621668 830.0937 L 391.814638 840.311255 L 391.814638 850.52881 L 402.621668 860.746366 L 413.467995 860.746366 L 424.275025 850.52881 L 435.121353 850.52881 L 445.967681 860.746366 L 445.967681 870.924623 L 435.121353 881.142178 L 435.121353 891.359733 L 445.967681 901.53799 L 456.774711 901.53799 L 467.621039 891.359733 L 478.428068 891.359733 L 489.274396 901.53799 L 500.081426 901.53799 L 510.927754 891.359733 L 510.927754 881.142178 L 500.081426 870.924623 L 500.081426 860.746366 L 510.927754 850.52881 L 521.774082 850.52881 L 532.581112 860.746366 L 532.581112 870.924623 L 521.774082 881.142178 L 521.774082 891.359733 L 532.581112 901.53799 L 532.581112 911.755546 L 521.774082 921.933803 L 510.927754 921.933803 L 500.081426 911.755546 L 489.274396 911.755546 L 478.428068 921.933803 L 478.428068 932.151358 L 489.274396 942.368913 L 489.274396 952.586469 L 478.428068 962.764726 L 467.621039 962.764726 L 456.774711 952.586469 L 456.774711 942.368913 L 467.621039 932.151358 L 467.621039 921.933803 L 456.774711 911.755546 L 445.967681 911.755546 L 435.121353 921.933803 L 424.275025 921.933803 L 413.467995 911.755546 L 402.621668 911.755546 L 391.814638 921.933803 " transform="matrix(0.0994, 0, 0, -0.0994, 0.788, 143.26522)"/>
<path fill="none" stroke-width="5" stroke-linecap="round" stroke-linejoin="round" stroke="rgb(0%, 0%, 0%)" stroke-opacity="1" stroke-miterlimit="10" d="M 391.814638 921.933803 L 391.814638 932.151358 L 402.621668 942.368913 L 413.467995 942.368913 L 424.275025 932.151358 L 435.121353 932.151358 L 445.967681 942.368913 L 445.967681 952.586469 L 435.121353 962.764726 L 435.121353 972.982281 L 445.967681 983.199837 L 445.967681 993.378094 L 435.121353 1003.595649 L 424.275025 1003.595649 L 413.467995 993.378094 L 402.621668 993.378094 L 391.814638 1003.595649 L 391.814638 1013.813204 L 402.621668 1023.991461 L 413.467995 1023.991461 L 424.275025 1013.813204 L 435.121353 1013.813204 L 445.967681 1023.991461 L 445.967681 1034.209017 L 435.121353 1044.426572 L 435.121353 1054.604829 L 445.967681 1064.822384 L 456.774711 1064.822384 L 467.621039 1054.604829 L 478.428068 1054.604829 L 489.274396 1064.822384 L 500.081426 1064.822384 L 510.927754 1054.604829 L 510.927754 1044.426572 L 500.081426 1034.209017 L 489.274396 1034.209017 L 478.428068 1044.426572 L 467.621039 1044.426572 L 456.774711 1034.209017 L 456.774711 1023.991461 L 467.621039 1013.813204 L 467.621039 1003.595649 L 456.774711 993.378094 L 456.774711 983.199837 L 467.621039 972.982281 L 478.428068 972.982281 L 489.274396 983.199837 L 500.081426 983.199837 L 510.927754 972.982281 L 510.927754 962.764726 L 500.081426 952.586469 " transform="matrix(0.0994, 0, 0, -0.0994, 0.788, 143.26522)"/>
<path fill="none" stroke-width="5" stroke-linecap="round" stroke-linejoin="round" stroke="rgb(0%, 0%, 0%)" stroke-opacity="1" stroke-miterlimit="10" d="M 500.081426 952.586469 L 500.081426 942.368913 L 510.927754 932.151358 L 521.774082 932.151358 L 532.581112 942.368913 L 532.581112 952.586469 L 521.774082 962.764726 L 521.774082 972.982281 L 532.581112 983.199837 L 543.42744 983.199837 L 554.273768 972.982281 L 565.080797 972.982281 L 575.927125 983.199837 L 586.734155 983.199837 L 597.580483 972.982281 L 597.580483 962.764726 L 586.734155 952.586469 L 586.734155 942.368913 L 597.580483 932.151358 L 608.387513 932.151358 L 619.233841 942.368913 L 619.233841 952.586469 L 608.387513 962.764726 L 608.387513 972.982281 L 619.233841 983.199837 L 619.233841 993.378094 L 608.387513 1003.595649 L 597.580483 1003.595649 L 586.734155 993.378094 L 575.927125 993.378094 L 565.080797 1003.595649 L 565.080797 1013.813204 L 575.927125 1023.991461 L 586.734155 1023.991461 L 597.580483 1013.813204 L 608.387513 1013.813204 L 619.233841 1023.991461 L 619.233841 1034.209017 L 608.387513 1044.426572 L 608.387513 1054.604829 L 619.233841 1064.822384 L 630.080169 1064.822384 L 640.887198 1054.604829 L 651.733526 1054.604829 L 662.540556 1064.822384 L 673.386884 1064.822384 L 684.233212 1054.604829 L 684.233212 1044.426572 L 673.386884 1034.209017 L 662.540556 1034.209017 L 651.733526 1044.426572 " transform="matrix(0.0994, 0, 0, -0.0994, 0.788, 143.26522)"/>
<path fill="none" stroke-width="5" stroke-linecap="round" stroke-linejoin="round" stroke="rgb(0%, 0%, 0%)" stroke-opacity="1" stroke-miterlimit="10" d="M 651.733526 1044.426572 L 640.887198 1044.426572 L 630.080169 1034.209017 L 630.080169 1023.991461 L 640.887198 1013.813204 L 640.887198 1003.595649 L 630.080169 993.378094 L 630.080169 983.199837 L 640.887198 972.982281 L 651.733526 972.982281 L 662.540556 983.199837 L 673.386884 983.199837 L 684.233212 972.982281 L 684.233212 962.764726 L 673.386884 952.586469 L 673.386884 942.368913 L 684.233212 932.151358 L 695.040241 932.151358 L 705.886569 942.368913 L 705.886569 952.586469 L 695.040241 962.764726 L 695.040241 972.982281 L 705.886569 983.199837 L 716.732897 983.199837 L 727.539927 972.982281 L 738.386255 972.982281 L 749.193285 983.199837 L 760.039613 983.199837 L 770.885941 972.982281 L 770.885941 962.764726 L 760.039613 952.586469 L 749.193285 952.586469 L 738.386255 962.764726 L 727.539927 962.764726 L 716.732897 952.586469 L 716.732897 942.368913 L 727.539927 932.151358 L 727.539927 921.933803 L 716.732897 911.755546 L 716.732897 901.53799 L 727.539927 891.359733 L 738.386255 891.359733 L 749.193285 901.53799 L 760.039613 901.53799 L 770.885941 891.359733 L 770.885941 881.142178 L 760.039613 870.924623 L 749.193285 870.924623 L 738.386255 881.142178 L 727.539927 881.142178 L 716.732897 870.924623 " transform="matrix(0.0994, 0, 0, -0.0994, 0.788, 143.26522)"/>
<path fill="none" stroke-width="5" stroke-linecap="round" stroke-linejoin="round" stroke="rgb(0%, 0%, 0%)" stroke-opacity="1" stroke-miterlimit="10" d="M 716.732897 870.924623 L 716.732897 860.746366 L 727.539927 850.52881 L 727.539927 840.311255 L 716.732897 830.0937 L 705.886569 830.0937 L 695.040241 840.311255 L 684.233212 840.311255 L 673.386884 830.0937 L 662.540556 830.0937 L 651.733526 840.311255 L 651.733526 850.52881 L 662.540556 860.746366 L 662.540556 870.924623 L 651.733526 881.142178 L 640.887198 881.142178 L 630.080169 870.924623 L 630.080169 860.746366 L 640.887198 850.52881 L 640.887198 840.311255 L 630.080169 830.0937 L 630.080169 819.915443 L 640.887198 809.697887 L 651.733526 809.697887 L 662.540556 819.915443 L 673.386884 819.915443 L 684.233212 809.697887 L 684.233212 799.480332 L 673.386884 789.302075 L 673.386884 779.08452 L 684.233212 768.866964 L 695.040241 768.866964 L 705.886569 779.08452 L 705.886569 789.302075 L 695.040241 799.480332 L 695.040241 809.697887 L 705.886569 819.915443 L 716.732897 819.915443 L 727.539927 809.697887 L 738.386255 809.697887 L 749.193285 819.915443 L 760.039613 819.915443 L 770.885941 809.697887 L 770.885941 799.480332 L 760.039613 789.302075 L 760.039613 779.08452 L 770.885941 768.866964 L 781.69297 768.866964 L 792.539298 779.08452 L 792.539298 789.302075 L 781.69297 799.480332 " transform="matrix(0.0994, 0, 0, -0.0994, 0.788, 143.26522)"/>
<path fill="none" stroke-width="5" stroke-linecap="round" stroke-linejoin="round" stroke="rgb(0%, 0%, 0%)" stroke-opacity="1" stroke-miterlimit="10" d="M 781.69297 799.480332 L 781.69297 809.697887 L 792.539298 819.915443 L 792.539298 830.0937 L 781.69297 840.311255 L 770.885941 840.311255 L 760.039613 830.0937 L 749.193285 830.0937 L 738.386255 840.311255 L 738.386255 850.52881 L 749.193285 860.746366 L 760.039613 860.746366 L 770.885941 850.52881 L 781.69297 850.52881 L 792.539298 860.746366 L 792.539298 870.924623 L 781.69297 881.142178 L 781.69297 891.359733 L 792.539298 901.53799 L 803.346328 901.53799 L 814.192656 891.359733 L 824.999686 891.359733 L 835.846014 901.53799 L 846.692342 901.53799 L 857.499371 891.359733 L 857.499371 881.142178 L 846.692342 870.924623 L 846.692342 860.746366 L 857.499371 850.52881 L 868.345699 850.52881 L 879.192027 860.746366 L 879.192027 870.924623 L 868.345699 881.142178 L 868.345699 891.359733 L 879.192027 901.53799 L 879.192027 911.755546 L 868.345699 921.933803 L 857.499371 921.933803 L 846.692342 911.755546 L 835.846014 911.755546 L 824.999686 921.933803 L 824.999686 932.151358 L 835.846014 942.368913 L 835.846014 952.586469 L 824.999686 962.764726 L 814.192656 962.764726 L 803.346328 952.586469 L 803.346328 942.368913 L 814.192656 932.151358 L 814.192656 921.933803 L 803.346328 911.755546 " transform="matrix(0.0994, 0, 0, -0.0994, 0.788, 143.26522)"/>
<path fill="none" stroke-width="5" stroke-linecap="round" stroke-linejoin="round" stroke="rgb(0%, 0%, 0%)" stroke-opacity="1" stroke-miterlimit="10" d="M 803.346328 911.755546 L 792.539298 911.755546 L 781.69297 921.933803 L 770.885941 921.933803 L 760.039613 911.755546 L 749.193285 911.755546 L 738.386255 921.933803 L 738.386255 932.151358 L 749.193285 942.368913 L 760.039613 942.368913 L 770.885941 932.151358 L 781.69297 932.151358 L 792.539298 942.368913 L 792.539298 952.586469 L 781.69297 962.764726 L 781.69297 972.982281 L 792.539298 983.199837 L 792.539298 993.378094 L 781.69297 1003.595649 L 770.885941 1003.595649 L 760.039613 993.378094 L 749.193285 993.378094 L 738.386255 1003.595649 L 738.386255 1013.813204 L 749.193285 1023.991461 L 760.039613 1023.991461 L 770.885941 1013.813204 L 781.69297 1013.813204 L 792.539298 1023.991461 L 792.539298 1034.209017 L 781.69297 1044.426572 L 781.69297 1054.604829 L 792.539298 1064.822384 L 803.346328 1064.822384 L 814.192656 1054.604829 L 824.999686 1054.604829 L 835.846014 1064.822384 L 846.692342 1064.822384 L 857.499371 1054.604829 L 857.499371 1044.426572 L 846.692342 1034.209017 L 846.692342 1023.991461 L 857.499371 1013.813204 L 868.345699 1013.813204 L 879.192027 1023.991461 L 879.192027 1034.209017 L 868.345699 1044.426572 L 868.345699 1054.604829 L 879.192027 1064.822384 L 879.192027 1075.03994 L 868.345699 1085.218197 " transform="matrix(0.0994, 0, 0, -0.0994, 0.788, 143.26522)"/>
<path fill="none" stroke-width="5" stroke-linecap="round" stroke-linejoin="round" stroke="rgb(0%, 0%, 0%)" stroke-opacity="1" stroke-miterlimit="10" d="M 868.345699 1085.218197 L 857.499371 1085.218197 L 846.692342 1075.03994 L 835.846014 1075.03994 L 824.999686 1085.218197 L 824.999686 1095.435752 L 835.846014 1105.653307 L 835.846014 1115.831564 L 824.999686 1126.04912 L 814.192656 1126.04912 L 803.346328 1115.831564 L 803.346328 1105.653307 L 814.192656 1095.435752 L 814.192656 1085.218197 L 803.346328 1075.03994 L 792.539298 1075.03994 L 781.69297 1085.218197 L 770.885941 1085.218197 L 760.039613 1075.03994 L 749.193285 1075.03994 L 738.386255 1085.218197 L 738.386255 1095.435752 L 749.193285 1105.653307 L 749.193285 1115.831564 L 738.386255 1126.04912 L 727.539927 1126.04912 L 716.732897 1115.831564 L 716.732897 1105.653307 L 727.539927 1095.435752 L 727.539927 1085.218197 L 716.732897 1075.03994 L 716.732897 1064.822384 L 727.539927 1054.604829 L 738.386255 1054.604829 L 749.193285 1064.822384 L 760.039613 1064.822384 L 770.885941 1054.604829 L 770.885941 1044.426572 L 760.039613 1034.209017 L 749.193285 1034.209017 L 738.386255 1044.426572 L 727.539927 1044.426572 L 716.732897 1034.209017 L 716.732897 1023.991461 L 727.539927 1013.813204 L 727.539927 1003.595649 L 716.732897 993.378094 L 705.886569 993.378094 L 695.040241 1003.595649 L 684.233212 1003.595649 L 673.386884 993.378094 " transform="matrix(0.0994, 0, 0, -0.0994, 0.788, 143.26522)"/>
<path fill="none" stroke-width="5" stroke-linecap="round" stroke-linejoin="round" stroke="rgb(0%, 0%, 0%)" stroke-opacity="1" stroke-miterlimit="10" d="M 673.386884 993.378094 L 662.540556 993.378094 L 651.733526 1003.595649 L 651.733526 1013.813204 L 662.540556 1023.991461 L 673.386884 1023.991461 L 684.233212 1013.813204 L 695.040241 1013.813204 L 705.886569 1023.991461 L 705.886569 1034.209017 L 695.040241 1044.426572 L 695.040241 1054.604829 L 705.886569 1064.822384 L 705.886569 1075.03994 L 695.040241 1085.218197 L 684.233212 1085.218197 L 673.386884 1075.03994 L 662.540556 1075.03994 L 651.733526 1085.218197 L 651.733526 1095.435752 L 662.540556 1105.653307 L 662.540556 1115.831564 L 651.733526 1126.04912 L 640.887198 1126.04912 L 630.080169 1115.831564 L 630.080169 1105.653307 L 640.887198 1095.435752 L 640.887198 1085.218197 L 630.080169 1075.03994 L 619.233841 1075.03994 L 608.387513 1085.218197 L 597.580483 1085.218197 L 586.734155 1075.03994 L 575.927125 1075.03994 L 565.080797 1085.218197 L 565.080797 1095.435752 L 575.927125 1105.653307 L 586.734155 1105.653307 L 597.580483 1095.435752 L 608.387513 1095.435752 L 619.233841 1105.653307 L 619.233841 1115.831564 L 608.387513 1126.04912 L 608.387513 1136.266675 L 619.233841 1146.48423 L 619.233841 1156.662487 L 608.387513 1166.880043 L 597.580483 1166.880043 L 586.734155 1156.662487 L 575.927125 1156.662487 L 565.080797 1166.880043 " transform="matrix(0.0994, 0, 0, -0.0994, 0.788, 143.26522)"/>
<path fill="none" stroke-width="5" stroke-linecap="round" stroke-linejoin="round" stroke="rgb(0%, 0%, 0%)" stroke-opacity="1" stroke-miterlimit="10" d="M 565.080797 1166.880043 L 565.080797 1177.097598 L 575.927125 1187.275855 L 586.734155 1187.275855 L 597.580483 1177.097598 L 608.387513 1177.097598 L 619.233841 1187.275855 L 619.233841 1197.49341 L 608.387513 1207.710966 L 608.387513 1217.889223 L 619.233841 1228.106778 L 630.080169 1228.106778 L 640.887198 1217.889223 L 651.733526 1217.889223 L 662.540556 1228.106778 L 673.386884 1228.106778 L 684.233212 1217.889223 L 684.233212 1207.710966 L 673.386884 1197.49341 L 662.540556 1197.49341 L 651.733526 1207.710966 L 640.887198 1207.710966 L 630.080169 1197.49341 L 630.080169 1187.275855 L 640.887198 1177.097598 L 640.887198 1166.880043 L 630.080169 1156.662487 L 630.080169 1146.48423 L 640.887198 1136.266675 L 651.733526 1136.266675 L 662.540556 1146.48423 L 673.386884 1146.48423 L 684.233212 1136.266675 L 684.233212 1126.04912 L 673.386884 1115.831564 L 673.386884 1105.653307 L 684.233212 1095.435752 L 695.040241 1095.435752 L 705.886569 1105.653307 L 705.886569 1115.831564 L 695.040241 1126.04912 L 695.040241 1136.266675 L 705.886569 1146.48423 L 716.732897 1146.48423 L 727.539927 1136.266675 L 738.386255 1136.266675 L 749.193285 1146.48423 L 760.039613 1146.48423 L 770.885941 1136.266675 L 770.885941 1126.04912 L 760.039613 1115.831564 " transform="matrix(0.0994, 0, 0, -0.0994, 0.788, 143.26522)"/>
<path fill="none" stroke-width="5" stroke-linecap="round" stroke-linejoin="round" stroke="rgb(0%, 0%, 0%)" stroke-opacity="1" stroke-miterlimit="10" d="M 760.039613 1115.831564 L 760.039613 1105.653307 L 770.885941 1095.435752 L 781.69297 1095.435752 L 792.539298 1105.653307 L 792.539298 1115.831564 L 781.69297 1126.04912 L 781.69297 1136.266675 L 792.539298 1146.48423 L 792.539298 1156.662487 L 781.69297 1166.880043 L 770.885941 1166.880043 L 760.039613 1156.662487 L 749.193285 1156.662487 L 738.386255 1166.880043 L 738.386255 1177.097598 L 749.193285 1187.275855 L 760.039613 1187.275855 L 770.885941 1177.097598 L 781.69297 1177.097598 L 792.539298 1187.275855 L 792.539298 1197.49341 L 781.69297 1207.710966 L 781.69297 1217.889223 L 792.539298 1228.106778 L 803.346328 1228.106778 L 814.192656 1217.889223 L 824.999686 1217.889223 L 835.846014 1228.106778 L 846.692342 1228.106778 L 857.499371 1217.889223 L 857.499371 1207.710966 L 846.692342 1197.49341 L 846.692342 1187.275855 L 857.499371 1177.097598 L 868.345699 1177.097598 L 879.192027 1187.275855 L 879.192027 1197.49341 L 868.345699 1207.710966 L 868.345699 1217.889223 L 879.192027 1228.106778 L 879.192027 1238.324334 L 868.345699 1248.502591 L 857.499371 1248.502591 L 846.692342 1238.324334 L 835.846014 1238.324334 L 824.999686 1248.502591 L 824.999686 1258.720146 L 835.846014 1268.937701 L 835.846014 1279.155257 L 824.999686 1289.333514 " transform="matrix(0.0994, 0, 0, -0.0994, 0.788, 143.26522)"/>
<path fill="none" stroke-width="5" stroke-linecap="round" stroke-linejoin="round" stroke="rgb(0%, 0%, 0%)" stroke-opacity="1" stroke-miterlimit="10" d="M 824.999686 1289.333514 L 814.192656 1289.333514 L 803.346328 1279.155257 L 803.346328 1268.937701 L 814.192656 1258.720146 L 814.192656 1248.502591 L 803.346328 1238.324334 L 792.539298 1238.324334 L 781.69297 1248.502591 L 770.885941 1248.502591 L 760.039613 1238.324334 L 749.193285 1238.324334 L 738.386255 1248.502591 L 738.386255 1258.720146 L 749.193285 1268.937701 L 760.039613 1268.937701 L 770.885941 1258.720146 L 781.69297 1258.720146 L 792.539298 1268.937701 L 792.539298 1279.155257 L 781.69297 1289.333514 L 781.69297 1299.551069 L 792.539298 1309.768624 L 792.539298 1319.946881 L 781.69297 1330.164437 L 770.885941 1330.164437 L 760.039613 1319.946881 L 749.193285 1319.946881 L 738.386255 1330.164437 L 738.386255 1340.342694 L 749.193285 1350.560249 L 760.039613 1350.560249 L 770.885941 1340.342694 L 781.69297 1340.342694 L 792.539298 1350.560249 L 792.539298 1360.777804 L 781.69297 1370.99536 L 781.69297 1381.173617 L 792.539298 1391.391172 L 803.346328 1391.391172 L 814.192656 1381.173617 L 824.999686 1381.173617 L 835.846014 1391.391172 L 846.692342 1391.391172 L 857.499371 1381.173617 L 857.499371 1370.99536 L 846.692342 1360.777804 L 835.846014 1360.777804 L 824.999686 1370.99536 L 814.192656 1370.99536 L 803.346328 1360.777804 " transform="matrix(0.0994, 0, 0, -0.0994, 0.788, 143.26522)"/>
<path fill="none" stroke-width="5" stroke-linecap="round" stroke-linejoin="round" stroke="rgb(0%, 0%, 0%)" stroke-opacity="1" stroke-miterlimit="10" d="M 803.346328 1360.777804 L 803.346328 1350.560249 L 814.192656 1340.342694 L 814.192656 1330.164437 L 803.346328 1319.946881 L 803.346328 1309.768624 L 814.192656 1299.551069 L 824.999686 1299.551069 L 835.846014 1309.768624 L 846.692342 1309.768624 L 857.499371 1299.551069 L 857.499371 1289.333514 L 846.692342 1279.155257 L 846.692342 1268.937701 L 857.499371 1258.720146 L 868.345699 1258.720146 L 879.192027 1268.937701 L 879.192027 1279.155257 L 868.345699 1289.333514 L 868.345699 1299.551069 L 879.192027 1309.768624 L 889.999057 1309.768624 L 900.845385 1299.551069 L 911.652414 1299.551069 L 922.498742 1309.768624 L 933.305772 1309.768624 L 944.1521 1299.551069 L 944.1521 1289.333514 L 933.305772 1279.155257 L 933.305772 1268.937701 L 944.1521 1258.720146 L 954.998428 1258.720146 L 965.805458 1268.937701 L 965.805458 1279.155257 L 954.998428 1289.333514 L 954.998428 1299.551069 L 965.805458 1309.768624 L 965.805458 1319.946881 L 954.998428 1330.164437 L 944.1521 1330.164437 L 933.305772 1319.946881 L 922.498742 1319.946881 L 911.652414 1330.164437 L 911.652414 1340.342694 L 922.498742 1350.560249 L 933.305772 1350.560249 L 944.1521 1340.342694 L 954.998428 1340.342694 L 965.805458 1350.560249 L 965.805458 1360.777804 L 954.998428 1370.99536 " transform="matrix(0.0994, 0, 0, -0.0994, 0.788, 143.26522)"/>
<path fill="none" stroke-width="5" stroke-linecap="round" stroke-linejoin="round" stroke="rgb(0%, 0%, 0%)" stroke-opacity="1" stroke-miterlimit="10" d="M 954.998428 1370.99536 L 954.998428 1381.173617 L 965.805458 1391.391172 L 976.651786 1391.391172 L 987.458815 1381.173617 L 998.305143 1381.173617 L 1009.151471 1391.391172 L 1019.958501 1391.391172 L 1030.804829 1381.173617 L 1030.804829 1370.99536 L 1019.958501 1360.777804 L 1009.151471 1360.777804 L 998.305143 1370.99536 L 987.458815 1370.99536 L 976.651786 1360.777804 L 976.651786 1350.560249 L 987.458815 1340.342694 L 987.458815 1330.164437 L 976.651786 1319.946881 L 976.651786 1309.768624 L 987.458815 1299.551069 L 998.305143 1299.551069 L 1009.151471 1309.768624 L 1019.958501 1309.768624 L 1030.804829 1299.551069 L 1030.804829 1289.333514 L 1019.958501 1279.155257 L 1019.958501 1268.937701 L 1030.804829 1258.720146 L 1041.651157 1258.720146 L 1052.458187 1268.937701 L 1052.458187 1279.155257 L 1041.651157 1289.333514 L 1041.651157 1299.551069 L 1052.458187 1309.768624 L 1063.304515 1309.768624 L 1074.111544 1299.551069 L 1084.957872 1299.551069 L 1095.8042 1309.768624 L 1106.61123 1309.768624 L 1117.457558 1299.551069 L 1117.457558 1289.333514 L 1106.61123 1279.155257 L 1095.8042 1279.155257 L 1084.957872 1289.333514 L 1074.111544 1289.333514 L 1063.304515 1279.155257 L 1063.304515 1268.937701 L 1074.111544 1258.720146 L 1074.111544 1248.502591 L 1063.304515 1238.324334 " transform="matrix(0.0994, 0, 0, -0.0994, 0.788, 143.26522)"/>
<path fill="none" stroke-width="5" stroke-linecap="round" stroke-linejoin="round" stroke="rgb(0%, 0%, 0%)" stroke-opacity="1" stroke-miterlimit="10" d="M 1063.304515 1238.324334 L 1063.304515 1228.106778 L 1074.111544 1217.889223 L 1084.957872 1217.889223 L 1095.8042 1228.106778 L 1106.61123 1228.106778 L 1117.457558 1217.889223 L 1117.457558 1207.710966 L 1106.61123 1197.49341 L 1095.8042 1197.49341 L 1084.957872 1207.710966 L 1074.111544 1207.710966 L 1063.304515 1197.49341 L 1063.304515 1187.275855 L 1074.111544 1177.097598 L 1074.111544 1166.880043 L 1063.304515 1156.662487 L 1052.458187 1156.662487 L 1041.651157 1166.880043 L 1030.804829 1166.880043 L 1019.958501 1156.662487 L 1009.151471 1156.662487 L 998.305143 1166.880043 L 998.305143 1177.097598 L 1009.151471 1187.275855 L 1014.535337 1192.384633 " transform="matrix(0.0994, 0, 0, -0.0994, 0.788, 143.26522)"/>
<path fill="none" stroke-width="5" stroke-linecap="round" stroke-linejoin="round" stroke="rgb(0%, 0%, 0%)" stroke-opacity="1" stroke-miterlimit="10" d="M 1465.915493 768.866964 L 1507.414487 768.866964 L 1507.414487 810.365958 L 1465.915493 810.365958 L 1465.915493 893.363946 L 1507.414487 893.363946 L 1507.414487 851.864952 L 1548.913481 851.864952 L 1548.913481 893.363946 L 1590.451773 893.363946 L 1590.451773 810.365958 L 1548.913481 810.365958 L 1548.913481 768.866964 L 1631.950767 768.866964 L 1631.950767 810.365958 L 1673.449761 810.365958 L 1673.449761 768.866964 L 1756.447749 768.866964 L 1756.447749 810.365958 L 1714.948755 810.365958 L 1714.948755 851.864952 L 1756.447749 851.864952 L 1756.447749 893.363946 L 1673.449761 893.363946 L 1673.449761 851.864952 L 1631.950767 851.864952 L 1631.950767 976.361934 L 1673.449761 976.361934 L 1673.449761 934.902238 L 1756.447749 934.902238 L 1756.447749 976.361934 L 1714.948755 976.361934 L 1714.948755 1017.860928 L 1756.447749 1017.860928 L 1756.447749 1059.39922 L 1673.449761 1059.39922 L 1673.449761 1017.860928 L 1631.950767 1017.860928 L 1631.950767 1059.39922 L 1548.913481 1059.39922 " transform="matrix(0.0994, 0, 0, -0.0994, 0.788, 143.26522)"/>
<path fill="none" stroke-width="5" stroke-linecap="round" stroke-linejoin="round" stroke="rgb(0%, 0%, 0%)" stroke-opacity="1" stroke-miterlimit="10" d="M 1548.913481 1059.39922 L 1548.913481 1017.860928 L 1590.451773 1017.860928 L 1590.451773 934.902238 L 1548.913481 934.902238 L 1548.913481 976.361934 L 1507.414487 976.361934 L 1507.414487 934.902238 L 1465.915493 934.902238 L 1465.915493 1017.860928 L 1507.414487 1017.860928 L 1507.414487 1059.39922 L 1465.915493 1059.39922 L 1465.915493 1142.397208 L 1507.414487 1142.397208 L 1507.414487 1100.898214 L 1590.451773 1100.898214 L 1590.451773 1142.397208 L 1548.913481 1142.397208 L 1548.913481 1183.896202 L 1590.451773 1183.896202 L 1590.451773 1225.395196 L 1507.414487 1225.395196 L 1507.414487 1183.896202 L 1465.915493 1183.896202 L 1465.915493 1266.89419 L 1507.414487 1266.89419 L 1507.414487 1308.393184 L 1465.915493 1308.393184 L 1465.915493 1391.391172 L 1507.414487 1391.391172 L 1507.414487 1349.892178 L 1548.913481 1349.892178 L 1548.913481 1391.391172 L 1590.451773 1391.391172 L 1590.451773 1308.393184 L 1548.913481 1308.393184 L 1548.913481 1266.89419 L 1673.449761 1266.89419 L 1673.449761 1308.393184 L 1631.950767 1308.393184 " transform="matrix(0.0994, 0, 0, -0.0994, 0.788, 143.26522)"/>
<path fill="none" stroke-width="5" stroke-linecap="round" stroke-linejoin="round" stroke="rgb(0%, 0%, 0%)" stroke-opacity="1" stroke-miterlimit="10" d="M 1631.950767 1308.393184 L 1631.950767 1391.391172 L 1673.449761 1391.391172 L 1673.449761 1349.892178 L 1714.948755 1349.892178 L 1714.948755 1391.391172 L 1756.447749 1391.391172 L 1756.447749 1308.393184 L 1714.948755 1308.393184 L 1714.948755 1266.89419 L 1756.447749 1266.89419 L 1756.447749 1183.896202 L 1714.948755 1183.896202 L 1714.948755 1225.395196 L 1631.950767 1225.395196 L 1631.950767 1183.896202 L 1673.449761 1183.896202 L 1673.449761 1142.397208 L 1631.950767 1142.397208 L 1631.950767 1100.898214 L 1714.948755 1100.898214 L 1714.948755 1142.397208 L 1756.447749 1142.397208 L 1756.447749 1100.898214 L 1797.946743 1100.898214 L 1797.946743 1142.397208 L 1839.445737 1142.397208 L 1839.445737 1100.898214 L 1922.443725 1100.898214 L 1922.443725 1142.397208 L 1880.944731 1142.397208 L 1880.944731 1183.896202 L 1922.443725 1183.896202 L 1922.443725 1225.395196 L 1839.445737 1225.395196 L 1839.445737 1183.896202 L 1797.946743 1183.896202 L 1797.946743 1266.89419 L 1839.445737 1266.89419 L 1839.445737 1308.393184 L 1797.946743 1308.393184 L 1797.946743 1391.391172 " transform="matrix(0.0994, 0, 0, -0.0994, 0.788, 143.26522)"/>
<path fill="none" stroke-width="5" stroke-linecap="round" stroke-linejoin="round" stroke="rgb(0%, 0%, 0%)" stroke-opacity="1" stroke-miterlimit="10" d="M 1797.946743 1391.391172 L 1839.445737 1391.391172 L 1839.445737 1349.892178 L 1880.944731 1349.892178 L 1880.944731 1391.391172 L 1922.443725 1391.391172 L 1922.443725 1308.393184 L 1880.944731 1308.393184 L 1880.944731 1266.89419 L 2005.441713 1266.89419 L 2005.441713 1308.393184 L 1963.942719 1308.393184 L 1963.942719 1391.391172 L 2005.441713 1391.391172 L 2005.441713 1349.892178 L 2046.940707 1349.892178 L 2046.940707 1391.391172 L 2088.439701 1391.391172 L 2088.439701 1308.393184 L 2046.940707 1308.393184 L 2046.940707 1266.89419 L 2088.439701 1266.89419 L 2088.439701 1183.896202 L 2046.940707 1183.896202 L 2046.940707 1225.395196 L 1963.942719 1225.395196 L 1963.942719 1183.896202 L 2005.441713 1183.896202 L 2005.441713 1142.397208 L 1963.942719 1142.397208 L 1963.942719 1100.898214 L 2046.940707 1100.898214 L 2046.940707 1142.397208 L 2088.439701 1142.397208 L 2088.439701 1059.39922 L 2046.940707 1059.39922 L 2046.940707 1017.860928 L 2088.439701 1017.860928 L 2088.439701 934.902238 L 2046.940707 934.902238 L 2046.940707 976.361934 " transform="matrix(0.0994, 0, 0, -0.0994, 0.788, 143.26522)"/>
<path fill="none" stroke-width="5" stroke-linecap="round" stroke-linejoin="round" stroke="rgb(0%, 0%, 0%)" stroke-opacity="1" stroke-miterlimit="10" d="M 2046.940707 976.361934 L 2005.441713 976.361934 L 2005.441713 934.902238 L 1963.942719 934.902238 L 1963.942719 1017.860928 L 2005.441713 1017.860928 L 2005.441713 1059.39922 L 1922.443725 1059.39922 L 1922.443725 1017.860928 L 1880.944731 1017.860928 L 1880.944731 1059.39922 L 1797.946743 1059.39922 L 1797.946743 1017.860928 L 1839.445737 1017.860928 L 1839.445737 976.361934 L 1797.946743 976.361934 L 1797.946743 934.902238 L 1880.944731 934.902238 L 1880.944731 976.361934 L 1922.443725 976.361934 L 1922.443725 851.864952 L 1880.944731 851.864952 L 1880.944731 893.363946 L 1797.946743 893.363946 L 1797.946743 851.864952 L 1839.445737 851.864952 L 1839.445737 810.365958 L 1797.946743 810.365958 L 1797.946743 768.866964 L 1880.944731 768.866964 L 1880.944731 810.365958 L 1922.443725 810.365958 L 1922.443725 768.866964 L 2005.441713 768.866964 L 2005.441713 810.365958 L 1963.942719 810.365958 L 1963.942719 893.363946 L 2005.441713 893.363946 L 2005.441713 851.864952 L 2046.940707 851.864952 L 2046.940707 893.363946 " transform="matrix(0.0994, 0, 0, -0.0994, 0.788, 143.26522)"/>
<path fill="none" stroke-width="5" stroke-linecap="round" stroke-linejoin="round" stroke="rgb(0%, 0%, 0%)" stroke-opacity="1" stroke-miterlimit="10" d="M 2046.940707 893.363946 L 2088.439701 893.363946 L 2088.439701 810.365958 L 2046.940707 810.365958 L 2046.940707 768.866964 L 2088.439701 768.866964 " transform="matrix(0.0994, 0, 0, -0.0994, 0.788, 143.26522)"/>
<path fill="none" stroke-width="5" stroke-linecap="round" stroke-linejoin="round" stroke="rgb(0%, 0%, 0%)" stroke-opacity="1" stroke-miterlimit="10" d="M 2629.302062 768.866964 L 2677.167379 768.866964 L 2677.167379 792.838921 L 2629.302062 792.838921 L 2629.302062 816.771579 L 2749.004653 816.771579 L 2749.004653 792.838921 L 2701.139336 792.838921 L 2701.139336 768.866964 L 2820.841927 768.866964 L 2820.841927 792.838921 L 2772.937311 792.838921 L 2772.937311 816.771579 L 2820.841927 816.771579 L 2820.841927 840.704238 L 2772.937311 840.704238 L 2772.937311 864.636896 L 2820.841927 864.636896 L 2820.841927 888.608853 L 2701.139336 888.608853 L 2701.139336 864.636896 L 2749.004653 864.636896 L 2749.004653 840.704238 L 2629.302062 840.704238 L 2629.302062 864.636896 L 2653.234721 864.636896 " transform="matrix(0.0994, 0, 0, -0.0994, 0.788, 143.26522)"/>
<path fill="none" stroke-width="5" stroke-linecap="round" stroke-linejoin="round" stroke="rgb(0%, 0%, 0%)" stroke-opacity="1" stroke-miterlimit="10" d="M 2653.234721 864.636896 L 2677.167379 864.636896 L 2677.167379 888.608853 L 2629.302062 888.608853 L 2629.302062 912.541512 L 2677.167379 912.541512 L 2677.167379 936.47417 L 2629.302062 936.47417 L 2629.302062 960.406828 L 2749.004653 960.406828 L 2749.004653 936.47417 L 2701.139336 936.47417 L 2701.139336 912.541512 L 2820.841927 912.541512 L 2820.841927 936.47417 L 2772.937311 936.47417 L 2772.937311 960.406828 L 2892.6792 960.406828 L 2892.6792 936.47417 L 2844.774585 936.47417 L 2844.774585 912.541512 L 2964.516474 912.541512 L 2964.516474 936.47417 L 2916.611859 936.47417 L 2916.611859 960.406828 L 2988.449132 960.406828 " transform="matrix(0.0994, 0, 0, -0.0994, 0.788, 143.26522)"/>
<path fill="none" stroke-width="5" stroke-linecap="round" stroke-linejoin="round" stroke="rgb(0%, 0%, 0%)" stroke-opacity="1" stroke-miterlimit="10" d="M 2988.449132 960.406828 L 3036.314449 960.406828 L 3036.314449 936.47417 L 2988.449132 936.47417 L 2988.449132 912.541512 L 3036.314449 912.541512 L 3036.314449 888.608853 L 2988.449132 888.608853 L 2988.449132 864.636896 L 3036.314449 864.636896 L 3036.314449 840.704238 L 2916.611859 840.704238 L 2916.611859 864.636896 L 2964.516474 864.636896 L 2964.516474 888.608853 L 2844.774585 888.608853 L 2844.774585 864.636896 L 2892.6792 864.636896 L 2892.6792 840.704238 L 2844.774585 840.704238 L 2844.774585 816.771579 L 2892.6792 816.771579 L 2892.6792 792.838921 L 2844.774585 792.838921 L 2844.774585 768.866964 L 2964.516474 768.866964 L 2964.516474 792.838921 L 2916.611859 792.838921 " transform="matrix(0.0994, 0, 0, -0.0994, 0.788, 143.26522)"/>
<path fill="none" stroke-width="5" stroke-linecap="round" stroke-linejoin="round" stroke="rgb(0%, 0%, 0%)" stroke-opacity="1" stroke-miterlimit="10" d="M 2916.611859 792.838921 L 2916.611859 816.771579 L 3036.314449 816.771579 L 3036.314449 792.838921 L 2988.449132 792.838921 L 2988.449132 768.866964 L 3108.151723 768.866964 L 3108.151723 792.838921 L 3060.286406 792.838921 L 3060.286406 816.771579 L 3179.988996 816.771579 L 3179.988996 792.838921 L 3132.084381 792.838921 L 3132.084381 768.866964 L 3251.82627 768.866964 L 3251.82627 792.838921 L 3203.921655 792.838921 L 3203.921655 816.771579 L 3251.82627 816.771579 L 3251.82627 840.704238 L 3203.921655 840.704238 L 3203.921655 864.636896 L 3251.82627 864.636896 L 3251.82627 888.608853 L 3156.056338 888.608853 " transform="matrix(0.0994, 0, 0, -0.0994, 0.788, 143.26522)"/>
<path fill="none" stroke-width="5" stroke-linecap="round" stroke-linejoin="round" stroke="rgb(0%, 0%, 0%)" stroke-opacity="1" stroke-miterlimit="10" d="M 3156.056338 888.608853 L 3132.084381 888.608853 L 3132.084381 864.636896 L 3179.988996 864.636896 L 3179.988996 840.704238 L 3060.286406 840.704238 L 3060.286406 864.636896 L 3108.151723 864.636896 L 3108.151723 888.608853 L 3060.286406 888.608853 L 3060.286406 912.541512 L 3108.151723 912.541512 L 3108.151723 936.47417 L 3060.286406 936.47417 L 3060.286406 960.406828 L 3179.988996 960.406828 L 3179.988996 936.47417 L 3132.084381 936.47417 L 3132.084381 912.541512 L 3251.82627 912.541512 L 3251.82627 936.47417 L 3203.921655 936.47417 L 3203.921655 960.406828 L 3251.82627 960.406828 L 3251.82627 984.378785 L 3203.921655 984.378785 L 3203.921655 1008.311444 L 3251.82627 1008.311444 L 3251.82627 1032.244102 " transform="matrix(0.0994, 0, 0, -0.0994, 0.788, 143.26522)"/>
<path fill="none" stroke-width="5" stroke-linecap="round" stroke-linejoin="round" stroke="rgb(0%, 0%, 0%)" stroke-opacity="1" stroke-miterlimit="10" d="M 3251.82627 1032.244102 L 3132.084381 1032.244102 L 3132.084381 1008.311444 L 3179.988996 1008.311444 L 3179.988996 984.378785 L 3060.286406 984.378785 L 3060.286406 1008.311444 L 3108.151723 1008.311444 L 3108.151723 1032.244102 L 3060.286406 1032.244102 L 3060.286406 1056.176761 L 3108.151723 1056.176761 L 3108.151723 1080.148717 L 3060.286406 1080.148717 L 3060.286406 1104.081376 L 3179.988996 1104.081376 L 3179.988996 1080.148717 L 3132.084381 1080.148717 L 3132.084381 1056.176761 L 3251.82627 1056.176761 L 3251.82627 1080.148717 L 3203.921655 1080.148717 L 3203.921655 1104.081376 L 3251.82627 1104.081376 L 3251.82627 1128.014034 L 3203.921655 1128.014034 " transform="matrix(0.0994, 0, 0, -0.0994, 0.788, 143.26522)"/>
<path fill="none" stroke-width="5" stroke-linecap="round" stroke-linejoin="round" stroke="rgb(0%, 0%, 0%)" stroke-opacity="1" stroke-miterlimit="10" d="M 3203.921655 1128.014034 L 3203.921655 1151.946693 L 3251.82627 1151.946693 L 3251.82627 1175.918649 L 3132.084381 1175.918649 L 3132.084381 1151.946693 L 3179.988996 1151.946693 L 3179.988996 1128.014034 L 3060.286406 1128.014034 L 3060.286406 1151.946693 L 3108.151723 1151.946693 L 3108.151723 1175.918649 L 2988.449132 1175.918649 L 2988.449132 1151.946693 L 3036.314449 1151.946693 L 3036.314449 1128.014034 L 2916.611859 1128.014034 L 2916.611859 1151.946693 L 2964.516474 1151.946693 L 2964.516474 1175.918649 L 2844.774585 1175.918649 L 2844.774585 1151.946693 L 2892.6792 1151.946693 L 2892.6792 1128.014034 L 2868.707243 1128.014034 " transform="matrix(0.0994, 0, 0, -0.0994, 0.788, 143.26522)"/>
<path fill="none" stroke-width="5" stroke-linecap="round" stroke-linejoin="round" stroke="rgb(0%, 0%, 0%)" stroke-opacity="1" stroke-miterlimit="10" d="M 2868.707243 1128.014034 L 2844.774585 1128.014034 L 2844.774585 1104.081376 L 2892.6792 1104.081376 L 2892.6792 1080.148717 L 2844.774585 1080.148717 L 2844.774585 1056.176761 L 2964.516474 1056.176761 L 2964.516474 1080.148717 L 2916.611859 1080.148717 L 2916.611859 1104.081376 L 3036.314449 1104.081376 L 3036.314449 1080.148717 L 2988.449132 1080.148717 L 2988.449132 1056.176761 L 3036.314449 1056.176761 L 3036.314449 1032.244102 L 2988.449132 1032.244102 L 2988.449132 1008.311444 L 3036.314449 1008.311444 L 3036.314449 984.378785 L 2916.611859 984.378785 L 2916.611859 1008.311444 L 2964.516474 1008.311444 L 2964.516474 1032.244102 L 2844.774585 1032.244102 L 2844.774585 1008.311444 " transform="matrix(0.0994, 0, 0, -0.0994, 0.788, 143.26522)"/>
<path fill="none" stroke-width="5" stroke-linecap="round" stroke-linejoin="round" stroke="rgb(0%, 0%, 0%)" stroke-opacity="1" stroke-miterlimit="10" d="M 2844.774585 1008.311444 L 2892.6792 1008.311444 L 2892.6792 984.378785 L 2772.937311 984.378785 L 2772.937311 1008.311444 L 2820.841927 1008.311444 L 2820.841927 1032.244102 L 2701.139336 1032.244102 L 2701.139336 1008.311444 L 2749.004653 1008.311444 L 2749.004653 984.378785 L 2629.302062 984.378785 L 2629.302062 1008.311444 L 2677.167379 1008.311444 L 2677.167379 1032.244102 L 2629.302062 1032.244102 L 2629.302062 1056.176761 L 2677.167379 1056.176761 L 2677.167379 1080.148717 L 2629.302062 1080.148717 L 2629.302062 1104.081376 L 2749.004653 1104.081376 L 2749.004653 1080.148717 L 2701.139336 1080.148717 L 2701.139336 1056.176761 L 2749.004653 1056.176761 " transform="matrix(0.0994, 0, 0, -0.0994, 0.788, 143.26522)"/>
<path fill="none" stroke-width="5" stroke-linecap="round" stroke-linejoin="round" stroke="rgb(0%, 0%, 0%)" stroke-opacity="1" stroke-miterlimit="10" d="M 2749.004653 1056.176761 L 2820.841927 1056.176761 L 2820.841927 1080.148717 L 2772.937311 1080.148717 L 2772.937311 1104.081376 L 2820.841927 1104.081376 L 2820.841927 1128.014034 L 2772.937311 1128.014034 L 2772.937311 1151.946693 L 2820.841927 1151.946693 L 2820.841927 1175.918649 L 2701.139336 1175.918649 L 2701.139336 1151.946693 L 2749.004653 1151.946693 L 2749.004653 1128.014034 L 2629.302062 1128.014034 L 2629.302062 1151.946693 L 2677.167379 1151.946693 L 2677.167379 1175.918649 L 2629.302062 1175.918649 L 2629.302062 1199.851308 L 2677.167379 1199.851308 L 2677.167379 1223.783966 L 2629.302062 1223.783966 L 2629.302062 1247.716625 L 2749.004653 1247.716625 L 2749.004653 1223.783966 L 2725.071994 1223.783966 " transform="matrix(0.0994, 0, 0, -0.0994, 0.788, 143.26522)"/>
<path fill="none" stroke-width="5" stroke-linecap="round" stroke-linejoin="round" stroke="rgb(0%, 0%, 0%)" stroke-opacity="1" stroke-miterlimit="10" d="M 2725.071994 1223.783966 L 2701.139336 1223.783966 L 2701.139336 1199.851308 L 2820.841927 1199.851308 L 2820.841927 1223.783966 L 2772.937311 1223.783966 L 2772.937311 1247.716625 L 2820.841927 1247.716625 L 2820.841927 1271.688581 L 2772.937311 1271.688581 L 2772.937311 1295.62124 L 2820.841927 1295.62124 L 2820.841927 1319.553898 L 2701.139336 1319.553898 L 2701.139336 1295.62124 L 2749.004653 1295.62124 L 2749.004653 1271.688581 L 2629.302062 1271.688581 L 2629.302062 1295.62124 L 2677.167379 1295.62124 L 2677.167379 1319.553898 L 2629.302062 1319.553898 L 2629.302062 1343.486557 L 2677.167379 1343.486557 L 2677.167379 1367.458514 L 2629.302062 1367.458514 L 2629.302062 1391.391172 L 2701.139336 1391.391172 " transform="matrix(0.0994, 0, 0, -0.0994, 0.788, 143.26522)"/>
<path fill="none" stroke-width="5" stroke-linecap="round" stroke-linejoin="round" stroke="rgb(0%, 0%, 0%)" stroke-opacity="1" stroke-miterlimit="10" d="M 2701.139336 1391.391172 L 2749.004653 1391.391172 L 2749.004653 1367.458514 L 2701.139336 1367.458514 L 2701.139336 1343.486557 L 2820.841927 1343.486557 L 2820.841927 1367.458514 L 2772.937311 1367.458514 L 2772.937311 1391.391172 L 2892.6792 1391.391172 L 2892.6792 1367.458514 L 2844.774585 1367.458514 L 2844.774585 1343.486557 L 2964.516474 1343.486557 L 2964.516474 1367.458514 L 2916.611859 1367.458514 L 2916.611859 1391.391172 L 3036.314449 1391.391172 L 3036.314449 1367.458514 L 2988.449132 1367.458514 L 2988.449132 1343.486557 L 3036.314449 1343.486557 L 3036.314449 1319.553898 L 2988.449132 1319.553898 L 2988.449132 1295.62124 L 3036.314449 1295.62124 " transform="matrix(0.0994, 0, 0, -0.0994, 0.788, 143.26522)"/>
<path fill="none" stroke-width="5" stroke-linecap="round" stroke-linejoin="round" stroke="rgb(0%, 0%, 0%)" stroke-opacity="1" stroke-miterlimit="10" d="M 3036.314449 1295.62124 L 3036.314449 1271.688581 L 2916.611859 1271.688581 L 2916.611859 1295.62124 L 2964.516474 1295.62124 L 2964.516474 1319.553898 L 2844.774585 1319.553898 L 2844.774585 1295.62124 L 2892.6792 1295.62124 L 2892.6792 1271.688581 L 2844.774585 1271.688581 L 2844.774585 1247.716625 L 2892.6792 1247.716625 L 2892.6792 1223.783966 L 2844.774585 1223.783966 L 2844.774585 1199.851308 L 2964.516474 1199.851308 L 2964.516474 1223.783966 L 2916.611859 1223.783966 L 2916.611859 1247.716625 L 3036.314449 1247.716625 L 3036.314449 1223.783966 L 2988.449132 1223.783966 L 2988.449132 1199.851308 L 3084.219064 1199.851308 " transform="matrix(0.0994, 0, 0, -0.0994, 0.788, 143.26522)"/>
<path fill="none" stroke-width="5" stroke-linecap="round" stroke-linejoin="round" stroke="rgb(0%, 0%, 0%)" stroke-opacity="1" stroke-miterlimit="10" d="M 3084.219064 1199.851308 L 3108.151723 1199.851308 L 3108.151723 1223.783966 L 3060.286406 1223.783966 L 3060.286406 1247.716625 L 3179.988996 1247.716625 L 3179.988996 1223.783966 L 3132.084381 1223.783966 L 3132.084381 1199.851308 L 3251.82627 1199.851308 L 3251.82627 1223.783966 L 3203.921655 1223.783966 L 3203.921655 1247.716625 L 3251.82627 1247.716625 L 3251.82627 1271.688581 L 3203.921655 1271.688581 L 3203.921655 1295.62124 L 3251.82627 1295.62124 L 3251.82627 1319.553898 L 3132.084381 1319.553898 L 3132.084381 1295.62124 L 3179.988996 1295.62124 L 3179.988996 1271.688581 L 3060.286406 1271.688581 L 3060.286406 1295.62124 L 3108.151723 1295.62124 L 3108.151723 1319.553898 " transform="matrix(0.0994, 0, 0, -0.0994, 0.788, 143.26522)"/>
<path fill="none" stroke-width="5" stroke-linecap="round" stroke-linejoin="round" stroke="rgb(0%, 0%, 0%)" stroke-opacity="1" stroke-miterlimit="10" d="M 3108.151723 1319.553898 L 3060.286406 1319.553898 L 3060.286406 1343.486557 L 3108.151723 1343.486557 L 3108.151723 1367.458514 L 3060.286406 1367.458514 L 3060.286406 1391.391172 L 3179.988996 1391.391172 L 3179.988996 1367.458514 L 3132.084381 1367.458514 L 3132.084381 1343.486557 L 3251.82627 1343.486557 L 3251.82627 1367.458514 L 3203.921655 1367.458514 L 3203.921655 1391.391172 L 3251.82627 1391.391172 " transform="matrix(0.0994, 0, 0, -0.0994, 0.788, 143.26522)"/>
</svg>
