<?xml version="1.0" encoding="UTF-8"?>
<svg xmlns="http://www.w3.org/2000/svg" xmlns:xlink="http://www.w3.org/1999/xlink" width="385" height="120.31" viewBox="0 0 385 120.31">
<path fill="none" stroke-width="5" stroke-linecap="round" stroke-linejoin="round" stroke="rgb(0%, 0%, 0%)" stroke-opacity="1" stroke-miterlimit="10" d="M 664.570238 987.37766 L 890.585649 987.37766 L 1050.403255 1147.195267 L 1210.220862 987.37766 L 1050.403255 827.560054 L 1050.403255 375.568519 L 1210.220862 215.750912 L 1050.403255 55.933306 L 890.585649 215.750912 L 438.594114 215.750912 L 278.776507 55.933306 L 118.9589 215.750912 L 278.776507 375.568519 L 278.776507 827.560054 L 118.9589 987.37766 L 278.776507 1147.195267 L 438.594114 987.37766 L 664.570238 987.37766 " transform="matrix(0.0994298, 0, 0, -0.0994298, 1.097727, 119.623935)"/>
<path fill="none" stroke-width="5" stroke-linecap="round" stroke-linejoin="round" stroke="rgb(0%, 0%, 0%)" stroke-opacity="1" stroke-miterlimit="10" d="M 1925 761.36225 L 2018.619802 761.36225 L 2084.817607 827.560054 L 2084.817607 1014.799659 L 2018.619802 1080.997463 L 2084.817607 1147.195267 L 2151.015411 1080.997463 L 2338.255016 1080.997463 L 2404.45282 1147.195267 L 2470.650624 1080.997463 L 2404.45282 1014.799659 L 2404.45282 827.560054 L 2470.650624 761.36225 L 2404.45282 695.164445 L 2338.255016 761.36225 L 2151.015411 761.36225 L 2084.817607 695.164445 L 2084.817607 507.964127 L 2151.015411 441.766323 L 2338.255016 441.766323 L 2404.45282 507.964127 L 2470.650624 441.766323 L 2404.45282 375.568519 L 2404.45282 188.328914 L 2470.650624 122.13111 L 2404.45282 55.933306 L 2338.255016 122.13111 L 2151.015411 122.13111 L 2084.817607 55.933306 L 2018.619802 122.13111 L 2084.817607 188.328914 L 2084.817607 375.568519 L 2018.619802 441.766323 L 1831.380198 441.766323 L 1765.182393 375.568519 L 1765.182393 188.328914 L 1831.380198 122.13111 L 1765.182393 55.933306 L 1698.984589 122.13111 " transform="matrix(0.0994298, 0, 0, -0.0994298, 1.097727, 119.623935)"/>
<path fill="none" stroke-width="5" stroke-linecap="round" stroke-linejoin="round" stroke="rgb(0%, 0%, 0%)" stroke-opacity="1" stroke-miterlimit="10" d="M 1698.984589 122.13111 L 1511.744984 122.13111 L 1445.54718 55.933306 L 1379.349376 122.13111 L 1445.54718 188.328914 L 1445.54718 375.568519 L 1379.349376 441.766323 L 1445.54718 507.964127 L 1511.744984 441.766323 L 1698.984589 441.766323 L 1765.182393 507.964127 L 1765.182393 695.164445 L 1698.984589 761.36225 L 1511.744984 761.36225 L 1445.54718 695.164445 L 1379.349376 761.36225 L 1445.54718 827.560054 L 1445.54718 1014.799659 L 1379.349376 1080.997463 L 1445.54718 1147.195267 L 1511.744984 1080.997463 L 1698.984589 1080.997463 L 1765.182393 1147.195267 L 1831.380198 1080.997463 L 1765.182393 1014.799659 L 1765.182393 827.560054 L 1831.380198 761.36225 L 1925 761.36225 " transform="matrix(0.0994298, 0, 0, -0.0994298, 1.097727, 119.623935)"/>
<path fill="none" stroke-width="5" stroke-linecap="round" stroke-linejoin="round" stroke="rgb(0%, 0%, 0%)" stroke-opacity="1" stroke-miterlimit="10" d="M 3185.390476 675.167601 L 3228.527086 675.167601 L 3259.013434 705.653949 L 3259.013434 791.848597 L 3228.527086 822.334945 L 3259.013434 852.821293 L 3289.499782 822.334945 L 3375.69443 822.334945 L 3406.180778 852.821293 L 3406.180778 939.055228 L 3375.69443 969.541575 L 3289.499782 969.541575 L 3259.013434 939.055228 L 3228.527086 969.541575 L 3259.013434 1000.027923 L 3259.013434 1086.222571 L 3228.527086 1116.708919 L 3259.013434 1147.195267 L 3289.499782 1116.708919 L 3375.69443 1116.708919 L 3406.180778 1147.195267 L 3436.667126 1116.708919 L 3406.180778 1086.222571 L 3406.180778 1000.027923 L 3436.667126 969.541575 L 3522.90106 969.541575 L 3553.387408 1000.027923 L 3553.387408 1086.222571 L 3522.90106 1116.708919 L 3553.387408 1147.195267 L 3583.873756 1116.708919 L 3670.068404 1116.708919 L 3700.554752 1147.195267 L 3731.0411 1116.708919 L 3700.554752 1086.222571 L 3700.554752 1000.027923 L 3731.0411 969.541575 L 3700.554752 939.055228 L 3670.068404 969.541575 " transform="matrix(0.0994298, 0, 0, -0.0994298, 1.097727, 119.623935)"/>
<path fill="none" stroke-width="5" stroke-linecap="round" stroke-linejoin="round" stroke="rgb(0%, 0%, 0%)" stroke-opacity="1" stroke-miterlimit="10" d="M 3670.068404 969.541575 L 3583.873756 969.541575 L 3553.387408 939.055228 L 3553.387408 852.821293 L 3583.873756 822.334945 L 3670.068404 822.334945 L 3700.554752 852.821293 L 3731.0411 822.334945 L 3700.554752 791.848597 L 3700.554752 705.653949 L 3731.0411 675.167601 L 3700.554752 644.681254 L 3670.068404 675.167601 L 3583.873756 675.167601 L 3553.387408 644.681254 L 3522.90106 675.167601 L 3553.387408 705.653949 L 3553.387408 791.848597 L 3522.90106 822.334945 L 3436.667126 822.334945 L 3406.180778 791.848597 L 3406.180778 705.653949 L 3436.667126 675.167601 L 3406.180778 644.681254 L 3375.69443 675.167601 L 3289.499782 675.167601 L 3259.013434 644.681254 L 3259.013434 558.447319 L 3289.499782 527.960971 L 3375.69443 527.960971 L 3406.180778 558.447319 L 3436.667126 527.960971 L 3406.180778 497.474623 L 3406.180778 411.279975 L 3436.667126 380.793627 L 3522.90106 380.793627 L 3553.387408 411.279975 L 3553.387408 454.377299 " transform="matrix(0.0994298, 0, 0, -0.0994298, 1.097727, 119.623935)"/>
<path fill="none" stroke-width="5" stroke-linecap="round" stroke-linejoin="round" stroke="rgb(0%, 0%, 0%)" stroke-opacity="1" stroke-miterlimit="10" d="M 3553.387408 454.377299 L 3553.387408 497.474623 L 3522.90106 527.960971 L 3553.387408 558.447319 L 3583.873756 527.960971 L 3670.068404 527.960971 L 3700.554752 558.447319 L 3731.0411 527.960971 L 3700.554752 497.474623 L 3700.554752 411.279975 L 3731.0411 380.793627 L 3700.554752 350.30728 L 3670.068404 380.793627 L 3583.873756 380.793627 L 3553.387408 350.30728 L 3553.387408 264.073345 L 3583.873756 233.586997 L 3670.068404 233.586997 L 3700.554752 264.073345 L 3731.0411 233.586997 L 3700.554752 203.100649 L 3700.554752 116.906001 L 3731.0411 86.419653 L 3700.554752 55.933306 L 3670.068404 86.419653 L 3583.873756 86.419653 L 3553.387408 55.933306 L 3522.90106 86.419653 L 3553.387408 116.906001 L 3553.387408 203.100649 L 3522.90106 233.586997 L 3436.667126 233.586997 L 3406.180778 203.100649 L 3406.180778 116.906001 L 3436.667126 86.419653 L 3406.180778 55.933306 L 3375.69443 86.419653 L 3289.499782 86.419653 L 3259.013434 55.933306 L 3228.527086 86.419653 " transform="matrix(0.0994298, 0, 0, -0.0994298, 1.097727, 119.623935)"/>
<path fill="none" stroke-width="5" stroke-linecap="round" stroke-linejoin="round" stroke="rgb(0%, 0%, 0%)" stroke-opacity="1" stroke-miterlimit="10" d="M 3228.527086 86.419653 L 3259.013434 116.906001 L 3259.013434 203.100649 L 3228.527086 233.586997 L 3259.013434 264.073345 L 3289.499782 233.586997 L 3375.69443 233.586997 L 3406.180778 264.073345 L 3406.180778 350.30728 L 3375.69443 380.793627 L 3289.499782 380.793627 L 3259.013434 350.30728 L 3228.527086 380.793627 L 3259.013434 411.279975 L 3259.013434 497.474623 L 3228.527086 527.960971 L 3142.293152 527.960971 L 3111.806804 497.474623 L 3111.806804 411.279975 L 3142.293152 380.793627 L 3111.806804 350.30728 L 3081.320456 380.793627 L 2995.125808 380.793627 L 2964.63946 350.30728 L 2964.63946 264.073345 L 2995.125808 233.586997 L 3081.320456 233.586997 L 3111.806804 264.073345 L 3142.293152 233.586997 L 3111.806804 203.100649 L 3111.806804 116.906001 L 3142.293152 86.419653 L 3111.806804 55.933306 L 3081.320456 86.419653 L 2995.125808 86.419653 L 2964.63946 55.933306 L 2934.153112 86.419653 L 2964.63946 116.906001 L 2964.63946 160.003325 " transform="matrix(0.0994298, 0, 0, -0.0994298, 1.097727, 119.623935)"/>
<path fill="none" stroke-width="5" stroke-linecap="round" stroke-linejoin="round" stroke="rgb(0%, 0%, 0%)" stroke-opacity="1" stroke-miterlimit="10" d="M 2964.63946 160.003325 L 2964.63946 203.100649 L 2934.153112 233.586997 L 2847.919178 233.586997 L 2817.43283 203.100649 L 2817.43283 116.906001 L 2847.919178 86.419653 L 2817.43283 55.933306 L 2786.946482 86.419653 L 2700.751834 86.419653 L 2670.265486 55.933306 L 2639.779138 86.419653 L 2670.265486 116.906001 L 2670.265486 203.100649 L 2639.779138 233.586997 L 2670.265486 264.073345 L 2700.751834 233.586997 L 2786.946482 233.586997 L 2817.43283 264.073345 L 2817.43283 350.30728 L 2786.946482 380.793627 L 2700.751834 380.793627 L 2670.265486 350.30728 L 2639.779138 380.793627 L 2670.265486 411.279975 L 2670.265486 497.474623 L 2639.779138 527.960971 L 2670.265486 558.447319 L 2700.751834 527.960971 L 2786.946482 527.960971 L 2817.43283 558.447319 L 2847.919178 527.960971 L 2817.43283 497.474623 L 2817.43283 411.279975 L 2847.919178 380.793627 L 2934.153112 380.793627 L 2964.63946 411.279975 L 2964.63946 497.474623 L 2934.153112 527.960971 " transform="matrix(0.0994298, 0, 0, -0.0994298, 1.097727, 119.623935)"/>
<path fill="none" stroke-width="5" stroke-linecap="round" stroke-linejoin="round" stroke="rgb(0%, 0%, 0%)" stroke-opacity="1" stroke-miterlimit="10" d="M 2934.153112 527.960971 L 2964.63946 558.447319 L 2995.125808 527.960971 L 3081.320456 527.960971 L 3111.806804 558.447319 L 3111.806804 644.681254 L 3081.320456 675.167601 L 2995.125808 675.167601 L 2964.63946 644.681254 L 2934.153112 675.167601 L 2964.63946 705.653949 L 2964.63946 791.848597 L 2934.153112 822.334945 L 2847.919178 822.334945 L 2817.43283 791.848597 L 2817.43283 705.653949 L 2847.919178 675.167601 L 2817.43283 644.681254 L 2786.946482 675.167601 L 2700.751834 675.167601 L 2670.265486 644.681254 L 2639.779138 675.167601 L 2670.265486 705.653949 L 2670.265486 791.848597 L 2639.779138 822.334945 L 2670.265486 852.821293 L 2700.751834 822.334945 L 2786.946482 822.334945 L 2817.43283 852.821293 L 2817.43283 939.055228 L 2786.946482 969.541575 L 2700.751834 969.541575 L 2670.265486 939.055228 L 2639.779138 969.541575 L 2670.265486 1000.027923 L 2670.265486 1086.222571 L 2639.779138 1116.708919 L 2670.265486 1147.195267 L 2700.751834 1116.708919 " transform="matrix(0.0994298, 0, 0, -0.0994298, 1.097727, 119.623935)"/>
<path fill="none" stroke-width="5" stroke-linecap="round" stroke-linejoin="round" stroke="rgb(0%, 0%, 0%)" stroke-opacity="1" stroke-miterlimit="10" d="M 2700.751834 1116.708919 L 2786.946482 1116.708919 L 2817.43283 1147.195267 L 2847.919178 1116.708919 L 2817.43283 1086.222571 L 2817.43283 1000.027923 L 2847.919178 969.541575 L 2934.153112 969.541575 L 2964.63946 1000.027923 L 2964.63946 1086.222571 L 2934.153112 1116.708919 L 2964.63946 1147.195267 L 2995.125808 1116.708919 L 3081.320456 1116.708919 L 3111.806804 1147.195267 L 3142.293152 1116.708919 L 3111.806804 1086.222571 L 3111.806804 1000.027923 L 3142.293152 969.541575 L 3111.806804 939.055228 L 3081.320456 969.541575 L 2995.125808 969.541575 L 2964.63946 939.055228 L 2964.63946 852.821293 L 2995.125808 822.334945 L 3081.320456 822.334945 L 3111.806804 852.821293 L 3142.293152 822.334945 L 3111.806804 791.848597 L 3111.806804 705.653949 L 3142.293152 675.167601 L 3185.390476 675.167601 " transform="matrix(0.0994298, 0, 0, -0.0994298, 1.097727, 119.623935)"/>
</svg>
