<?xml version="1.0" encoding="UTF-8"?>
<svg xmlns="http://www.w3.org/2000/svg" xmlns:xlink="http://www.w3.org/1999/xlink" width="448" height="94" viewBox="0 0 448 94">
<path fill="none" stroke-width="3.10124" stroke-linecap="round" stroke-linejoin="round" stroke="rgb(0%, 0%, 0%)" stroke-opacity="1" stroke-miterlimit="10" d="M 165.117188 896.328125 L 657.382812 896.328125 L 903.515625 470 L 657.382812 43.710938 " transform="matrix(0.1, 0, 0, -0.1, 0, 94)"/>
<path fill="none" stroke-width="3.10125" stroke-linecap="round" stroke-linejoin="round" stroke="rgb(0%, 0%, 0%)" stroke-opacity="1" stroke-miterlimit="10" d="M 1017.96875 230.195312 L 1202.539062 230.195312 L 1294.84375 390.078125 L 1202.539062 549.921875 L 1294.84375 709.804688 L 1479.453125 709.804688 L 1571.757812 549.921875 L 1479.453125 390.078125 L 1571.757812 230.195312 L 1756.367188 230.195312 " transform="matrix(0.1, 0, 0, -0.1, 0, 94)"/>
<path fill="none" stroke-width="3.10123" stroke-linecap="round" stroke-linejoin="round" stroke="rgb(0%, 0%, 0%)" stroke-opacity="1" stroke-miterlimit="10" d="M 1870.78125 811.054688 L 1969.257812 811.054688 L 2018.476562 725.78125 L 1969.257812 640.507812 L 2018.476562 555.273438 L 2116.953125 555.273438 L 2166.171875 640.507812 L 2116.953125 725.78125 L 2166.171875 811.054688 L 2264.609375 811.054688 L 2313.828125 725.78125 L 2412.304688 725.78125 L 2461.523438 811.054688 L 2559.960938 811.054688 L 2609.21875 725.78125 L 2559.960938 640.507812 L 2461.523438 640.507812 L 2412.304688 555.273438 L 2461.523438 470 L 2412.304688 384.726562 L 2313.828125 384.726562 L 2264.609375 470 L 2166.171875 470 L 2116.953125 384.726562 L 2166.171875 299.492188 L 2264.609375 299.492188 L 2313.828125 214.21875 L 2264.609375 128.945312 " transform="matrix(0.1, 0, 0, -0.1, 0, 94)"/>
<path fill="none" stroke-width="3.10125" stroke-linecap="round" stroke-linejoin="round" stroke="rgb(0%, 0%, 0%)" stroke-opacity="1" stroke-miterlimit="10" d="M 2723.632812 170.273438 L 2769.804688 170.273438 L 2792.890625 210.234375 L 2769.804688 250.195312 L 2792.890625 290.15625 L 2839.023438 290.15625 L 2862.109375 250.195312 L 2839.023438 210.234375 L 2862.109375 170.273438 L 2908.242188 170.273438 L 2931.328125 210.234375 L 2977.460938 210.234375 L 3000.546875 170.273438 L 3046.71875 170.273438 L 3069.765625 210.234375 L 3046.71875 250.195312 L 3000.546875 250.195312 L 2977.460938 290.15625 L 3000.546875 330.117188 L 2977.460938 370.078125 L 2931.328125 370.078125 L 2908.242188 330.117188 L 2862.109375 330.117188 L 2839.023438 370.078125 L 2862.109375 410.078125 L 2908.242188 410.078125 L 2931.328125 450.039062 L 2908.242188 490 L 2931.328125 529.960938 L 2977.460938 529.960938 L 3000.546875 490 L 3046.71875 490 L 3069.765625 529.960938 L 3046.71875 569.921875 L 3000.546875 569.921875 L 2977.460938 609.882812 L 3000.546875 649.84375 L 3046.71875 649.84375 L 3069.765625 689.804688 L 3046.71875 729.804688 L 3069.765625 769.765625 L 3115.898438 769.765625 L 3138.984375 729.804688 L 3115.898438 689.804688 L 3138.984375 649.84375 L 3185.15625 649.84375 L 3208.203125 609.882812 L 3185.15625 569.921875 L 3138.984375 569.921875 L 3115.898438 529.960938 " transform="matrix(0.1, 0, 0, -0.1, 0, 94)"/>
<path fill="none" stroke-width="3.10125" stroke-linecap="round" stroke-linejoin="round" stroke="rgb(0%, 0%, 0%)" stroke-opacity="1" stroke-miterlimit="10" d="M 3115.898438 529.960938 L 3138.984375 490 L 3185.15625 490 L 3208.203125 529.960938 L 3254.375 529.960938 L 3277.460938 490 L 3254.375 450.039062 L 3277.460938 410.078125 L 3323.59375 410.078125 L 3346.640625 370.078125 L 3323.59375 330.117188 L 3277.460938 330.117188 L 3254.375 370.078125 L 3208.203125 370.078125 L 3185.15625 330.117188 L 3208.203125 290.15625 L 3185.15625 250.195312 L 3138.984375 250.195312 L 3115.898438 210.234375 L 3138.984375 170.273438 L 3185.15625 170.273438 L 3208.203125 210.234375 L 3254.375 210.234375 L 3277.460938 170.273438 L 3323.59375 170.273438 L 3346.640625 210.234375 L 3323.59375 250.195312 L 3346.640625 290.15625 L 3392.8125 290.15625 L 3415.898438 250.195312 L 3392.8125 210.234375 L 3415.898438 170.273438 L 3462.03125 170.273438 " transform="matrix(0.1, 0, 0, -0.1, 0, 94)"/>
<path fill="none" stroke-width="3.10123" stroke-linecap="round" stroke-linejoin="round" stroke="rgb(0%, 0%, 0%)" stroke-opacity="1" stroke-miterlimit="10" d="M 3576.484375 794.804688 L 3599.921875 794.804688 L 3611.640625 774.53125 L 3599.921875 754.21875 L 3611.640625 733.90625 L 3635.117188 733.90625 L 3646.796875 754.21875 L 3635.117188 774.53125 L 3646.796875 794.804688 L 3670.273438 794.804688 L 3681.953125 774.53125 L 3705.429688 774.53125 L 3717.148438 794.804688 L 3740.585938 794.804688 L 3752.304688 774.53125 L 3740.585938 754.21875 L 3717.148438 754.21875 L 3705.429688 733.90625 L 3717.148438 713.59375 L 3705.429688 693.320312 L 3681.953125 693.320312 L 3670.273438 713.59375 L 3646.796875 713.59375 L 3635.117188 693.320312 L 3646.796875 673.007812 L 3670.273438 673.007812 L 3681.953125 652.695312 L 3670.273438 632.421875 L 3681.953125 612.109375 L 3705.429688 612.109375 L 3717.148438 632.421875 L 3740.585938 632.421875 L 3752.304688 612.109375 L 3740.585938 591.796875 L 3717.148438 591.796875 L 3705.429688 571.523438 L 3717.148438 551.210938 L 3740.585938 551.210938 L 3752.304688 530.898438 L 3740.585938 510.585938 L 3752.304688 490.3125 L 3775.742188 490.3125 L 3787.460938 510.585938 L 3775.742188 530.898438 L 3787.460938 551.210938 L 3810.898438 551.210938 L 3822.617188 571.523438 L 3810.898438 591.796875 L 3787.460938 591.796875 L 3775.742188 612.109375 " transform="matrix(0.1, 0, 0, -0.1, 0, 94)"/>
<path fill="none" stroke-width="3.10123" stroke-linecap="round" stroke-linejoin="round" stroke="rgb(0%, 0%, 0%)" stroke-opacity="1" stroke-miterlimit="10" d="M 3775.742188 612.109375 L 3787.460938 632.421875 L 3810.898438 632.421875 L 3822.617188 612.109375 L 3846.054688 612.109375 L 3857.773438 632.421875 L 3846.054688 652.695312 L 3857.773438 673.007812 L 3881.210938 673.007812 L 3892.929688 693.320312 L 3881.210938 713.59375 L 3857.773438 713.59375 L 3846.054688 693.320312 L 3822.617188 693.320312 L 3810.898438 713.59375 L 3822.617188 733.90625 L 3810.898438 754.21875 L 3787.460938 754.21875 L 3775.742188 774.53125 L 3787.460938 794.804688 L 3810.898438 794.804688 L 3822.617188 774.53125 L 3846.054688 774.53125 L 3857.773438 794.804688 L 3881.210938 794.804688 L 3892.929688 774.53125 L 3881.210938 754.21875 L 3892.929688 733.90625 L 3916.40625 733.90625 L 3928.085938 754.21875 L 3916.40625 774.53125 L 3928.085938 794.804688 L 3951.5625 794.804688 L 3963.28125 774.53125 L 3986.71875 774.53125 L 3998.4375 794.804688 L 4021.875 794.804688 L 4033.59375 774.53125 L 4021.875 754.21875 L 3998.4375 754.21875 L 3986.71875 733.90625 L 3998.4375 713.59375 L 4021.875 713.59375 L 4033.59375 693.320312 L 4021.875 673.007812 L 4033.59375 652.695312 L 4057.03125 652.695312 L 4068.75 673.007812 L 4057.03125 693.320312 L 4068.75 713.59375 L 4092.1875 713.59375 " transform="matrix(0.1, 0, 0, -0.1, 0, 94)"/>
<path fill="none" stroke-width="3.10123" stroke-linecap="round" stroke-linejoin="round" stroke="rgb(0%, 0%, 0%)" stroke-opacity="1" stroke-miterlimit="10" d="M 4092.1875 713.59375 L 4103.90625 733.90625 L 4092.1875 754.21875 L 4068.75 754.21875 L 4057.03125 774.53125 L 4068.75 794.804688 L 4092.1875 794.804688 L 4103.90625 774.53125 L 4127.34375 774.53125 L 4139.0625 794.804688 L 4162.539062 794.804688 L 4174.21875 774.53125 L 4162.539062 754.21875 L 4174.21875 733.90625 L 4197.695312 733.90625 L 4209.414062 754.21875 L 4197.695312 774.53125 L 4209.414062 794.804688 L 4232.851562 794.804688 L 4244.570312 774.53125 L 4268.007812 774.53125 L 4279.726562 794.804688 L 4303.164062 794.804688 L 4314.882812 774.53125 L 4303.164062 754.21875 L 4279.726562 754.21875 L 4268.007812 733.90625 L 4279.726562 713.59375 L 4268.007812 693.320312 L 4244.570312 693.320312 L 4232.851562 713.59375 L 4209.414062 713.59375 L 4197.695312 693.320312 L 4209.414062 673.007812 L 4232.851562 673.007812 L 4244.570312 652.695312 L 4232.851562 632.421875 L 4209.414062 632.421875 L 4197.695312 612.109375 L 4209.414062 591.796875 L 4197.695312 571.523438 L 4174.21875 571.523438 L 4162.539062 591.796875 L 4174.21875 612.109375 L 4162.539062 632.421875 L 4139.0625 632.421875 L 4127.34375 612.109375 L 4103.90625 612.109375 L 4092.1875 632.421875 L 4068.75 632.421875 L 4057.03125 612.109375 " transform="matrix(0.1, 0, 0, -0.1, 0, 94)"/>
<path fill="none" stroke-width="3.10123" stroke-linecap="round" stroke-linejoin="round" stroke="rgb(0%, 0%, 0%)" stroke-opacity="1" stroke-miterlimit="10" d="M 4057.03125 612.109375 L 4068.75 591.796875 L 4092.1875 591.796875 L 4103.90625 571.523438 L 4092.1875 551.210938 L 4103.90625 530.898438 L 4127.34375 530.898438 L 4139.0625 551.210938 L 4162.539062 551.210938 L 4174.21875 530.898438 L 4162.539062 510.585938 L 4139.0625 510.585938 L 4127.34375 490.3125 L 4139.0625 470 L 4127.34375 449.6875 L 4103.90625 449.6875 L 4092.1875 470 L 4068.75 470 L 4057.03125 449.6875 L 4068.75 429.414062 L 4092.1875 429.414062 L 4103.90625 409.101562 L 4092.1875 388.789062 L 4068.75 388.789062 L 4057.03125 368.515625 L 4068.75 348.203125 L 4057.03125 327.890625 L 4033.59375 327.890625 L 4021.875 348.203125 L 4033.59375 368.515625 L 4021.875 388.789062 L 3998.4375 388.789062 L 3986.71875 409.101562 L 3998.4375 429.414062 L 4021.875 429.414062 L 4033.59375 449.6875 L 4021.875 470 L 3998.4375 470 L 3986.71875 449.6875 L 3963.28125 449.6875 L 3951.5625 470 L 3928.085938 470 L 3916.40625 449.6875 L 3928.085938 429.414062 L 3916.40625 409.101562 L 3892.929688 409.101562 L 3881.210938 429.414062 L 3892.929688 449.6875 L 3881.210938 470 L 3857.773438 470 L 3846.054688 449.6875 " transform="matrix(0.1, 0, 0, -0.1, 0, 94)"/>
<path fill="none" stroke-width="3.10123" stroke-linecap="round" stroke-linejoin="round" stroke="rgb(0%, 0%, 0%)" stroke-opacity="1" stroke-miterlimit="10" d="M 3846.054688 449.6875 L 3822.617188 449.6875 L 3810.898438 470 L 3787.460938 470 L 3775.742188 449.6875 L 3787.460938 429.414062 L 3810.898438 429.414062 L 3822.617188 409.101562 L 3810.898438 388.789062 L 3822.617188 368.515625 L 3846.054688 368.515625 L 3857.773438 388.789062 L 3881.210938 388.789062 L 3892.929688 368.515625 L 3881.210938 348.203125 L 3857.773438 348.203125 L 3846.054688 327.890625 L 3857.773438 307.617188 L 3881.210938 307.617188 L 3892.929688 287.304688 L 3881.210938 266.992188 L 3892.929688 246.71875 L 3916.40625 246.71875 L 3928.085938 266.992188 L 3916.40625 287.304688 L 3928.085938 307.617188 L 3951.5625 307.617188 L 3963.28125 287.304688 L 3986.71875 287.304688 L 3998.4375 307.617188 L 4021.875 307.617188 L 4033.59375 287.304688 L 4021.875 266.992188 L 3998.4375 266.992188 L 3986.71875 246.71875 L 3998.4375 226.40625 L 3986.71875 206.09375 L 3963.28125 206.09375 L 3951.5625 226.40625 L 3928.085938 226.40625 L 3916.40625 206.09375 L 3928.085938 185.820312 L 3951.5625 185.820312 L 3963.28125 165.507812 L 3951.5625 145.195312 " transform="matrix(0.1, 0, 0, -0.1, 0, 94)"/>
</svg>
