<?xml version="1.0" encoding="UTF-8"?>
<svg xmlns="http://www.w3.org/2000/svg" xmlns:xlink="http://www.w3.org/1999/xlink" width="470" height="74" viewBox="0 0 470 74">
<path fill-rule="nonzero" fill="rgb(0%, 0%, 0%)" fill-opacity="1" d="M 17.222656 70.558594 L 55.972656 3.441406 L 94.722656 70.558594 "/>
<path fill-rule="nonzero" fill="rgb(0%, 0%, 0%)" fill-opacity="1" d="M 106.734375 70.558594 L 126.109375 37 L 145.484375 70.558594 L 106.734375 70.558594 "/>
<path fill-rule="nonzero" fill="rgb(0%, 0%, 0%)" fill-opacity="1" d="M 145.484375 70.558594 L 164.863281 37 L 184.234375 70.558594 L 145.484375 70.558594 "/>
<path fill-rule="nonzero" fill="rgb(0%, 0%, 0%)" fill-opacity="1" d="M 126.109375 37 L 145.484375 3.441406 L 164.863281 37 L 126.109375 37 "/>
<path fill-rule="nonzero" fill="rgb(0%, 0%, 0%)" fill-opacity="1" d="M 196.25 70.558594 L 205.9375 53.78125 L 215.625 70.558594 L 196.25 70.558594 "/>
<path fill-rule="nonzero" fill="rgb(0%, 0%, 0%)" fill-opacity="1" d="M 215.625 70.558594 L 225.3125 53.78125 L 235 70.558594 L 215.625 70.558594 "/>
<path fill-rule="nonzero" fill="rgb(0%, 0%, 0%)" fill-opacity="1" d="M 205.9375 53.78125 L 215.625 37 L 225.3125 53.78125 L 205.9375 53.78125 "/>
<path fill-rule="nonzero" fill="rgb(0%, 0%, 0%)" fill-opacity="1" d="M 235 70.558594 L 244.6875 53.78125 L 254.375 70.558594 L 235 70.558594 "/>
<path fill-rule="nonzero" fill="rgb(0%, 0%, 0%)" fill-opacity="1" d="M 254.375 70.558594 L 264.0625 53.78125 L 273.75 70.558594 L 254.375 70.558594 "/>
<path fill-rule="nonzero" fill="rgb(0%, 0%, 0%)" fill-opacity="1" d="M 244.6875 53.78125 L 254.375 37 L 264.0625 53.78125 L 244.6875 53.78125 "/>
<path fill-rule="nonzero" fill="rgb(0%, 0%, 0%)" fill-opacity="1" d="M 215.625 37 L 225.3125 20.222656 L 235 37 L 215.625 37 "/>
<path fill-rule="nonzero" fill="rgb(0%, 0%, 0%)" fill-opacity="1" d="M 235 37 L 244.6875 20.222656 L 254.375 37 L 235 37 "/>
<path fill-rule="nonzero" fill="rgb(0%, 0%, 0%)" fill-opacity="1" d="M 225.3125 20.222656 L 235 3.441406 L 244.6875 20.222656 L 225.3125 20.222656 "/>
<path fill-rule="nonzero" fill="rgb(0%, 0%, 0%)" fill-opacity="1" d="M 285.765625 70.558594 L 290.605469 62.171875 L 295.449219 70.558594 L 285.765625 70.558594 "/>
<path fill-rule="nonzero" fill="rgb(0%, 0%, 0%)" fill-opacity="1" d="M 295.449219 70.558594 L 300.296875 62.171875 L 305.136719 70.558594 L 295.449219 70.558594 "/>
<path fill-rule="nonzero" fill="rgb(0%, 0%, 0%)" fill-opacity="1" d="M 290.605469 62.171875 L 295.449219 53.78125 L 300.296875 62.171875 L 290.605469 62.171875 "/>
<path fill-rule="nonzero" fill="rgb(0%, 0%, 0%)" fill-opacity="1" d="M 305.136719 70.558594 L 309.984375 62.171875 L 314.824219 70.558594 L 305.136719 70.558594 "/>
<path fill-rule="nonzero" fill="rgb(0%, 0%, 0%)" fill-opacity="1" d="M 314.824219 70.558594 L 319.671875 62.171875 L 324.515625 70.558594 L 314.824219 70.558594 "/>
<path fill-rule="nonzero" fill="rgb(0%, 0%, 0%)" fill-opacity="1" d="M 309.984375 62.171875 L 314.824219 53.78125 L 319.671875 62.171875 L 309.984375 62.171875 "/>
<path fill-rule="nonzero" fill="rgb(0%, 0%, 0%)" fill-opacity="1" d="M 295.449219 53.78125 L 300.296875 45.390625 L 305.136719 53.78125 L 295.449219 53.78125 "/>
<path fill-rule="nonzero" fill="rgb(0%, 0%, 0%)" fill-opacity="1" d="M 305.136719 53.78125 L 309.984375 45.390625 L 314.824219 53.78125 L 305.136719 53.78125 "/>
<path fill-rule="nonzero" fill="rgb(0%, 0%, 0%)" fill-opacity="1" d="M 300.296875 45.390625 L 305.136719 37 L 309.984375 45.390625 L 300.296875 45.390625 "/>
<path fill-rule="nonzero" fill="rgb(0%, 0%, 0%)" fill-opacity="1" d="M 324.515625 70.558594 L 329.355469 62.171875 L 334.203125 70.558594 L 324.515625 70.558594 "/>
<path fill-rule="nonzero" fill="rgb(0%, 0%, 0%)" fill-opacity="1" d="M 334.203125 70.558594 L 339.046875 62.171875 L 343.890625 70.558594 L 334.203125 70.558594 "/>
<path fill-rule="nonzero" fill="rgb(0%, 0%, 0%)" fill-opacity="1" d="M 329.355469 62.171875 L 334.203125 53.78125 L 339.046875 62.171875 L 329.355469 62.171875 "/>
<path fill-rule="nonzero" fill="rgb(0%, 0%, 0%)" fill-opacity="1" d="M 343.890625 70.558594 L 348.734375 62.171875 L 353.578125 70.558594 L 343.890625 70.558594 "/>
<path fill-rule="nonzero" fill="rgb(0%, 0%, 0%)" fill-opacity="1" d="M 353.578125 70.558594 L 358.421875 62.171875 L 363.265625 70.558594 L 353.578125 70.558594 "/>
<path fill-rule="nonzero" fill="rgb(0%, 0%, 0%)" fill-opacity="1" d="M 348.734375 62.171875 L 353.578125 53.78125 L 358.421875 62.171875 L 348.734375 62.171875 "/>
<path fill-rule="nonzero" fill="rgb(0%, 0%, 0%)" fill-opacity="1" d="M 334.203125 53.78125 L 339.046875 45.390625 L 343.890625 53.78125 L 334.203125 53.78125 "/>
<path fill-rule="nonzero" fill="rgb(0%, 0%, 0%)" fill-opacity="1" d="M 343.890625 53.78125 L 348.734375 45.390625 L 353.578125 53.78125 L 343.890625 53.78125 "/>
<path fill-rule="nonzero" fill="rgb(0%, 0%, 0%)" fill-opacity="1" d="M 339.046875 45.390625 L 343.890625 37 L 348.734375 45.390625 L 339.046875 45.390625 "/>
<path fill-rule="nonzero" fill="rgb(0%, 0%, 0%)" fill-opacity="1" d="M 305.136719 37 L 309.984375 28.613281 L 314.824219 37 L 305.136719 37 "/>
<path fill-rule="nonzero" fill="rgb(0%, 0%, 0%)" fill-opacity="1" d="M 314.824219 37 L 319.671875 28.613281 L 324.515625 37 L 314.824219 37 "/>
<path fill-rule="nonzero" fill="rgb(0%, 0%, 0%)" fill-opacity="1" d="M 309.984375 28.613281 L 314.824219 20.222656 L 319.671875 28.613281 L 309.984375 28.613281 "/>
<path fill-rule="nonzero" fill="rgb(0%, 0%, 0%)" fill-opacity="1" d="M 324.515625 37 L 329.355469 28.613281 L 334.203125 37 L 324.515625 37 "/>
<path fill-rule="nonzero" fill="rgb(0%, 0%, 0%)" fill-opacity="1" d="M 334.203125 37 L 339.046875 28.613281 L 343.890625 37 L 334.203125 37 "/>
<path fill-rule="nonzero" fill="rgb(0%, 0%, 0%)" fill-opacity="1" d="M 329.355469 28.613281 L 334.203125 20.222656 L 339.046875 28.613281 L 329.355469 28.613281 "/>
<path fill-rule="nonzero" fill="rgb(0%, 0%, 0%)" fill-opacity="1" d="M 314.824219 20.222656 L 319.671875 11.832031 L 324.515625 20.222656 L 314.824219 20.222656 "/>
<path fill-rule="nonzero" fill="rgb(0%, 0%, 0%)" fill-opacity="1" d="M 324.515625 20.222656 L 329.355469 11.832031 L 334.203125 20.222656 L 324.515625 20.222656 "/>
<path fill-rule="nonzero" fill="rgb(0%, 0%, 0%)" fill-opacity="1" d="M 319.671875 11.832031 L 324.515625 3.441406 L 329.355469 11.832031 L 319.671875 11.832031 "/>
<path fill-rule="nonzero" fill="rgb(0%, 0%, 0%)" fill-opacity="1" d="M 375.277344 70.558594 L 377.699219 66.363281 L 380.121094 70.558594 L 375.277344 70.558594 "/>
<path fill-rule="nonzero" fill="rgb(0%, 0%, 0%)" fill-opacity="1" d="M 380.121094 70.558594 L 382.542969 66.363281 L 384.964844 70.558594 L 380.121094 70.558594 "/>
<path fill-rule="nonzero" fill="rgb(0%, 0%, 0%)" fill-opacity="1" d="M 377.699219 66.363281 L 380.121094 62.171875 L 382.542969 66.363281 L 377.699219 66.363281 "/>
<path fill-rule="nonzero" fill="rgb(0%, 0%, 0%)" fill-opacity="1" d="M 384.964844 70.558594 L 387.386719 66.363281 L 389.808594 70.558594 L 384.964844 70.558594 "/>
<path fill-rule="nonzero" fill="rgb(0%, 0%, 0%)" fill-opacity="1" d="M 389.808594 70.558594 L 392.230469 66.363281 L 394.652344 70.558594 L 389.808594 70.558594 "/>
<path fill-rule="nonzero" fill="rgb(0%, 0%, 0%)" fill-opacity="1" d="M 387.386719 66.363281 L 389.808594 62.171875 L 392.230469 66.363281 L 387.386719 66.363281 "/>
<path fill-rule="nonzero" fill="rgb(0%, 0%, 0%)" fill-opacity="1" d="M 380.121094 62.171875 L 382.542969 57.976562 L 384.964844 62.171875 L 380.121094 62.171875 "/>
<path fill-rule="nonzero" fill="rgb(0%, 0%, 0%)" fill-opacity="1" d="M 384.964844 62.171875 L 387.386719 57.976562 L 389.808594 62.171875 L 384.964844 62.171875 "/>
<path fill-rule="nonzero" fill="rgb(0%, 0%, 0%)" fill-opacity="1" d="M 382.542969 57.976562 L 384.964844 53.78125 L 387.386719 57.976562 L 382.542969 57.976562 "/>
<path fill-rule="nonzero" fill="rgb(0%, 0%, 0%)" fill-opacity="1" d="M 394.652344 70.558594 L 397.074219 66.363281 L 399.496094 70.558594 L 394.652344 70.558594 "/>
<path fill-rule="nonzero" fill="rgb(0%, 0%, 0%)" fill-opacity="1" d="M 399.496094 70.558594 L 401.917969 66.363281 L 404.339844 70.558594 L 399.496094 70.558594 "/>
<path fill-rule="nonzero" fill="rgb(0%, 0%, 0%)" fill-opacity="1" d="M 397.074219 66.363281 L 399.496094 62.171875 L 401.917969 66.363281 L 397.074219 66.363281 "/>
<path fill-rule="nonzero" fill="rgb(0%, 0%, 0%)" fill-opacity="1" d="M 404.339844 70.558594 L 406.761719 66.363281 L 409.183594 70.558594 L 404.339844 70.558594 "/>
<path fill-rule="nonzero" fill="rgb(0%, 0%, 0%)" fill-opacity="1" d="M 409.183594 70.558594 L 411.605469 66.363281 L 414.027344 70.558594 L 409.183594 70.558594 "/>
<path fill-rule="nonzero" fill="rgb(0%, 0%, 0%)" fill-opacity="1" d="M 406.761719 66.363281 L 409.183594 62.171875 L 411.605469 66.363281 L 406.761719 66.363281 "/>
<path fill-rule="nonzero" fill="rgb(0%, 0%, 0%)" fill-opacity="1" d="M 399.496094 62.171875 L 401.917969 57.976562 L 404.339844 62.171875 L 399.496094 62.171875 "/>
<path fill-rule="nonzero" fill="rgb(0%, 0%, 0%)" fill-opacity="1" d="M 404.339844 62.171875 L 406.761719 57.976562 L 409.183594 62.171875 L 404.339844 62.171875 "/>
<path fill-rule="nonzero" fill="rgb(0%, 0%, 0%)" fill-opacity="1" d="M 401.917969 57.976562 L 404.339844 53.78125 L 406.761719 57.976562 L 401.917969 57.976562 "/>
<path fill-rule="nonzero" fill="rgb(0%, 0%, 0%)" fill-opacity="1" d="M 384.964844 53.78125 L 387.386719 49.585938 L 389.808594 53.78125 L 384.964844 53.78125 "/>
<path fill-rule="nonzero" fill="rgb(0%, 0%, 0%)" fill-opacity="1" d="M 389.808594 53.78125 L 392.230469 49.585938 L 394.652344 53.78125 L 389.808594 53.78125 "/>
<path fill-rule="nonzero" fill="rgb(0%, 0%, 0%)" fill-opacity="1" d="M 387.386719 49.585938 L 389.808594 45.390625 L 392.230469 49.585938 L 387.386719 49.585938 "/>
<path fill-rule="nonzero" fill="rgb(0%, 0%, 0%)" fill-opacity="1" d="M 394.652344 53.78125 L 397.074219 49.585938 L 399.496094 53.78125 L 394.652344 53.78125 "/>
<path fill-rule="nonzero" fill="rgb(0%, 0%, 0%)" fill-opacity="1" d="M 399.496094 53.78125 L 401.917969 49.585938 L 404.339844 53.78125 L 399.496094 53.78125 "/>
<path fill-rule="nonzero" fill="rgb(0%, 0%, 0%)" fill-opacity="1" d="M 397.074219 49.585938 L 399.496094 45.390625 L 401.917969 49.585938 L 397.074219 49.585938 "/>
<path fill-rule="nonzero" fill="rgb(0%, 0%, 0%)" fill-opacity="1" d="M 389.808594 45.390625 L 392.230469 41.195312 L 394.652344 45.390625 L 389.808594 45.390625 "/>
<path fill-rule="nonzero" fill="rgb(0%, 0%, 0%)" fill-opacity="1" d="M 394.652344 45.390625 L 397.074219 41.195312 L 399.496094 45.390625 L 394.652344 45.390625 "/>
<path fill-rule="nonzero" fill="rgb(0%, 0%, 0%)" fill-opacity="1" d="M 392.230469 41.195312 L 394.652344 37 L 397.074219 41.195312 L 392.230469 41.195312 "/>
<path fill-rule="nonzero" fill="rgb(0%, 0%, 0%)" fill-opacity="1" d="M 414.027344 70.558594 L 416.449219 66.363281 L 418.871094 70.558594 L 414.027344 70.558594 "/>
<path fill-rule="nonzero" fill="rgb(0%, 0%, 0%)" fill-opacity="1" d="M 418.871094 70.558594 L 421.292969 66.363281 L 423.714844 70.558594 L 418.871094 70.558594 "/>
<path fill-rule="nonzero" fill="rgb(0%, 0%, 0%)" fill-opacity="1" d="M 416.449219 66.363281 L 418.871094 62.171875 L 421.292969 66.363281 L 416.449219 66.363281 "/>
<path fill-rule="nonzero" fill="rgb(0%, 0%, 0%)" fill-opacity="1" d="M 423.714844 70.558594 L 426.136719 66.363281 L 428.558594 70.558594 L 423.714844 70.558594 "/>
<path fill-rule="nonzero" fill="rgb(0%, 0%, 0%)" fill-opacity="1" d="M 428.558594 70.558594 L 430.980469 66.363281 L 433.402344 70.558594 L 428.558594 70.558594 "/>
<path fill-rule="nonzero" fill="rgb(0%, 0%, 0%)" fill-opacity="1" d="M 426.136719 66.363281 L 428.558594 62.171875 L 430.980469 66.363281 L 426.136719 66.363281 "/>
<path fill-rule="nonzero" fill="rgb(0%, 0%, 0%)" fill-opacity="1" d="M 418.871094 62.171875 L 421.292969 57.976562 L 423.714844 62.171875 L 418.871094 62.171875 "/>
<path fill-rule="nonzero" fill="rgb(0%, 0%, 0%)" fill-opacity="1" d="M 423.714844 62.171875 L 426.136719 57.976562 L 428.558594 62.171875 L 423.714844 62.171875 "/>
<path fill-rule="nonzero" fill="rgb(0%, 0%, 0%)" fill-opacity="1" d="M 421.292969 57.976562 L 423.714844 53.78125 L 426.136719 57.976562 L 421.292969 57.976562 "/>
<path fill-rule="nonzero" fill="rgb(0%, 0%, 0%)" fill-opacity="1" d="M 433.402344 70.558594 L 435.824219 66.363281 L 438.246094 70.558594 L 433.402344 70.558594 "/>
<path fill-rule="nonzero" fill="rgb(0%, 0%, 0%)" fill-opacity="1" d="M 438.246094 70.558594 L 440.667969 66.363281 L 443.089844 70.558594 L 438.246094 70.558594 "/>
<path fill-rule="nonzero" fill="rgb(0%, 0%, 0%)" fill-opacity="1" d="M 435.824219 66.363281 L 438.246094 62.171875 L 440.667969 66.363281 L 435.824219 66.363281 "/>
<path fill-rule="nonzero" fill="rgb(0%, 0%, 0%)" fill-opacity="1" d="M 443.089844 70.558594 L 445.511719 66.363281 L 447.933594 70.558594 L 443.089844 70.558594 "/>
<path fill-rule="nonzero" fill="rgb(0%, 0%, 0%)" fill-opacity="1" d="M 447.933594 70.558594 L 450.355469 66.363281 L 452.777344 70.558594 L 447.933594 70.558594 "/>
<path fill-rule="nonzero" fill="rgb(0%, 0%, 0%)" fill-opacity="1" d="M 445.511719 66.363281 L 447.933594 62.171875 L 450.355469 66.363281 L 445.511719 66.363281 "/>
<path fill-rule="nonzero" fill="rgb(0%, 0%, 0%)" fill-opacity="1" d="M 438.246094 62.171875 L 440.667969 57.976562 L 443.089844 62.171875 L 438.246094 62.171875 "/>
<path fill-rule="nonzero" fill="rgb(0%, 0%, 0%)" fill-opacity="1" d="M 443.089844 62.171875 L 445.511719 57.976562 L 447.933594 62.171875 L 443.089844 62.171875 "/>
<path fill-rule="nonzero" fill="rgb(0%, 0%, 0%)" fill-opacity="1" d="M 440.667969 57.976562 L 443.089844 53.78125 L 445.511719 57.976562 L 440.667969 57.976562 "/>
<path fill-rule="nonzero" fill="rgb(0%, 0%, 0%)" fill-opacity="1" d="M 423.714844 53.78125 L 426.136719 49.585938 L 428.558594 53.78125 L 423.714844 53.78125 "/>
<path fill-rule="nonzero" fill="rgb(0%, 0%, 0%)" fill-opacity="1" d="M 428.558594 53.78125 L 430.980469 49.585938 L 433.402344 53.78125 L 428.558594 53.78125 "/>
<path fill-rule="nonzero" fill="rgb(0%, 0%, 0%)" fill-opacity="1" d="M 426.136719 49.585938 L 428.558594 45.390625 L 430.980469 49.585938 L 426.136719 49.585938 "/>
<path fill-rule="nonzero" fill="rgb(0%, 0%, 0%)" fill-opacity="1" d="M 433.402344 53.78125 L 435.824219 49.585938 L 438.246094 53.78125 L 433.402344 53.78125 "/>
<path fill-rule="nonzero" fill="rgb(0%, 0%, 0%)" fill-opacity="1" d="M 438.246094 53.78125 L 440.667969 49.585938 L 443.089844 53.78125 L 438.246094 53.78125 "/>
<path fill-rule="nonzero" fill="rgb(0%, 0%, 0%)" fill-opacity="1" d="M 435.824219 49.585938 L 438.246094 45.390625 L 440.667969 49.585938 L 435.824219 49.585938 "/>
<path fill-rule="nonzero" fill="rgb(0%, 0%, 0%)" fill-opacity="1" d="M 428.558594 45.390625 L 430.980469 41.195312 L 433.402344 45.390625 L 428.558594 45.390625 "/>
<path fill-rule="nonzero" fill="rgb(0%, 0%, 0%)" fill-opacity="1" d="M 433.402344 45.390625 L 435.824219 41.195312 L 438.246094 45.390625 L 433.402344 45.390625 "/>
<path fill-rule="nonzero" fill="rgb(0%, 0%, 0%)" fill-opacity="1" d="M 430.980469 41.195312 L 433.402344 37 L 435.824219 41.195312 L 430.980469 41.195312 "/>
<path fill-rule="nonzero" fill="rgb(0%, 0%, 0%)" fill-opacity="1" d="M 394.652344 37 L 397.074219 32.804688 L 399.496094 37 L 394.652344 37 "/>
<path fill-rule="nonzero" fill="rgb(0%, 0%, 0%)" fill-opacity="1" d="M 399.496094 37 L 401.917969 32.804688 L 404.339844 37 L 399.496094 37 "/>
<path fill-rule="nonzero" fill="rgb(0%, 0%, 0%)" fill-opacity="1" d="M 397.074219 32.804688 L 399.496094 28.613281 L 401.917969 32.804688 L 397.074219 32.804688 "/>
<path fill-rule="nonzero" fill="rgb(0%, 0%, 0%)" fill-opacity="1" d="M 404.339844 37 L 406.761719 32.804688 L 409.183594 37 L 404.339844 37 "/>
<path fill-rule="nonzero" fill="rgb(0%, 0%, 0%)" fill-opacity="1" d="M 409.183594 37 L 411.605469 32.804688 L 414.027344 37 L 409.183594 37 "/>
<path fill-rule="nonzero" fill="rgb(0%, 0%, 0%)" fill-opacity="1" d="M 406.761719 32.804688 L 409.183594 28.613281 L 411.605469 32.804688 L 406.761719 32.804688 "/>
<path fill-rule="nonzero" fill="rgb(0%, 0%, 0%)" fill-opacity="1" d="M 399.496094 28.613281 L 401.917969 24.417969 L 404.339844 28.613281 L 399.496094 28.613281 "/>
<path fill-rule="nonzero" fill="rgb(0%, 0%, 0%)" fill-opacity="1" d="M 404.339844 28.613281 L 406.761719 24.417969 L 409.183594 28.613281 L 404.339844 28.613281 "/>
<path fill-rule="nonzero" fill="rgb(0%, 0%, 0%)" fill-opacity="1" d="M 401.917969 24.417969 L 404.339844 20.222656 L 406.761719 24.417969 L 401.917969 24.417969 "/>
<path fill-rule="nonzero" fill="rgb(0%, 0%, 0%)" fill-opacity="1" d="M 414.027344 37 L 416.449219 32.804688 L 418.871094 37 L 414.027344 37 "/>
<path fill-rule="nonzero" fill="rgb(0%, 0%, 0%)" fill-opacity="1" d="M 418.871094 37 L 421.292969 32.804688 L 423.714844 37 L 418.871094 37 "/>
<path fill-rule="nonzero" fill="rgb(0%, 0%, 0%)" fill-opacity="1" d="M 416.449219 32.804688 L 418.871094 28.613281 L 421.292969 32.804688 L 416.449219 32.804688 "/>
<path fill-rule="nonzero" fill="rgb(0%, 0%, 0%)" fill-opacity="1" d="M 423.714844 37 L 426.136719 32.804688 L 428.558594 37 L 423.714844 37 "/>
<path fill-rule="nonzero" fill="rgb(0%, 0%, 0%)" fill-opacity="1" d="M 428.558594 37 L 430.980469 32.804688 L 433.402344 37 L 428.558594 37 "/>
<path fill-rule="nonzero" fill="rgb(0%, 0%, 0%)" fill-opacity="1" d="M 426.136719 32.804688 L 428.558594 28.613281 L 430.980469 32.804688 L 426.136719 32.804688 "/>
<path fill-rule="nonzero" fill="rgb(0%, 0%, 0%)" fill-opacity="1" d="M 418.871094 28.613281 L 421.292969 24.417969 L 423.714844 28.613281 L 418.871094 28.613281 "/>
<path fill-rule="nonzero" fill="rgb(0%, 0%, 0%)" fill-opacity="1" d="M 423.714844 28.613281 L 426.136719 24.417969 L 428.558594 28.613281 L 423.714844 28.613281 "/>
<path fill-rule="nonzero" fill="rgb(0%, 0%, 0%)" fill-opacity="1" d="M 421.292969 24.417969 L 423.714844 20.222656 L 426.136719 24.417969 L 421.292969 24.417969 "/>
<path fill-rule="nonzero" fill="rgb(0%, 0%, 0%)" fill-opacity="1" d="M 404.339844 20.222656 L 406.761719 16.027344 L 409.183594 20.222656 L 404.339844 20.222656 "/>
<path fill-rule="nonzero" fill="rgb(0%, 0%, 0%)" fill-opacity="1" d="M 409.183594 20.222656 L 411.605469 16.027344 L 414.027344 20.222656 L 409.183594 20.222656 "/>
<path fill-rule="nonzero" fill="rgb(0%, 0%, 0%)" fill-opacity="1" d="M 406.761719 16.027344 L 409.183594 11.832031 L 411.605469 16.027344 L 406.761719 16.027344 "/>
<path fill-rule="nonzero" fill="rgb(0%, 0%, 0%)" fill-opacity="1" d="M 414.027344 20.222656 L 416.449219 16.027344 L 418.871094 20.222656 L 414.027344 20.222656 "/>
<path fill-rule="nonzero" fill="rgb(0%, 0%, 0%)" fill-opacity="1" d="M 418.871094 20.222656 L 421.292969 16.027344 L 423.714844 20.222656 L 418.871094 20.222656 "/>
<path fill-rule="nonzero" fill="rgb(0%, 0%, 0%)" fill-opacity="1" d="M 416.449219 16.027344 L 418.871094 11.832031 L 421.292969 16.027344 L 416.449219 16.027344 "/>
<path fill-rule="nonzero" fill="rgb(0%, 0%, 0%)" fill-opacity="1" d="M 409.183594 11.832031 L 411.605469 7.636719 L 414.027344 11.832031 L 409.183594 11.832031 "/>
<path fill-rule="nonzero" fill="rgb(0%, 0%, 0%)" fill-opacity="1" d="M 414.027344 11.832031 L 416.449219 7.636719 L 418.871094 11.832031 L 414.027344 11.832031 "/>
<path fill-rule="nonzero" fill="rgb(0%, 0%, 0%)" fill-opacity="1" d="M 411.605469 7.636719 L 414.027344 3.441406 L 416.449219 7.636719 L 411.605469 7.636719 "/>
</svg>
