<?xml version="1.0" encoding="UTF-8"?>
<svg xmlns="http://www.w3.org/2000/svg" xmlns:xlink="http://www.w3.org/1999/xlink" width="163" height="192" viewBox="0 0 163 192">
<path fill-rule="evenodd" fill="rgb(67.286682%, 67.019653%, 78.85437%)" fill-opacity="1" stroke-width="5.625" stroke-linecap="butt" stroke-linejoin="miter" stroke="rgb(13.729858%, 12.159729%, 12.548828%)" stroke-opacity="1" stroke-miterlimit="4" d="M 791.679688 954.765625 L 1485.820312 1222.148438 L 1545.3125 684.882812 Z M 791.679688 954.765625 " transform="matrix(0.1, 0, 0, -0.1, 0, 192)"/>
<path fill-rule="evenodd" fill="rgb(79.690552%, 44.14978%, 31.994629%)" fill-opacity="1" stroke-width="5.625" stroke-linecap="butt" stroke-linejoin="miter" stroke="rgb(13.729858%, 12.159729%, 12.548828%)" stroke-opacity="1" stroke-miterlimit="4" d="M 791.679688 954.765625 L 1281.210938 1520.78125 L 1485.820312 1222.148438 Z M 791.679688 954.765625 " transform="matrix(0.1, 0, 0, -0.1, 0, 192)"/>
<path fill-rule="evenodd" fill="rgb(92.683411%, 87.132263%, 50.85144%)" fill-opacity="1" stroke-width="5.625" stroke-linecap="butt" stroke-linejoin="miter" stroke="rgb(13.729858%, 12.159729%, 12.548828%)" stroke-opacity="1" stroke-miterlimit="4" d="M 1281.210938 1520.78125 L 1485.820312 1222.148438 L 1545.3125 684.882812 Z M 1281.210938 1520.78125 " transform="matrix(0.1, 0, 0, -0.1, 0, 192)"/>
<path fill-rule="evenodd" fill="rgb(61.386108%, 43.832397%, 53.536987%)" fill-opacity="1" stroke-width="5.625" stroke-linecap="butt" stroke-linejoin="miter" stroke="rgb(13.729858%, 12.159729%, 12.548828%)" stroke-opacity="1" stroke-miterlimit="4" d="M 791.679688 954.765625 L 1545.3125 684.882812 L 1281.210938 1520.78125 Z M 791.679688 954.765625 " transform="matrix(0.1, 0, 0, -0.1, 0, 192)"/>
<path fill-rule="evenodd" fill="rgb(67.286682%, 67.019653%, 78.85437%)" fill-opacity="1" stroke-width="5.625" stroke-linecap="butt" stroke-linejoin="miter" stroke="rgb(13.729858%, 12.159729%, 12.548828%)" stroke-opacity="1" stroke-miterlimit="4" d="M 17.929688 656.679688 L 791.679688 954.765625 L 774.570312 354.101562 Z M 17.929688 656.679688 " transform="matrix(0.1, 0, 0, -0.1, 0, 192)"/>
<path fill-rule="evenodd" fill="rgb(79.690552%, 44.14978%, 31.994629%)" fill-opacity="1" stroke-width="5.625" stroke-linecap="butt" stroke-linejoin="miter" stroke="rgb(13.729858%, 12.159729%, 12.548828%)" stroke-opacity="1" stroke-miterlimit="4" d="M 17.929688 656.679688 L 484.6875 1237.03125 L 791.679688 954.765625 Z M 17.929688 656.679688 " transform="matrix(0.1, 0, 0, -0.1, 0, 192)"/>
<path fill-rule="evenodd" fill="rgb(97.161865%, 89.956665%, 61.509705%)" fill-opacity="1" stroke-width="5.625" stroke-linecap="butt" stroke-linejoin="miter" stroke="rgb(13.729858%, 12.159729%, 12.548828%)" stroke-opacity="1" stroke-miterlimit="4" d="M 484.6875 1237.03125 L 791.679688 954.765625 L 774.570312 354.101562 Z M 484.6875 1237.03125 " transform="matrix(0.1, 0, 0, -0.1, 0, 192)"/>
<path fill-rule="evenodd" fill="rgb(67.286682%, 67.019653%, 78.85437%)" fill-opacity="1" stroke-width="5.625" stroke-linecap="butt" stroke-linejoin="miter" stroke="rgb(13.729858%, 12.159729%, 12.548828%)" stroke-opacity="1" stroke-miterlimit="4" d="M 774.570312 354.101562 L 1545.3125 684.882812 L 1619.414062 16.210938 Z M 774.570312 354.101562 " transform="matrix(0.1, 0, 0, -0.1, 0, 192)"/>
<path fill-rule="evenodd" fill="rgb(79.06189%, 40.010071%, 25.062561%)" fill-opacity="1" stroke-width="5.625" stroke-linecap="butt" stroke-linejoin="miter" stroke="rgb(13.729858%, 12.159729%, 12.548828%)" stroke-opacity="1" stroke-miterlimit="4" d="M 774.570312 354.101562 L 1323.515625 946.875 L 1545.3125 684.882812 Z M 774.570312 354.101562 " transform="matrix(0.1, 0, 0, -0.1, 0, 192)"/>
<path fill-rule="evenodd" fill="rgb(92.683411%, 87.132263%, 50.85144%)" fill-opacity="1" stroke-width="5.625" stroke-linecap="butt" stroke-linejoin="miter" stroke="rgb(13.729858%, 12.159729%, 12.548828%)" stroke-opacity="1" stroke-miterlimit="4" d="M 1323.515625 946.875 L 1545.3125 684.882812 L 1619.414062 16.210938 Z M 1323.515625 946.875 " transform="matrix(0.1, 0, 0, -0.1, 0, 192)"/>
<path fill-rule="evenodd" fill="rgb(60.012817%, 42.3172%, 52.560425%)" fill-opacity="1" stroke-width="5.625" stroke-linecap="butt" stroke-linejoin="miter" stroke="rgb(13.729858%, 12.159729%, 12.548828%)" stroke-opacity="1" stroke-miterlimit="4" d="M 17.929688 656.679688 L 774.570312 354.101562 L 484.6875 1237.03125 Z M 17.929688 656.679688 " transform="matrix(0.1, 0, 0, -0.1, 0, 192)"/>
<path fill-rule="evenodd" fill="rgb(65.956116%, 68.336487%, 81.343079%)" fill-opacity="1" stroke-width="5.625" stroke-linecap="butt" stroke-linejoin="miter" stroke="rgb(13.729858%, 12.159729%, 12.548828%)" stroke-opacity="1" stroke-miterlimit="4" d="M 484.6875 1237.03125 L 1281.210938 1520.78125 L 1323.515625 946.875 Z M 484.6875 1237.03125 " transform="matrix(0.1, 0, 0, -0.1, 0, 192)"/>
<path fill-rule="evenodd" fill="rgb(79.690552%, 44.14978%, 31.994629%)" fill-opacity="1" stroke-width="5.625" stroke-linecap="butt" stroke-linejoin="miter" stroke="rgb(13.729858%, 12.159729%, 12.548828%)" stroke-opacity="1" stroke-miterlimit="4" d="M 484.6875 1237.03125 L 1019.726562 1902.382812 L 1281.210938 1520.78125 Z M 484.6875 1237.03125 " transform="matrix(0.1, 0, 0, -0.1, 0, 192)"/>
<path fill-rule="evenodd" fill="rgb(92.683411%, 87.132263%, 50.85144%)" fill-opacity="1" stroke-width="5.625" stroke-linecap="butt" stroke-linejoin="miter" stroke="rgb(13.729858%, 12.159729%, 12.548828%)" stroke-opacity="1" stroke-miterlimit="4" d="M 1019.726562 1902.382812 L 1281.210938 1520.78125 L 1323.515625 946.875 Z M 1019.726562 1902.382812 " transform="matrix(0.1, 0, 0, -0.1, 0, 192)"/>
<path fill-rule="evenodd" fill="rgb(60.012817%, 42.3172%, 52.560425%)" fill-opacity="1" stroke-width="5.625" stroke-linecap="butt" stroke-linejoin="miter" stroke="rgb(13.729858%, 12.159729%, 12.548828%)" stroke-opacity="1" stroke-miterlimit="4" d="M 774.570312 354.101562 L 1619.414062 16.210938 L 1323.515625 946.875 Z M 774.570312 354.101562 " transform="matrix(0.1, 0, 0, -0.1, 0, 192)"/>
<path fill-rule="evenodd" fill="rgb(60.012817%, 42.3172%, 52.560425%)" fill-opacity="1" stroke-width="5.625" stroke-linecap="butt" stroke-linejoin="miter" stroke="rgb(13.729858%, 12.159729%, 12.548828%)" stroke-opacity="1" stroke-miterlimit="4" d="M 484.6875 1237.03125 L 1323.515625 946.875 L 1019.726562 1902.382812 Z M 484.6875 1237.03125 " transform="matrix(0.1, 0, 0, -0.1, 0, 192)"/>
</svg>
